<svg xmlns="http://www.w3.org/2000/svg" width="149" height="90" viewBox="0 0 149 90" fill="none">
<path fill-rule="evenodd" clip-rule="evenodd" d="M168.052 5.17603C168.014 5.17168 168.027 5.05284 168.031 5.0427C168.04 5.01951 167.779 4.84994 168.06 4.99342C168.066 4.99631 168.268 5.20212 168.052 5.17458V5.17603ZM156.272 16.7313C156.357 16.6574 156.304 16.6574 156.462 16.5835C156.688 16.4792 156.514 16.5545 156.721 16.5067C156.451 16.8748 156.802 16.6632 156.272 16.7313ZM155.711 17.2922C155.835 16.9574 155.47 17.1169 156.047 17.0676C156.027 17.085 155.972 17.114 155.989 17.1212L155.711 17.2922ZM155.038 17.7415C155.15 17.4647 154.812 17.5169 155.488 17.5169V17.6285C155.201 17.6285 155.217 17.656 155.038 17.7401V17.7415ZM133.274 27.6142V27.5026L133.405 27.5968L133.274 27.6156V27.6142ZM133.163 46.574C133.177 45.8943 133.938 44.3508 134.286 43.658C134.465 43.2986 134.532 43.0232 134.755 42.6696C135.351 41.7246 135.858 40.571 136.821 39.1246C137.039 38.7956 137.157 38.6477 137.381 38.339L139.783 35.1303C139.926 34.9361 139.916 34.9535 140.092 34.7665L144.748 29.5504C144.858 29.42 144.958 29.3374 145.083 29.2128L148.674 25.7373C149.18 25.2822 149.569 24.7866 150.074 24.3315L151.563 23.0141C151.998 22.6981 152.634 21.9141 153.134 21.7807C153.008 22.2546 151.199 24.3721 150.751 24.8953L149.499 26.4475C149.356 26.6388 149.324 26.6402 149.179 26.8011C147.761 28.3649 145.037 32.0476 143.57 33.7578L141.213 36.3375C141.082 36.4694 140.997 36.5361 140.876 36.6723L135.184 44.3319C135.042 44.5261 135.05 44.5102 134.874 44.6942L133.164 46.574H133.163ZM118.354 62.7294C118.354 61.1337 119.662 57.5177 120.41 56.0351L122.578 51.8089C122.893 51.2277 123.303 50.861 123.693 50.3436C123.932 50.0262 124.038 49.9596 124.254 49.6712C124.412 49.461 124.386 49.4871 124.551 49.2943C124.716 49.1001 124.703 49.0827 124.839 48.9103L131.674 40.6C131.838 40.4072 131.77 40.4463 131.907 40.2724L142.334 28.3736C142.544 28.1635 142.77 27.9707 142.942 27.749C143.811 26.6388 145.595 24.8851 146.706 23.8837C148.058 22.6677 150.302 21.0024 151.783 20.0981C152.221 19.8314 152.224 19.6386 152.389 19.4705L153.763 18.4879C154.525 17.9111 154.36 17.9777 154.812 17.9676C154.643 18.2198 154.477 18.3951 154.206 18.5952C153.883 18.8343 153.825 18.9372 153.533 19.156L152.14 20.343C150.13 21.9199 145.969 26.0852 144.293 27.7548L142.163 29.9997C141.992 30.2041 142.051 30.1867 141.88 30.391C141.479 30.8708 141.302 30.8998 140.696 31.6751C140.503 31.9201 140.297 32.0606 140.084 32.2983C139.897 32.5056 139.945 32.4983 139.797 32.6853L138.674 34.0303C138.548 34.1897 138.5 34.21 138.363 34.3926L133.223 42.042C131.168 45.4247 127.271 50.177 124.787 53.9133L119.627 61.4323C119.075 62.1743 119.045 62.3656 118.346 62.7323L118.354 62.7294ZM109.714 62.954C109.73 62.2091 110.761 60.8699 111.136 60.225C111.884 58.9395 114.294 55.2524 115.293 53.9481L117.052 51.5552C117.243 51.3045 117.301 51.2697 117.503 50.9958L121.242 46.432C121.52 46.1522 121.519 46.0914 121.749 45.816L122.755 44.6899C122.939 44.4971 123.072 44.3783 123.264 44.1884L131.506 35.7143C131.764 35.468 131.87 35.4607 132.128 35.2143C132.49 34.8694 132.764 34.5332 133.134 34.1998C133.378 33.9795 133.451 33.9911 133.699 33.7549L135.407 32.2099C135.671 32.0186 135.697 31.9505 135.939 31.7317L137.679 30.3302C138.395 29.7157 140.811 27.7765 141.466 27.7229L122.983 48.8436C122.638 49.2248 122.326 49.5827 122.012 50.0045L118.604 53.8901C118.358 54.1481 118.351 54.2539 118.104 54.5118L115.578 57.1467C114.469 58.4684 113.156 59.6801 111.932 60.9047C111.565 61.2714 111.245 61.6308 110.866 61.9714C110.621 62.1917 110.549 62.1787 110.301 62.4163C110.056 62.6511 109.992 62.7656 109.714 62.9511V62.954ZM76.7309 63.1787V63.0671L76.8614 63.1598L76.7309 63.1787ZM76.7309 63.1787V63.2903L76.6005 63.1961L76.7309 63.1772V63.1787ZM103.881 27.9504C104.637 27.9504 105.478 27.9562 106.198 27.7997C106.798 27.6692 106.894 27.3779 107.023 26.8287L106.853 26.662C106.347 26.2272 105.814 26.1069 105.158 25.8895C102.82 25.1127 101.4 24.3402 99.3198 23.3126C97.6531 22.4894 95.8284 20.9256 94.9791 19.2386C94.5762 18.4372 94.4574 18.1125 94.4574 16.956C94.9965 17.0821 95.3183 17.3487 95.6922 17.6285C95.9154 17.7951 96.0284 17.9125 96.2531 18.0777C96.498 18.2589 96.5647 18.3662 96.7936 18.5473C97.8966 19.4184 98.7647 20.5213 99.9111 21.3764C100.159 21.5619 100.202 21.6604 100.45 21.8474C105.094 25.3576 109.908 26.9707 115.767 27.6229C117.865 27.8562 121.094 28.0736 123.206 27.7504L126.8 27.3055C130.002 26.7692 133.049 25.7562 136.039 24.5402C137.428 23.975 138.79 23.3257 139.993 22.4358C140.528 22.0402 140.554 21.8604 140.909 21.3314C140.368 20.9691 140.247 20.8764 139.339 20.8807C137.516 20.8908 134.987 21.0735 133.289 20.8735L129.58 20.543C126.758 20.3271 122.096 19.3502 119.438 18.456C118.398 18.1067 117.404 17.8372 116.416 17.4386L112.113 15.5704C110.336 14.682 108.648 13.6965 107.004 12.6023C104.968 11.2443 103.195 9.63554 101.388 8.00942C101.02 7.67898 100.763 7.31231 100.363 7.0152C99.914 6.68186 99.6966 6.42823 99.314 6.04416C98.2618 4.99052 95.8081 3.23686 95.8081 1.36001C97.9125 1.53537 101.694 5.01081 103.372 6.24996C104.178 6.84418 105.098 7.4268 105.569 8.31667L105.124 8.44276C105.365 8.79494 105.462 8.82393 105.811 9.08335C108.624 11.1776 106.484 8.63842 110.187 11.4399C117.769 17.1763 127.091 20.3213 136.645 20.3213C138.77 20.3213 141.031 19.9676 142.606 19.4386C146.906 17.9922 151.093 15.2748 154.618 12.4907C154.896 12.2704 155.179 11.7602 155.38 11.4588C153.882 10.7399 151.39 10.6037 149.663 10.4457C147.831 10.2776 145.614 9.72105 144.064 9.20074L142.24 8.55726C141.937 8.45146 141.899 8.40218 141.618 8.28189L140.461 7.75579C140.237 7.65434 140.079 7.61666 139.824 7.49637C138.55 6.89056 135.951 5.94706 135.026 5.00066C134.858 4.82819 134.941 4.97457 134.851 4.72674C135.373 4.73833 139.266 6.46011 140.197 6.89635C141.408 7.46158 142.619 7.85869 143.867 8.27465C144.556 8.50364 145.115 8.72683 145.821 8.90075L147.887 9.41525C148.632 9.59786 149.248 9.68192 150.06 9.8225C150.864 9.96309 153.933 10.2848 154.637 10.1602C155.322 10.037 155.675 10.1312 156.943 9.87903C160.369 9.19785 162.117 8.42972 164.85 6.34272C165.891 5.5485 165.715 5.92242 167.273 6.74707C166.76 7.71666 165.76 8.08188 165.001 8.85002C164.515 9.34133 163.868 9.77322 163.459 10.337L159.824 14.1066C159.475 14.3675 159.353 14.498 158.994 14.7342C157.878 15.4719 157.457 15.9023 156.243 16.4705C156.011 16.5792 155.563 16.8966 155.363 17.0502L151.754 19.3879C150.769 19.8705 149.918 20.5358 149.008 21.1285C146.864 22.5271 147.183 21.717 144.947 23.0126C144.07 23.5213 141.021 25.4533 140.161 25.7446C139.741 25.8881 139.303 25.9315 138.777 25.9315C138.815 25.4866 138.964 25.2547 139.002 24.8098C138.555 24.7721 138.732 24.6982 138.441 24.6982C137.537 24.6982 136.216 25.1576 135.454 25.4127C134.441 25.7504 133.709 26.1112 132.629 26.4026C130.661 26.933 128.423 27.3026 126.371 27.662C120.88 28.6229 115.469 30.1447 110.394 32.4404L103.731 35.3143C100.511 36.5999 92.4718 39.1811 89.4152 37.7144C89.8805 36.8347 91.0892 36.3738 91.995 35.9187L96.6357 33.9404C103.029 31.8215 105.889 31.3853 112.684 30.0186C113.353 29.8838 113.93 29.8026 114.532 29.6229C115.303 29.391 115.456 29.3881 115.891 28.7388C114.856 28.0461 113.336 28.2896 111.74 28.2896C108.623 28.2896 104.391 28.4127 101.414 28.2939C100.918 28.2736 100.892 28.1751 100.3 28.1751C99.5459 28.1736 98.7111 28.2635 97.985 28.133C96.4502 27.8562 93.1544 28.0982 91.4776 27.7968L89.3022 27.6171C88.95 27.591 88.5326 27.6359 88.1761 27.6214C87.2181 27.5837 86.0239 27.3852 84.9253 27.3939C84.3731 27.3982 84.2818 27.333 83.9079 27.2895C83.5267 27.2446 83.0658 27.3113 82.6818 27.2823C82.0513 27.2345 81.2382 27.0576 80.5513 27.0576C80.8426 26.6229 80.889 26.6823 81.5136 26.562C82.2426 26.4228 84.5905 26.2591 84.5905 25.1504C84.5905 24.7127 82.8716 23.8025 82.4832 23.5561C79.5614 21.7039 76.6555 19.8155 74.4106 17.156C74.2425 16.9574 74.2961 16.9719 74.1265 16.7676C73.4424 15.9458 72.6076 14.9327 72.296 13.8849C72.1902 13.5284 72.2946 13.5849 72.1381 13.2574C72.6497 13.2574 72.8714 13.34 73.17 13.5719L85.8441 24.1199C88.4891 26.2243 89.5732 26.5678 93.34 26.833C96.3313 27.0432 101.231 27.9548 103.887 27.9548L103.881 27.9504ZM70.4482 62.3932L71.2786 61.7642C72.3265 60.9946 77.6904 57.909 79.0513 57.1959L80.0614 56.6351C80.3252 56.4974 80.344 56.4553 80.5484 56.3365C80.7295 56.2307 80.8527 56.1887 81.0716 56.0742C81.4614 55.8698 81.6528 55.722 82.0803 55.5119L85.0572 53.8886C85.4166 53.6625 85.6818 53.5437 86.0833 53.3437C86.4862 53.1422 86.6123 53.0191 87.0152 52.8176L90.0834 51.1741C92.6052 49.9262 95.6516 48.1537 98.1603 46.9102C99.5705 46.2117 100.9 45.4841 102.311 44.7783L120.71 35.4665C121.065 35.2897 121.371 35.1375 121.758 34.9433L124.861 33.4476C125.557 33.0998 126.297 32.7853 126.993 32.4375L135.632 28.6229C135.305 29.0707 123.129 36.6129 121.99 37.3071L111.13 44.1725C110.429 44.6 109.861 44.9392 109.178 45.3624C107.862 46.1769 106.616 46.9479 105.266 47.7334L100.404 50.5002C100.047 50.6799 99.7734 50.8697 99.3937 51.061L91.2414 55.2495C90.7863 55.4423 90.5834 55.5234 90.1573 55.7365C88.079 56.78 82.4789 59.0829 80.3078 59.7989L75.6323 61.2931C74.4454 61.6149 71.6163 62.3932 70.4496 62.3932H70.4482ZM70.4482 62.3932V62.5047L70.3177 62.412L70.4482 62.3932ZM89.2964 47.3595C91.4153 47.3595 92.3602 46.9117 93.9168 46.4827C94.269 46.3856 95.1965 46.2464 95.5791 46.2377C95.4965 46.5493 95.5284 46.5059 95.2675 46.7117C94.2211 47.5349 93.3008 47.3015 91.6283 47.5595L89.9703 47.6957C90.4355 48.3305 91.5819 48.145 92.3269 48.145C92.2298 48.5103 92.1182 48.5132 91.9022 48.6175C91.679 48.7248 92.1704 48.7059 91.5414 48.7059C90.824 48.7059 90.5529 48.5262 89.9689 48.4842L86.4934 48.3697C86.1775 48.3697 86.2862 48.4175 86.1572 48.5943C86.7804 48.6465 87.3108 48.9929 88.0645 49.0422C88.5732 49.0755 88.8094 49.1277 89.1862 49.1538C89.6993 49.19 89.9167 49.2335 90.308 49.2668C89.1558 50.9871 86.463 49.7161 83.576 49.7161C83.7905 50.0364 83.7789 50.0639 84.2035 50.2103L84.8485 50.4625C85.134 50.6422 84.8644 50.4654 85.034 50.6132C82.6049 50.6668 83.3731 51.2422 82.1629 51.0176L79.0759 50.6262C74.5222 50.0204 71.1134 48.8987 66.9046 47.203L63.3814 45.4537C63.819 44.8566 64.6307 45.3203 66.3017 45.3377C66.7916 45.3435 66.7568 45.4058 67.093 45.445L70.4496 45.6783C70.8801 45.7088 70.7395 45.7769 71.2308 45.7943L83.4644 46.9117C83.8456 46.9378 83.9267 46.9146 84.2934 46.9798L89.2964 47.361V47.3595ZM61.1364 62.5047V62.3932L61.2668 62.4859L61.1364 62.5047ZM61.1364 81.6892C61.4161 80.4892 64.8698 75.5891 65.8205 74.4818C66.151 74.0977 66.3901 73.7427 66.7177 73.36L71.4294 68.086C71.7931 67.7222 72.0772 67.4411 72.4381 67.0759C72.8178 66.6918 73.1105 66.5208 73.5033 66.1222L75.1381 64.728C75.312 64.5889 75.5541 64.4091 75.7193 64.299C75.8207 64.5033 75.8063 64.4396 75.8309 64.7483C76.199 64.6497 76.9295 64.0425 77.2063 63.7671C77.486 63.4888 77.5469 63.4903 77.8222 63.2598C78.2933 62.8656 78.3802 62.6149 79.0397 62.1221C79.6788 61.6453 80.1759 60.9337 81.5528 60.9337C81.4643 61.1004 81.2455 61.6381 81.1209 61.7366C80.8788 61.9265 81.018 61.7613 80.7107 61.8873L76.028 65.6179C75.7425 65.9092 75.6294 65.928 75.3526 66.1758C75.0859 66.4164 74.9671 66.6092 74.6642 66.8338C74.1294 67.2309 73.7932 67.6266 73.3366 68.086L71.9888 69.3194C71.5366 69.7716 71.1322 70.1484 70.696 70.6064L69.4641 71.9557C69.2539 72.1658 69.0279 72.3586 68.8554 72.5803L67.6626 73.9673C67.4539 74.234 67.2162 74.3891 66.9974 74.6485C66.838 74.8383 66.8988 74.805 66.764 74.976L62.3364 80.3095C62.0422 80.6645 61.4494 81.4747 61.1335 81.6863L61.1364 81.6892ZM61.1364 62.5047V62.6163L61.0059 62.5221L61.1364 62.5033V62.5047ZM61.1364 81.6892V81.8008L61.0059 81.7066L61.1364 81.6878V81.6892ZM59.0045 62.1685L59.0378 62.1352C59.0349 62.1381 59.016 62.1801 59.0045 62.1685ZM56.5363 64.0758C56.5957 63.3569 57.0421 63.4714 58.2653 63.2251L60.4625 62.8424C60.1233 63.3048 57.0595 64.0091 56.5363 64.0758ZM47.7854 76.4166C47.9926 76.0253 47.9144 75.9007 48.4579 75.8557C48.3868 75.9905 48.3622 76.1079 48.255 76.2137C48.068 76.3963 47.9521 76.3413 47.7839 76.4166H47.7854ZM46.8883 77.2022C46.9999 76.7819 47.1288 76.7413 47.5607 76.6413C47.539 76.6746 47.3477 76.9674 47.3375 76.979C47.1086 77.2224 47.139 77.0906 46.8883 77.2022ZM44.7563 77.763V77.6514C45.3737 77.6514 45.2462 77.2239 45.3172 77.8761C45.0476 77.7471 45.1708 77.7645 44.7563 77.7645V77.763ZM36.0054 67.5541C36.1243 67.4788 36.0083 67.4875 36.2388 67.4498C36.3359 67.4338 36.4678 67.4411 36.5663 67.4411V67.5527H36.0054V67.5541ZM34.8837 87.1879C34.8837 86.5067 35.1054 86.298 35.3329 85.8415C36.1243 84.2574 36.5214 83.7748 37.5315 82.4298L38.7808 80.9863C38.9751 80.7892 39.0939 80.6819 39.2896 80.4848L48.2144 72.5818C48.5854 72.2861 48.9115 72.0658 49.3101 71.7702C49.6912 71.4875 49.9651 71.2846 50.3362 71.0006C50.5478 70.8383 50.6318 70.7846 50.8623 70.6296C52.6811 69.3991 55.2232 67.586 57.1349 66.5816C59.0074 65.5976 61.4668 64.128 63.3654 63.3874C64.6133 62.9019 67.7307 61.4091 68.8786 61.383C68.751 61.8627 68.7525 61.5699 67.7104 62.3453C65.8829 63.7077 65.835 63.2961 63.4553 64.4859C59.1943 66.6164 57.7943 68.157 54.6102 70.6745L50.5637 74.1456C50.3014 74.392 50.1985 74.4035 49.9434 74.647C49.7318 74.8485 49.6043 75.0152 49.3869 75.2137C49.1216 75.4557 48.9811 75.4746 48.6825 75.6326C48.839 75.0485 49.0782 75.0702 49.613 74.4325C49.9593 74.0195 50.0449 74.0977 49.8043 73.6137C49.4883 73.6977 49.1709 74.0427 48.7115 74.4282C48.3695 74.7151 48.0289 75.1079 47.6999 75.4369C47.1723 75.9644 46.2738 77.0079 45.5404 77.2036C45.7477 76.8949 45.9491 76.6775 45.9897 76.1934C45.3433 76.3442 44.365 77.3978 44.307 78.1007C43.7882 78.1442 43.6766 78.3659 43.6346 78.8862C44.2143 79.021 44.3839 78.9645 44.5317 78.3254C44.7607 78.3254 44.9549 78.3544 45.1592 78.279L45.9506 77.7239C46.1535 77.6355 46.3462 77.5877 46.552 77.5398C46.3071 77.9051 43.6708 80.1558 43.0288 80.6356L35.7373 86.6937C34.9924 87.2589 35.4083 86.9531 34.8851 87.1864L34.8837 87.1879ZM55.9754 59.3656C55.5392 59.3293 54.4044 58.7279 54.4044 59.254C54.4044 59.6308 57.1696 60.9656 57.7711 61.2714C58.1726 61.4757 58.6624 61.7178 58.8914 62.0584C57.8262 62.0584 56.1638 61.2279 55.1725 60.8409C54.4493 60.5569 52.2174 59.5293 51.5985 59.4786C51.813 60.3975 52.2434 60.3453 53.058 60.712L55.6812 61.9033C56.1189 62.1163 55.9957 62.0105 56.1986 62.3946C55.2797 62.3743 51.6449 61.4178 50.742 61.1192L47.9332 59.8888C47.5636 59.7018 47.4071 59.6192 47.0651 59.4105C46.3245 58.9569 45.5853 58.651 44.5071 57.9293C43.952 57.5568 43.4375 57.2496 42.8911 56.8525L39.8171 54.4292C39.5229 54.2147 39.3852 54.0524 39.1171 53.7828C38.82 53.4843 38.6663 53.4393 38.3837 53.1698L34.188 48.6146L31.6937 45.0508C31.5097 44.7464 31.2662 44.4363 31.1792 44.1073C31.5836 44.2015 33.1329 45.1334 33.5807 45.4073L51.4101 56.2988C51.7101 56.4713 51.9043 56.6133 52.1579 56.7843L53.729 57.7945C54.2913 58.1728 55.6609 58.8974 55.9725 59.3656H55.9754ZM6.50046 69.9107C7.30628 68.8107 13.3122 67.3396 14.6905 66.9932C16.7442 66.4773 19.1544 66.37 21.3109 66.2092C22.0906 66.1512 21.6298 66.0961 22.9936 66.0961C23.7211 66.0961 24.2414 66.0976 24.8124 66.0077L32.1923 65.9831C31.2792 66.7759 30.6952 66.6063 29.3415 66.8338L14.7919 68.8875C14.1644 68.96 13.6383 69.0498 13.1093 69.1121C10.8716 69.3716 8.71355 69.6252 6.50191 69.9093L6.50046 69.9107ZM36.0069 67.5541L32.788 68.5976C30.2734 69.6223 27.9096 70.8542 25.5385 72.118C25.3226 72.2325 24.9951 72.4021 24.7443 72.4571C24.1182 72.5919 24.3791 72.3963 23.8921 72.2658L20.8645 73.8383C20.308 74.163 19.5877 74.6992 18.9558 74.8456L19.0819 75.2905C18.7732 75.3731 18.8022 75.3934 18.5514 75.563C17.2529 76.4413 15.8369 77.0311 14.4282 77.7225C13.5166 78.1703 10.3643 79.6935 9.30777 79.7819C9.65126 79.2689 10.1918 78.9993 10.7208 78.6152C10.9064 78.4804 10.9281 78.4428 11.1006 78.3225C13.0615 76.9514 15.0035 75.5253 17.0847 74.3224L18.7761 73.3209C19.0978 73.1238 19.337 73.0484 19.6674 72.8658C20.0065 72.6789 20.179 72.5499 20.5268 72.3789L30.0778 68.5788C32.1068 67.8295 32.2256 67.1135 33.3923 66.6208C33.9865 66.3686 36.9692 65.5526 37.1315 64.9744C37.3808 64.0917 35.3474 64.3004 34.888 64.3019C32.0068 64.3048 28.0603 62.9048 25.3096 61.9888C22.7269 61.1279 20.2326 60.1772 17.7978 58.9554C17.3949 58.7525 17.221 58.6873 16.7905 58.5047C16.0514 58.1916 15.4775 57.7902 14.8079 57.4583C12.4542 56.293 9.51937 54.5437 7.37295 52.8886C6.37003 52.1161 4.70478 51.161 4.03809 50.1654C4.4526 49.9741 6.428 50.8944 6.8425 51.0639C7.80339 51.4567 8.80051 51.7944 9.75995 52.1857C10.2121 52.3698 10.7832 52.5857 11.2324 52.7321L26.2371 57.809C26.7067 57.9844 27.1676 58.2293 27.7096 58.3554L27.5241 58.5061C27.3908 58.6713 27.4357 58.567 27.3734 58.8032C27.6661 58.8815 27.8183 58.9829 27.9748 59.2815C27.9806 59.2931 27.9908 59.325 27.9951 59.3351L28.0299 59.4308C28.0328 59.4366 28.04 59.4612 28.0473 59.4757C28.5473 59.2366 28.8792 59.3308 29.3111 59.6699C29.785 60.0424 30.8531 60.3482 31.4561 60.554C32.4227 60.8844 33.9228 61.7511 34.8909 61.8308C35.0692 61.5642 35.0271 61.7134 35.1156 61.3815C34.5039 61.2395 34.017 60.9149 33.4489 60.6917C32.8749 60.467 32.3155 60.2424 31.6836 59.9888C31.0401 59.7308 30.5415 59.5699 29.8865 59.3177C29.6256 59.2177 29.3763 58.9945 29.1169 58.9873C28.7169 58.9742 28.3328 59.0713 28.0473 59.138C28.0386 58.7496 27.8879 58.596 28.0864 58.5047C28.5661 58.2844 35.6576 60.6583 36.3127 60.9699C37.3982 61.4844 38.349 62.1424 39.3765 62.7308C41.0548 63.6917 42.2172 64.4106 44.1781 64.8845C46.7288 65.5019 48.1564 65.1584 50.4898 65.1932C51.0086 65.2005 51.0188 65.3092 51.3826 65.3092V65.4208C50.7434 65.4208 45.3114 66.4048 44.1983 66.5396L36.7967 67.328C37.1997 67.328 37.5808 67.1599 37.8895 66.9628C38.1026 66.8266 38.0518 66.9077 38.1432 66.6556C37.1373 66.6556 36.304 66.8121 35.4344 67.0889C35.1011 67.1947 34.9431 67.2962 34.5532 67.3295L36.0112 67.5541H36.0069ZM133.276 27.6142C133.125 28.0316 133.112 27.8736 132.418 28.2142L109.529 39.3188C108.842 39.6623 108.239 39.9637 107.584 40.2912C105.936 41.113 98.8488 45.0537 97.7125 45.229L95.0168 45.4508C94.3835 45.4493 94.3066 45.5682 93.6747 45.5682C93.4313 45.5682 93.1211 45.5464 92.8863 45.5653C92.4457 45.5986 92.6544 45.645 92.2138 45.6783C91.4486 45.7363 90.079 45.7131 89.292 45.6827C86.2311 45.5595 82.2658 45.016 79.1904 44.6783C78.931 44.6493 78.7092 44.6855 78.4382 44.645L71.7946 43.9957C71.5482 43.9783 71.2554 44.0145 71.0091 43.9971C70.5656 43.9652 70.7801 43.916 70.3366 43.8841C69.5293 43.8247 68.3351 43.8638 67.5756 43.7276C67.0597 43.6348 66.7293 43.6725 66.18 43.6652C64.9901 43.6478 63.2495 43.4348 61.9205 43.4362C61.4045 43.4362 60.9973 43.4102 60.5364 43.3768C60.074 43.3435 59.732 43.5696 59.3392 43.6609C59.3392 44.6044 59.4363 44.7232 60.0103 45.1218C62.1712 46.6262 64.7031 47.6407 67.1582 48.632C69.2844 49.49 71.5134 50.0523 73.7236 50.5929L80.7397 52.1045C82.0252 52.3263 83.3513 52.3002 84.9195 52.3002C84.4774 52.9046 80.2121 55.1365 79.602 55.509L75.8294 57.6815C74.2613 58.6119 72.4018 58.825 70.6728 59.2569L66.4003 60.2569C65.0886 60.5163 63.3161 61.254 61.8422 60.567C60.7857 60.0743 59.6349 59.167 58.6001 58.5366L33.9402 43.3681C33.3242 42.9928 32.8604 42.6855 32.3025 42.313C32.0285 42.1304 31.7894 41.9695 31.4937 41.7753C30.2836 40.9739 30.2357 40.7434 28.4879 40.7434C28.4879 41.4304 28.2893 41.3449 28.498 41.9652L31.1358 46.8465C31.372 47.1711 31.5242 47.4059 31.7416 47.6987L35.9764 52.5509L40.8751 56.7394L43.6099 58.6047C45.523 59.8177 47.5361 60.8308 49.7072 61.5946L51.9478 62.383C52.5811 62.5888 53.8464 62.7265 54.1783 63.1816L50.9912 63.5859C49.3014 63.8874 45.7259 63.6352 44.1766 63.0859L41.1389 61.5236C40.936 61.3946 40.7809 61.2728 40.5983 61.167C39.4403 60.4873 38.2519 59.654 36.9968 59.1598C34.8228 58.3032 32.272 57.7235 29.9604 56.9974C29.5053 56.8539 28.9256 56.7235 28.4705 56.58C28.0067 56.4351 27.5792 56.3206 27.098 56.1582C26.5733 55.9814 26.1646 55.8872 25.64 55.709L20.0283 53.9162C18.0674 53.3683 16.3557 52.6872 14.4789 52.0611C14.0412 51.9147 13.6151 51.7799 13.1528 51.5915L9.03385 50.1002C7.43527 49.4769 2.10182 47.2943 0.66701 47.3639C0.135115 47.3899 -0.115615 47.8291 0.0510552 48.4175C0.330771 49.4001 1.96414 50.6074 2.82648 51.2581L10.5005 56.4858C10.7614 56.638 10.8078 56.6858 11.06 56.8235L12.8948 57.7931C14.9688 58.8467 17.0456 59.8859 19.221 60.7786C21.0457 61.5279 22.7602 62.2192 24.6313 62.7729L28.9125 63.9888C29.4604 64.1207 29.9676 64.0946 30.2836 64.5251C29.6111 64.5251 28.9372 64.5251 28.2647 64.5251C27.4603 64.5236 27.0255 64.6396 26.3603 64.6396C25.6864 64.641 25.011 64.6381 24.3371 64.6352C23.6081 64.6323 23.2501 64.7512 22.4312 64.7483C16.2978 64.7338 8.48312 66.6266 3.24677 70.1339C3.24677 70.7267 3.21054 71.0151 3.57722 71.2615C4.37144 71.7933 9.16139 70.989 10.5107 70.7803C14.1702 70.2136 17.9297 69.9107 21.5993 69.3034L24.3371 68.8991C24.2487 69.1455 24.3443 69.0078 24.1617 69.173C23.8718 69.4368 23.4284 69.5353 23.1023 69.6832C21.4877 70.4136 19.7949 71.1238 18.3007 72.0615L7.76281 79.1384C7.54252 79.3225 7.41643 79.4094 7.20193 79.5877C7.0512 79.7124 7.07439 79.7181 6.90047 79.8471C6.46278 80.1761 5.9077 80.6718 5.61784 81.1457C5.14247 81.9254 5.45407 82.0341 5.82364 82.5849C7.97441 82.5849 14.7412 79.1819 17.1543 78.0964L27.7748 72.7861C28.6864 72.331 29.514 71.9165 30.3937 71.4774C30.8836 71.2325 31.2155 71.0788 31.7764 70.8397C32.2807 70.6252 32.6112 70.431 33.1633 70.2078C37.1344 68.6078 42.6041 68.6194 46.8013 67.915C48.1868 67.6831 52.3188 66.6527 53.5043 66.6527C53.3551 67.2135 51.0304 68.5121 50.4941 68.915L48.4825 70.3817C47.6796 71.073 46.7419 71.6354 45.9593 72.3455C44.8331 73.3658 43.1664 74.5833 42.1432 75.5978L40.7997 76.834C40.4403 77.1964 40.1867 77.3297 39.8446 77.6732C39.2214 78.3007 38.6765 78.8442 38.0504 79.4689L37.2663 80.3689C35.6779 82.1341 34.7011 83.2878 33.572 85.5386C33.1677 86.3444 32.7459 87.2038 32.5648 88.1212C32.2691 89.6169 32.9561 90.5387 34.4358 89.6546C34.6561 89.5227 34.7851 89.4546 34.9938 89.314C35.1793 89.1894 35.3286 89.0908 35.533 88.956L41.4171 84.1835C42.5041 83.1965 43.6447 82.2979 44.6694 81.2646L45.6259 80.4254C46.7361 79.3689 49.6477 76.5978 50.7202 75.7601L55.2783 71.5673C56.7508 70.4151 58.1334 69.0831 59.6291 67.9527C59.8537 67.7831 59.9117 67.7049 60.1219 67.5483L62.7784 65.7179C63.8857 65.0787 65.022 64.3874 66.2263 63.8917C67.9365 63.1888 66.7032 64.3773 70.7685 63.7222C71.7308 63.5671 72.87 63.3932 73.8106 63.1743C73.6627 63.7294 72.9497 64.2048 72.5482 64.6048L65.2031 72.405L63.3988 74.7514C62.3074 76.3963 61.1349 77.9674 60.1262 79.6689L58.1769 83.2168C57.7523 84.0646 56.3638 86.511 57.4624 87.2618C58.6711 88.0864 60.9857 84.3588 61.719 83.5066L69.3409 73.9644C71.2554 71.5238 74.8613 67.902 77.0903 65.8961C77.3382 65.6729 77.5222 65.4613 77.7614 65.2207L78.8266 64.2671C79.0353 64.0787 79.0266 64.128 79.2136 63.9801L81.3252 61.9395C81.6049 61.7685 81.8267 61.6018 81.9977 61.2656C82.5803 60.1206 81.8267 60.8699 84.505 59.6221L94.8617 54.8336C95.2067 54.6611 95.4154 54.5582 95.7603 54.3857L98.4908 52.9654C100.905 51.7712 103.22 50.3929 105.513 48.9929L109.777 46.4131C110.369 46.016 110.946 45.7145 111.506 45.3363L115.703 42.6899C116.019 42.4797 116.188 42.3478 116.517 42.158C116.852 41.9652 117.053 41.8246 117.339 41.6333C119.829 39.9623 122.448 38.4564 124.946 36.7868C125.515 36.4071 126.007 36.1201 126.584 35.7317L134.123 30.9302C134.471 30.6968 134.647 30.5113 135.065 30.4142L120.956 44.5768C119.783 45.7363 116.733 49.5987 115.687 50.9755C115.355 51.4118 115.101 51.7683 114.777 52.1973C113.279 54.1756 111.978 56.3655 110.585 58.4394C110.279 58.8945 110.069 59.2728 109.755 59.7409L106.524 64.9236C105.989 65.8019 105.021 66.773 105.95 67.7194C106.195 67.9701 106.678 67.6759 106.817 67.573L108.505 66.2324C109.856 64.8831 111.371 63.7135 112.711 62.3613C113.545 61.5192 115.049 60.2235 115.723 59.3148C116.168 58.7148 116.73 58.3235 117.197 57.7597C118.152 56.6032 117.748 57.7148 117.519 58.6424C117.239 59.7743 117.026 60.7511 116.733 61.896C116.624 62.3221 116.388 63.1294 116.459 63.599C116.856 66.2309 118.688 64.7004 119.725 63.6526C120.717 62.6482 121.5 61.3062 122.251 60.1206L123.417 58.2583C123.58 58.009 123.649 57.9162 123.809 57.6394C125.033 55.5075 126.473 53.5118 127.839 51.461L130.286 47.8494C130.567 47.4639 130.849 46.7899 131.251 46.6827C131.126 46.9436 131.048 47.3798 130.96 47.7378C130.776 48.4813 130.365 49.1624 130.616 50.0103C130.718 50.3538 130.999 50.5031 131.251 50.7219C132.936 49.9132 132.845 49.4581 134.029 48.2276C134.274 47.9726 134.283 47.8711 134.531 47.6073L138.337 42.887C138.66 42.4536 138.953 42.1377 139.283 41.7014L145.808 33.3056C146 33.0824 146.129 32.9099 146.302 32.678L147.227 31.4708C147.422 31.2143 147.527 31.1114 147.724 30.8461L157.137 18.8299C157.346 18.5836 157.33 18.527 157.585 18.2691C157.801 18.0517 157.941 17.9488 158.131 17.6922C158.557 17.1169 158.75 17.1154 159.214 16.6429C159.638 16.2096 159.946 16.1255 160.311 15.6096C161.12 14.4675 160.56 14.5125 162.075 12.9979C162.692 12.3805 163.594 11.3602 164.234 10.8935C165.052 10.2993 165.704 9.53119 166.523 8.91959L170.043 6.04416C171.237 4.82675 168.957 2.90642 167.101 3.32672C166.485 3.4673 166.03 3.67889 165.582 3.93977C165.404 4.04412 165.156 4.18325 164.952 4.31949C164.27 4.77312 163.812 5.30647 163.134 5.75575C161.281 6.98331 159.183 7.71811 157.008 8.26884C155.649 8.61378 152.202 8.48479 150.927 8.26884C150.259 8.1558 149.708 8.09348 149.095 7.96884C148.579 7.86449 147.901 7.73116 147.363 7.56883C145.147 6.90215 143.099 6.23547 140.974 5.31951C139.944 4.87602 139.042 4.45427 138.016 4.01368C135.774 3.0528 133.978 2.02959 131.361 2.02959L131.048 2.39046C131.023 3.09192 131.162 3.37165 131.434 3.86296C131.551 4.07601 131.693 4.29195 131.839 4.46732C131.936 4.58326 131.965 4.59051 132.052 4.7021C132.706 5.52966 133.536 6.24417 134.464 6.77751C136.45 7.92101 140.628 9.78047 142.593 10.4283C144.053 10.9095 145.685 11.2718 147.263 11.5921C147.792 11.6993 148.402 11.7254 149.041 11.8341C149.982 11.9936 151.938 12.0486 152.564 12.3501C152.325 13.2458 148.101 15.4907 146.956 16.0516C144.534 17.24 142.999 18.1763 140.112 18.6328C134.618 19.4995 128.025 18.3691 123.746 16.9357C117.393 14.8081 112.484 11.4559 107.484 7.50652C107.32 7.37753 107.342 7.42246 107.159 7.27028C107.01 7.14709 107.029 7.13838 106.859 7.0094C104.759 5.41226 98.8473 0.183175 96.2444 0.00491005C95.5806 -0.0414677 94.7545 0.246944 94.4748 0.593328C94.0545 1.11218 94.295 1.84407 94.4921 2.43684C94.7284 3.14845 94.9298 3.41947 95.3038 3.98035C96.2371 5.38328 97.5067 6.3746 98.6864 7.55289C98.8995 7.76738 99.0299 7.90217 99.2459 8.11522C99.5256 8.39203 99.6531 8.41378 99.9227 8.67175C100.315 9.04567 100.685 9.51669 101.115 9.83554L102.95 11.4791C103.721 12.2675 104.65 12.9472 105.558 13.5835L109.148 15.8284C114.575 18.9734 122.928 21.4198 129.004 21.8865C130.994 22.0401 131.293 22.1083 133.494 22.1083C134.28 22.1083 135.065 22.1126 135.851 22.1083C136.674 22.1039 137.176 22.2213 138.095 22.2213C137.979 22.5402 137.696 22.601 137.386 22.746C133.941 24.359 127.136 26.4953 123.509 26.4823C122.89 26.4808 122.851 26.5924 122.281 26.6011C118.919 26.6518 115.629 26.4721 112.861 25.9156C110.216 25.3837 107.698 24.5141 105.336 23.3431C104.031 22.6967 102.621 21.859 101.549 20.8474C101.271 20.585 101.131 20.5358 100.873 20.2879L97.1908 17.0154C97.0067 16.8777 96.9879 16.8299 96.8299 16.7038C96.3328 16.3067 93.9139 14.9559 93.2544 15.9748C92.5834 17.0111 93.2791 18.9995 93.7776 19.9807C94.0182 20.4546 94.4269 21.0314 94.7588 21.4677C95.1951 22.0416 95.5023 22.3112 95.9951 22.8112C97.056 23.8851 98.5357 24.5373 99.8749 25.2141L102.104 26.2373C102.427 26.3881 102.327 26.2591 102.417 26.5968L90.5225 25.1402C88.7659 24.6909 87.7311 23.6518 86.392 22.6518L80.2948 17.5299C80.0556 17.343 79.9759 17.1922 79.7092 16.9937L74.1656 12.553C71.4004 10.5732 68.7076 11.7428 72.9569 17.4632C75.0323 20.2575 76.9382 21.1807 79.56 23.201C80.3266 23.7924 81.5991 24.3764 82.1093 25.1388C81.2716 25.1576 80.0759 25.6214 79.2382 25.8576C78.5338 26.0562 77.8889 26.233 77.3034 26.6156C76.428 27.1881 77.0208 27.9171 77.9092 28.1069L82.5557 28.6214C82.9064 28.6359 83.3311 28.5852 83.6731 28.6258C84.9267 28.7722 86.2311 28.7823 87.6123 28.8374L89.5167 28.9519C90.2544 28.949 90.6892 29.062 91.537 29.062C92.0544 29.062 92.0907 29.1273 92.4399 29.1693L97.369 29.4012C98.1067 29.3968 98.5401 29.5157 99.3865 29.5142C101.405 29.5128 103.502 29.7823 105.558 29.6273C106.382 29.5649 106.55 29.4142 107.465 29.6273V29.8519C106.552 29.8519 103.82 30.5403 102.978 30.7505C102.608 30.8432 102.265 30.8882 101.876 30.994C99.4546 31.6534 97.0777 32.3505 94.7414 33.2824C93.0878 33.9418 88.7645 35.697 87.9369 37.2492C87.7703 37.5608 87.8123 38.0086 88.0138 38.3071C89.5225 40.5666 98.2893 38.3361 100.272 37.6912C101.614 37.255 102.863 36.7419 104.176 36.2115C108.685 34.3911 113.101 32.4418 117.716 30.9026C118.429 30.665 119.038 30.4635 119.783 30.2766C123.409 29.3664 127.41 28.9287 131.091 28.1229C131.778 27.9722 132.626 27.6606 133.268 27.6069L133.276 27.6142Z" fill="#462C1F" fill-opacity="0.8"/>
<path fill-rule="evenodd" clip-rule="evenodd" d="M94.1182 51.6219V51.7335L93.9878 51.6407L94.1182 51.6219ZM93.4457 52.1828V52.0712L93.5762 52.1639L93.4457 52.1828ZM93.4457 52.1828C92.766 53.1973 89.8152 54.1278 89.1819 55.3234C89.5413 55.2394 89.7036 55.1133 90.0645 54.9712C91.179 54.535 94.311 52.8161 94.9226 51.8639C95.1603 51.4944 94.8472 51.7147 95.182 51.4509C95.4574 51.2335 95.2501 51.619 95.5777 51.1726C95.411 51.1335 95.3168 51.0958 95.2472 51.1103C95.2313 51.1132 95.2009 51.1262 95.1849 51.132C95.0675 51.177 94.7762 51.5668 94.1182 51.6219L95.6893 50.0509C94.8921 50.1175 90.0196 53.4509 89.0457 54.0654C88.2427 54.5727 88.3703 54.6857 88.0152 54.8292C87.95 54.8553 87.2529 54.9031 87.05 55.6597C88.2036 55.3915 88.1442 55.022 88.663 54.8046C90.3674 54.0872 92.4428 52.4161 93.4443 52.1813L93.4457 52.1828Z" fill="#462C1F" fill-opacity="0.8"/>
<path fill-rule="evenodd" clip-rule="evenodd" d="M46.5506 54.9885C45.9216 54.0479 42.4752 52.1377 41.1432 51.3087C40.6577 51.0058 40.2113 50.7812 39.7302 50.4783C39.4606 50.3087 39.2852 50.2493 38.9954 50.0899L35.1069 48.1435C35.2156 48.5493 35.2938 48.5159 35.6199 48.7522L40.4012 51.9363C41.407 52.5595 45.41 54.8929 46.5492 54.9871L46.5506 54.9885Z" fill="#462C1F" fill-opacity="0.8"/>
<path fill-rule="evenodd" clip-rule="evenodd" d="M106.347 32.1014C105.555 32.5203 105.805 32.8348 103.995 32.6492C103.142 32.5623 102.481 32.7319 101.747 33.2232C101.802 33.729 102.347 33.5536 101.337 34.0478C100.94 34.242 100.521 34.3652 100.288 34.6826C101.365 34.6826 103.188 33.9493 104.179 33.5246L106.234 32.5507L106.346 32.1014H106.347Z" fill="#462C1F" fill-opacity="0.8"/>
<path fill-rule="evenodd" clip-rule="evenodd" d="M106.571 45.4523V45.3407H106.907V45.4523H106.571ZM105.561 45.9016C105.978 45.8045 106.065 45.6885 106.571 45.6769L106.514 46.2378C106.804 46.0813 106.781 46.1059 106.974 45.8552C107.445 45.245 108.497 44.6523 109.219 44.1725C109.884 43.7305 109.93 43.8291 110.049 43.3203C110.637 43.3073 110.933 43.1189 111.059 42.6479C110.727 42.8073 110.574 42.7087 110.269 42.8682C109.958 43.0305 110.053 43.1377 109.588 43.3102C107.281 44.1653 106.794 44.9392 106.524 45.0537L106.281 45.1001C105.771 45.2769 105.74 45.4247 105.674 45.6784L105.229 45.5523C105.333 45.7146 105.197 45.5697 105.379 45.7465C105.392 45.7595 105.424 45.7871 105.437 45.8001C105.45 45.8131 105.485 45.8421 105.497 45.8523C105.508 45.8624 105.537 45.8871 105.559 45.9016H105.561Z" fill="#462C1F" fill-opacity="0.8"/>
<path fill-rule="evenodd" clip-rule="evenodd" d="M44.4187 55.2119C44.1578 54.8221 43.5882 54.4713 43.1853 54.2017C42.9433 54.0409 42.7505 53.9438 42.4882 53.7771C40.9635 52.8104 40.3012 52.3901 38.6982 51.622C39.0258 52.8481 42.9172 55.0873 44.4201 55.2119H44.4187Z" fill="#462C1F" fill-opacity="0.8"/>
<path fill-rule="evenodd" clip-rule="evenodd" d="M82.4514 23.1256C82.6558 23.1256 82.463 23.1329 82.676 23.0141C82.4471 22.1561 81.163 21.2111 80.7948 20.856C79.9354 20.0285 79.3122 19.7343 78.3006 19.1995C78.4673 19.8212 79.6441 20.8227 80.1803 21.3575L81.2441 22.3126C81.5528 22.5778 82.147 23.1256 82.4514 23.1256Z" fill="#462C1F" fill-opacity="0.8"/>
<path fill-rule="evenodd" clip-rule="evenodd" d="M109.713 12.6921C109.226 11.9646 104.984 9.39932 104.104 9.32686C104.401 9.77034 104.804 10.1008 105.245 10.4298C105.653 10.737 106.146 11.0979 106.574 11.3443C107.365 11.7979 108.881 12.6226 109.713 12.6921Z" fill="#462C1F" fill-opacity="0.8"/>
<path fill-rule="evenodd" clip-rule="evenodd" d="M18.2775 56.4468C17.876 55.8989 13.8484 54.7105 12.989 54.4337C12.46 54.2641 12.7281 54.4134 12.1078 54.4264C12.7064 55.2439 16.663 56.4105 18.2775 56.4453V56.4468Z" fill="#462C1F" fill-opacity="0.8"/>
<path fill-rule="evenodd" clip-rule="evenodd" d="M29.7211 61.0466C29.8545 61.5466 29.5965 61.2075 30.998 61.6771L33.914 62.5757C35.0836 62.9699 34.6676 62.7467 35.443 62.7293C35.0444 62.1858 33.3285 61.7887 32.4835 61.5379C31.9038 61.3655 31.4081 61.1988 30.8429 61.0466C29.5211 60.6916 30.0733 60.9365 29.6762 60.851C29.195 60.7466 29.9081 60.5698 28.824 60.8234L29.7211 61.0481V61.0466Z" fill="#462C1F" fill-opacity="0.8"/>
<path fill-rule="evenodd" clip-rule="evenodd" d="M101.411 23.7998C101.117 23.3607 100.308 22.6766 99.8619 22.3201C99.1488 21.7519 97.527 20.6258 96.6995 20.4331C96.8227 20.6171 96.9531 20.8635 97.1169 21.0258C97.3401 21.2476 97.4285 21.2258 97.6835 21.4679C98.5154 22.2606 100.276 23.7041 101.411 23.7984V23.7998Z" fill="#462C1F" fill-opacity="0.8"/>
<path fill-rule="evenodd" clip-rule="evenodd" d="M125.419 44.555C124.655 45.0666 122.044 47.787 121.829 48.5942C122.741 48.1116 123.222 47.587 123.933 46.8841C124.368 46.4536 125.361 45.2536 125.419 44.555Z" fill="#462C1F" fill-opacity="0.8"/>
<path fill-rule="evenodd" clip-rule="evenodd" d="M125.868 51.5103C126.22 51.2523 125.942 51.4624 126.186 51.1552C126.625 50.6044 127.487 49.803 127.957 49.0001C128.231 48.5319 128.145 48.2044 128.335 47.8087C127.945 47.9131 128.113 47.8913 127.903 48.1624L126.849 49.4653C126.671 49.6725 126.675 49.7102 126.509 49.9102L125.819 50.7899C125.549 51.1407 125.57 50.9276 125.531 51.3987C125.732 51.4523 125.731 51.416 125.867 51.5103H125.868Z" fill="#462C1F" fill-opacity="0.8"/>
<path fill-rule="evenodd" clip-rule="evenodd" d="M146.624 20.7706L142.534 22.962C142.521 22.9721 142.493 22.9968 142.473 23.0142C143.722 23.0142 145.568 22.2881 146.29 21.3344C146.492 21.0677 146.532 21.1098 146.624 20.7706Z" fill="#462C1F" fill-opacity="0.8"/>
<path fill-rule="evenodd" clip-rule="evenodd" d="M102.308 48.0321C101.93 48.1205 101.73 48.2959 101.414 48.4843C101.12 48.6597 100.801 48.8249 100.491 49.0191C100.121 49.2496 98.914 49.8959 98.7183 50.1641C99.9995 50.1351 101.688 49.2046 102.308 48.0321Z" fill="#462C1F" fill-opacity="0.8"/>
<path fill-rule="evenodd" clip-rule="evenodd" d="M117.678 17.1807C117.483 16.6401 117.88 17.0821 116.971 16.7662C115.185 16.1473 114.945 15.5951 114.762 16.2821C115.794 16.3053 114.506 16.2357 116.072 16.8792C116.701 17.1372 117.24 16.9705 117.678 17.1807Z" fill="#462C1F" fill-opacity="0.8"/>
<path fill-rule="evenodd" clip-rule="evenodd" d="M123.736 45.0029C122.646 45.2942 122.312 46.4942 122.165 46.7986C122.748 46.6435 123.401 45.5015 123.736 45.0029Z" fill="#462C1F" fill-opacity="0.8"/>
<path fill-rule="evenodd" clip-rule="evenodd" d="M124.522 53.1928C123.593 53.4088 123.017 54.1987 122.951 54.9885C123.3 54.7537 123.451 54.4247 123.764 54.1189C124.061 53.8276 124.302 53.5233 124.522 53.1943V53.1928Z" fill="#462C1F" fill-opacity="0.8"/>
<path fill-rule="evenodd" clip-rule="evenodd" d="M110.61 27.3896C110.406 27.4374 109.372 27.6316 109.174 27.5997C108.43 27.4794 108.449 26.8157 108.029 27.3896C108.461 27.5055 108.214 27.5258 108.633 27.6823C109.316 27.9374 110.161 28.0577 110.608 27.3896H110.61Z" fill="#462C1F" fill-opacity="0.8"/>
<path fill-rule="evenodd" clip-rule="evenodd" d="M121.493 47.6957C121.196 47.6174 121.4 47.7044 121.156 47.5841C120.983 47.7116 120.252 48.3885 120.626 48.5464C120.839 48.6363 121.39 48.0827 121.493 47.6957Z" fill="#462C1F" fill-opacity="0.8"/>
<path fill-rule="evenodd" clip-rule="evenodd" d="M143.706 21.2183C143.728 21.1965 143.812 21.1009 143.866 21.0414C144.225 20.6487 144.031 20.8878 144.444 20.7226C144.838 20.5646 144.579 20.6632 144.715 20.5458C144.148 20.5458 143.602 20.5356 143.144 21.2183H143.705H143.706Z" fill="#462C1F" fill-opacity="0.8"/>
<path fill-rule="evenodd" clip-rule="evenodd" d="M137.535 39.6188C137.599 39.6826 137.564 40.0202 138.057 39.4681C138.087 39.4347 138.24 39.2086 138.247 39.1883C138.48 38.5753 137.799 38.884 137.548 39.4173C137.444 39.6391 137.354 39.4391 137.535 39.6188Z" fill="#462C1F" fill-opacity="0.8"/>
<path fill-rule="evenodd" clip-rule="evenodd" d="M121.604 49.2667C121.604 48.8378 121.639 49.2262 121.493 48.9305C121.325 49.0421 120.767 49.4465 120.867 49.6856C121.058 50.1392 121.604 49.2769 121.604 49.2682V49.2667Z" fill="#462C1F" fill-opacity="0.8"/>
<path fill-rule="evenodd" clip-rule="evenodd" d="M99.8401 48.4814L99.7285 48.0322C99.7285 48.2814 99.7415 48.1655 99.6632 48.3046C99.6531 48.322 99.6299 48.3568 99.6183 48.3727L99.8401 48.4814Z" fill="#462C1F" fill-opacity="0.8"/>
<path fill-rule="evenodd" clip-rule="evenodd" d="M107.581 31.8764C106.994 31.9272 107.378 31.7692 107.245 32.1011C107.269 32.088 107.282 32.0721 107.32 32.0648L107.581 31.8764Z" fill="#462C1F" fill-opacity="0.8"/>
<path fill-rule="evenodd" clip-rule="evenodd" d="M98.3822 49.154C98.4199 49.1496 98.4068 49.0308 98.4039 49.0206C98.3938 48.9931 98.6633 48.8264 98.3735 48.9714C98.3677 48.9742 98.1662 49.1801 98.3822 49.154Z" fill="#462C1F" fill-opacity="0.8"/>
<path fill-rule="evenodd" clip-rule="evenodd" d="M87.0499 55.6613H86.9383L87.0311 55.7917L87.0499 55.6613Z" fill="#462C1F" fill-opacity="0.8"/>
<path fill-rule="evenodd" clip-rule="evenodd" d="M100.289 34.6823H100.176L100.27 34.8127L100.289 34.6823Z" fill="#462C1F" fill-opacity="0.8"/>
<path fill-rule="evenodd" clip-rule="evenodd" d="M106.348 32.1011H106.459L106.366 31.9706L106.348 32.1011Z" fill="#462C1F" fill-opacity="0.8"/>
</svg>