<svg xmlns="http://www.w3.org/2000/svg" width="94" height="138" viewBox="0 0 94 138" fill="none">
  <path fill-rule="evenodd" clip-rule="evenodd" d="M-36.3738 -25.2895C-36.3671 -25.2521 -36.4847 -25.2303 -36.4956 -25.2316C-36.5204 -25.2332 -36.6074 -24.9345 -36.5512 -25.2451C-36.5501 -25.2515 -36.4112 -25.5038 -36.3752 -25.2891L-36.3738 -25.2895ZM-21.9099 -17.3468C-22.0053 -17.4073 -21.9898 -17.356 -22.1062 -17.4859C-22.2714 -17.6723 -22.149 -17.5275 -22.2546 -17.7121C-21.8244 -17.5603 -22.1282 -17.835 -21.9099 -17.3468ZM-21.2109 -16.9717C-21.5675 -16.9944 -21.3094 -16.6908 -21.5231 -17.2288C-21.5006 -17.2144 -21.4569 -17.17 -21.455 -17.1888L-21.2109 -16.9717ZM-20.5866 -16.4576C-20.8839 -16.4845 -20.7365 -16.1763 -20.9314 -16.8229L-20.8246 -16.8551C-20.7417 -16.5804 -20.72 -16.6036 -20.588 -16.4572L-20.5866 -16.4576ZM-4.85142 1.53002L-4.95826 1.56224L-4.90572 1.41016L-4.85003 1.5296L-4.85142 1.53002ZM13.3334 -3.83644C12.6784 -3.65409 10.981 -3.937 10.2173 -4.07004C9.8213 -4.13834 9.53841 -4.12268 9.13541 -4.23428C8.05873 -4.5318 6.80777 -4.68443 5.14513 -5.18825C4.76697 -5.3028 4.59155 -5.37252 4.23114 -5.49849L0.465723 -6.87144C0.238365 -6.95275 0.257943 -6.94806 0.0283176 -7.06199L-6.30993 -10.0146C-6.46661 -10.0824 -6.57458 -10.1543 -6.72989 -10.2376L-11.0941 -12.6728C-11.6758 -13.0257 -12.2625 -13.2545 -12.8443 -13.6074L-14.5353 -14.6522C-14.9633 -14.9773 -15.8976 -15.3601 -16.1696 -15.8003C-15.6795 -15.8164 -13.1301 -14.6959 -12.4999 -14.4182L-10.6523 -13.6674C-10.4277 -13.5853 -10.4171 -13.5552 -10.2212 -13.4628C-8.31482 -12.5572 -4.00235 -11.0116 -1.94158 -10.101L1.20865 -8.58952C1.37299 -8.50132 1.46109 -8.44009 1.62667 -8.36286L10.6031 -5.1249C10.8301 -5.04498 10.8127 -5.04732 11.0396 -4.93255L13.333 -3.83783L13.3334 -3.83644ZM33.0761 5.67835C31.5483 6.13899 27.7084 5.92986 26.073 5.64186L21.4009 4.78601C20.7537 4.65268 20.2842 4.36584 19.6763 4.14193C19.3034 4.00461 19.209 3.92256 18.8705 3.79906C18.6237 3.70848 18.6562 3.72593 18.424 3.62339C18.1903 3.52126 18.1775 3.53877 17.973 3.45813L8.04339 -0.686795C7.81156 -0.787949 7.86869 -0.734026 7.66243 -0.815642L-6.73964 -7.36312C-7.0015 -7.50366 -7.25132 -7.66448 -7.51341 -7.76559C-8.82693 -8.27628 -11.021 -9.47817 -12.3007 -10.2534C-13.8552 -11.197 -16.0973 -12.8643 -17.3907 -14.0213C-17.7724 -14.3634 -17.9578 -14.3105 -18.1664 -14.4202L-19.5039 -15.4519C-20.2762 -16.0153 -20.1647 -15.8764 -20.3049 -16.3064C-20.0145 -16.2168 -19.7989 -16.1093 -19.5292 -15.9075C-19.2069 -15.6671 -19.0917 -15.6413 -18.7976 -15.4242L-17.2591 -14.4334C-15.1691 -12.964 -9.97997 -10.1826 -7.8978 -9.0605L-5.13338 -7.66881C-4.88836 -7.56407 -4.92216 -7.61593 -4.67714 -7.51119C-4.10195 -7.26531 -4.02316 -7.10439 -3.1059 -6.74821C-2.81575 -6.63437 -2.62175 -6.4779 -2.33268 -6.34254C-2.08028 -6.22337 -2.10102 -6.26707 -1.87935 -6.17951L-0.267404 -5.49238C-0.0783679 -5.41768 -0.0451338 -5.37774 0.169451 -5.29864L8.97681 -2.58643C12.8087 -1.59532 18.4837 0.76406 22.7781 2.06382L31.4664 4.83311C32.3363 5.14757 32.5282 5.12148 33.0809 5.68445L33.0761 5.67835ZM35.7851 13.885C35.0673 14.0848 33.4877 13.4848 32.7618 13.3116C31.3152 12.9667 27.0893 11.7235 25.5522 11.144L22.7534 10.1502C22.4581 10.0394 22.408 9.99392 22.0876 9.88011L16.6386 7.61759C16.2905 7.43192 16.2326 7.45088 15.9025 7.30975L14.5339 6.67184C14.2963 6.55125 14.144 6.4579 13.907 6.32955L3.41432 0.884545C3.10396 0.708677 3.06648 0.609478 2.75611 0.43361C2.32126 0.186285 1.92027 0.0210928 1.49443 -0.236517C1.21281 -0.407428 1.20299 -0.480159 0.905268 -0.649243L-1.06719 -1.83923C-1.3265 -2.03654 -1.39925 -2.04186 -1.67865 -2.21041L-3.52252 -3.47096C-4.31755 -3.97904 -6.87161 -5.73238 -7.11206 -6.34409L18.4451 5.25489C18.9096 5.4751 19.3423 5.6701 19.8369 5.84946L24.5407 7.99003C24.8588 8.15145 24.9622 8.12784 25.2803 8.28926L28.5322 9.94723C30.1178 10.6272 31.6569 11.5346 33.1829 12.3536C33.6399 12.5988 34.0764 12.8017 34.5117 13.0655C34.7933 13.2364 34.8018 13.3096 35.1009 13.4782C35.3964 13.645 35.5244 13.673 35.7824 13.8858L35.7851 13.885ZM45.5218 45.3992L45.415 45.4314L45.4661 45.2798L45.5218 45.3992ZM45.5218 45.3992L45.6287 45.367L45.5761 45.5191L45.5204 45.3996L45.5218 45.3992ZM3.95576 29.5749C3.73737 28.8506 3.50025 28.0441 3.14245 27.3997C2.84436 26.8628 2.53784 26.8554 1.9747 26.8904L1.86408 27.1009C1.59381 27.7107 1.63261 28.256 1.614 28.9474C1.54509 31.4098 1.21552 32.9927 0.832093 35.2805C0.525077 37.1139 -0.4454 39.3123 -1.8154 40.6125C-2.46643 41.2296 -2.74294 41.4371 -3.85025 41.771C-3.88517 41.2184 -3.72273 40.8334 -3.56287 40.3946C-3.46773 40.1328 -3.38796 39.9907 -3.29463 39.7279C-3.19188 39.4411 -3.10845 39.3463 -3.0011 39.0748C-2.48554 37.7674 -1.68019 36.6178 -1.19244 35.2734C-1.08637 34.9825 -1.00457 34.9124 -0.897113 34.6212C1.12316 29.162 1.27768 24.0867 0.21099 18.2897C-0.171426 16.2131 -0.895444 13.0588 -1.81447 11.1304L-3.27805 7.81755C-4.71568 4.90714 -6.56548 2.28146 -8.5928 -0.230135C-9.53478 -1.39629 -10.5497 -2.51319 -11.749 -3.40802C-12.2822 -3.80582 -12.4617 -3.77892 -13.0707 -3.96617C-13.2616 -3.344 -13.3152 -3.20066 -13.0492 -2.33328C-12.5131 -0.590604 -11.6082 1.77805 -11.3093 3.46205L-10.5551 7.10831C-9.94722 9.87232 -9.53653 14.6182 -9.62536 17.4212C-9.65979 18.517 -9.63087 19.5467 -9.72712 20.6081L-10.2736 25.2672C-10.6112 27.2249 -11.0674 29.1259 -11.6406 31.0153C-12.3529 33.3569 -13.3815 35.5184 -14.4166 37.7182C-14.6267 38.166 -14.9037 38.5175 -15.0727 38.9862C-15.2622 39.5126 -15.4423 39.7939 -15.6995 40.2711C-16.4046 41.5827 -17.3752 44.4382 -19.1722 44.98C-19.6118 42.9145 -17.3759 38.291 -16.674 36.3264C-16.3377 35.3834 -16.0455 34.3341 -15.3295 33.6262L-15.0803 34.0158C-14.8126 33.6838 -14.8129 33.5825 -14.6653 33.1732C-13.4723 29.8753 -15.2855 32.6578 -13.6722 28.3037C-10.3691 19.3878 -10.049 9.55484 -12.807 0.407765C-13.4203 -1.62646 -14.4116 -3.68903 -15.3729 -5.04465C-17.999 -8.74412 -21.8095 -11.9684 -25.4926 -14.5394C-25.7839 -14.7422 -26.3539 -14.8655 -26.7006 -14.9714C-26.9563 -13.3291 -26.3675 -10.9044 -26.0201 -9.20482C-25.6522 -7.40235 -25.5449 -5.11865 -25.5958 -3.48511L-25.6851 -1.55235C-25.699 -1.2318 -25.7353 -1.1815 -25.7693 -0.877577L-25.9391 0.381609C-25.9714 0.625974 -25.9619 0.788095 -26.0034 1.06704C-26.2157 2.46163 -26.3688 5.22197 -27.008 6.38047C-27.1246 6.59122 -27.0083 6.46986 -27.2196 6.62744C-27.3592 6.12455 -26.8345 1.90041 -26.6858 0.882247C-26.494 -0.439571 -26.4636 -1.71424 -26.4256 -3.02904C-26.405 -3.75426 -26.3529 -4.35431 -26.3901 -5.08028L-26.4941 -7.20752C-26.5343 -7.97347 -26.6317 -8.58747 -26.7314 -9.40511C-26.829 -10.2158 -27.4066 -13.2462 -27.7293 -13.8846C-28.0451 -14.5054 -28.0566 -14.8698 -28.6642 -16.0112C-30.3054 -19.0948 -31.5454 -20.5465 -34.3326 -22.561C-35.3934 -23.3281 -34.9848 -23.2681 -34.645 -24.9979C-33.5686 -24.7865 -32.9302 -23.9345 -31.9756 -23.4292C-31.365 -23.1062 -30.7645 -22.6106 -30.1067 -22.382L-25.4483 -19.9901C-25.0977 -19.731 -24.9376 -19.6521 -24.6077 -19.3762C-23.5793 -18.5207 -23.0458 -18.2426 -22.1513 -17.2438C-21.9802 -17.0531 -21.5471 -16.716 -21.3423 -16.5688L-18.0623 -13.7886C-17.3157 -12.9843 -16.4332 -12.3618 -15.6029 -11.6615C-13.6451 -10.013 -14.5128 -10.0844 -12.6267 -8.31736C-11.8866 -7.62471 -9.1566 -5.26291 -8.62959 -4.52415C-8.37089 -4.16317 -8.2029 -3.75666 -8.05103 -3.25296C-8.4879 -3.16059 -8.75301 -3.23658 -9.18988 -3.14422C-9.0971 -2.70596 -9.21891 -2.8539 -9.13482 -2.57499C-8.87374 -1.70912 -8.05273 -0.577648 -7.58844 0.078595C-6.97268 0.951046 -6.41588 1.54761 -5.82527 2.49727C-4.74924 4.22851 -3.74942 6.26428 -2.81286 8.12536C-0.307621 13.1056 2.71119 17.8462 6.37434 22.0429L11.0493 27.592C13.2097 30.3042 18.0018 37.2561 17.4799 40.6059C16.5034 40.4145 15.7132 39.3903 15.016 38.6544L11.7822 34.7824C7.90806 29.2733 6.6645 26.6601 3.3946 20.5496C3.07226 19.9474 2.82804 19.4186 2.48235 18.8946C2.03775 18.2234 1.99063 18.0771 1.24347 17.8483C0.878918 19.039 1.55092 20.4243 2.01156 21.9521C2.91151 24.9368 4.25114 28.953 4.99671 31.8375C5.12038 32.3179 5.03355 32.3713 5.20467 32.9388C5.42085 33.6608 5.74786 34.4341 5.83259 35.167C6.01063 36.7164 7.19376 39.8019 7.38921 41.4944L7.84515 43.629C7.92184 43.9738 8.08535 44.3604 8.17439 44.706C8.41487 45.634 8.56952 46.8347 8.89498 47.884C9.05854 48.4115 9.02246 48.5177 9.08877 48.8883C9.15579 49.2662 9.35267 49.6882 9.43579 50.0643C9.572 50.6817 9.63742 51.5112 9.83574 52.1689C9.33536 52.0155 9.37887 51.9539 9.08337 51.3906C8.73971 50.7328 7.90513 48.5322 6.84361 48.8522C6.42456 48.9786 6.04935 50.887 5.92558 51.33C4.99569 54.6621 4.02651 57.9894 2.12833 60.9066C1.98676 61.1248 1.98516 61.0693 1.83846 61.2907C1.24917 62.1828 0.520216 63.2745 -0.393068 63.8754C-0.703876 64.0796 -0.679877 63.9634 -0.94829 64.2078C-1.09598 63.718 -1.0809 63.4818 -0.945072 63.129L5.49513 47.9494C6.74637 44.8096 6.76228 43.6725 5.92883 39.9895C5.26649 37.0648 4.72473 32.1102 3.95825 29.5681L3.95576 29.5749ZM46.5834 51.6412L45.7415 51.0277C44.7022 50.2466 40.1995 46.0019 39.124 44.9047L38.2953 44.0995C38.0874 43.8867 38.0417 43.8808 37.8689 43.7195C37.7153 43.5765 37.6395 43.4707 37.4667 43.2943C37.1585 42.98 36.9618 42.8395 36.6371 42.4908L34.2237 40.1093C33.9034 39.8304 33.7131 39.6108 33.4057 39.2842C33.0965 38.9566 32.9422 38.8714 32.633 38.5438L30.1737 36.0807C28.251 34.0265 25.6745 31.6215 23.7597 29.5785C22.6838 28.43 21.6036 27.3676 20.5203 26.2198L6.29359 11.2923C6.0218 11.0034 5.78782 10.7546 5.49017 10.4401L3.1624 7.90105C2.62855 7.33542 2.11365 6.71715 1.5798 6.15151L-4.56636 -1.01881C-4.04303 -0.834491 6.69289 8.64549 7.68641 9.53574L17.3944 17.9512C18.0063 18.4993 18.495 18.9454 19.0972 19.4768C20.2569 20.5016 21.355 21.4723 22.4966 22.5374L26.5492 26.3941C26.8242 26.6836 27.085 26.8911 27.3778 27.1994L33.7414 33.7955C34.0573 34.1756 34.1936 34.3464 34.5206 34.6929C36.1196 36.3814 39.9411 41.0783 41.2533 42.9503L44.0337 46.9953C44.6844 48.0389 46.2462 50.5228 46.583 51.6398L46.5834 51.6412ZM46.5834 51.6412L46.6903 51.609L46.6391 51.7607L46.5834 51.6412ZM26.7487 37.9354C26.1371 35.9067 25.4355 35.1313 24.5754 33.7648C24.3808 33.4557 23.9798 32.6078 23.861 32.2439C24.1832 32.2331 24.1324 32.2151 24.4047 32.4055C25.495 33.1697 25.5372 34.1182 26.267 35.645L26.8761 37.1931C27.3496 36.5644 26.841 35.5204 26.626 34.8071C27.0037 34.7947 27.0387 34.9007 27.2009 35.0773C27.368 35.26 27.2082 34.7951 27.3897 35.3973C27.5968 36.0842 27.503 36.3955 27.6314 36.9668L28.5251 40.3274C28.6163 40.6299 28.6307 40.512 28.8372 40.5845C28.7072 39.9727 28.8858 39.3649 28.7154 38.6291C28.6004 38.1324 28.5822 37.8912 28.4984 37.5229C28.385 37.0212 28.3638 36.8005 28.2828 36.4162C30.2625 37.0227 29.8229 39.9678 30.6563 42.7319C30.9011 42.4341 30.9308 42.4373 30.9484 41.9884L31.0036 41.2982C31.0933 40.9729 31.0018 41.2821 31.0944 41.077C31.8469 43.3872 32.1761 42.4856 32.3103 43.7091L32.8268 46.7777C33.5614 51.3124 33.4714 54.8999 33.0629 59.419L32.4052 63.2973C31.7071 63.0506 31.9169 62.1396 31.4511 60.5347C31.3153 60.064 31.385 60.0793 31.3254 59.7461L30.5798 56.4651C30.4847 56.0442 30.5905 56.1591 30.4653 55.6837L28.0035 43.6484C27.9185 43.2759 27.8729 43.2049 27.8295 42.835L26.7501 37.9349L26.7487 37.9354ZM49.3784 60.5244L49.2715 60.5566L49.3227 60.4049L49.3784 60.5244ZM67.7461 54.9862C66.5164 55.0648 60.8279 53.1727 59.4933 52.5821C59.0302 52.3766 58.6212 52.2502 58.1603 52.047L51.7507 49.0584C51.2974 48.8151 50.9462 48.6243 50.4923 48.3843C50.015 48.1316 49.7667 47.9006 49.2718 47.6397L47.465 46.4769C47.2815 46.3506 47.0396 46.1707 46.8865 46.0443C47.0528 45.8882 46.996 45.9205 47.2844 45.8078C47.0838 45.4838 46.2915 44.9597 45.9479 44.7742C45.6008 44.5867 45.5846 44.528 45.2845 44.3309C44.7711 43.9937 44.5059 43.9829 43.8438 43.4938C43.2027 43.0195 42.3779 42.749 41.9804 41.4307C42.1655 41.4673 42.7435 41.5216 42.8739 41.6125C43.1255 41.7894 42.9272 41.7039 43.1366 41.9616L48.0601 45.3681C48.4214 45.5573 48.4721 45.6601 48.7893 45.8536C49.0966 46.0395 49.3154 46.0976 49.618 46.3228C50.1525 46.7202 50.6284 46.9279 51.2001 47.2323L52.77 48.1668C53.3335 48.4691 53.811 48.7475 54.3754 49.033L56.0229 49.8229C56.2848 49.9634 56.5346 50.1243 56.7967 50.2254L58.469 50.967C58.7845 51.0898 59.0016 51.2726 59.3132 51.4073C59.541 51.5051 59.4915 51.4564 59.6941 51.5361L66.0787 54.2356C66.5036 54.4148 67.4503 54.7484 67.7441 54.9898L67.7461 54.9862ZM49.3784 60.5244L49.4852 60.4921L49.4327 60.6442L49.377 60.5248L49.3784 60.5244ZM67.7461 54.9862L67.8529 54.954L67.8004 55.1061L67.7447 54.9866L67.7461 54.9862ZM49.6719 62.6626L49.6304 62.6403C49.634 62.6422 49.6797 62.6481 49.6719 62.6626ZM52.2105 64.4751C51.5051 64.6257 51.4859 64.1653 50.8969 63.0653L49.8963 61.0721C50.4368 61.2634 51.9956 63.9934 52.2105 64.4751ZM66.5521 69.2909C66.1177 69.2054 66.0209 69.3163 65.821 68.809C65.9706 68.838 66.0901 68.8277 66.2223 68.8999C66.4511 69.0262 66.4319 69.1531 66.5526 69.2923L66.5521 69.2909ZM67.5632 69.923C67.1286 69.9375 67.0525 69.8258 66.8321 69.4411C66.8703 69.4523 67.2058 69.551 67.2198 69.5573C67.519 69.7063 67.384 69.7152 67.5632 69.923ZM68.7157 71.8023L68.6088 71.8345C68.4306 71.2434 68.0581 71.4889 68.662 71.2327C68.6163 71.528 68.5974 71.405 68.717 71.8019L68.7157 71.8023ZM61.4676 83.1277C61.3611 83.0357 61.4029 83.1442 61.3003 82.9345C61.257 82.8461 61.2259 82.7177 61.1974 82.6234L61.3043 82.5912L61.4662 83.1282L61.4676 83.1277ZM80.5893 78.5339C79.9371 78.7305 79.6733 78.5785 79.1705 78.4924C77.4254 78.1921 76.8487 77.9512 75.2694 77.3723L73.5267 76.5929C73.2819 76.4639 73.1449 76.381 72.8997 76.2506L62.7567 69.9872C62.3665 69.7173 62.0615 69.4687 61.6634 69.1725C61.2827 68.8891 61.0094 68.6854 60.6303 68.4122C60.4138 68.2565 60.3382 68.1915 60.1232 68.0156C58.4201 66.6294 55.9503 64.7189 54.4369 63.1786C52.9541 61.6699 50.8371 59.7394 49.58 58.1354C48.7549 57.0809 46.4257 54.5271 46.0694 53.4356C46.5655 53.4192 46.2848 53.5024 47.328 54.2762C49.1599 55.6327 48.7796 55.7973 50.6058 57.7323C53.8757 61.1968 55.7548 62.0925 59.0843 64.4143L63.5757 67.2865C63.8873 67.4665 63.9282 67.5617 64.2349 67.7356C64.4889 67.88 64.6853 67.954 64.9381 68.1048C65.2464 68.2889 65.305 68.4181 65.5425 68.6583C64.9381 68.6771 64.8899 68.4418 64.1249 68.1139C63.6295 67.9015 63.6797 67.797 63.2857 68.1671C63.4574 68.4453 63.8793 68.6497 64.381 68.9782C64.7545 69.2229 65.2289 69.4356 65.6388 69.6556C66.2962 70.0084 67.5547 70.5675 67.9537 71.2131C67.5983 71.1038 67.332 70.9737 66.8568 71.0746C67.1877 71.6499 68.4789 72.2824 69.1687 72.135C69.3601 72.6192 69.6046 72.662 70.1149 72.5521C70.0766 71.9581 69.9735 71.8121 69.3189 71.855C69.2528 71.6358 69.2245 71.4415 69.0933 71.2676L68.3334 70.6702C68.1902 70.5015 68.0888 70.3307 67.9836 70.1475C68.404 70.2766 71.32 72.1509 71.9646 72.6271L79.8697 77.8593C80.6259 78.4093 80.213 78.0994 80.5875 78.5329L80.5893 78.5339ZM47.8627 66.3718C47.954 66.8 47.7057 68.0601 48.2094 67.9082C48.5702 67.7994 49.0499 64.7666 49.169 64.1024C49.2488 63.6591 49.3391 63.1202 49.5991 62.8026C49.9066 63.8225 49.5914 65.6538 49.5071 66.7147C49.4439 67.4891 49.1044 69.9226 49.2345 70.5298C50.0523 70.0591 49.8781 69.6621 49.994 68.7764L50.3773 65.9209C50.455 65.4404 50.3892 65.5889 50.6984 65.2837C50.9442 66.1693 51.0777 69.9256 51.0525 70.8762L50.6853 73.9206C50.6129 74.3284 50.579 74.5021 50.478 74.8898C50.2574 75.7299 50.178 76.5258 49.7983 77.7666C49.6019 78.4055 49.4563 78.9868 49.2338 79.6246L47.8011 83.2672C47.6807 83.6108 47.565 83.7895 47.3843 84.124C47.1842 84.4947 47.1856 84.6547 47.0091 85.0032L43.8591 90.3352L41.167 93.7521C40.9287 94.0162 40.7021 94.3388 40.4122 94.5171C40.3856 94.1027 40.8306 92.3504 40.9636 91.8425L46.2445 71.6281C46.323 71.2911 46.4029 71.0641 46.4934 70.7719L47.007 68.9762C47.2069 68.3286 47.5053 66.8081 47.8636 66.3746L47.8627 66.3718ZM72.2413 110.696C70.9555 110.242 67.8133 104.917 67.0838 103.697C65.9969 101.88 65.1985 99.6032 64.4219 97.5849C64.1413 96.8551 64.2216 97.3123 63.8279 96.0065C63.6179 95.31 63.4691 94.8114 63.2182 94.2906L61.0642 87.2321C62.0868 87.8774 62.0931 88.4855 62.7017 89.7159L68.8681 103.053C69.1186 103.633 69.3565 104.111 69.5689 104.599C70.4633 106.667 71.3291 108.66 72.2395 110.695L72.2413 110.696ZM61.4672 83.1264L63.3955 85.907C65.1024 88.0187 66.9643 89.9262 68.8587 91.8315C69.0307 92.0052 69.2876 92.2699 69.4127 92.494C69.7225 93.0546 69.4598 92.8613 69.4755 93.3652L71.8551 95.8099C72.3266 96.249 73.0479 96.7839 73.3705 97.3466L73.7601 97.0974C73.9283 97.3691 73.9394 97.3355 74.1741 97.5266C75.3898 98.5164 76.3634 99.7018 77.4319 100.851C78.1238 101.595 80.4922 104.173 80.8819 105.159C80.2915 104.978 79.8773 104.538 79.3569 104.143C79.1743 104.004 79.132 103.994 78.967 103.864C77.0882 102.382 75.1622 100.934 73.4097 99.289L71.9626 97.9588C71.681 97.7077 71.5398 97.5005 71.2696 97.2368C70.9927 96.9661 70.8194 96.8382 70.5553 96.5545L64.1598 88.5072C62.8567 86.7809 62.1369 86.8738 61.3283 85.899C60.9153 85.4029 59.2731 82.7828 58.6726 82.7943C57.7556 82.8104 58.5424 84.697 58.6764 85.1364C59.5109 87.8942 59.3097 92.0768 59.2269 94.9748C59.1482 97.6961 58.958 100.359 58.4911 103.042C58.4132 103.487 58.4009 103.672 58.3503 104.137C58.264 104.935 58.0453 105.6 57.9208 106.337C57.4847 108.927 56.6571 112.242 55.692 114.775C55.242 115.958 54.8083 117.828 54.0474 118.754C53.7446 118.412 54.0555 116.255 54.0982 115.809C54.1968 114.776 54.2323 113.724 54.33 112.692C54.3757 112.206 54.4176 111.597 54.428 111.125L54.9573 95.2934C54.9896 94.7932 55.0911 94.2812 55.0553 93.7259L55.2532 93.86C55.4499 93.9399 55.337 93.927 55.5811 93.9185C55.5716 93.6156 55.6248 93.4406 55.8654 93.2046C55.8749 93.1957 55.9024 93.1768 55.9109 93.1697L55.9924 93.1088C55.9972 93.1043 56.0187 93.0903 56.0304 93.0791C55.6571 92.6694 55.6515 92.3245 55.8515 91.8131C56.0714 91.2518 56.0558 90.1409 56.0788 89.5042C56.1161 88.4833 56.5128 86.7969 56.3097 85.847C56.0029 85.7533 56.158 85.7505 55.8147 85.7616C55.8553 86.3882 55.685 86.9481 55.6353 87.5565C55.5859 88.1709 55.5323 88.7713 55.4719 89.4495C55.4107 90.1401 55.4006 90.6639 55.3483 91.3639C55.3278 91.6425 55.1861 91.9456 55.2541 92.1961C55.357 92.5828 55.5609 92.9225 55.7071 93.1766C55.3378 93.2971 55.2342 93.4857 55.0895 93.322C54.7401 92.9263 54.9658 85.4514 55.075 84.7343C55.2542 83.5464 55.6098 82.4462 55.8765 81.2926C56.312 79.4083 56.6647 78.088 56.5524 76.0737C56.4071 73.4533 55.6661 72.1857 55.0258 69.9416C54.883 69.4427 54.9841 69.4016 54.8791 69.0534L54.986 69.0211C55.1705 69.6331 57.6808 74.5497 58.1311 75.5765L61.0227 82.4354C60.9064 82.0496 60.6354 81.7332 60.3575 81.4946C60.1656 81.3299 60.258 81.355 59.9902 81.3404C60.2805 82.3034 60.6709 83.0561 61.187 83.8088C61.3845 84.0974 61.5273 84.2193 61.6717 84.583L61.4659 83.1222L61.4672 83.1264ZM-4.85184 1.52863C-4.4087 1.55245 -4.55618 1.61054 -4.02968 2.17689L13.2097 20.8856C13.7368 21.4442 14.1995 21.9344 14.7022 22.4671C15.9647 23.8075 21.7835 29.4553 22.2794 30.4926L23.2699 33.0095C23.4513 33.6163 23.5873 33.6555 23.7697 34.2605C23.84 34.4937 23.9087 34.7969 23.9945 35.0162C24.1537 35.4284 24.1378 35.2152 24.2969 35.6274C24.5733 36.3434 24.9465 37.6613 25.1445 38.4236C25.9102 41.3898 26.5346 45.3431 27.0991 48.3851C27.1462 48.6419 27.2449 48.8437 27.2843 49.1149L28.5805 55.6631C28.635 55.904 28.7542 56.1739 28.8087 56.4148C28.9062 56.8486 28.7971 56.6575 28.8946 57.0913C29.0707 57.8813 29.4529 59.0134 29.5417 59.7798C29.6019 60.3006 29.7333 60.6061 29.885 61.1341C30.2118 62.2783 30.5103 64.0063 30.8954 65.2784C31.0443 65.7723 31.1369 66.1698 31.238 66.6207C31.3396 67.0729 31.6548 67.3351 31.8556 67.6848C32.7589 67.4125 32.8447 67.2852 33.0606 66.6206C33.8771 64.1174 34.1175 61.4004 34.3579 58.7636C34.5656 56.4804 34.4605 54.1839 34.34 51.9117L33.7619 44.758C33.6031 43.4632 33.1953 42.201 32.7426 40.6997C33.4488 40.9484 36.817 44.3878 37.3498 44.8645L40.5189 47.8492C41.8624 49.082 42.6032 50.8008 43.5158 52.3315L45.7066 56.1335C46.3337 57.3144 47.5516 58.7985 47.3194 60.408C47.1526 61.5618 46.6162 62.9255 46.3113 64.0982L38.9075 92.0871C38.7259 92.7852 38.5656 93.3179 38.3701 93.9596C38.2743 94.2746 38.1893 94.55 38.0887 94.8891C37.6707 96.2792 37.4639 96.3915 37.9685 98.0649C38.6262 97.8666 38.6017 98.0814 39.1353 97.7025L43.0473 93.768C43.2899 93.4481 43.4708 93.2346 43.6883 92.9419L47.1115 87.4866L49.7075 81.5874L50.7039 78.4305C51.313 76.2487 51.7018 74.0289 51.8064 71.7297L51.9144 69.3569C51.9286 68.6911 51.6952 67.44 52.0351 66.9909L53.3422 69.9255C54.1187 71.4564 54.9094 74.9524 54.8308 76.5943L54.2119 79.9537C54.1469 80.1852 54.0751 80.3689 54.0266 80.5742C53.7101 81.8792 53.2553 83.2576 53.1444 84.6019C52.9519 86.9306 53.1332 89.5401 53.1054 91.9629C53.0994 92.4401 53.1418 93.0328 53.1358 93.5099C53.131 93.9958 53.1448 94.4382 53.1283 94.9457C53.1104 95.4991 53.1382 95.9176 53.119 96.4713L53.0225 102.362C53.0641 104.397 52.906 106.233 52.8484 108.21C52.8346 108.672 52.8285 109.119 52.7816 109.616L52.5428 113.99C52.4076 115.7 51.8576 121.437 52.3384 122.79C52.5169 123.292 53.0097 123.405 53.525 123.076C54.385 122.524 55.0694 120.612 55.4435 119.598L58.2332 110.742C58.3036 110.448 58.336 110.39 58.395 110.109L58.7936 108.072C59.2037 105.782 59.5991 103.494 59.8259 101.154C60.0165 99.1902 60.1834 97.3491 60.1734 95.3979L60.1017 90.9479C60.0698 90.3853 59.8984 89.9072 60.2193 89.4804C60.4134 90.1243 60.608 90.7695 60.8021 91.4133C61.0329 92.1839 61.2694 92.5667 61.4615 93.2036C61.6574 93.8484 61.8496 94.4959 62.0414 95.142C62.249 95.8408 62.4662 96.1492 62.6998 96.934C64.4565 102.811 68.5246 109.746 73.3943 113.747C73.9618 113.576 74.2484 113.527 74.3784 113.105C74.6584 112.191 72.5055 107.837 71.9162 106.606C70.3172 103.266 68.9419 99.7536 67.3012 96.4155L66.1237 93.9111C66.3851 93.9246 66.2257 93.8727 66.4366 93.9999C66.7728 94.2013 66.9952 94.5974 67.2309 94.867C68.3963 96.2019 69.5649 97.6176 70.894 98.7775L80.7118 106.824C80.9516 106.982 81.0712 107.077 81.3038 107.231C81.4667 107.339 81.4655 107.316 81.6392 107.445C82.0806 107.769 82.7154 108.157 83.2528 108.298C84.1366 108.528 84.1507 108.198 84.5713 107.685C83.9504 105.626 78.7389 100.13 77.0029 98.133L68.8528 89.4976C68.154 88.7561 67.5182 88.0835 66.8438 87.368C66.4679 86.9697 66.225 86.6963 65.8341 86.2283C65.4832 85.8073 65.2018 85.547 64.8287 85.0828C62.1505 81.7426 60.5826 76.5025 58.6966 72.6873C58.0746 71.4277 55.8952 67.7691 55.5529 66.6341C56.133 66.6151 58.0474 68.4659 58.588 68.863L60.5729 70.3656C61.4666 70.9348 62.2757 71.6702 63.1815 72.2145C64.4835 72.9981 66.1302 74.2424 67.3969 74.9292L68.9684 75.8586C69.419 76.0982 69.6199 76.3025 70.0475 76.5308C70.8283 76.9463 71.5059 77.3112 72.2847 77.7303L73.3728 78.2212C75.5214 79.2324 76.9079 79.8346 79.3888 80.2658C80.277 80.4203 81.2216 80.576 82.1523 80.4846C83.6697 80.3359 84.3539 79.4121 83.0802 78.2506C82.8904 78.0777 82.7879 77.9739 82.5931 77.8147C82.4202 77.673 82.2827 77.5586 82.0947 77.4018L75.8267 73.1459C74.5679 72.3901 73.3784 71.5575 72.0932 70.8747L71.0136 70.2012C69.6816 69.4433 66.188 67.4555 65.0763 66.6705L59.7462 63.5169C58.218 62.4397 56.5436 61.5004 55.0295 60.3948C54.8023 60.2286 54.7106 60.1957 54.5001 60.0397L51.9807 58.0247C51.0491 57.149 50.0592 56.2607 49.237 55.2507C48.0703 53.8163 49.5642 54.654 47.7634 50.9509C47.3371 50.0743 46.8418 49.0339 46.3607 48.1965C46.9348 48.1778 47.5958 48.7232 48.0947 48.9921L57.6831 53.7728L60.4505 54.823C62.3405 55.393 64.1831 56.062 66.1034 56.5366L70.063 57.3787C70.9973 57.5405 73.7404 58.1636 74.142 56.8951C74.5826 55.4998 70.3456 54.3599 69.3179 53.9037L57.9817 49.361C55.0923 48.2325 50.5837 45.8257 48.0198 44.2706C47.7346 44.0978 47.4788 43.9826 47.1795 43.8231L45.9589 43.0785C45.7183 42.9331 45.768 42.9272 45.5725 42.7909L43.0091 41.3582C42.7646 41.1398 42.5411 40.9756 42.1698 40.9089C40.9054 40.6816 41.8403 41.1869 39.8724 38.9828L32.298 30.4494C32.0333 30.1689 31.8745 29.9988 31.6098 29.7183L29.4617 27.5141C27.6213 25.5471 25.6336 23.729 23.6313 21.938L19.9304 18.6004C19.3791 18.1475 18.924 17.6822 18.4003 17.2558L14.6549 14.0013C14.3625 13.7594 14.1873 13.6352 13.9105 13.375C13.6293 13.1101 13.4366 12.9578 13.171 12.7397C10.8523 10.8382 8.65457 8.76548 6.33475 6.85523C5.8072 6.42091 5.3902 6.03197 4.85181 5.59183L-1.92176 -0.240377C-2.24557 -0.506042 -2.47381 -0.620389 -2.68769 -0.993374L14.9449 8.42648C16.3939 9.21573 20.9721 11.0203 22.5924 11.6246C23.1059 11.8165 23.5205 11.9564 24.0249 12.1434C26.3512 13.0057 28.8236 13.6195 31.2113 14.3543C31.7353 14.5157 32.1581 14.6077 32.6971 14.7737L38.5917 16.3705C39.587 16.629 40.7962 17.2756 41.4341 16.113C41.6035 15.8061 41.1825 15.4289 41.0438 15.3254L39.2728 14.0959C37.591 13.1921 36.034 12.0797 34.3524 11.1866C33.3056 10.6318 31.6308 9.56548 30.5662 9.18257C29.8633 8.92979 29.3263 8.50435 28.6518 8.2203C27.2688 7.63974 28.4498 7.70598 29.404 7.65746C30.5685 7.59851 31.5652 7.52049 32.7459 7.47026C33.1853 7.45133 34.0264 7.44447 34.4555 7.24092C36.8607 6.10093 34.8666 4.78881 33.5642 4.09917C32.316 3.4386 30.8051 3.07672 29.4533 2.70018L27.3335 2.12078C27.048 2.03733 26.9391 1.99751 26.628 1.92478C24.2333 1.3677 21.9071 0.565926 19.5491 -0.150569L15.385 -1.45023C14.9347 -1.60813 14.2079 -1.68416 13.9893 -2.03757C14.2751 -1.99354 14.7153 -2.04455 15.0836 -2.06324C15.8486 -2.10165 16.6191 -1.9056 17.3585 -2.39041C17.6581 -2.5867 17.7198 -2.89899 17.8566 -3.20361C16.5957 -4.58393 16.1864 -4.36514 14.6665 -5.14361C14.3515 -5.30448 14.2519 -5.28351 13.9278 -5.44464L8.30972 -7.72581C7.80152 -7.91015 7.41451 -8.09924 6.90145 -8.28968L-3.02049 -12.113C-3.28983 -12.2331 -3.49219 -12.3068 -3.764 -12.405L-5.1868 -12.9418C-5.48889 -13.055 -5.61753 -13.1252 -5.92836 -13.2374L-20.1504 -18.781C-20.4465 -18.9097 -20.496 -18.8782 -20.8167 -19.0479C-21.0871 -19.1919 -21.2262 -19.2968 -21.5267 -19.4045C-22.2005 -19.6463 -22.2576 -19.8305 -22.8438 -20.1381C-23.3813 -20.4196 -23.5505 -20.6895 -24.1499 -20.8902C-25.4768 -21.3348 -25.2723 -20.8122 -27.1595 -21.825C-27.9289 -22.2379 -29.166 -22.8064 -29.7977 -23.285C-30.6026 -23.8961 -31.5263 -24.2988 -32.3483 -24.9062L-36.1175 -27.4467C-37.6279 -28.2386 -38.8083 -25.5015 -37.87 -23.8453C-37.5575 -23.2962 -37.2236 -22.9216 -36.8445 -22.5681C-36.6932 -22.4276 -36.4884 -22.2304 -36.299 -22.0741C-35.668 -21.5529 -35.0252 -21.2684 -34.3992 -20.7487C-32.6888 -19.3283 -31.3799 -17.5326 -30.2246 -15.6088C-29.5019 -14.4068 -28.6305 -11.0698 -28.4691 -9.78639C-28.3844 -9.11407 -28.2851 -8.56879 -28.2275 -7.94585C-28.1784 -7.42174 -28.1103 -6.73385 -28.1105 -6.17219C-28.1091 -3.85809 -28.1562 -1.70495 -28.4198 0.593697C-28.5469 1.70831 -28.6905 2.69315 -28.8161 3.80276C-29.0888 6.22677 -29.5501 8.24139 -28.7945 10.7474L-28.3586 10.9429C-27.6799 10.764 -27.4523 10.5501 -27.0601 10.1488C-26.89 9.97486 -26.7243 9.77654 -26.5986 9.58577C-26.5156 9.45933 -26.5171 9.42948 -26.4353 9.31401C-25.8317 8.4493 -25.3873 7.44794 -25.1445 6.40591C-24.6228 4.17479 -24.0488 -0.362452 -23.9958 -2.43106C-23.9565 -3.96728 -24.0807 -5.63432 -24.2296 -7.23788C-24.2796 -7.77532 -24.4308 -8.36703 -24.5112 -9.01034C-24.6301 -9.95692 -25.1422 -11.8461 -25.0344 -12.5326C-24.1078 -12.5622 -20.7388 -9.16536 -19.8713 -8.23107C-18.0343 -6.25546 -16.6948 -5.05627 -15.4243 -2.42396C-13.0084 2.58625 -12.1875 9.22479 -12.3248 13.7348C-12.5276 20.4322 -14.3201 26.0997 -16.6579 32.0271C-16.7341 32.2211 -16.6973 32.1873 -16.7903 32.4061C-16.8652 32.5846 -16.8789 32.5691 -16.9535 32.7686C-17.8764 35.2403 -21.1763 42.4099 -20.5955 44.9535C-20.4483 45.6024 -19.9337 46.3101 -19.5213 46.4779C-18.9032 46.7305 -18.2719 46.2889 -17.7613 45.9291C-17.1482 45.4975 -16.9469 45.2263 -16.5178 44.7064C-15.444 43.4078 -14.8614 41.9061 -14.0739 40.4364C-13.93 40.1705 -13.8386 40.0067 -13.697 39.7385C-13.5127 39.3908 -13.5287 39.2624 -13.3595 38.9298C-13.1149 38.4458 -12.7706 37.956 -12.5896 37.4519L-11.5457 35.2207C-11.0135 34.2549 -10.6309 33.1692 -10.2836 32.1169L-9.17055 28.0317C-7.7263 21.9273 -7.79518 13.2243 -9.10266 7.27136C-9.53002 5.32183 -9.55099 5.01631 -10.1865 2.90854C-10.4133 2.15646 -10.6359 1.40313 -10.8668 0.652309C-11.1086 -0.134594 -11.141 -0.648599 -11.4062 -1.52834C-11.0675 -1.50938 -10.9276 -1.25636 -10.6993 -1.00125C-8.16043 1.83142 -4.15079 7.72951 -3.11606 11.2064C-2.9388 11.7994 -2.82065 11.8046 -2.6479 12.3474C-1.62869 15.552 -0.851017 18.7538 -0.584742 21.5648C-0.33044 24.2507 -0.436268 26.912 -0.875484 29.5118C-1.11781 30.9473 -1.51275 32.5392 -2.1717 33.8581C-2.34252 34.2002 -2.34953 34.3477 -2.51234 34.6662L-4.58243 39.1368C-4.66112 39.3528 -4.70147 39.3846 -4.77659 39.5723C-5.01329 40.1629 -5.60825 42.8687 -4.4424 43.2059C-3.25655 43.5493 -1.55358 42.3092 -0.758101 41.5486C-0.373807 41.1814 0.0604705 40.6236 0.382329 40.1799C0.805885 39.5966 0.975286 39.2246 1.31176 38.6085C2.03371 37.2827 2.23096 35.6777 2.49238 34.2002L2.82856 31.7707C2.87957 31.4177 2.78494 31.5507 3.08231 31.3672L5.12145 43.1757C5.19838 44.9872 4.50219 46.2779 3.93134 47.8487L0.787693 55.1649C0.677726 55.4479 0.556427 55.5677 0.443308 55.8803L-2.20799 62.4699C-3.30518 65.6889 -1.40802 67.9294 2.84215 62.2096C4.91832 59.4159 5.25204 57.3247 6.4295 54.2313C6.77432 53.3266 6.96618 51.9397 7.54879 51.2312C7.80865 52.0278 8.59785 53.0386 9.06586 53.7725C9.4593 54.3895 9.81476 54.956 10.3501 55.4061C11.1509 56.079 11.6778 55.301 11.6031 54.3956L10.7543 49.7984C10.667 49.4584 10.4958 49.0665 10.4359 48.7273C10.2142 47.4848 9.84733 46.233 9.50134 44.8947L9.06121 43.0383C8.84547 42.3329 8.82819 41.884 8.58344 41.0722C8.43407 40.5769 8.48605 40.5233 8.42546 40.1768L7.22456 35.3906C7.00743 34.6856 6.99612 34.2364 6.7504 33.4264C6.1662 31.4939 5.81889 29.4082 5.07715 27.4854C4.77942 26.7138 4.58658 26.5964 4.52656 25.6593L4.74163 25.5945C5.00521 26.4687 6.45298 28.8855 6.89726 29.6311C7.09276 29.9581 7.23493 30.274 7.44835 30.6154C8.77883 32.7437 10.1324 34.8181 11.6991 36.7859C12.8078 38.1788 15.7362 41.8114 17.4613 42.1556C17.8077 42.2252 18.2244 42.0557 18.452 41.7766C20.1798 39.6799 15.5134 31.9302 14.3236 30.2181C13.5185 29.0591 12.6667 28.0111 11.7797 26.9071C8.73532 23.1157 5.59418 19.4504 2.78841 15.4766C2.355 14.8625 1.9864 14.3379 1.59235 13.6786C-0.32586 10.4696 -1.90008 6.76478 -3.73428 3.4729C-4.07691 2.85868 -4.62 2.13689 -4.85668 1.53766L-4.85184 1.52863Z" fill="#462C1F" fill-opacity="0.5"/>
  <path fill-rule="evenodd" clip-rule="evenodd" d="M29.4376 32.0885L29.5445 32.0562L29.4933 32.2079L29.4376 32.0885ZM30.1688 32.5704L30.0619 32.6026L30.1131 32.451L30.1688 32.5704ZM30.1688 32.5704C31.3363 32.9283 33.079 35.4849 34.4066 35.7461C34.2224 35.4262 34.0548 35.3072 33.8146 35.0027C33.0752 34.0616 30.5254 31.5592 29.4372 31.2485C29.0147 31.1276 29.316 31.3637 28.9668 31.1193C28.6792 30.9185 29.1081 31.0056 28.5862 30.8209C28.5968 30.9917 28.5879 31.0928 28.6219 31.1552C28.6293 31.1696 28.6505 31.195 28.6607 31.2086C28.7376 31.308 29.195 31.4744 29.4376 32.0885L27.48 31.0378C27.7739 31.7818 32.372 35.4846 33.2415 36.2397C33.9589 36.862 34.0303 36.7072 34.2702 37.0058C34.314 37.0607 34.5611 37.7143 35.344 37.6902C34.7542 36.6631 34.4175 36.8266 34.0596 36.3926C32.8807 34.9679 30.6817 33.4633 30.1678 32.5722L30.1688 32.5704Z" fill="#462C1F" fill-opacity="0.5"/>
  <path fill-rule="evenodd" clip-rule="evenodd" d="M46.3928 76.659C45.6738 77.5327 44.8399 81.3839 44.4307 82.8984C44.2808 83.4507 44.1946 83.9429 44.0435 84.491C43.959 84.7981 43.9527 84.9831 43.8838 85.3067L43.1427 89.5915C43.4999 89.3703 43.4454 89.305 43.5774 88.9246L45.2457 83.4277C45.552 82.2848 46.6305 77.7786 46.3918 76.6608L46.3928 76.659Z" fill="#462C1F" fill-opacity="0.5"/>
  <path fill-rule="evenodd" clip-rule="evenodd" d="M7.21786 26.0149C7.84773 26.653 8.07646 26.3221 8.42141 28.1088C8.58458 28.9512 8.93772 29.535 9.61982 30.0953C10.0882 29.8965 9.76298 29.4254 10.5278 30.2499C10.8283 30.574 11.0672 30.9395 11.4384 31.0713C11.1276 30.0403 9.89913 28.5064 9.20638 27.6799L7.68065 25.9934L7.21828 26.0162L7.21786 26.0149Z" fill="#462C1F" fill-opacity="0.5"/>
  <path fill-rule="evenodd" clip-rule="evenodd" d="M19.9359 21.947L19.829 21.9792L19.732 21.6573L19.8388 21.625L19.9359 21.947ZM20.6576 22.7844C20.4442 22.4128 20.3081 22.363 20.151 21.8821L20.7043 21.7743C20.4707 21.542 20.501 21.5571 20.2053 21.4449C19.4852 21.1701 18.6139 20.3338 17.9462 19.7813C17.331 19.2719 17.4119 19.1991 16.8906 19.2322C16.7082 18.6726 16.4425 18.4439 15.9551 18.4591C16.2036 18.7309 16.1536 18.9064 16.3941 19.1518C16.6394 19.4033 16.7145 19.2807 17.0139 19.6764C18.4987 21.6386 19.3802 21.8814 19.5677 22.1064L19.6824 22.3262C19.9989 22.7636 20.1492 22.75 20.4113 22.7406L20.419 23.203C20.5443 23.0563 20.4449 23.2285 20.5615 23.0027C20.5702 22.9864 20.5874 22.9479 20.5961 22.9317C20.6048 22.9154 20.6225 22.8737 20.6289 22.8597C20.6352 22.8457 20.6505 22.8108 20.6581 22.7858L20.6576 22.7844Z" fill="#462C1F" fill-opacity="0.5"/>
  <path fill-rule="evenodd" clip-rule="evenodd" d="M47.222 78.6357C46.924 78.998 46.7527 79.6446 46.6109 80.1081C46.5267 80.3863 46.4894 80.5989 46.4055 80.8982C45.9202 82.637 45.709 83.3925 45.4363 85.1489C46.5156 84.4813 47.5361 80.1092 47.2216 78.6343L47.222 78.6357Z" fill="#462C1F" fill-opacity="0.5"/>
  <path fill-rule="evenodd" clip-rule="evenodd" d="M5.52267 51.4847C5.46368 51.289 5.52627 51.4715 5.35098 51.3018C4.59562 51.7687 4.0616 53.2709 3.82791 53.7259C3.28369 54.7876 3.1819 55.4692 2.96191 56.5922C3.50908 56.2531 4.12819 54.8373 4.48541 54.1695L5.09274 52.8753C5.25756 52.5031 5.61053 51.7761 5.52267 51.4847Z" fill="#462C1F" fill-opacity="0.5"/>
  <path fill-rule="evenodd" clip-rule="evenodd" d="M55.9507 103.307C55.5421 103.85 55.5669 108.049 55.55 108.952C55.5404 109.507 55.6059 109.207 55.7974 109.798C56.4072 108.989 56.3821 104.864 55.9493 103.308L55.9507 103.307Z" fill="#462C1F" fill-opacity="0.5"/>
  <path fill-rule="evenodd" clip-rule="evenodd" d="M57.0514 91.023C57.4916 90.751 57.2414 91.0959 57.2864 89.6186L57.3049 86.5673C57.3447 85.3337 57.2511 85.7964 57.0106 85.059C56.6053 85.5975 56.7205 87.3551 56.7243 88.2364C56.7266 88.8413 56.7101 89.3639 56.7276 89.949C56.7692 91.317 56.8443 90.7177 56.877 91.1225C56.916 91.6133 56.5409 90.9817 57.0967 91.9464L57.0528 91.0226L57.0514 91.023Z" fill="#462C1F" fill-opacity="0.5"/>
  <path fill-rule="evenodd" clip-rule="evenodd" d="M0.694674 33.1376C0.359163 33.546 -0.0623326 34.5178 -0.27482 35.0481C-0.612915 35.8948 -1.22291 37.7726 -1.16856 38.6206C-1.0279 38.4495 -0.829662 38.2535 -0.721528 38.0498C-0.573656 37.7721 -0.619992 37.6938 -0.461898 37.3797C0.0569678 36.3543 0.930686 34.2517 0.693285 33.138L0.694674 33.1376Z" fill="#462C1F" fill-opacity="0.5"/>
  <path fill-rule="evenodd" clip-rule="evenodd" d="M13.6359 4.16034C14.3462 4.74392 17.7046 6.45907 18.5395 6.4314C17.8142 5.69792 17.173 5.38868 16.2946 4.91029C15.757 4.61827 14.3214 4.01418 13.6359 4.16034Z" fill="#462C1F" fill-opacity="0.5"/>
  <path fill-rule="evenodd" clip-rule="evenodd" d="M20.1652 1.72235C19.8166 1.45963 20.0981 1.66539 19.7337 1.52097C19.0796 1.25951 18.0633 0.665249 17.159 0.447451C16.6318 0.320333 16.3428 0.496758 15.9092 0.429201C16.1217 0.772343 16.0523 0.617654 16.3725 0.740618L17.9241 1.37328C18.174 1.48413 18.2088 1.46908 18.4484 1.57092L19.4898 1.97746C19.9034 2.1343 19.6936 2.17638 20.1559 2.07787C20.1491 1.86951 20.1148 1.88136 20.1657 1.72373L20.1652 1.72235Z" fill="#462C1F" fill-opacity="0.5"/>
  <path fill-rule="evenodd" clip-rule="evenodd" d="M23.6364 25.2833C23.8303 25.62 24.0559 25.7608 24.3275 26.009C24.5803 26.24 24.8306 26.4976 25.106 26.7385C25.4334 27.0258 26.4007 27.9951 26.7139 28.105C26.3163 26.8867 24.9381 25.5388 23.6364 25.2833Z" fill="#462C1F" fill-opacity="0.5"/>
  <path fill-rule="evenodd" clip-rule="evenodd" d="M14.5505 5.64214C15.144 6.60153 16.3896 6.57564 16.7232 6.62793C16.4066 6.11488 15.1244 5.81876 14.5505 5.64214Z" fill="#462C1F" fill-opacity="0.5"/>
  <path fill-rule="evenodd" clip-rule="evenodd" d="M22.1649 2.5257C22.6398 3.35281 23.5622 3.67566 24.3376 3.51147C24.012 3.24484 23.6535 3.19551 23.2704 2.98406C22.9057 2.7837 22.5448 2.64122 22.1663 2.52528L22.1649 2.5257Z" fill="#462C1F" fill-opacity="0.5"/>
  <path fill-rule="evenodd" clip-rule="evenodd" d="M1.47624 23.2941C1.58102 23.4759 2.06527 24.4092 2.09206 24.6085C2.19152 25.3551 1.55056 25.5287 2.22138 25.7654C2.20771 25.3184 2.29826 25.5485 2.32721 25.1023C2.37437 24.3751 2.24563 23.5314 1.47666 23.2955L1.47624 23.2941Z" fill="#462C1F" fill-opacity="0.5"/>
  <path fill-rule="evenodd" clip-rule="evenodd" d="M17.7763 7.01279C17.7872 7.31984 17.8114 7.09908 17.7665 7.36693C17.9389 7.49662 18.7977 8.00059 18.841 7.59698C18.8656 7.36707 18.1765 6.9996 17.7763 7.01279Z" fill="#462C1F" fill-opacity="0.5"/>
  <path fill-rule="evenodd" clip-rule="evenodd" d="M19.2482 6.45226C18.8375 6.5761 19.1993 6.43067 18.9585 6.65616C19.1139 6.78491 19.6621 7.20241 19.8622 7.03763C20.2413 6.72351 19.2579 6.44933 19.2496 6.45184L19.2482 6.45226Z" fill="#462C1F" fill-opacity="0.5"/>
  <path fill-rule="evenodd" clip-rule="evenodd" d="M24.7791 27.5167L24.3811 27.7532C24.6198 27.6813 24.505 27.7023 24.6608 27.737C24.6804 27.7417 24.7204 27.7539 24.739 27.7604L24.7791 27.5167Z" fill="#462C1F" fill-opacity="0.5"/>
  <path fill-rule="evenodd" clip-rule="evenodd" d="M6.64656 24.8988C6.86457 25.4461 6.60245 25.124 6.95871 25.1559C6.93911 25.136 6.92008 25.1282 6.90226 25.0942L6.64656 24.8988Z" fill="#462C1F" fill-opacity="0.5"/>
  <path fill-rule="evenodd" clip-rule="evenodd" d="M25.8438 28.7185C25.8288 28.6837 25.7187 28.7305 25.7099 28.7362C25.6864 28.7538 25.449 28.5439 25.6715 28.7795C25.6759 28.7843 25.9311 28.9177 25.8438 28.7185Z" fill="#462C1F" fill-opacity="0.5"/>
  <path fill-rule="evenodd" clip-rule="evenodd" d="M35.3455 37.6896L35.3777 37.7964L35.4758 37.67L35.3455 37.6896Z" fill="#462C1F" fill-opacity="0.5"/>
  <path fill-rule="evenodd" clip-rule="evenodd" d="M11.4379 31.0701L11.4705 31.1783L11.5682 31.0504L11.4379 31.0701Z" fill="#462C1F" fill-opacity="0.5"/>
  <path fill-rule="evenodd" clip-rule="evenodd" d="M7.21771 26.0149L7.1855 25.9081L7.08739 26.0345L7.21771 26.0149Z" fill="#462C1F" fill-opacity="0.5"/>
</svg>