<?xml version="1.0" encoding="UTF-8"?>
<!DOCTYPE svg PUBLIC "-//W3C//DTD SVG 1.1//EN" "http://www.w3.org/Graphics/SVG/1.1/DTD/svg11.dtd">
<!-- Creator: CorelDRAW 2021.5 -->
<svg xmlns="http://www.w3.org/2000/svg" xml:space="preserve" width="135.849mm" height="257.18mm" version="1.1" style="shape-rendering:geometricPrecision; text-rendering:geometricPrecision; image-rendering:optimizeQuality; fill-rule:evenodd; clip-rule:evenodd"
viewBox="0 0 620.97 1175.57"
 xmlns:xlink="http://www.w3.org/1999/xlink"
 xmlns:xodm="http://www.corel.com/coreldraw/odm/2003">
 <defs>
  <style type="text/css">
   <![CDATA[
    .fil0 {fill:#462C1F40}
   ]]>
  </style>
 </defs>
 <g id="Camada_x0020_1">
  <metadata id="CorelCorpID_0Corel-Layer"/>
  <g id="_3135584014416">
   <path class="fil0" d="M585.3 1159.53c0.03,-0.26 0.85,-0.17 0.92,-0.14 0.16,0.06 1.33,-1.74 0.34,0.2 -0.02,0.04 -1.44,1.43 -1.25,-0.06zm-79.73 -81.28c0.51,0.59 0.51,0.22 1.02,1.31 0.72,1.56 0.2,0.36 0.53,1.79 -2.54,-1.86 -1.08,0.56 -1.55,-3.1zm-3.87 -3.87c2.31,0.86 1.21,-1.66 1.55,2.32 -0.12,-0.14 -0.32,-0.52 -0.37,-0.4l-1.18 -1.92zm-3.1 -4.64c1.91,0.77 1.55,-1.56 1.55,3.1l-0.77 0c0,-1.98 -0.19,-1.87 -0.77,-3.1zm-68.12 -150.17l0.77 0 -0.65 0.9 -0.13 -0.9zm-130.82 -0.77c4.69,0.1 15.34,5.35 20.12,7.75 2.48,1.24 4.38,1.7 6.82,3.24 6.52,4.11 14.48,7.61 24.46,14.25 2.27,1.51 3.29,2.32 5.42,3.87l22.14 16.57c1.34,0.99 1.22,0.92 2.51,2.13l35.99 32.13c0.9,0.76 1.47,1.45 2.33,2.31l23.98 24.78c3.14,3.49 6.56,6.17 9.7,9.66l9.09 10.27c2.18,3 7.59,7.39 8.51,10.84 -3.27,-0.87 -17.88,-13.35 -21.49,-16.44l-10.71 -8.64c-1.32,-0.99 -1.33,-1.21 -2.44,-2.21 -10.79,-9.78 -36.2,-28.58 -48,-38.7l-17.8 -16.26c-0.91,-0.91 -1.37,-1.49 -2.31,-2.33l-52.85 -39.27c-1.34,-0.98 -1.23,-0.93 -2.5,-2.14l-12.97 -11.8zm-111.47 -102.18c11.01,0 35.96,9.03 46.19,14.19l29.16 14.96c4.01,2.17 6.54,5 10.11,7.69 2.19,1.65 2.65,2.38 4.64,3.87 1.45,1.09 1.27,0.91 2.6,2.05 1.34,1.14 1.46,1.05 2.65,1.99l57.34 47.16c1.33,1.13 1.06,0.66 2.26,1.61l82.1 71.94c1.45,1.45 2.78,3.01 4.31,4.2 7.66,5.99 19.76,18.3 26.67,25.97 8.39,9.33 19.88,24.81 26.12,35.03 1.84,3.02 3.17,3.04 4.33,4.18l6.78 9.48c3.98,5.26 3.52,4.12 3.59,7.24 -1.74,-1.17 -2.95,-2.31 -4.33,-4.18 -1.65,-2.23 -2.36,-2.63 -3.87,-4.65l-8.19 -9.61c-10.88,-13.87 -39.62,-42.58 -51.14,-54.14l-15.49 -14.7c-1.41,-1.18 -1.29,-0.77 -2.7,-1.95 -3.31,-2.77 -3.51,-3.99 -8.86,-8.17 -1.69,-1.33 -2.66,-2.75 -4.3,-4.22 -1.43,-1.29 -1.38,-0.96 -2.67,-1.98l-9.28 -7.75c-1.1,-0.87 -1.24,-1.2 -2.5,-2.15l-52.78 -35.46c-23.34,-14.18 -56.13,-41.07 -81.91,-58.21l-51.88 -35.6c-5.12,-3.81 -6.44,-4.02 -8.97,-8.84zm-1.55 -59.61c5.14,0.11 14.38,7.22 18.83,9.81 8.87,5.16 34.31,21.79 43.31,28.68l16.51 12.14c1.73,1.32 1.97,1.72 3.86,3.11l31.49 25.8c1.93,1.92 2.35,1.91 4.25,3.5l7.77 6.94c1.33,1.27 2.15,2.19 3.46,3.51l58.47 56.87c1.7,1.78 1.75,2.51 3.45,4.29 2.38,2.5 4.7,4.39 7,6.94 1.52,1.69 1.44,2.19 3.07,3.9l10.66 11.79c1.32,1.82 1.79,2 3.3,3.67l9.67 12c4.24,4.94 17.62,21.61 17.99,26.13l-145.73 -127.53c-2.63,-2.38 -5.1,-4.53 -8.01,-6.7l-26.81 -23.51c-1.78,-1.7 -2.51,-1.75 -4.29,-3.45l-18.18 -17.43c-9.12,-7.65 -17.48,-16.71 -25.93,-25.16 -2.53,-2.53 -5.01,-4.74 -7.36,-7.35 -1.52,-1.69 -1.43,-2.19 -3.07,-3.9 -1.62,-1.69 -2.41,-2.13 -3.69,-4.05zm-1.55 -227.58l0.77 0 -0.64 0.9 -0.13 -0.9zm0 0l-0.77 0 0.65 -0.9 0.13 0.9zm243.07 187.33c0,5.22 -0.04,11.02 1.04,15.99 0.9,4.14 2.91,4.8 6.7,5.69l1.15 -1.17c3,-3.49 3.83,-7.17 5.33,-11.7 5.36,-16.13 10.69,-25.93 17.78,-40.28 5.68,-11.5 16.47,-24.09 28.11,-29.95 5.53,-2.78 7.77,-3.6 15.75,-3.6 -0.87,3.72 -2.71,5.94 -4.64,8.52 -1.15,1.54 -1.96,2.32 -3.1,3.87 -1.25,1.69 -1.99,2.15 -3.24,3.73 -6.01,7.61 -13.62,13.6 -19.52,21.51 -1.28,1.71 -1.96,2.01 -3.25,3.72 -24.22,32.04 -35.35,65.26 -39.85,105.68 -1.61,14.48 -3.11,36.76 -0.88,51.33l3.07 24.8c3.7,22.09 10.69,43.12 19.08,63.75 3.9,9.58 8.38,18.98 14.52,27.28 2.73,3.69 3.97,3.87 7.62,6.32 2.5,-3.73 3.14,-4.57 3.11,-10.83 -0.07,-12.58 -1.33,-30.03 0.05,-41.75l2.28 -25.59c1.49,-19.47 8.23,-51.64 14.4,-69.98 2.41,-7.17 4.27,-14.03 7.02,-20.85l12.89 -29.69c6.13,-12.26 12.93,-23.91 20.48,-35.25 9.37,-14.05 20.47,-26.28 31.69,-38.75 2.28,-2.54 4.81,-4.31 6.86,-7.07 2.3,-3.1 4.05,-4.6 6.7,-7.24 7.27,-7.26 19.37,-24.19 32.32,-24.19 -1.21,14.52 -25.19,40.61 -33.74,52.19 -4.1,5.56 -8.12,11.91 -14.26,15.16l-0.87 -3.07c-2.43,1.66 -2.63,2.33 -4.42,4.74 -14.45,19.41 3.07,4.64 -16.26,30.19 -39.58,52.32 -61.28,116.64 -61.28,182.56 0,14.66 2.44,30.26 6.09,41.13 9.98,29.67 28.73,58.56 47.94,82.88 1.52,1.92 5.04,3.87 7.12,5.26 4.96,-10.34 5.9,-27.53 6.99,-39.45 1.16,-12.64 5,-27.94 8.59,-38.63l4.44 -12.59c0.73,-2.09 1.07,-2.35 1.9,-4.29l3.63 -7.98c0.7,-1.55 0.96,-2.64 1.79,-4.4 4.18,-8.79 10.69,-26.72 17.22,-33.1 1.19,-1.16 0.18,-0.59 1.89,-1.21 -0.08,3.6 -11.96,30.46 -14.97,36.89 -3.9,8.35 -6.64,16.71 -9.51,25.32 -1.58,4.75 -3.12,8.61 -4.32,13.48l-3.55 14.26c-1.26,5.14 -1.84,9.39 -2.81,14.99 -0.97,5.55 -3.19,26.72 -2.33,31.58 0.85,4.73 0.2,7.16 1.94,15.91 4.7,23.64 10,35.7 24.4,54.56 5.48,7.18 2.9,5.97 -2.79,16.72 -6.69,-3.54 -9.21,-10.44 -14.51,-15.68 -3.39,-3.35 -6.37,-7.82 -10.26,-10.64l-26.01 -25.08c-1.8,-2.41 -2.7,-3.25 -4.33,-5.73 -5.09,-7.7 -8.06,-10.6 -11.98,-18.98 -0.75,-1.6 -2.94,-4.69 -4,-6.07l-16.13 -24.9c-3.33,-6.8 -7.92,-12.67 -12.01,-18.95 -9.65,-14.79 -4.06,-12.59 -13,-28.02 -3.51,-6.05 -16.84,-27.09 -18.85,-33.02 -0.99,-2.9 -1.29,-5.92 -1.29,-9.55 3.07,0.26 4.67,1.29 7.74,1.55 0.26,-3.08 0.77,-1.86 0.77,-3.87 0,-6.24 -3.17,-15.35 -4.93,-20.61 -2.33,-6.99 -4.82,-12.04 -6.83,-19.49 -3.66,-13.58 -6.21,-29.02 -8.69,-43.18 -6.63,-37.89 -17.13,-75.22 -32.97,-110.24l-19.83 -45.97c-8.87,-22.22 -26.68,-77.69 -16.56,-98.78 6.07,3.21 9.25,11.55 12.39,17.8l13.65 32.02c14.62,44.11 17.63,63.85 27.06,110.73 0.93,4.62 1.49,8.6 2.73,12.75 1.6,5.32 1.62,6.38 6.1,9.38 4.78,-7.14 3.1,-17.63 3.1,-28.64 0,-21.51 -0.85,-50.71 -0.03,-71.25 0.14,-3.42 0.82,-3.6 0.82,-7.69 0.01,-5.2 -0.61,-10.96 0.29,-15.97 1.91,-10.59 0.24,-33.33 2.32,-44.9l1.24 -15.01c0.18,-2.43 -0.13,-5.31 -0.03,-7.77 0.26,-6.61 1.63,-14.85 1.57,-22.43 -0.03,-3.81 0.42,-4.44 0.72,-7.02 0.31,-2.63 -0.15,-5.81 0.05,-8.46 0.33,-4.35 1.55,-9.96 1.55,-14.7 3,2.01 2.59,2.33 3.42,6.64 0.96,5.03 2.09,21.23 9.74,21.23 3.02,0 9.3,-11.86 11,-14.54 12.78,-20.16 25.81,-40.21 44.16,-55.7 1.37,-1.16 1.27,-0.79 2.68,-1.96 5.67,-4.72 12.66,-10.48 19.89,-12.63 2.46,-0.73 2.07,-0.01 4.33,-1.09 0,3.53 -0.57,5.06 -2.17,7.12l-72.78 87.45c-14.52,18.25 -16.89,25.73 -18.72,51.72 -1.45,20.64 -7.74,54.45 -7.74,72.77zm-237.65 -230.68l4.34 5.73c5.31,7.23 26.6,44.24 31.52,53.63l3.87 6.97c0.95,1.82 1.24,1.95 2.06,3.36 0.73,1.25 1.02,2.1 1.81,3.61 1.41,2.69 2.43,4.01 3.88,6.96l11.2 20.54c1.56,2.48 2.38,4.31 3.76,7.08 1.39,2.78 2.24,3.65 3.63,6.43l11.34 21.17c8.61,17.4 20.84,38.42 29.42,55.73 4.82,9.73 9.84,18.9 14.71,28.64l64.25 126.95c1.22,2.45 2.27,4.56 3.61,7.23l10.32 21.41c2.4,4.8 4.57,9.91 6.97,14.71l26.32 59.61c-3.09,-2.26 -55.13,-86.27 -59.92,-94.13l-47.37 -74.93c-2.95,-4.84 -5.29,-8.76 -8.21,-13.47 -5.62,-9.08 -10.94,-17.68 -16.36,-26.99l-19.09 -33.55c-1.24,-2.46 -2.55,-4.35 -3.87,-6.97l-28.9 -56.25c-1.33,-3.14 -1.89,-4.54 -3.36,-7.48 -7.2,-14.34 -23.09,-52.98 -28.03,-67.96l-10.31 -32.26c-2.22,-8.19 -7.59,-27.71 -7.59,-35.76zm0 0l-0.77 0 0.64 -0.9 0.13 0.9zm103.73 130.05c0,14.62 3.09,21.14 6.05,31.88 0.67,2.43 1.63,8.83 1.69,11.47 -2.15,-0.57 -1.85,-0.35 -3.27,-2.15 -5.68,-7.22 -4.07,-13.57 -5.85,-25.11l-0.94 -11.44c-4.38,3.21 -3.1,11.12 -3.1,16.26 -2.52,-0.67 -2.54,-1.44 -3.26,-2.93 -0.74,-1.54 -0.61,1.85 -0.61,-2.49 0,-4.95 1.24,-6.82 1.53,-10.85l0.79 -23.98c0,-2.18 -0.33,-1.43 -1.55,-2.32 -0.36,4.3 -2.75,7.96 -3.09,13.16 -0.23,3.51 -0.59,5.14 -0.77,7.74 -0.25,3.54 -0.55,5.04 -0.78,7.74 -11.87,-7.95 -3.1,-26.53 -3.1,-46.45 -2.21,1.48 -2.4,1.4 -3.41,4.33l-1.74 4.45c-1.24,1.97 -0.02,0.11 -1.04,1.28 -0.37,-16.76 -4.34,-11.46 -2.79,-19.81l2.7 -21.3c4.18,-31.42 11.92,-54.94 23.62,-83.98l12.07 -24.31c4.12,3.02 0.92,8.62 0.8,20.15 -0.04,3.38 -0.47,3.14 -0.74,5.46l-1.61 23.16c-0.21,2.97 -0.68,2 -0.8,5.39l-7.71 84.41c-0.18,2.63 -0.02,3.19 -0.47,5.72l-2.63 34.52zm-104.5 -194.3l0.77 0 -0.64 0.9 -0.13 -0.9zm-132.37 0c8.28,1.93 42.09,25.76 49.73,32.32 2.65,2.28 5.1,3.93 7.74,6.19l36.39 32.51c2.51,2.51 4.45,4.47 6.97,6.96 2.65,2.62 3.83,4.64 6.58,7.35l9.62 11.28c0.96,1.2 2.2,2.87 2.96,4.01 -1.41,0.7 -0.97,0.6 -3.1,0.77 0.68,2.54 4.87,7.58 6.77,9.49 1.92,1.93 1.91,2.35 3.5,4.25 2.72,3.25 4.45,3.85 7.85,8.4 3.29,4.41 8.2,7.84 8.2,17.34 -1.15,-0.61 -4.86,-2.12 -5.54,-2.98 -1.31,-1.67 -0.17,-0.71 -1.04,-2.83l-25.74 -32.31c-2.01,-1.97 -2.14,-2.75 -3.85,-4.66 -1.66,-1.84 -2.99,-2.66 -4.54,-4.75 -2.74,-3.69 -5.47,-6.01 -8.64,-9.16l-8.51 -9.3c-3.12,-3.12 -5.72,-5.91 -8.88,-8.92l-9.31 -8.5c-1.45,-1.45 -2.78,-3.01 -4.31,-4.2l-9.57 -8.23c-1.84,-1.44 -2.91,-3.08 -4.7,-4.59 -1.31,-1.1 -1.08,-0.68 -2.26,-1.61l-36.8 -30.55c-2.45,-2.03 -8.04,-6.12 -9.5,-8.3zm132.37 0l-0.77 0 0.65 -0.9 0.13 0.9zm-132.37 0l-0.77 0 0.65 -0.9 0.13 0.9zm134.69 -14.71l0.23 0.23c-0.02,-0.02 -0.31,-0.15 -0.23,-0.23zm-13.16 -17.03c4.96,0.41 4.17,3.49 5.87,11.93l2.64 15.16c-3.19,-2.34 -8.05,-23.48 -8.51,-27.09zm-85.15 -60.38c2.7,1.43 3.56,0.89 3.87,4.64 -0.93,-0.49 -1.74,-0.66 -2.47,-1.4 -1.26,-1.29 -0.88,-2.09 -1.4,-3.25zm-5.42 -6.19c2.9,0.77 3.18,1.66 3.87,4.64 -0.23,-0.15 -2.25,-1.47 -2.33,-1.54 -1.68,-1.58 -0.77,-1.37 -1.54,-3.1zm-3.87 -14.71l0.77 0c0,4.26 2.95,3.38 -1.55,3.87 0.89,-1.86 0.77,-1.01 0.77,-3.87zm70.44 -60.38c0.52,0.82 0.46,0.02 0.72,1.61 0.11,0.67 0.06,1.58 0.06,2.26l-0.77 0 0 -3.87zm-135.47 -7.74c4.7,0 6.14,1.53 9.29,3.1 10.93,5.46 14.26,8.2 23.54,15.17l9.96 8.62c1.36,1.34 2.1,2.16 3.46,3.51l54.53 61.58c2.04,2.56 3.56,4.81 5.6,7.56 1.95,2.63 3.35,4.52 5.31,7.08 1.12,1.46 1.49,2.04 2.56,3.63 8.49,12.55 21,30.09 27.93,43.28 6.79,12.92 16.93,29.89 22.04,42.99 3.35,8.61 13.65,30.12 13.83,38.04 -3.31,-0.88 -1.29,-0.87 -6.64,-8.06 -9.4,-12.61 -6.56,-12.94 -14.77,-29.36 -14.7,-29.4 -25.33,-39.06 -42.7,-61.03l-23.95 -27.92c-1.7,-1.81 -1.78,-2.52 -3.46,-4.28 -1.39,-1.46 -2.54,-2.34 -3.91,-3.84 -1.67,-1.83 -1.8,-2.8 -2.89,-4.86 4.03,1.08 3.88,2.73 8.28,6.42 2.85,2.39 2.31,2.98 5.65,1.32 -0.58,-2.18 -2.96,-4.37 -5.62,-7.54 -1.98,-2.36 -4.69,-4.71 -6.96,-6.98 -3.64,-3.64 -10.84,-9.84 -12.19,-14.9 2.13,1.43 3.63,2.82 6.97,3.1 -1.04,-4.46 -8.31,-11.21 -13.16,-11.61 -0.3,-3.58 -1.83,-4.35 -5.42,-4.64 -0.93,4 -0.54,5.17 3.87,6.19 0,1.58 -0.2,2.92 0.32,4.33l3.83 5.46c0.61,1.4 0.94,2.73 1.27,4.15 -2.52,-1.69 -18.05,-19.88 -21.36,-24.31l-41.8 -50.31c-3.9,-5.14 -1.79,-2.27 -3.4,-5.88zm191.97 145.53c0.25,-3.01 4.4,-10.84 0.77,-10.84 -2.6,0 -11.81,19.08 -13.92,23.23 -1.41,2.77 -3.08,6.15 -5.43,7.73 0,-7.35 5.73,-18.82 8.4,-25.66 1.96,-4.99 9.05,-20.39 9.4,-24.66 -6.34,1.48 -5.98,4.45 -8.51,10.07l-8.22 18.1c-1.47,3.02 -0.74,2.17 -3.39,3.57 0.14,-6.34 6.74,-31.42 8.8,-37.65l8.49 -19.38c1.29,-2.55 1.86,-3.63 3.3,-5.99 3.13,-5.11 5.24,-10.21 10.22,-17.65 2.57,-3.83 4.69,-7.38 7.43,-11.15l16.72 -21.21c1.48,-2.03 2.6,-2.98 4.46,-4.83 2.06,-2.05 2.37,-3.11 4.23,-5.06l31.43 -28.95 24.59 -17.21c2.1,-1.27 4.24,-2.95 6.51,-3.55 -0.65,2.79 -7.08,13.48 -8.97,16.57l-75.15 123.02c-1.19,2.07 -2.17,3.41 -3.35,5.16l-6.97 10.84c-2.61,3.88 -7.61,13.33 -10.84,15.48zm-72.76 -341.37c7.59,5.56 17.74,47 20.13,56.51 3.56,14.17 4.3,30.8 5.41,45.68 0.4,5.38 0.78,2.2 0.78,11.61 -0,5.02 -0.01,8.61 0.61,12.55l0.17 50.92c-5.47,-6.3 -4.3,-10.33 -5.87,-19.67l-14.17 -100.39c-0.5,-4.33 -1.12,-7.96 -1.55,-11.61 -1.79,-15.44 -3.54,-30.33 -5.5,-45.59zm16.26 203.59l-7.2 -22.21c-7.07,-17.35 -15.57,-33.66 -24.29,-50.02 -0.79,-1.49 -1.96,-3.75 -2.34,-5.48 -0.93,-4.32 0.42,-2.52 1.32,-5.88l-10.85 -20.89c-2.24,-3.84 -5.94,-8.81 -6.95,-13.17l-3.07 0.87c-0.57,-2.13 -0.71,-1.93 -1.88,-3.66 -6.06,-8.96 -10.13,-18.73 -14.9,-28.45 -3.09,-6.29 -13.6,-28.04 -14.21,-35.33 3.54,2.37 5.4,6.1 8.05,9.75 0.93,1.28 1.19,1.43 2.02,2.62 9.46,13.53 19.3,26.93 27.6,41.29l6.91 11.67c1.36,2.22 1.88,3.87 3.14,6.15 1.29,2.34 2.18,3.53 3.36,5.93l26.22 65.9c5.17,14 10.11,14.82 13.51,22.87 1.74,4.1 7.37,24.68 11.36,25.8 6.09,1.72 4.65,-12.31 4.64,-15.48 -0.02,-19.88 9.64,-47.11 15.96,-66.09 5.94,-17.82 12.5,-35.03 20.93,-51.83 1.4,-2.78 1.85,-3.98 3.11,-6.95 2.16,-5.1 4.93,-9.06 7.22,-13.68 8.04,-16.24 20.11,-36.49 31.53,-51.3 5.33,-6.92 11.92,-18.41 18.79,-23.01 1.32,2.86 -5.03,16.49 -6.2,19.35 -2.71,6.63 -5.04,13.51 -7.74,20.13 -1.27,3.12 -2.76,7.06 -3.77,10.16l-35.03 103.53c-1.21,3.24 -2.9,6.42 -3.77,10.16l-1.04 -1.28c-1.14,-0.92 -0.42,-0.61 -2.05,-1.04 -0.54,2.02 -1.24,3.07 -3.3,4.15 -0.08,0.04 -0.3,0.11 -0.37,0.14l-0.66 0.24c-0.04,0.02 -0.21,0.07 -0.31,0.12 1.65,3.45 1,5.74 -1.34,8.72 -2.57,3.27 -4.68,10.64 -6.1,14.8 -2.28,6.67 -8.26,17.02 -8.81,23.7 1.84,1.23 0.81,0.94 3.1,1.55 0.98,-4.22 3.22,-7.58 4.76,-11.5 1.55,-3.96 3.1,-7.82 4.85,-12.18 1.78,-4.44 2.89,-7.88 4.63,-12.4 0.69,-1.8 2.23,-3.52 2.28,-5.31 0.09,-2.76 -0.58,-5.41 -1.04,-7.38 2.68,-0.06 3.74,-1.1 4.37,0.27 1.52,3.31 -14.86,52.24 -17.01,56.76 -3.55,7.49 -8.09,14.05 -12.15,21.14 -6.63,11.58 -11.59,19.6 -14.86,33.13 -4.26,17.6 -1.89,27.45 -2.13,43.55 -0.05,3.58 -0.8,3.65 -0.8,6.16l-0.77 0c0,-4.41 -6.79,-41.89 -7.72,-49.57l-5.44 -51.07c0,2.78 1.16,5.41 2.52,7.54 0.94,1.47 0.38,1.12 2.12,1.75 0,-6.94 -1.08,-12.69 -2.99,-18.69 -0.73,-2.3 -1.43,-3.39 -1.66,-6.08l-1.55 10.06zm275.58 671.14c-2.88,-1.04 -1.79,-1.13 -4.14,-5.92l-76.62 -157.93c-2.37,-4.74 -4.45,-8.9 -6.71,-13.42 -5.67,-11.37 -32.86,-60.27 -34.07,-68.11l-1.53 -18.6c0.01,-4.37 -0.81,-4.9 -0.81,-9.26 0,-1.68 0.15,-3.82 0.02,-5.44 -0.23,-3.04 -0.55,-1.6 -0.78,-4.64 -0.4,-5.28 -0.24,-14.73 -0.03,-20.16 0.85,-21.12 4.6,-48.48 6.93,-69.7 0.2,-1.79 -0.05,-3.32 0.23,-5.19l4.48 -45.84c0.12,-1.7 -0.13,-3.72 -0.01,-5.42 0.22,-3.06 0.56,-1.58 0.78,-4.64 0.41,-5.57 0.14,-13.81 1.08,-19.05 0.64,-3.56 0.38,-5.84 0.43,-9.63 0.12,-8.21 1.59,-20.22 1.58,-29.39 -0,-3.56 0.18,-6.37 0.41,-9.55 0.23,-3.19 -1.33,-5.55 -1.96,-8.26 -6.51,0 -7.33,0.67 -10.08,4.63 -10.38,14.91 -17.38,32.38 -24.22,49.32 -5.92,14.67 -9.8,30.05 -13.53,45.3l-10.43 48.41c-1.53,8.87 -1.35,18.02 -1.35,28.84 -4.17,-3.05 -19.57,-32.48 -22.14,-36.69l-14.99 -26.03c-6.42,-10.82 -7.89,-23.65 -10.87,-35.58l-6.9 -29.48c-1.79,-9.05 -6.88,-21.28 -2.14,-31.45 3.4,-7.29 9.66,-15.23 14.01,-22.37l104.66 -170.15c2.59,-4.25 4.71,-7.45 7.28,-11.3 1.26,-1.89 2.37,-3.54 3.71,-5.58 5.53,-8.35 7.12,-8.68 7.12,-20.74 -4.74,0 -4.15,-1.37 -8.43,0.07l-33.68 18.2c-2.24,1.63 -3.86,2.68 -5.88,4.18l-33.48 29.22 -28.9 33.8 -12.87 18.87c-8.37,13.2 -15.36,27.09 -20.63,42.07l-5.44 15.46c-1.42,4.37 -2.37,13.1 -5.51,15.39l-2.79 -21.99c-2.08,-11.66 -0.34,-36.33 3.45,-47.02l10.78 -20.96c0.89,-1.4 1.73,-2.47 2.46,-3.73 4.69,-7.99 10.44,-16.19 13.85,-24.85 5.91,-15 9.91,-32.6 14.92,-48.55 0.99,-3.14 1.89,-7.14 2.88,-10.28 1,-3.2 1.79,-6.15 2.91,-9.47 1.22,-3.62 1.87,-6.44 3.1,-10.06l12.37 -38.72c3.78,-13.53 8.48,-25.34 12.8,-38.29 1.01,-3.02 1.94,-5.96 3.24,-9.15l10.29 -28.42c4.3,-11.03 19.36,-47.83 18.88,-57.73 -0.18,-3.67 -3.21,-5.4 -7.27,-4.25 -6.78,1.93 -15.11,13.2 -19.6,19.15l-36.07 52.95c-1.05,1.8 -1.38,2.12 -2.33,3.86l-6.69 12.66c-7.27,14.31 -14.44,28.64 -20.6,43.65 -5.17,12.59 -9.94,24.42 -13.76,37.33l-8.39 29.54c-0.91,3.78 -0.73,7.28 -3.7,9.46 0,-4.64 -0,-9.29 0,-13.93 0.01,-5.55 -0.79,-8.55 -0.79,-13.14 -0.01,-4.65 0.01,-9.31 0.03,-13.96 0.02,-5.03 -0.8,-7.5 -0.78,-13.15 0.1,-42.32 -12.96,-96.24 -37.16,-132.37 -4.09,0 -6.08,-0.25 -7.78,2.28 -3.67,5.48 1.88,38.53 3.32,47.84 3.91,25.25 6,51.19 10.19,76.51l2.79 18.89c-1.7,-0.61 -0.75,0.05 -1.89,-1.21 -1.82,-2 -2.5,-5.06 -3.52,-7.31 -5.04,-11.14 -9.94,-22.82 -16.41,-33.13l-48.83 -72.71c-1.27,-1.52 -1.87,-2.39 -3.1,-3.87 -0.86,-1.04 -0.9,-0.88 -1.79,-2.08 -2.27,-3.02 -5.69,-6.85 -8.96,-8.85 -5.38,-3.28 -6.13,-1.13 -9.93,1.42 0,14.84 23.48,61.53 30.97,78.18l36.64 73.28c3.14,6.29 6,12 9.03,18.07 1.69,3.38 2.75,5.67 4.4,9.54 1.48,3.48 2.82,5.76 4.36,9.57 11.04,27.4 10.96,65.14 15.82,94.1 1.6,9.56 8.71,38.07 8.71,46.25 -3.87,-1.03 -12.83,-17.07 -15.61,-20.77l-10.12 -13.88c-4.77,-5.54 -8.65,-12.01 -13.55,-17.41 -7.04,-7.77 -15.44,-19.27 -22.44,-26.33l-8.53 -9.27c-2.5,-2.48 -3.42,-4.23 -5.79,-6.59 -4.33,-4.3 -8.08,-8.06 -12.39,-12.38l-6.21 -5.41c-12.18,-10.96 -20.14,-17.7 -35.67,-25.49 -5.56,-2.79 -11.49,-5.7 -17.82,-6.95 -10.32,-2.04 -16.68,2.7 -10.58,12.91 0.91,1.52 1.38,2.41 2.35,3.85 0.86,1.28 1.54,2.31 2.47,3.72l32.93 40.6c6.81,7.5 13.01,15.37 20.14,22.44l5.79 6.6c7.29,7.66 26.41,27.75 32.19,35.15l28.93 31.45c7.95,10.16 17.14,19.7 24.94,30.02 1.17,1.55 1.71,1.95 2.79,3.4l12.63 18.33c4.41,7.64 9.18,15.48 12.6,23.79 4.85,11.8 -3.35,3.29 1.17,31.34 1.07,6.64 2.27,14.5 3.78,20.99 -3.83,-1.02 -7.11,-5.94 -9.87,-8.71l-53.82 -50.68 -16.19 -12.45c-11.35,-7.53 -22.19,-15.62 -33.93,-22.58l-24.48 -13.45c-5.85,-2.93 -22.73,-12.51 -27.91,-4.93 -5.69,8.34 20.03,24.31 25.91,29.37l65.84 52.59c16.84,13.21 41.83,38.09 55.67,53.47 1.54,1.71 3,2.98 4.66,4.63l6.58 7.35c1.3,1.44 0.96,1.38 1.98,2.67l14.08 14.57c1.18,1.93 2.33,3.46 4.65,4.64 7.9,4.02 2.73,-1.18 11.34,17.3l33.04 71.46c1.19,2.38 1.9,3.82 3.09,6.2l9.8 18.84c8.24,16.66 17.75,32.63 27.41,48.45l17.8 29.42c2.74,4.09 4.82,8.07 7.43,11.93l18.26 28.96c1.45,2.18 2.36,3.35 3.67,5.62 1.33,2.31 2.3,3.7 3.62,5.67 11.53,17.18 21.92,35.25 33.44,52.49 2.62,3.92 4.6,7.32 7.28,11.3l33.13 52.02c1.61,2.4 2.89,3.61 3.56,6.5l-97.72 -97.35c-8,-8.1 -34.65,-29.14 -44.15,-36.36 -3.01,-2.29 -5.47,-4.04 -8.43,-6.28 -13.65,-10.33 -28.76,-19.31 -43.07,-28.92 -3.14,-2.11 -5.75,-3.56 -8.98,-5.73l-35.76 -22.29c-6.06,-3.69 -12.76,-10.37 -19.29,-3.96 -1.73,1.69 0.3,5.02 1.01,5.98l9.25 11.65c9.31,9.32 17.38,19.77 26.71,29.02 5.81,5.75 14.75,16.13 21.02,20.78 4.14,3.07 6.84,6.95 10.73,10.17 7.98,6.59 0.31,3.8 -6.09,2.22 -7.81,-1.93 -14.55,-3.4 -22.45,-5.42 -2.94,-0.75 -8.51,-2.38 -11.75,-1.89 -18.16,2.74 -7.6,15.38 -0.37,22.53 6.93,6.85 16.19,12.25 24.37,17.43l12.85 8.05c1.72,1.12 2.36,1.6 4.27,2.7 14.71,8.45 28.48,18.38 42.63,27.81l24.92 16.88c2.66,1.94 7.31,3.89 8.05,6.66 -1.8,-0.86 -4.81,-1.4 -7.28,-2.01 -5.13,-1.27 -9.83,-4.1 -15.68,-2.37 -2.37,0.7 -3.4,2.64 -4.91,4.38 5.58,11.63 8.72,11 17.21,19.17 1.76,1.69 2.46,1.75 4.28,3.46l32.57 26.26c2.99,2.23 5.17,4.25 8.18,6.53l57.93 45.02c1.54,1.33 2.73,2.22 4.33,3.41l8.33 6.38c1.77,1.35 2.48,2.07 4.31,3.43l82.91 64.95c1.7,1.44 2.09,1.33 3.87,3.09 1.5,1.49 2.21,2.46 3.98,3.77 3.97,2.94 3.98,4.27 7.24,7.47 2.99,2.93 3.57,5.05 7.13,7.57 7.88,5.58 7.57,1.72 18.02,12.17 4.26,4.26 11.3,10.48 14.52,14.9 4.1,5.64 9.4,10.14 13.62,15.79l19.84 24.29c8.4,8.24 21.65,-7.49 18.75,-20.3 -0.97,-4.25 -2.43,-7.39 -4.23,-10.48 -0.72,-1.23 -1.68,-2.94 -2.62,-4.35 -3.13,-4.7 -6.81,-7.86 -9.91,-12.54 -8.47,-12.79 -13.54,-27.26 -17.34,-42.27 -2.38,-9.38 -1.49,-33.16 -0,-41.96 0.78,-4.61 1.21,-8.41 2.07,-12.64 0.72,-3.56 1.64,-8.24 2.76,-11.95 4.6,-15.29 9.2,-29.42 15.52,-44.08 3.06,-7.11 5.97,-13.33 9.01,-20.41 6.63,-15.47 13.69,-27.86 13.69,-45.92l-2.49 -2.16c-4.84,-0.17 -6.77,0.79 -10.16,2.66 -1.47,0.81 -2.96,1.79 -4.17,2.8 -0.8,0.67 -0.85,0.87 -1.62,1.47 -5.71,4.51 -10.64,10.24 -14.32,16.64 -7.89,13.7 -20.72,42.53 -25.19,56.09 -3.32,10.07 -5.82,21.33 -8.03,32.22 -0.74,3.65 -0.92,7.86 -1.67,12.27 -1.1,6.49 -1.48,19.99 -3.56,24.31 -6.18,-1.65 -21.67,-30.8 -25.54,-38.7 -8.2,-16.71 -14.66,-27.3 -17.81,-47.22 -5.98,-37.91 1.82,-83.4 11.71,-112.92 14.68,-43.84 37.81,-77.71 65.06,-112.21 0.89,-1.13 0.58,-0.98 1.63,-2.24 0.85,-1.03 0.91,-0.9 1.8,-2.07 11.02,-14.49 47.1,-55.28 48.33,-73.24 0.32,-4.58 -1.67,-10.28 -4.06,-12.21 -3.58,-2.9 -8.63,-1.24 -12.72,0.12 -4.91,1.63 -6.78,3.02 -10.65,5.6 -9.68,6.44 -16.52,15.2 -24.65,23.34 -1.48,1.47 -2.41,2.37 -3.88,3.86 -1.91,1.93 -2.06,2.81 -3.84,4.67 -2.58,2.71 -5.83,5.26 -8.03,8.23l-11.34 12.66c-5.44,5.32 -10.13,11.73 -14.52,17.99l-15.49 24.77c-21.7,37.45 -38.58,95.08 -41.8,137.01 -1.06,13.73 -1.53,15.79 -1.53,30.98 0,5.42 -0.03,10.84 0,16.26 0.03,5.68 -0.78,9.14 -0.78,15.48 -2.2,-0.8 -2.62,-2.75 -3.62,-4.89 -11.13,-23.77 -25.87,-70.72 -25.78,-95.75 0.01,-4.27 -0.76,-4.54 -0.82,-8.47 -0.35,-23.2 0.89,-45.9 4.73,-65 3.67,-18.25 9.67,-35.62 17.75,-51.92 4.46,-9 10.24,-18.73 17.22,-26.13 1.81,-1.92 2.15,-2.88 3.86,-4.66l22.58 -25.41c0.95,-1.27 1.28,-1.4 2.15,-2.49 2.74,-3.43 12.06,-20.12 5.03,-24.67 -7.15,-4.63 -20.87,0.17 -27.64,3.61 -3.27,1.66 -7.25,4.48 -10.26,6.77 -3.96,3.01 -5.82,5.13 -9.27,8.53 -7.41,7.32 -11.91,17.53 -16.58,26.77l-7.06 15.38c-1.04,2.23 -0.15,1.54 -2.48,2.16l10.05 -82.07c3.1,-12.12 10.27,-19.26 17.17,-28.5l35.34 -42.07c1.29,-1.65 2.33,-2.2 3.7,-4.04l30.64 -38.25c13.66,-19.08 5.59,-37.66 -33.88,-8.34 -19.28,14.32 -25.65,27.47 -39.59,45.56 -4.08,5.29 -8.11,14.07 -13.37,17.59 -0.13,-5.78 -3.33,-14.03 -4.96,-19.81 -1.37,-4.86 -2.59,-9.31 -5.23,-13.35 -3.95,-6.04 -8.98,-1.95 -10.29,4.18l-3.55 32.06c-0.1,2.42 0.25,5.35 -0.03,7.71 -1.01,8.65 -1.08,17.65 -1.46,27.18l-0.79 13.14c0.02,5.09 -0.76,8.09 -0.76,13.94 -0,3.57 -0.45,3.82 -0.74,6.23l-1.6 34.01c0.03,5.09 -0.79,8.08 -0.78,13.92 0.01,13.93 -1.85,28.4 -0.78,42.58 0.43,5.69 1.47,6.85 0,13.16l-1.55 0c0,-6.3 -4.75,-25.15 -6.2,-30.96 -0.64,-2.55 -0.95,-4.92 -1.68,-7.6 -4.55,-16.71 -9.36,-33.11 -15.79,-49.23 -4.55,-11.41 -16.66,-41.24 -27.37,-46.95 -2.15,-1.15 -5.24,-0.86 -7.3,0.53 -15.59,10.41 -0.2,70.9 4.25,84.58 3.01,9.26 6.55,17.88 10.21,26.94 12.56,31.11 26.01,61.58 36.63,93.42 1.64,4.92 3.03,9.12 4.32,14.26 6.28,25.02 9.3,52.63 14.86,78.03 1.04,4.74 3.19,10.59 3.56,15.02z"/>
   <path class="fil0" d="M264.83 649.4l-0.77 0 0.64 -0.9 0.13 0.9zm-3.87 -4.64l0.77 0 -0.64 0.9 -0.13 -0.9zm0 0c-7,-4.69 -13.42,-25.05 -21.67,-29.42 0.58,2.48 1.45,3.6 2.43,6.09 3.01,7.69 14.87,29.3 21.44,33.52 2.55,1.64 1.03,-0.52 2.85,1.79 1.5,1.9 -1.16,0.47 1.92,2.73 0.27,-1.15 0.53,-1.8 0.43,-2.28 -0.02,-0.11 -0.11,-0.32 -0.15,-0.43 -0.31,-0.81 -3,-2.82 -3.38,-7.36l10.84 10.84c-0.46,-5.5 -23.46,-39.12 -27.7,-45.84 -3.5,-5.54 -4.28,-4.66 -5.27,-7.11 -0.18,-0.45 -0.51,-5.26 -5.73,-6.66 1.85,7.96 4.4,7.55 5.9,11.13 4.95,11.76 16.48,26.08 18.1,32.99z"/>
   <path class="fil0" d="M241.6 321.19c6.49,-4.34 19.67,-28.12 25.39,-37.31 2.09,-3.35 3.64,-6.43 5.73,-9.75 1.17,-1.86 1.58,-3.07 2.68,-5.07l13.43 -26.83c-2.8,0.75 -2.57,1.29 -4.2,3.54l-21.97 32.99c-4.3,6.94 -20.4,34.56 -21.05,42.42z"/>
   <path class="fil0" d="M509.44 1065.86c-0.3,-3.6 0.83,-1.35 -1.55,-3.1 -1.03,2.24 -0.64,2.25 1.11,4.29 0.11,0.12 0.28,0.28 0.38,0.4 3.64,4.36 19.04,27.19 27.01,37.25l5.76 6.63c1.65,1.65 1.55,2.07 2.74,3.46 3.76,4.39 9.22,3.21 4.2,-3.42l-32.5 -40.26c-2.56,-2.66 -2.36,-4.84 -7.14,-5.24z"/>
   <path class="fil0" d="M399.52 733.78c-2.89,-5.47 -5.06,-3.74 -3.78,-16.23 0.6,-5.89 -0.57,-10.45 -3.96,-15.51 -3.49,0.38 -2.28,4.14 -5.69,-2.83 -1.34,-2.74 -2.19,-5.63 -4.38,-7.24 0,7.43 5.06,20.01 7.99,26.85l6.72 14.18 3.1 0.77z"/>
   <path class="fil0" d="M307.4 735.32l0.77 0 0 2.32 -0.77 0 0 -2.32zm-3.1 -6.97c0.67,2.88 1.47,3.48 1.55,6.97l-3.87 -0.39c1.08,2 0.91,1.84 2.64,3.17 4.21,3.25 8.3,10.51 11.61,15.49 3.05,4.59 2.37,4.91 5.88,5.73 0.09,4.06 1.39,6.1 4.64,6.97 -1.1,-2.29 -0.42,-3.35 -1.52,-5.45 -1.12,-2.15 -1.86,-1.49 -3.05,-4.7 -5.9,-15.92 -11.24,-19.28 -12.03,-21.14l-0.32 -1.68c-1.22,-3.52 -2.24,-3.73 -3.99,-4.19l0.87 -3.07c-1.12,0.72 -0.12,-0.22 -1.34,1.04 -0.09,0.09 -0.28,0.31 -0.37,0.4 -0.09,0.09 -0.29,0.33 -0.36,0.41 -0.07,0.08 -0.24,0.28 -0.34,0.43z"/>
   <path class="fil0" d="M240.06 306.48c2.69,-1.8 5.11,-5.73 6.97,-8.51 1.11,-1.67 1.78,-3 2.93,-4.81 6.67,-10.52 9.57,-15.09 14.87,-26.15 -8.46,2.26 -23.91,29.11 -24.77,39.48z"/>
   <path class="fil0" d="M461.45 568.9c0,1.41 -0.05,0.08 0.77,1.55 5.92,-1.58 12.44,-10.44 14.89,-12.98 5.71,-5.93 7.74,-10.23 11.43,-17.21 -4.29,1.15 -11.2,9.27 -14.89,12.97l-6.59 7.34c-1.83,2.13 -5.61,6.23 -5.61,8.33z"/>
   <path class="fil0" d="M533.44 757c5.02,-3.36 22.72,-32.63 23.22,-38.7 -3.06,2.05 -5.34,4.83 -7.61,7.87 -2.12,2.82 -4.61,6.22 -6.31,9.17 -3.13,5.46 -8.82,15.92 -9.3,21.66z"/>
   <path class="fil0" d="M545.05 1095.28c-2.3,-9.88 -17.2,-27.7 -25.55,-33.29 2.15,9.21 16.79,27.42 25.55,33.29z"/>
   <path class="fil0" d="M231.54 126.11c3.78,-2.77 11.98,-30.56 13.89,-36.49 1.17,-3.65 0.14,-1.8 0.05,-6.08 -5.64,4.13 -13.69,31.43 -13.93,42.57z"/>
   <path class="fil0" d="M199.8 205.07c-3.45,0.92 -1.11,-0.86 -4.35,8.81l-6.2 20.12c-2.72,8.07 -1.18,5.2 -1.06,10.55 3.75,-2.75 6.49,-14.59 8.22,-20.42 1.19,-4 2.34,-7.42 3.39,-11.32 2.45,-9.12 0.76,-5.31 1.35,-8.05 0.72,-3.32 1.94,1.6 0.19,-5.88l-1.55 6.19z"/>
   <path class="fil0" d="M456.8 699.72c3.03,-2.03 7.75,-7.61 10.21,-10.69 3.92,-4.92 11.69,-16.11 13.02,-21.82 -1.27,0.85 -2.97,1.75 -4.09,2.88 -1.53,1.54 -1.38,2.15 -3.05,3.91 -5.47,5.74 -15.43,17.89 -16.08,25.72z"/>
   <path class="fil0" d="M313.59 865.37c-3.53,-5.27 -22.3,-23.29 -27.87,-24.77 3.33,6.29 6.95,9.61 11.8,14.52 2.97,3 11.25,9.85 16.07,10.25z"/>
   <path class="fil0" d="M265.6 868.47c1.78,2.43 0.33,0.51 2.45,2.19 3.8,3.03 9.33,8.98 14.87,12.22 3.23,1.89 5.49,1.3 8.22,2.61 -0.72,-2.69 -0.57,-1.53 -2.44,-2.98l-8.99 -7.27c-1.43,-1.23 -1.69,-1.2 -3.07,-2.35l-6.07 -4.76c-2.42,-1.86 -0.95,-1.72 -4.2,-1.99 -0.37,1.39 -0.12,1.38 -0.77,2.32z"/>
   <path class="fil0" d="M477.7 1011.68l-15.12 -28.22c-0.07,-0.09 -0.24,-0.28 -0.36,-0.42 0,8.62 5.01,21.36 11.59,26.34 1.84,1.39 1.55,1.67 3.89,2.3z"/>
   <path class="fil0" d="M289.6 705.91c-0.61,-2.61 -1.82,-3.99 -3.12,-6.17 -1.21,-2.03 -2.35,-4.23 -3.69,-6.37 -1.59,-2.55 -6.05,-10.88 -7.9,-12.23 0.2,8.84 6.62,20.49 14.71,24.77z"/>
   <path class="fil0" d="M502.47 811.96c3.73,-1.35 0.68,1.39 2.86,-4.88 4.27,-12.32 8.08,-13.98 3.34,-15.24 -0.16,7.12 0.32,-1.77 -4.12,9.04 -1.78,4.34 -0.63,8.06 -2.08,11.08z"/>
   <path class="fil0" d="M310.5 853.76c-2.01,-7.52 -10.29,-9.83 -12.39,-10.84 1.07,4.02 8.95,8.53 12.39,10.84z"/>
   <path class="fil0" d="M253.99 859.18c-1.49,-6.41 -6.94,-10.38 -12.39,-10.84 1.62,2.41 3.89,3.45 6,5.61 2.01,2.05 4.11,3.71 6.38,5.23z"/>
   <path class="fil0" d="M432.03 763.19c-0.33,-1.41 -1.67,-8.54 -1.45,-9.91 0.83,-5.13 5.41,-5 1.45,-7.9 -0.8,2.98 -0.94,1.28 -2.02,4.17 -1.76,4.71 -2.59,10.54 2.02,13.63z"/>
   <path class="fil0" d="M291.92 838.28c0.54,-2.05 -0.06,-0.64 0.77,-2.32 -0.88,-1.2 -5.55,-6.24 -6.64,-3.66 -0.62,1.47 3.2,5.27 5.87,5.98z"/>
   <path class="fil0" d="M474.61 991.55c0.15,0.15 0.81,0.73 1.22,1.1 2.71,2.48 1.06,1.14 2.2,3.99 1.09,2.72 0.41,0.93 1.22,1.87 0,-3.91 0.07,-7.68 -4.64,-10.84l0 3.87z"/>
   <path class="fil0" d="M347.65 948.97c-0.44,0.44 -2.77,0.2 1.04,3.6 0.23,0.21 1.79,1.26 1.93,1.31 4.23,1.61 2.1,-3.09 -1.58,-4.82 -1.53,-0.72 -0.15,-1.34 -1.39,-0.09z"/>
   <path class="fil0" d="M281.08 839.05c2.96,0 0.28,0.24 2.32,-0.77 -0.77,-1.16 -3.56,-5.01 -5.21,-4.32 -3.13,1.32 2.82,5.09 2.88,5.09z"/>
   <path class="fil0" d="M286.5 688.88l3.1 -0.77c-1.72,0 -0.92,0.09 -1.88,-0.45 -0.12,-0.07 -0.36,-0.23 -0.47,-0.31l-0.75 1.53z"/>
   <path class="fil0" d="M401.07 742.29c-0.35,-4.05 0.74,-1.4 -1.55,-2.32 0.09,0.17 0.2,0.26 0.25,0.52l1.3 1.8z"/>
   <path class="fil0" d="M281.86 678.82c0.03,0.26 0.85,0.17 0.92,0.15 0.19,-0.07 1.34,1.79 0.34,-0.21 -0.02,-0.04 -1.44,-1.43 -1.26,0.06z"/>
   <polygon class="fil0" points="236.96,600.63 236.96,599.86 236.06,600.5 "/>
   <polygon class="fil0" points="381.71,691.98 381.71,691.2 380.81,691.85 "/>
   <polygon class="fil0" points="399.52,733.78 399.52,734.55 400.42,733.91 "/>
  </g>
 </g>
</svg>
