<svg width="1738" height="47" viewBox="0 0 1738 47" fill="none" xmlns="http://www.w3.org/2000/svg">
<g clip-path="url(#clip0_114_118)">
<path fill-rule="evenodd" clip-rule="evenodd" d="M907.446 43.1291H907.393L907.437 43.0667L907.446 43.1291ZM876.319 30.6991L876.594 30.7823C876.348 30.8619 876.428 30.9068 876.319 30.6991ZM874.604 29.9489C874.676 29.8946 874.492 29.8954 874.765 29.8954V29.9489H874.604ZM879.105 29.5739L879.12 29.5898C879.119 29.5886 879.099 29.5792 879.105 29.5739ZM878.087 29.3598L878.103 29.3757C878.101 29.3744 878.081 29.3651 878.087 29.3598ZM877.979 29.3063C877.985 29.301 877.995 29.3149 877.995 29.3222L877.979 29.3063ZM879.211 29.2529H879.265L879.22 29.3153L879.211 29.2529ZM877.497 29.3602L877.775 29.6714C877.572 29.6364 877.384 29.5756 877.219 29.5307C876.967 29.4622 876.897 29.4238 876.693 29.4671C876.703 29.9138 876.908 29.6837 877.122 30.0027C876.622 29.9917 876.323 29.784 875.997 30.0027C876.07 30.2793 876.254 30.2291 876.425 30.4849C876.262 30.447 876.102 30.3683 875.909 30.3046C875.694 30.2328 875.57 30.1602 875.354 30.11C875.235 30.1924 875.287 30.1186 875.246 30.2707H875.139C875.128 29.7955 875.022 30.1206 874.818 29.842C875.042 29.8371 875.326 29.7282 875.557 29.6706L877.088 29.2725C877.315 29.2047 877.623 29.0974 877.871 29.0917L877.931 29.3039C877.72 29.2076 877.613 29.1439 877.496 29.3594L877.497 29.3602ZM879.211 29.2533C878.833 29.2447 878.48 29.0391 878.086 29.0391V28.9856C878.661 28.9856 878.397 28.6479 879.094 29.157C879.103 29.1635 879.116 29.1729 879.125 29.1794C879.242 29.2692 879.144 29.1945 879.211 29.2537V29.2533ZM880.658 28.9318L880.674 28.9477C880.673 28.9465 880.653 28.9371 880.658 28.9318ZM882.158 28.7176H882.212L882.167 28.78L882.158 28.7176ZM881.515 28.7711H881.462L881.506 28.7086L881.515 28.7711ZM880.283 28.9852C880.047 28.9799 879.969 28.9179 879.767 28.858C879.586 28.8041 879.425 28.7547 879.265 28.7172C879.305 28.6899 879.289 28.6874 879.366 28.6564C879.391 28.6462 879.475 28.6222 879.488 28.6185C879.603 28.5871 879.645 28.5801 879.748 28.5565C879.909 28.6646 880.181 28.8323 880.284 28.9852H880.283ZM874.604 29.9497C874.506 30.0965 874.409 30.2116 874.516 30.4082C874.819 30.9635 875.556 30.4588 876.048 30.8635C876.055 30.8696 876.07 30.8839 876.076 30.8888C876.082 30.8937 876.095 30.906 876.104 30.9141C875.633 30.9141 874.022 31.3388 872.193 31.3429C871.671 31.3441 871.312 31.2356 870.853 31.2356C870.788 31.5179 870.782 31.4881 870.988 31.582C871.159 31.6595 871.273 31.6941 871.474 31.7398C871.845 31.8243 872.136 31.8802 872.568 31.8785C874.282 31.8716 877.34 31.247 879.104 30.9676C884.637 30.0921 890.55 29.0689 896.066 28.1057C897.509 27.8535 898.878 27.601 900.315 27.3721L903.459 26.8198C903.821 26.7565 904.221 26.6553 904.553 26.628C904.558 26.8491 904.564 26.8552 904.702 26.9613C905.709 27.7344 905.267 27.2799 906.308 28.3019C906.436 28.4275 906.488 28.4324 906.536 28.6103L902.603 29.0175C902.429 29.0477 902.114 29.0734 901.977 29.0881L900.646 29.2039C900.495 29.2206 900.163 29.2529 899.978 29.2851L894.691 29.8379C894.15 29.8975 893.246 29.9362 892.734 30.0243C891.993 30.1524 891.392 30.1329 890.743 30.2291L882.851 31.07C882.205 31.1409 881.563 31.1532 880.904 31.267L876.64 31.7166C876.494 31.7268 876.437 31.7125 876.287 31.7386L870.384 32.4256C870.238 32.4468 869.892 32.5089 869.728 32.5203L867.747 32.6822C867.421 32.6802 867.29 32.7173 867.05 32.7353C866.545 32.7736 864.679 32.7369 864.21 32.628C864.254 32.6002 864.234 32.6027 864.317 32.5741L864.842 32.4558C866.238 32.1152 868.083 31.7101 869.427 31.3082C870.101 31.1067 874.315 29.9554 874.604 29.9489L874.604 29.9497ZM880.497 28.3423C880.641 28.3423 880.656 28.4198 880.712 28.503C880.585 28.4736 880.553 28.4533 880.39 28.4496C880.417 28.4018 880.425 28.3423 880.497 28.3423ZM882.158 28.7172C881.898 28.6568 881.811 28.594 881.588 28.4839C881.36 28.3717 881.166 28.3635 881.033 28.1815L881.46 28.1187C881.629 28.2399 882.055 28.5638 882.158 28.7172ZM882.64 27.7528C882.903 27.9286 883.216 28.1359 883.391 28.3957C882.906 28.2827 882.456 28.0738 881.998 27.967L882.067 27.929C882.27 27.8531 882.409 27.8641 882.641 27.7528H882.64ZM886.284 27.8062H886.337L886.293 27.8686L886.284 27.8062ZM885.587 27.8597H885.534L885.578 27.7972L885.587 27.8597ZM883.819 27.8062H883.872L883.828 27.8686L883.819 27.8062ZM887.569 27.7528H887.623L887.578 27.8152L887.569 27.7528ZM884.891 27.6989H884.944L884.9 27.7613L884.891 27.6989ZM884.355 27.7524H884.302L884.346 27.6899L884.355 27.7524ZM883.819 27.8058C883.557 27.7838 883.404 27.6451 883.176 27.6451V27.5916C883.375 27.5916 883.316 27.5998 883.445 27.5382L883.819 27.8062V27.8058ZM888.695 27.4309L888.711 27.4468C888.71 27.4456 888.69 27.4362 888.695 27.4309ZM887.677 27.4843H887.624L887.668 27.4219L887.677 27.4843ZM886.445 27.4843H886.392L886.436 27.4219L886.445 27.4843ZM888.588 27.377H888.642L888.597 27.4395L888.588 27.377ZM884.892 27.6985C884.624 27.6361 884.236 27.4305 883.981 27.4305V27.377C884.129 27.377 884.464 27.2669 884.57 27.2163C884.579 27.6202 884.704 27.4186 884.892 27.6985ZM889.66 27.2163H889.713L889.669 27.2787L889.66 27.2163ZM891.267 27.1629L891.283 27.1788C891.282 27.1775 891.262 27.1682 891.267 27.1629ZM886.285 27.8058C886.092 27.7899 885.702 27.59 885.517 27.5019C885.377 27.4346 885.285 27.408 885.142 27.3419L884.785 27.1629C885.016 27.109 885.345 27.0396 885.535 26.9487C885.635 27.3783 886.071 27.4864 886.285 27.8058H886.285ZM888.589 27.056H888.535L888.58 26.9935L888.589 27.056ZM894.857 26.8418L894.873 26.8577C894.872 26.8565 894.852 26.8471 894.857 26.8418ZM894.75 26.7883H894.803L894.759 26.8508L894.75 26.7883ZM889.606 26.7349H889.553L889.597 26.6725L889.606 26.7349ZM891 26.5742H890.946L890.991 26.5117L891 26.5742ZM890.839 26.4669L890.855 26.4828C890.854 26.4815 890.834 26.4722 890.839 26.4669ZM895.661 27.5386C895.493 27.6451 891.384 28.2905 890.888 28.3916C890.505 28.4696 890.063 28.5357 889.7 28.5964L877.558 30.6526C877.271 30.7024 877.285 30.7285 877.047 30.5616C876.893 30.4531 876.74 30.365 876.642 30.2173C877.068 30.2173 877.309 30.2707 877.767 30.2707V30.0566C877.93 30.0945 878.09 30.1732 878.282 30.2373C878.544 30.3246 878.558 30.3723 878.785 30.3242C878.775 29.8869 878.602 30.1345 878.142 29.7347C878.78 29.7877 878.989 30.1537 879.374 29.8954C879.322 29.6996 879.317 29.7832 879.213 29.6274C879.62 29.7224 880.406 30.1023 880.202 29.6649C880.152 29.5568 879.479 29.1227 879.32 28.9844C879.688 28.9844 880.034 29.1431 880.292 29.2443C880.687 29.3997 880.918 29.5735 881.249 29.5735C881.291 29.3757 881.296 29.392 881.099 29.2419C880.959 29.1354 880.867 29.1215 880.767 28.9844C881.091 29.0599 881.807 29.3973 881.809 29.3973C882.104 29.4724 882.116 29.2598 881.935 29.1031C881.798 28.984 881.622 28.9138 881.517 28.7698C881.849 28.7976 882.91 29.3948 883.066 29.354C883.463 29.25 882.685 28.7719 882.468 28.5687C882.351 28.459 882.245 28.4145 882.16 28.2876C882.844 28.3027 883.578 28.8771 884.142 28.8771C884.233 28.4492 883.766 28.5516 883.446 28.0734L884.378 28.4267C884.513 28.4818 885.947 29.2072 885.607 28.6536C885.59 28.6254 885.292 28.4108 885.236 28.3729L884.464 27.8058C884.657 27.8217 885.154 28.1122 885.331 28.2236L886.178 28.7164L886.293 28.5622C886.209 28.2729 885.761 28.1155 885.589 27.8593C885.89 27.9294 886.223 28.0922 886.517 28.217L887.435 28.6474C887.602 28.6903 887.917 28.623 887.402 28.2431C887.332 28.1917 887.252 28.1354 887.187 28.0832L886.446 27.4843C886.921 27.5239 888.221 28.4769 888.409 28.3761C888.77 28.184 887.894 27.7789 887.678 27.4843C887.859 27.4994 889.013 28.0216 889.32 28.1012C889.484 28.1436 889.624 28.0991 889.537 27.8845L888.589 27.0556C889.26 27.1114 890.467 28.1652 890.467 27.6475C890.467 27.5002 890.44 27.5467 890.362 27.4815C890.347 27.4692 890.299 27.4435 890.264 27.4162C890.258 27.4109 890.19 27.346 890.182 27.3379C889.987 27.1469 889.75 26.9479 889.607 26.7345C889.772 26.7728 889.764 26.7949 889.911 26.8585L891.518 27.6088C891.992 27.8099 891.941 27.856 892.178 27.8058C892.172 27.5366 892.022 27.4456 891.652 27.1531L891 26.5733C891.281 26.5966 893.097 27.497 893.732 27.6451L893.829 27.5272C893.777 27.271 893.603 27.1371 893.464 26.9483C893.295 26.7186 893.301 26.8096 893.035 26.4126L894.965 27.2693C895.169 27.3717 895.378 27.5312 895.661 27.5378V27.5386ZM893.035 26.4134H892.982L893.026 26.351L893.035 26.4134ZM888.589 27.3779C888.387 27.3611 888.004 27.1751 887.801 27.0935L886.997 26.7663C886.754 26.6847 886.508 26.8136 887.013 27.1849C887.191 27.315 887.458 27.5851 887.571 27.7528C886.985 27.6165 886.188 27.0262 885.856 26.9491V26.8418C886.083 26.8369 887.576 26.3824 887.924 26.2841C888.14 26.2233 888.435 26.1087 888.642 26.0915C888.661 26.3175 888.713 26.3122 888.857 26.4134L889.661 27.2167C889.427 27.1971 888.968 26.9372 888.704 26.8344L888 26.5199C887.883 26.4664 887.882 26.4481 887.731 26.413L887.616 26.5672C887.864 26.9266 888.392 27.0837 888.589 27.3774V27.3779ZM894.643 26.1992H894.589L894.634 26.1368L894.643 26.1992ZM895.607 26.0923H895.554L895.598 26.0299L895.607 26.0923ZM891.107 27.1102L888.886 26.0095C888.879 26.005 888.866 25.9932 888.857 25.985C889.478 25.9712 889.418 25.6313 889.781 25.972C890.022 26.1988 890.994 26.9417 891.107 27.1102ZM894.75 25.8243H894.804L894.759 25.8867L894.75 25.8243ZM897.75 25.6101H897.804L897.759 25.6725L897.75 25.6101ZM898.929 25.3959H898.982L898.938 25.4584L898.929 25.3959ZM898.018 25.3959H897.964L898.009 25.3335L898.018 25.3959ZM896.357 25.3959H896.304L896.348 25.3335L896.357 25.3959ZM894.75 25.8247C894.516 25.8051 893.55 25.3927 893.162 25.3144C892.847 25.2511 892.841 25.4951 893.067 25.6313C893.421 25.8455 894.527 26.4852 894.75 26.7887C894.58 26.7492 894.566 26.7149 894.407 26.6496C894.235 26.5795 894.192 26.5644 894.035 26.4856C893.896 26.4155 893.802 26.3681 893.678 26.3061C893.549 26.2417 893.434 26.2049 893.303 26.1462L892.214 25.6273C892.102 25.5742 891.576 25.3237 891.486 25.347C891.002 25.4739 892.011 25.9222 892.432 26.3196C892.66 26.5338 892.736 26.5117 892.982 26.8422C893.091 26.9895 893.147 26.9817 893.196 27.1637C892.938 27.027 892.614 26.9846 892.321 26.8597C891.82 26.646 891.253 26.2849 890.739 26.0846C890.554 26.0124 890.09 25.8121 889.981 25.6636C890.149 25.6599 893.205 24.7958 893.518 24.6457C893.521 24.6522 893.526 24.6567 893.527 24.6665C893.527 24.6767 893.534 24.6857 893.535 24.6889C893.608 24.9329 893.585 24.8223 893.88 25.0879C893.977 25.1765 893.974 25.1557 894.063 25.2258C894.139 25.2858 894.149 25.3086 894.236 25.3743L894.75 25.8247H894.75ZM898.447 24.4319H898.393L898.438 24.3695L898.447 24.4319ZM897.75 25.6105C897.479 25.5877 896.561 25.0998 896.303 24.9684L895.251 24.4115C895.045 24.3067 895.073 24.3279 894.857 24.3781C894.881 24.6738 895.131 24.7713 895.54 25.1422L896.313 25.8149C896.473 25.9394 896.679 26.147 896.786 26.3069C896.598 26.2633 896.586 26.2151 896.429 26.1278C896.287 26.0479 896.165 26.0054 896.037 25.9308C895.923 25.8643 895.797 25.7843 895.672 25.7064L894.591 25.0724C894.417 24.9692 894.024 24.6951 893.839 24.6457L894.811 24.2781C894.986 24.2234 895.065 24.1977 895.264 24.1419C895.838 23.9815 895.651 23.9097 896.014 24.1847C896.122 24.2663 896.145 24.3116 896.24 24.3874L897.721 25.5856C897.727 25.5905 897.741 25.6016 897.75 25.6101L897.75 25.6105ZM900.376 23.8963H900.322L900.367 23.8338L900.376 23.8963ZM898.34 23.8428H898.393L898.349 23.9052L898.34 23.8428ZM898.875 25.3429C898.69 25.2997 897.47 24.6016 897.196 24.4503C897.053 24.3707 897.016 24.3369 896.857 24.2536C896.709 24.1753 896.661 24.1268 896.519 24.0562C896.357 23.9754 896.301 23.9852 896.197 23.8428C896.346 23.8302 896.99 23.6311 897.108 23.5748C897.349 23.935 898.551 24.8574 898.876 25.3429H898.875ZM901.019 23.7894H901.072L901.028 23.8518L901.019 23.7894ZM899.733 23.7894H899.786L899.742 23.8518L899.733 23.7894ZM902.518 23.6825H902.465L902.509 23.6201L902.518 23.6825ZM898.446 23.5752H898.393L898.437 23.5128L898.446 23.5752ZM898.339 23.8432C898.11 23.7898 897.712 23.5984 897.589 23.4144C897.755 23.4002 897.69 23.4153 897.803 23.361C898.001 23.4932 898.205 23.6433 898.339 23.8432H898.339ZM902.572 23.7359C902.774 23.7898 903.432 24.2842 903.644 24.4319C903.916 24.622 905.147 25.7301 905.304 25.7721V25.8794C904.955 25.8794 900.948 26.6358 900.514 26.7149C899.671 26.8691 898.935 26.9789 898.093 27.1331C897.684 27.2077 897.325 27.2693 896.915 27.3489L895.66 27.5402L895.775 27.386C895.759 27.3701 895.746 27.3419 895.743 27.3505L894.924 26.5085C894.806 26.4114 894.721 26.3184 894.642 26.2009C894.963 26.2759 895.185 26.4648 895.463 26.6117C896.025 26.9075 896.59 27.4452 896.676 27.1033C896.723 26.9168 896.65 26.9846 896.397 26.7496L896.045 26.4591C895.877 26.3269 895.838 26.3322 895.714 26.147L897.203 26.9079C897.311 26.9756 897.636 27.2122 897.732 27.0376C897.832 26.8544 897.559 26.6957 897.472 26.5856L897.12 26.1874C896.899 25.9671 896.511 25.6277 896.357 25.3972C896.797 25.4996 899.124 26.8871 899.317 26.6941C899.48 26.5309 899.064 26.2837 898.972 26.2107C898.817 26.0883 898.67 25.9434 898.509 25.8166C898.384 25.7182 898.095 25.5032 898.018 25.3972C898.216 25.4433 900.03 26.4669 900.268 26.5223L900.383 26.3681C900.308 26.1197 899.799 25.7586 899.478 25.4376L898.807 24.7681C898.654 24.6404 898.675 24.7216 898.554 24.5396C898.9 24.6322 900.678 26.1242 900.965 26.2005L901.137 26.0511C900.859 25.6448 900.13 25.0737 899.826 24.7673C899.516 24.4544 899.338 24.3671 899.13 24.1782L898.447 23.5752C899.119 23.7318 900.809 24.846 901.327 25.3556C901.427 25.4535 901.48 25.5799 901.661 25.5624C902.288 25.502 900.865 24.6016 900.429 23.9505C900.595 23.995 900.969 24.2748 901.125 24.3793L902.519 25.3437C902.724 25.4959 903.089 25.8435 903.248 25.7554C903.532 25.5979 902.988 25.1973 902.907 25.1165C902.426 24.6351 901.417 23.7963 901.126 23.3618C901.557 23.4769 902.983 24.8166 903.336 25.1703C903.415 25.2503 903.761 25.673 903.893 25.4323C904.009 25.2221 903.622 24.9198 903.523 24.8219C903.403 24.7032 903.404 24.7012 903.301 24.5621C903.122 24.3222 902.853 24.1569 902.572 23.7367L902.572 23.7359ZM901.072 23.3076H901.018L901.063 23.2451L901.072 23.3076ZM899.732 23.7898C899.596 23.7531 899.291 23.5695 899.125 23.4862C898.844 23.3459 898.59 23.27 898.5 23.1468C898.729 23.1276 898.754 23.0587 898.982 23.0395L899.733 23.7898H899.732ZM900.911 23.6825L899.571 22.8253C899.719 22.7911 899.853 22.7523 900 22.718L900.911 23.6825H900.911ZM829.654 21.0038C829.654 19.0247 829.835 17.3263 830.95 15.6569C831.181 15.3114 831.306 15.1458 831.595 14.8557C832.252 14.1993 832.936 13.7448 833.89 13.5604C834.346 13.4723 834.161 13.5167 834.422 13.3421C834.677 13.7228 838.884 16.758 839.551 17.2676L841.164 18.4409C841.232 18.4923 841.278 18.518 841.356 18.5702L842.39 19.3034C843.706 20.3159 846.255 21.9784 847.763 23.0383L858.621 30.343L860.604 31.522C860.659 31.5526 860.666 31.5489 860.711 31.5754L860.835 31.6652C859.759 31.6652 859.026 32.5778 858.384 33.286C856.954 34.8669 855.96 37.8989 855.96 39.9694C855.96 42.0149 856.73 43.0254 856.817 43.3983L847.591 37.194C847.266 36.9773 846.99 36.7929 846.659 36.5726L844.805 35.3189C844.477 35.0999 844.216 34.9081 843.883 34.6866L836.633 29.5609C835.582 28.758 833.407 27.2453 832.641 26.588L831.409 25.4633C830.257 24.312 829.654 22.7327 829.654 21.0029L829.654 21.0038ZM907.447 43.1311C908.348 43.6076 908.861 44.4305 907.646 44.9372C907.092 45.1685 906.116 45.062 905.465 45.0592C905.181 45.0579 905.137 45.0979 904.93 45.1134L898.715 45.2203C898.29 45.2187 898.047 45.2742 897.59 45.2742C894.533 45.2729 891.535 45.3815 888.482 45.3815C885.41 45.3815 882.338 45.3815 879.267 45.3815C877.768 45.3815 876.138 45.4435 874.657 45.3835L870.103 45.3301C869.84 45.326 869.862 45.2819 869.625 45.2725L867.854 45.2746C867.034 45.2746 866.4 45.2211 865.604 45.2211C864.48 45.2211 861.937 45.3545 861.113 45.1044C860.99 45.0669 860.877 45.0102 860.75 44.9319C859.662 44.2591 859.89 45.4333 858.211 44.2032C858.046 44.0821 858.051 44.0772 857.922 43.9034C857.824 43.7724 857.763 43.7427 857.674 43.615C857.591 43.4966 857.53 43.3971 857.439 43.2604C857.338 43.1099 857.317 43.0365 857.225 42.8851C856.466 41.6498 856.459 39.8817 856.67 38.4827C856.881 37.083 857.5 35.5396 858.242 34.3227C858.414 34.0412 858.519 33.8727 858.714 33.6161C860.15 31.7317 861.037 32.2596 861.747 32.0944C861.815 31.952 861.796 32.0368 861.8 31.8263C862.225 31.7272 862.61 31.4824 863.025 31.3368C866.729 30.0349 868.942 29.5988 872.676 28.6654L894.904 22.8188C896.72 22.2611 898.564 21.8336 900.395 21.2918C901.322 21.0172 902.194 20.7908 903.101 20.515C903.549 20.3788 903.997 20.2604 904.479 20.1254C904.709 20.0609 904.91 19.9945 905.137 19.9259C905.347 19.8619 905.625 19.7684 905.84 19.7183C905.822 20.5338 904.153 20.9438 903.525 21.1L901.185 21.8136C901.033 21.8629 900.873 21.9233 900.704 21.976C900.562 22.0204 900.414 22.0522 900.248 22.1094C900.06 22.1742 899.85 22.1652 899.72 22.2244C898.946 22.5785 898.937 22.4027 898.768 22.4504C898.568 22.5969 898.758 22.57 898.492 22.6568L890.189 25.1222C889.912 25.2062 889.685 25.2772 889.402 25.3539L885.395 26.4905C885.108 26.5717 884.899 26.6423 884.602 26.7153L881.415 27.601C879.883 28.0718 878.067 28.5063 876.523 28.9236C873.802 29.6588 871.053 30.2932 868.336 30.97C867.769 31.1112 867.223 31.2197 866.643 31.3661L862.603 32.4163C862.232 32.5146 861.391 32.8915 861.058 32.7846C860.744 32.6839 860.511 32.8242 860.276 32.9829C859.977 33.1857 859.5 33.7254 859.272 34.0139C859.201 34.1028 859.146 34.2085 859.076 34.3007C857.18 36.8007 857.285 40.853 859.098 43.3151C859.423 43.7557 859.819 44.1861 860.353 43.8283C860.443 44.2151 860.833 44.3481 861.25 44.4317C861.456 44.4729 861.692 44.4542 861.941 44.4949L870.372 44.4709C870.702 44.4692 870.792 44.5227 871.066 44.5268C871.332 44.5308 871.605 44.5247 871.872 44.5247C882.141 44.5247 892.41 44.5247 902.679 44.5247C903.646 44.5247 904.793 44.6014 905.649 44.4411C906.29 44.3207 907.386 43.865 907.447 43.1319V43.1311ZM834.583 12.9672C834.311 12.9448 834.475 12.9032 834.303 12.8713C833.881 12.7942 832.5 13.3368 832.193 13.5241C828.984 15.4815 828.412 20.1348 829.516 23.4454C829.797 24.2883 830.224 25.0345 830.769 25.7284C831.048 26.0834 831.538 26.5179 831.894 26.7998L847.57 37.9662C847.774 38.1025 847.912 38.1943 848.116 38.3306C848.49 38.5802 848.803 38.7883 849.177 39.038L852.873 41.5025C853.075 41.6384 853.233 41.724 853.431 41.8562L856.131 43.5493C856.584 43.8291 857.427 44.2473 857.795 44.5643C858.731 45.3725 859.312 45.4635 860.353 45.2207C860.6 45.3859 860.791 45.5557 861.095 45.6577C862.016 45.9665 862.973 45.7254 863.677 45.7543C863.925 45.7645 864.045 45.8115 864.371 45.8098C867.596 45.7972 870.884 45.9706 874.122 45.9706L879.373 45.9702C879.718 45.9681 879.814 46.0248 880.122 46.0256H885.428C885.736 46.0252 885.832 45.9685 886.177 45.9702C888.194 45.9812 890.214 45.9661 892.231 45.9706C892.736 45.9718 893.123 45.9171 893.678 45.9171C896.187 45.9171 898.666 45.8098 901.179 45.8098L902.626 45.756C903.128 45.758 903.685 45.778 904.181 45.758L905.626 45.7025C906.33 45.7025 907.903 45.7278 908.411 45.4345C908.785 45.2187 909.001 44.8128 909.001 44.3097C909.001 43.6117 907.704 42.4347 907.34 42.4347C907.014 42.4347 907.089 42.7586 907.126 42.9169C906.616 43.0356 906.673 43.8238 905.088 43.8801C904.843 43.8887 904.718 43.9364 904.393 43.9352C891.678 43.8846 878.961 44.0033 866.246 43.9348C865.901 43.9328 865.806 43.9895 865.498 43.9899C865.02 43.9907 864.476 43.9401 864.029 44.0205C863.688 44.0817 862.976 43.9862 862.55 43.9887C860.666 43.9989 860.695 43.4065 860.582 43.3306C860.486 43.2657 860.335 43.2919 860.193 43.2919C860.004 43.0108 859.948 43.0165 859.824 42.6424C859.057 40.308 859.479 37.229 860.283 35.0244C860.451 34.5646 860.852 33.6654 860.943 33.273C861.237 33.273 861.238 33.335 861.425 33.4337C861.543 33.2583 861.532 33.3387 861.479 33.1122C861.621 33.1004 861.818 33.0564 861.983 33.0274C862.497 32.9376 863.038 32.7814 863.568 32.7373C863.642 33.0119 863.822 32.9544 864.144 33.0188L865.281 33.1677C866.938 33.2277 868.265 33.1975 869.949 33.0098L872.879 32.6712C873.957 32.5117 875.063 32.4783 876.117 32.3204C876.608 32.2469 877.113 32.2584 877.627 32.1694L880.607 31.8806C880.798 31.8724 880.776 31.8549 880.886 31.8382C881.015 31.819 881.12 31.8357 881.245 31.8218L883.923 31.5538C884.097 31.5346 883.984 31.5199 884.196 31.5053C884.448 31.4873 884.582 31.4592 884.785 31.4506C885.93 31.4025 887.784 31.1063 888.965 31.023L891.953 30.7428C893.142 30.5657 894.356 30.5078 895.549 30.3748C896.65 30.252 897.991 30.0394 899.09 30.0043C899.821 29.9811 901.457 29.7461 902.358 29.6825L904.447 29.4683C905.37 29.403 904.98 29.3549 905.797 29.9946C905.935 30.1023 906.354 30.5237 906.462 30.6689C906.847 31.1834 907.199 31.6823 907.502 32.2547C906.857 32.2547 905.504 32.3302 904.942 32.2429C904.573 32.1853 903.09 32.1988 902.412 32.1474C902.029 32.1184 901.522 32.1494 901.125 32.149L899.894 32.094C898.669 32.0968 897.358 31.9283 896.143 31.9332C895.936 31.934 895.702 31.9434 895.498 31.9353L894.267 31.881C893.973 31.8806 893.952 31.828 893.681 31.8239C893.192 31.8161 892.81 31.8259 892.389 31.7766C892.005 31.7317 891.502 31.8027 891.107 31.7725L888.589 31.6652C888.143 31.6668 887.696 31.6652 887.25 31.6652C887.157 32.105 887.636 31.9875 888.156 32.045C888.524 32.0858 889.019 32.1707 889.394 32.1996L891.321 32.3616C891.533 32.3763 891.43 32.3995 891.643 32.415L893.303 32.5223C893.817 32.5174 894.673 32.6317 895.34 32.6284C895.655 32.6268 895.708 32.6806 895.98 32.6847C896.211 32.6884 896.449 32.6769 896.681 32.6806C896.955 32.6847 897.045 32.7385 897.375 32.7365C898.345 32.7312 899.164 32.7908 900.161 32.7899C900.662 32.7895 900.976 32.8434 901.501 32.8434L905.037 32.8426C905.363 32.8409 905.427 32.8977 905.732 32.8985L907.825 32.8997C908.048 32.8932 908.13 32.8409 908.257 32.688L908.305 32.6292C908.14 31.9226 907.526 30.8909 907.032 30.3658C906.897 30.2218 906.862 30.1402 906.711 29.9905L905.977 29.3316C905.971 29.3267 905.957 29.3157 905.948 29.3071C906.183 29.3018 907.226 29.2157 907.38 29.0791L907.501 28.9318C907.44 28.6691 907.453 28.7241 907.31 28.534C906.325 27.2306 905.271 26.6215 905.197 26.5211C905.387 26.4771 906.323 26.4289 906.323 26.0923C906.323 25.8312 905.622 25.2536 905.426 25.0602C904.769 24.4111 903.397 23.4218 902.605 22.9518C902.324 22.785 902.118 22.7968 902.036 23.1456C901.93 23.0742 901.412 22.5263 901.554 23.199C901.343 23.0579 900.822 22.6715 900.59 22.6095V22.5022C900.875 22.4786 901.156 22.3525 901.437 22.2774C901.562 22.244 901.691 22.1971 901.842 22.1469L903.878 21.5043C904.403 21.3293 904.947 21.1543 905.43 20.9132C906.424 20.4179 906.666 19.2646 906.001 18.9125C905.741 19.0496 905.739 19.1185 905.433 19.2022L903.341 19.7897C901.03 20.4738 898.705 21.0486 896.391 21.7324L893.581 22.5124C893.143 22.6307 892.678 22.7641 892.199 22.8992C889.85 23.5629 887.534 24.2243 885.17 24.8174C884.709 24.9333 884.215 25.0569 883.733 25.2013C883.489 25.274 883.293 25.3033 883.05 25.376C882.792 25.4531 882.595 25.5016 882.33 25.5673L870.994 28.4818C867.471 29.3724 864.727 29.7849 861.478 31.5036C861.375 31.1177 859.533 30.0227 859.077 29.7257C858.923 29.6249 858.824 29.5466 858.656 29.4503C858.481 29.3496 858.399 29.281 858.228 29.1823C856.541 28.213 854.702 27.0042 853.077 25.921L840.605 17.3378C840.517 17.2733 840.505 17.2554 840.423 17.1978L835.699 13.8321C835.485 13.6705 834.978 13.4551 834.904 13.1802C835.419 13.1687 836.729 12.7053 837.254 12.5303C837.62 12.4083 837.997 12.2826 838.38 12.1554C840.066 11.5936 841.717 10.8955 843.402 10.3195L849.028 8.33841C849.245 8.2662 849.364 8.20745 849.577 8.13687L857.467 5.36473C857.858 5.23459 858.183 5.10649 858.578 4.97594L859.731 4.57491C859.947 4.50106 860.051 4.44844 860.279 4.37296C860.484 4.30524 860.667 4.24894 860.843 4.18652L865.315 2.60483C865.536 2.5314 865.666 2.47306 865.864 2.40289C866.053 2.33557 866.27 2.27478 866.46 2.19605C866.642 2.12139 866.808 2.07447 867.017 2.00267L868.711 1.39235C869.33 1.13737 870.025 0.981119 870.641 0.697174C871.154 0.460553 870.77 0.440154 871.947 1.15655C872.316 1.38134 872.606 1.5641 872.975 1.7889L873.468 2.09936C875.192 3.16456 876.969 4.12288 878.697 5.17462L882.98 7.53553C884.269 8.17441 885.5 8.93078 886.784 9.57129L889.535 10.9996C889.675 11.0734 889.669 11.0881 889.801 11.1615L892.284 12.4291C893.776 13.1745 895.243 13.9076 896.749 14.6611C897.136 14.8549 897.483 15.0291 897.856 15.2155L898.981 15.7508C899.348 15.9344 899.738 16.1024 900.106 16.2864C900.285 16.3758 900.463 16.4651 900.642 16.5549C900.832 16.6503 901.039 16.7254 901.231 16.8225C902.238 17.3284 903.26 17.8591 904.302 18.3055C904.434 18.3618 904.46 18.383 904.599 18.4376C904.929 18.567 905.616 18.8583 906 18.8583C906.22 18.4421 905.998 18.3609 905.447 18.0717L902.911 16.8568C902.785 16.7944 902.734 16.7862 902.608 16.7319L886.069 8.41143C885.546 8.10587 884.956 7.85333 884.43 7.53186L883.359 6.94234C883.154 6.8171 882.992 6.75182 882.802 6.64167L880.64 5.42878C880.507 5.36269 880.484 5.34148 880.369 5.27131C879.662 4.8409 878.907 4.50066 878.205 4.06046L873.608 1.47802C873.409 1.35645 873.251 1.28628 873.061 1.16756L871.712 0.427099C870.676 -0.177509 870.92 -0.0840843 869.602 0.354073C869.388 0.425059 869.243 0.474423 869.04 0.541738L867.887 0.943178C867.659 1.01865 867.555 1.07128 867.339 1.14512L860.521 3.54193C860.166 3.67452 859.737 3.82425 859.382 3.95684L850.916 6.95703C850.696 7.02965 850.529 7.10471 850.327 7.17162C849.553 7.42742 848.849 7.69219 848.063 7.96104L843.513 9.57251C842.227 10.0955 840.251 10.6606 838.914 11.1354C837.529 11.6274 836.137 12.135 834.814 12.7677C834.683 12.8301 834.63 12.833 834.583 12.9648V12.9672Z" fill="#F3EDE7"/>
<path fill-rule="evenodd" clip-rule="evenodd" d="M848.083 34.7176C848.137 34.7894 848.137 34.605 848.137 34.8783H848.083V34.7176ZM846.583 34.0212C846.576 34.0106 846.563 33.9828 846.561 33.9894L846.583 34.0212ZM846.797 33.2175L846.813 33.2334C846.812 33.2326 846.792 33.2228 846.797 33.2175ZM847.011 32.5745H847.065V32.7353H847.011V32.5745ZM844.225 31.5028C844.171 31.431 844.172 31.6154 844.172 31.3421H844.225V31.5028ZM842.779 31.3955C842.779 31.2605 842.864 31.3845 842.811 31.3955C842.811 31.3955 842.779 31.5464 842.779 31.3955ZM841.547 30.2703L841.563 30.2862C841.561 30.285 841.541 30.2756 841.547 30.2703ZM841.975 30.163L841.991 30.1789C841.99 30.1777 841.97 30.1683 841.975 30.163ZM841.118 29.7881C841.173 29.8599 841.172 29.6755 841.172 29.9488H841.118V29.7881ZM840.636 29.6808L840.597 29.6131C840.581 29.5413 840.583 29.5429 840.583 29.4666L840.636 29.6808ZM839.993 29.6808C839.939 29.609 839.94 29.7934 839.94 29.5201H839.993V29.6808ZM839.886 29.3059H839.939V29.4666H839.886V29.3059ZM840.529 29.3059L840.545 29.3218C840.543 29.321 840.523 29.3112 840.529 29.3059ZM839.832 29.1452C839.832 29.0101 839.918 29.1341 839.865 29.1452C839.864 29.1452 839.832 29.2961 839.832 29.1452ZM839.189 28.8237C839.189 28.6886 839.275 28.8127 839.222 28.8237C839.221 28.8237 839.189 28.9746 839.189 28.8237ZM840.154 28.7702L840.17 28.7861C840.169 28.7849 840.149 28.7755 840.154 28.7702ZM838.493 28.3415C838.439 28.2697 838.44 28.4541 838.44 28.1807H838.493V28.3415ZM838.386 28.0734C838.386 27.9384 838.471 28.0624 838.418 28.0734C838.418 28.0734 838.386 28.2244 838.386 28.0734ZM838.332 27.8592L838.348 27.8751C838.347 27.8743 838.327 27.8645 838.332 27.8592ZM839.189 27.4843C839.189 27.3493 839.275 27.4733 839.222 27.4843C839.221 27.4843 839.189 27.6353 839.189 27.4843ZM837.368 26.5199C837.314 26.4481 837.314 26.6325 837.314 26.3591H837.368V26.5199ZM836.832 25.8769C836.832 25.7419 836.917 25.8659 836.865 25.8769C836.864 25.8769 836.832 26.0279 836.832 25.8769ZM837.314 25.2874C837.314 25.1524 837.4 25.2764 837.347 25.2874C837.346 25.2874 837.314 25.4384 837.314 25.2874ZM833.242 23.5193L833.258 23.5352C833.257 23.534 833.237 23.5246 833.242 23.5193ZM831.957 21.7511C831.957 21.6161 832.042 21.7401 831.989 21.7511C831.988 21.7511 831.957 21.9021 831.957 21.7511ZM831.153 21.4297C831.207 21.5015 831.206 21.3171 831.206 21.5904H831.153V21.4297ZM831.528 21.3762C831.528 21.2412 831.613 21.3652 831.56 21.3762C831.56 21.3762 831.528 21.5272 831.528 21.3762ZM831.153 21.4297C830.913 21.0841 831.079 20.7745 830.724 20.6794C830.523 21.0984 831.414 23.3891 831.792 23.7902C832.081 24.0966 831.928 24.2981 832.278 24.4833C832.443 24.2365 832.365 24.3287 832.191 23.8199C831.953 23.1252 831.581 22.255 831.581 21.4831H831.635C831.635 21.7866 832.488 23.8775 832.672 24.2499C832.938 24.7909 832.828 24.91 833.135 25.0724C833.291 24.8382 833.245 24.8884 833.081 24.4829C832.873 23.9693 832.448 22.8347 832.438 22.3933L832.653 22.8751C833.039 23.7278 833.498 25.1744 833.831 25.93C833.956 26.2155 833.878 26.2739 834.206 26.1972C834.201 25.9565 833.827 24.9223 833.734 24.58C833.653 24.2777 833.403 23.1138 833.403 22.8221H833.456C833.456 23.0526 834.838 27.0274 834.903 27.1616C835.277 27.1535 835.187 27.1143 835.02 26.4546C834.872 25.8663 834.528 24.1027 834.528 23.5185H834.581C834.581 23.7045 835.453 26.2702 835.566 26.6056L836.059 28.1477C836.137 28.3051 836.148 28.2823 836.349 28.2868C836.349 27.8841 836.247 27.65 836.194 27.3166C836.071 26.535 835.98 26.1923 835.92 25.3404C835.895 24.99 835.813 24.6775 835.813 24.2683L837.267 28.0653C837.337 28.2541 837.422 28.4683 837.507 28.6833C837.595 28.9114 837.644 29.1933 837.796 29.3047C838.149 29.2104 837.912 28.8041 837.71 27.9975C837.643 27.7283 837.59 27.5178 837.528 27.2689C837.474 27.0551 837.372 26.7561 837.367 26.5187L837.459 26.6941C837.505 26.7993 837.505 26.8132 837.55 26.9246C837.616 27.0902 837.643 27.1836 837.71 27.3542C837.935 27.9323 838.158 28.5055 838.31 29.1117C838.463 29.7249 838.411 29.8693 838.706 29.8938C838.828 29.64 838.686 29.4258 838.629 29.1672C838.595 29.0117 838.604 28.8996 838.569 28.7453C838.53 28.5728 838.496 28.5299 838.492 28.3398L839.155 30.4099C839.19 30.5355 839.242 30.9374 839.466 30.713C839.608 30.5714 839.242 29.4169 839.242 28.9293L840.046 31.2331C840.631 31.1846 839.993 30.5065 839.993 29.6796C840.117 29.8758 840.615 32.038 840.743 32.3049C841.21 32.2943 840.967 32.1266 840.848 31.1279C840.794 30.6742 840.636 30.1504 840.636 29.6796C840.663 29.7179 840.664 29.7073 840.696 29.7804C840.696 29.7804 840.736 29.8958 840.737 29.8995L840.978 30.6775C841.05 30.8921 841.369 32.0915 841.482 32.1637C841.868 32.4101 841.658 31.4901 841.655 31.1785C841.652 30.9084 841.6 30.8509 841.6 30.5371H841.654C841.654 30.7787 841.712 30.9121 841.749 31.085C841.789 31.2813 841.824 31.464 841.855 31.6215C841.933 32.0115 841.997 32.3681 842.082 32.7336C842.485 32.7247 842.354 32.577 842.309 32.2934C842.269 32.0393 842.272 31.8704 842.23 31.6219C842.166 31.2482 842.028 30.775 842.028 30.323H842.082C842.082 30.5171 843.096 33.4357 843.096 33.4357C843.164 33.541 843.316 33.6201 843.402 33.4651L843.209 31.1785L843.735 32.5802C843.869 32.9388 844.121 33.9502 844.385 34.1268C844.615 33.9726 844.529 33.8947 844.491 33.5928C844.417 33.0168 844.225 31.9618 844.225 31.5016C844.232 31.5122 844.243 31.5159 844.246 31.5342L845.404 34.6625C845.601 34.658 845.642 34.6894 845.674 34.5042C845.698 34.3626 845.674 34.1734 845.65 34.0412L845.564 33.2159C845.68 33.3484 846.228 34.8914 846.293 35.059C846.345 35.1945 846.391 35.4507 846.501 35.5029C846.773 35.6331 846.743 35.3405 846.713 35.1782C846.679 34.9893 846.658 34.7694 846.638 34.607C846.611 34.3875 846.582 34.2725 846.582 34.0195L846.776 34.5218C846.847 34.7351 846.897 34.8812 846.964 35.0839C847.085 35.4462 847.188 35.8664 847.386 36.1622L847.598 36.052L847.118 32.7867L848.434 36.7215C848.523 36.9459 848.377 36.7848 848.618 36.912C848.887 36.7321 848.704 36.2756 848.587 35.6037C848.504 35.1329 848.403 34.5752 848.403 34.0722H848.457C848.457 34.2586 848.881 35.4274 848.972 35.6996L849.357 36.9222C849.424 37.1128 849.455 37.1209 849.689 37.1258C849.825 36.542 849.689 35.9374 849.689 35.3577L850.418 37.5758C850.557 38.1323 850.439 38.1086 850.708 38.2506C850.968 38.076 850.868 37.8369 850.868 37.1254C850.868 36.6791 850.868 36.2324 850.868 35.786L851.988 39.7038C852.054 39.8131 852.21 39.8788 852.294 39.7335C852.346 39.645 852.315 38.1086 852.315 37.8757H852.368C852.368 38.0911 852.678 38.8805 852.743 39.1616H853.011C853.135 38.6324 853.065 37.8524 853.065 37.2327L853.594 39.1681C853.698 39.5071 853.657 39.5687 853.815 39.8041C854.244 39.7042 853.975 39.6148 853.975 38.7324H854.029C854.029 39.0172 854.06 39.0106 854.243 39.1073C854.524 38.9192 854.312 38.6443 854.104 37.9071C854.032 37.6533 853.987 37.4759 853.915 37.2392C853.851 37.0287 853.8 36.7839 853.707 36.5893C853.496 36.5938 853.439 36.5853 853.439 36.8035L853.128 35.7754C853.058 35.5609 853.073 35.6078 852.903 35.5176C852.894 35.5262 852.878 35.5258 852.874 35.5425C852.822 35.7787 852.742 35.1549 852.742 36.5359C852.742 36.9467 852.742 37.3575 852.742 37.768H852.689C852.689 37.6105 852.531 37.3037 852.482 37.1715C852.342 36.7958 852.03 35.4719 851.778 35.3034C851.505 35.4862 851.625 35.7236 851.747 36.46C851.814 36.8668 851.885 37.3351 851.885 37.768H851.832C851.832 37.5228 851.078 35.2696 850.922 34.8742C850.839 34.6637 850.885 34.6152 850.653 34.5536C850.415 34.7135 850.493 34.7633 850.493 35.3573C850.493 35.6967 850.493 36.0357 850.493 36.3752H850.439C850.439 36.0733 849.866 34.5711 849.689 34.1787C849.585 33.9486 849.517 33.6716 849.314 33.5357C848.998 33.6112 849.151 33.7376 849.254 34.5063C849.308 34.9122 849.367 35.2916 849.367 35.7322L848.252 32.24C848.176 32.0862 848.283 32.1951 848.081 32.0886C847.76 32.304 847.965 32.6549 847.972 33.3227L848.081 34.7135C847.947 34.5201 847.765 33.7895 847.686 33.5549C847.636 33.4035 847.085 31.5889 846.997 31.5048C846.543 31.0704 846.795 32.6586 846.795 33.1061H846.742C846.742 32.8646 846.32 31.7039 846.228 31.3702C846.157 31.1148 846.17 30.9863 845.992 30.8562C845.651 30.9471 845.845 31.3955 845.945 32.136C845.973 32.3514 846.018 32.5974 846.047 32.8369C846.075 33.0612 846.148 33.3627 846.153 33.5887C845.787 33.1681 845.336 31.1691 845.135 30.7493C844.736 30.7583 844.837 30.8456 845.041 31.861C845.079 32.0499 845.108 32.269 845.149 32.5035C845.171 32.6337 845.242 33.06 845.242 33.2138H845.189C845.189 33.0498 844.737 31.8887 844.672 31.6937C844.587 31.4383 843.994 29.4895 843.786 29.4679C843.478 29.436 843.761 30.815 843.818 31.1556C843.867 31.4518 843.934 31.8218 843.956 32.0882L843.067 29.7636C842.975 29.4948 842.873 29.1435 842.724 29.0346C842.449 29.108 842.505 29.2255 842.639 30.0308C842.701 30.4009 842.778 30.9108 842.778 31.2849H842.725C842.725 31.1173 842.148 29.4748 842.022 29.0954C841.983 28.9787 841.95 28.8783 841.903 28.7319C841.834 28.5181 841.863 28.5014 841.654 28.4455C841.644 28.4541 841.627 28.4524 841.624 28.4696L841.576 28.5283C841.571 28.5381 841.563 28.5532 841.559 28.565C841.538 28.6307 841.547 28.6972 841.547 28.767H841.493C841.493 28.6487 841.216 27.6271 841.172 27.5349C840.891 27.541 840.858 27.5626 840.914 27.8964L841.118 29.7853C841.111 29.7742 841.101 29.744 841.099 29.7514L840.207 26.8924C839.97 26.8977 839.921 26.8952 839.935 27.1559C839.952 27.4929 840.154 28.2325 840.154 28.6605H840.1C840.1 28.4088 839.987 28.2138 839.92 27.9841L839.406 26.2469C839.342 26.0111 839.377 26.0805 839.19 25.9814C838.893 26.1988 839.19 26.6027 839.19 27.3742H839.136C839.136 27.2481 838.628 25.6338 838.598 25.6028C838.583 25.5877 838.548 25.491 838.41 25.5669C838.326 25.6138 838.329 25.6517 838.328 25.7623L838.601 27.2669C838.484 27.1331 838.426 26.885 838.333 26.6778C838.239 26.4701 838.159 26.2433 838.065 26.0348C837.972 25.83 837.876 25.6195 837.79 25.3992C837.699 25.1703 837.624 24.9545 837.504 24.8272C837.499 24.8215 837.484 24.8109 837.476 24.8023C837.291 24.9002 837.319 24.8199 837.295 25.0406L837.261 25.1773C837.196 24.8998 837.036 24.6469 836.932 24.3809C836.897 24.2924 836.611 23.5238 836.423 23.8559C836.341 24.0031 836.807 25.4669 836.832 25.7664C836.797 25.7264 836.799 25.7468 836.762 25.6758L835.905 23.5323C835.858 23.4136 835.73 22.9861 835.537 23.1786C835.375 23.3406 835.6 25.0912 835.6 25.4449L834.496 22.3696C834.417 22.1265 834.449 22.0759 834.153 22.0694C834.036 22.5699 834.26 23.5515 834.26 24.159L833.451 21.754C833.352 21.4509 833.304 21.2493 833.135 20.9976L832.923 21.1078C832.921 21.2954 832.956 21.4754 832.988 21.681L833.148 22.8062C833.171 22.96 833.238 23.2178 833.242 23.4083C833.134 23.2831 833.01 22.9294 832.937 22.749L832.209 21.0127C832.123 20.8034 832.181 20.7896 831.903 20.783C831.832 21.0866 831.956 21.2836 831.956 21.6402C831.768 21.4244 831.4 20.278 831.245 19.994C831.152 19.8243 831.208 19.9043 831.046 19.8186C830.899 20.0377 830.95 20.0287 831.039 20.5746C831.086 20.8618 831.152 21.1184 831.152 21.4256L831.153 21.4297Z" fill="#F3EDE7"/>
<path fill-rule="evenodd" clip-rule="evenodd" d="M905.142 40.3965C905.142 40.5605 905.456 40.6522 905.24 41.2442C905.092 41.6505 904.518 41.6436 904.122 41.6803L901.287 41.9524C900.305 41.9667 899.317 42.0573 898.285 42.0573H895.391C892.339 42.0573 889.452 41.8921 886.442 41.8451L884.303 41.7338C883.929 41.7281 883.548 41.744 883.174 41.7379L880.981 41.6265C880.634 41.6212 880.131 41.6628 879.805 41.6244C879.457 41.5836 879.152 41.5738 878.729 41.5751L877.066 41.5229C876.783 41.5224 876.771 41.4755 876.534 41.4657C876.19 41.4519 875.738 41.502 875.411 41.4637C874.747 41.3858 873.409 41.358 872.674 41.3613C872.39 41.3625 872.347 41.3225 872.139 41.307C871.77 41.2789 871.335 41.3246 870.958 41.3091L867.638 41.2001C867.238 41.2022 866.966 41.1463 866.513 41.1463L864.853 41.0924C863.957 41.0243 862.822 41.1891 861.963 41.0884C861.73 41.061 859.87 40.8787 859.87 41.1997V41.307C860.245 41.487 861.391 41.4245 861.959 41.4678C862.161 41.4833 862.172 41.5224 862.44 41.5229L863.566 41.5755C863.745 41.5747 863.983 41.5616 864.156 41.5747L865.229 41.6269C865.497 41.6273 865.508 41.6669 865.71 41.682C865.882 41.695 866.12 41.6824 866.299 41.682L867.962 41.7342C868.245 41.7346 868.257 41.7815 868.494 41.7913C868.854 41.806 869.269 41.7623 869.621 41.7893C869.823 41.8048 869.834 41.8439 870.102 41.8443L871.23 41.8411C871.467 41.8509 871.48 41.8978 871.763 41.8982C872.155 41.8986 872.554 41.8884 872.945 41.8945L877.334 42.0593C877.694 42.074 878.096 42.0573 878.462 42.0573L879.532 42.1115C879.908 42.1099 880.283 42.1115 880.658 42.1107C881.102 42.1099 881.33 42.1646 881.784 42.1642C883.304 42.1625 884.73 42.2719 886.231 42.2715L892.821 42.4857C893.214 42.4836 893.454 42.5395 893.892 42.5395H898.553C899.585 42.5395 900.574 42.4489 901.555 42.4347C901.819 42.431 901.797 42.3857 902.034 42.3771C902.879 42.3465 904.582 42.238 905.325 41.9724C905.671 41.8488 905.702 41.6856 905.946 41.522C906.126 41.6171 906.046 41.5265 906.161 41.6828C905.762 42.227 902.841 42.6546 901.862 42.7957C901.439 42.8569 901.073 42.8851 900.643 42.9157L899.999 42.9687C899.773 42.985 899.667 43.0217 899.355 43.0209C899.061 43.0201 899.041 43.0739 898.769 43.078C898.541 43.0817 898.295 43.065 898.069 43.0739C897.827 43.0837 897.743 43.1315 897.428 43.1298L895.392 43.1294C894.919 43.1282 894.613 43.1829 894.106 43.1829H861.585C861.316 43.1829 860.888 43.0948 860.888 43.3436C860.888 43.621 861.547 43.5043 861.746 43.5043C862.169 43.5039 862.377 43.5602 862.763 43.5582C863.477 43.5545 864.192 43.5578 864.906 43.5578C865.633 43.5578 866.23 43.6112 866.996 43.6112L898.015 43.5023C898.36 43.4884 898.675 43.5309 899.003 43.4721L900.856 43.3428C902.169 43.2502 905.632 42.6754 906.696 42.1646C906.815 41.6709 906.561 41.2112 906.053 41.0929C906.269 40.642 905.742 40.2182 905.357 40.1284C905.265 40.1896 905.143 40.2451 905.143 40.3965H905.142Z" fill="#F3EDE7"/>
<path fill-rule="evenodd" clip-rule="evenodd" d="M894.588 20.3053C894.588 20.1703 894.673 20.2943 894.62 20.3053C894.62 20.3053 894.588 20.4563 894.588 20.3053ZM897.427 19.5016C897.427 19.3666 897.512 19.4906 897.46 19.5016C897.459 19.5016 897.427 19.6526 897.427 19.5016ZM895.177 19.4482L895.23 19.1267C895.23 19.1516 895.234 19.2736 895.232 19.2895L895.177 19.4482ZM895.82 19.234V19.0732H895.873C895.873 19.3564 895.873 19.1532 895.82 19.234ZM897.213 18.9659C897.213 18.8309 897.298 18.9549 897.245 18.9659C897.244 18.9659 897.213 19.1169 897.213 18.9659ZM896.302 18.8587V19.0194H896.248C896.248 18.7363 896.249 18.9394 896.302 18.8587ZM897.855 18.8587C897.855 18.7236 897.94 18.8476 897.888 18.8587C897.887 18.8587 897.855 19.0096 897.855 18.8587ZM897.319 18.6979V18.8587H897.266C897.266 18.5755 897.266 18.7787 897.319 18.6979ZM899.194 18.0015H899.248V18.1623H899.194V18.0015ZM898.873 18.0015C898.873 17.8665 898.958 17.9905 898.906 18.0015C898.905 18.0015 898.873 18.1525 898.873 18.0015ZM898.605 17.6266C898.61 17.6213 898.621 17.6352 898.621 17.6425L898.605 17.6266ZM898.766 17.1978V17.2513L898.703 17.2068L898.766 17.1978ZM893.086 16.5549C893.086 16.4198 893.172 16.5438 893.119 16.5549C893.118 16.5549 893.086 16.7058 893.086 16.5549ZM890.89 14.3584H890.943V14.5191H890.89V14.3584ZM895.176 19.4482V20.1446C895.495 20.2123 895.45 20.1107 895.68 19.5236L895.778 19.2997C895.783 19.2907 895.794 19.2736 895.798 19.2662C895.802 19.2593 895.811 19.2442 895.819 19.2336C895.819 19.6872 895.533 20.4803 895.545 20.7373C895.558 21.0343 895.762 21.0274 895.905 20.6594C896.001 20.4118 896.073 20.2629 896.171 20.0148C896.371 19.5098 897.158 17.7784 897.158 17.4654H897.212C897.212 17.9273 896.451 20.9079 896.472 21.0017C896.5 21.1253 896.631 21.1355 896.726 21.058C896.822 20.9805 897.084 20.3143 897.141 20.1805L897.401 19.6371C897.406 19.6309 897.418 19.6179 897.426 19.6081C897.426 20.0985 897.266 20.5534 897.266 21.0547C897.625 21.1384 897.54 21.1053 897.756 20.4195L898.069 19.4473V20.0903C898.211 20.1278 898.113 20.0862 898.23 20.1438C898.42 20.0046 898.361 19.9622 898.422 19.6929L898.754 18.3638C898.831 18.0794 898.809 18.1814 898.873 18.108C898.873 18.9407 898.512 20.1127 898.871 20.0932C899.066 20.0826 898.923 20.1225 899 20.0071C899.139 19.8019 899.026 19.5563 899.248 19.3939C899.248 20.2339 899.503 19.7423 899.693 19.411C899.702 19.3972 899.726 19.356 899.734 19.3449C899.74 19.3372 899.754 19.3221 899.759 19.316C899.763 19.3099 899.775 19.2964 899.783 19.287C899.783 19.4983 899.8 19.5045 899.837 19.6619C900.249 19.653 899.955 19.6611 900.236 19.2572C900.422 18.9888 900.437 18.8611 900.587 18.7514C900.587 19.0455 900.573 19.2132 900.748 19.3409C900.931 19.2919 900.871 19.3348 900.943 19.161C900.97 19.0936 900.952 19.1059 900.983 19.0402C901.052 18.8892 901.026 18.9619 901.069 18.9121C901.11 19.0879 901.102 19.7272 901.36 19.4241L901.712 18.055L901.498 18.0015C901.498 17.6951 901.63 17.5275 901.498 17.2513C901.215 17.3267 901.263 17.4883 901.129 17.8999C901.031 18.199 901.037 18.4715 900.801 18.6441C900.801 18.0488 900.85 18.0884 900.855 17.8404C900.66 17.7094 900.806 17.7184 900.641 17.7869C900.664 17.5034 900.706 17.6919 900.641 17.412C900.348 17.4365 900.378 17.483 900.319 17.7335C900.245 17.6168 900.279 17.5511 900.212 17.412H899.998L899.516 19.0194C899.516 18.715 899.589 18.2822 899.643 17.9685C899.714 17.556 899.908 17.2431 899.783 16.9832C899.514 17.0057 899.534 17.1395 899.473 17.3692C899.417 17.5772 899.301 17.7535 899.301 17.9477H899.248C899.248 17.6466 899.273 17.4438 899.306 17.1489C899.348 16.7674 899.554 16.0657 899.166 16.2501C899.004 16.3268 898.932 16.9579 898.765 17.1978C898.771 16.9555 898.819 16.9849 898.819 16.7156C898.46 16.6397 898.552 16.7686 898.289 17.5789L897.908 18.7514L898.29 16.9898C898.37 16.7315 898.454 16.652 898.23 16.5014C898.002 16.654 898.011 17 897.769 17.5944L897.319 18.6979C897.319 18.4189 897.562 17.4589 897.64 17.1444C897.725 16.8029 897.988 15.9862 897.908 15.6443C897.572 15.6724 897.688 15.7206 897.408 16.3227C897.339 16.47 897.296 16.5826 897.234 16.7384C897.12 17.0261 896.454 18.6836 896.301 18.8591C896.301 18.1769 896.752 16.5214 896.907 15.6545C896.941 15.4676 896.944 15.3991 896.676 15.3766C896.59 15.5545 896.492 16.058 896.429 16.3089C896.342 16.6569 896.273 16.9118 896.183 17.2415L895.551 19.0198C895.551 18.4233 896.114 15.854 896.067 15.7699C895.852 15.3877 895.604 16.3027 895.604 16.4484L895.781 14.9605C895.828 14.7039 895.889 14.7284 895.658 14.5734C895.436 14.7219 895.415 15.0058 895.333 15.4268C895.271 15.7369 895.122 16.109 895.122 16.4488H895.069C895.069 15.5941 895.336 15.3881 894.855 15.3775C894.785 15.5231 894.48 16.7707 894.48 16.9849H894.426C894.426 16.4374 894.586 15.2702 894.587 14.7345C894.587 14.3633 894.672 14.1744 894.319 14.145C894.179 14.4355 894.186 16.2338 894.051 17.0917C894.004 17.392 893.891 17.7017 893.891 18.0023L893.837 15.2698C893.837 14.8308 893.912 14.597 893.623 14.5195C893.443 14.6513 893.425 14.9719 893.361 15.3828C893.31 15.7087 893.195 16.0771 893.195 16.3949H893.141C893.141 15.9201 893.305 14.4856 893.141 14.1446C892.833 14.1703 892.847 14.4477 892.82 15.1094C892.804 15.486 892.659 15.8483 892.659 16.2342C892.49 16.1102 892.55 15.9878 892.552 15.6985L892.555 14.4094C892.532 14.1148 892.441 14.1495 892.23 14.1984L892.177 16.02C892.177 15.5953 892.091 15.2734 892.07 14.8948L891.954 13.7774C891.916 13.631 891.72 13.4931 891.648 13.7199C891.646 13.7264 891.588 14.2915 891.588 14.3057L891.427 15.4309C891.427 15.1992 891.371 15.2673 891.373 14.7345C891.375 14.2237 891.489 13.3111 891.129 13.5167C891.023 13.5771 890.998 14.0222 890.998 14.1984L890.945 13.8235C890.723 13.7717 890.63 13.7207 890.623 14.0377C890.162 14.0377 890.194 14.2307 890.194 14.6807C890.346 14.7537 890.302 14.6868 890.493 14.8112L890.623 14.8948C890.623 15.169 890.681 15.7585 890.891 15.9127C891.053 15.8695 891.041 15.8919 891.098 15.7446C891.128 15.6675 891.159 15.4782 891.159 15.3766H891.213C891.213 15.6251 891.284 16.0367 891.481 16.1803C891.686 16.1257 891.749 15.9148 891.749 15.6981H891.802C891.802 15.9111 892.013 17.2398 892.07 17.359C892.308 17.3537 892.319 17.3761 892.338 17.1448C892.481 17.2129 892.396 17.1937 892.606 17.1982C892.648 17.0187 892.767 16.7813 892.767 16.6087H892.82C892.82 17.0505 892.845 17.4854 892.928 17.8408H893.196L893.387 16.9069C893.437 16.634 893.35 16.7315 893.517 16.6087L893.57 18.6453C893.567 18.9713 893.518 19.0553 893.785 19.1267C893.946 19.0092 894.053 18.5417 894.053 18.323L894.119 20.1331C894.175 20.351 894.212 20.1319 894.216 20.4106C894.221 20.7276 894.032 20.65 894.267 21.0021C894.436 20.9132 894.411 20.9752 894.475 20.781C894.51 20.6737 894.535 20.5383 894.535 20.413H894.589C894.589 21.1208 894.223 21.3656 894.749 21.3774L895.075 19.9353C895.116 19.7288 895.114 19.5489 895.178 19.4486L895.176 19.4482Z" fill="#F3EDE7"/>
<path fill-rule="evenodd" clip-rule="evenodd" d="M905.196 35.4139V35.6281C905.346 35.7285 905.359 35.713 905.518 35.7888C905.518 36.178 905.392 36.3494 905.048 36.7129C904.84 36.9328 904.66 37.231 904.66 37.6104C904.66 37.8156 904.599 37.5929 904.841 37.8581C904.937 37.9633 904.977 38.0078 905.076 38.1053C905.447 38.4716 905.41 38.5826 905.41 39.0032C905.22 39.1309 905.233 39.1982 904.962 39.3047C904.33 39.5536 900.139 39.7531 899.838 39.7531L892.768 39.6445C890.431 39.6413 888.165 39.5381 885.855 39.5389C885.398 39.5389 885.155 39.4834 884.73 39.485C883.986 39.4879 883.131 39.5124 882.475 39.4357C881.791 39.3557 880.792 39.5222 880.134 39.4198C879.49 39.3194 878.605 39.3916 877.87 39.3802C877.602 39.3761 877.606 39.3263 877.338 39.3222L875.568 39.3243C875.135 39.3251 874.929 39.2696 874.497 39.2708C871.825 39.277 869.128 39.1635 866.407 39.1635C865.592 39.1635 864.971 39.1101 864.156 39.1101C863.37 39.1101 862.585 39.1101 861.799 39.1101L861.739 39.3222C862.108 39.4977 862.922 39.41 863.408 39.4295C863.645 39.4389 863.658 39.4863 863.941 39.4867C864.796 39.4879 865.46 39.5389 866.3 39.5389C866.48 39.5389 866.716 39.5254 866.889 39.5389L868.604 39.5923C869.004 39.5903 869.276 39.6462 869.729 39.6462C870.128 39.6462 870.569 39.6282 870.963 39.6441C871.2 39.6535 871.212 39.7008 871.495 39.7013L874.39 39.7535C874.8 39.7535 875.212 39.7555 875.622 39.7531C876.023 39.751 876.294 39.8069 876.747 39.8069C877.14 39.8069 877.533 39.8069 877.926 39.8069L879.05 39.8612C881.405 39.8506 883.741 39.9628 886.124 39.966L887.248 40.0211C887.64 40.0211 888.033 40.0219 888.426 40.0211C888.879 40.0203 889.132 40.0749 889.605 40.0745C893.037 40.0733 896.609 40.2904 900.001 40.2373C900.281 40.2328 900.276 40.1806 900.909 40.1814C901.05 40.1814 901.253 40.1933 901.387 40.1774C901.555 40.1578 901.571 40.1255 901.819 40.1268C902.621 40.13 905.48 39.7596 905.999 39.485C905.999 38.0212 905.445 37.9817 905.088 37.4493C905.488 36.6925 906.052 36.843 906.052 35.7884C906.052 35.584 905.945 35.5216 905.945 35.467C905.945 35.4274 906.26 34.8774 905.731 34.8774C905.6 34.8774 905.195 35.2817 905.195 35.4131L905.196 35.4139Z" fill="#F3EDE7"/>
<path fill-rule="evenodd" clip-rule="evenodd" d="M906.696 33.1637C906.696 34.1465 907.106 34.124 905.141 34.1265C904.84 34.1269 904.802 34.1828 904.501 34.1828C903.428 34.1832 901.745 34.3423 900.642 34.3419C899.477 34.3419 897.549 34.4329 896.675 34.3974L888.823 34.213C888.427 34.142 887.942 34.1799 887.516 34.1811C887.033 34.1824 886.7 34.1277 886.176 34.1277C885.263 34.1277 884.493 34.0771 883.549 34.0755L880.98 33.9653C879.579 33.9633 876.436 33.9086 875.086 33.8058C874.555 33.7654 873.576 33.8748 873.071 33.7846C872.713 33.7205 871.611 33.7511 871.12 33.7532C870.806 33.7544 870.752 33.701 870.48 33.6969L868.494 33.701C868.251 33.6912 868.167 33.6434 867.853 33.6451L865.814 33.6467C865.662 33.6394 865.335 33.5517 865.335 33.7524C865.335 34.0632 865.837 33.9674 866.139 33.9666L868.178 34.0698C868.49 34.1065 868.92 34.0588 869.248 34.0718C869.594 34.0857 869.515 34.1273 870.21 34.1273C870.383 34.1273 870.578 34.1183 870.748 34.1253C870.985 34.1346 870.964 34.1787 871.226 34.1828C871.564 34.1881 871.972 34.1554 872.3 34.1803C872.502 34.1958 872.512 34.235 872.78 34.2354L873.802 34.2321C874.039 34.2415 874.018 34.2856 874.28 34.2897C874.636 34.2954 874.999 34.2799 875.356 34.2856C875.625 34.2897 875.744 34.3415 876.372 34.3415L878.408 34.3949C878.817 34.3933 879.004 34.4496 879.426 34.4488C880.739 34.4459 882.236 34.5589 883.551 34.5561C883.972 34.5553 884.16 34.6115 884.569 34.6099C884.915 34.6087 885.302 34.594 885.643 34.6079C885.989 34.6217 885.91 34.6634 886.605 34.6634L888.695 34.7168C889.118 34.7164 889.326 34.7727 889.713 34.7707C890.997 34.7637 892.57 34.8775 893.838 34.8775L899.25 34.931C899.703 34.9318 899.955 34.8771 900.428 34.8775C900.839 34.8775 901.25 34.8759 901.661 34.8775C902.094 34.8792 902.366 34.8237 902.839 34.8237L904.522 34.738C904.74 34.6989 904.924 34.7274 905.145 34.7184L906.268 34.6091C906.724 34.5756 907.01 34.6234 907.34 34.4484L907.287 33.4835C907.268 33.0637 907.249 33.1522 906.965 33.0017C906.846 33.0649 906.804 33.0911 906.697 33.1624L906.696 33.1637Z" fill="#F3EDE7"/>
</g>
<path d="M399.879 35.8515C408.096 35.4189 417.444 33.3114 418.272 23.5737C419.422 33.7277 408.133 37.367 399.879 35.8515Z" fill="#F3EDE7" fill-opacity="0.2"/>
<path d="M440.56 35.8516C432.306 37.3684 421.016 33.725 422.168 23.5737C422.997 33.3141 432.346 35.4203 440.56 35.8516Z" fill="#F3EDE7" fill-opacity="0.2"/>
<path d="M423.656 18.3189C423.656 20.152 422.171 21.6378 420.337 21.6378C418.504 21.6378 417.019 20.152 417.019 18.3189C417.019 16.4857 418.504 15 420.337 15C422.171 15 423.656 16.4857 423.656 18.3189Z" fill="#F3EDE7" fill-opacity="0.2"/>
<path d="M448.235 33.7561C448.235 35.5893 446.749 37.075 444.916 37.075C443.083 37.075 441.597 35.5893 441.597 33.7561C441.597 31.923 443.083 30.4373 444.916 30.4373C446.749 30.4373 448.235 31.923 448.235 33.7561Z" fill="#F3EDE7" fill-opacity="0.2"/>
<path d="M449.744 35.8515C457.96 35.4189 467.307 33.3114 468.136 23.5737C469.287 33.7277 457.997 37.367 449.744 35.8515Z" fill="#F3EDE7" fill-opacity="0.2"/>
<path d="M490.425 35.8516C482.17 37.3684 470.88 33.725 472.032 23.5737C472.861 33.3141 482.211 35.4203 490.425 35.8516Z" fill="#F3EDE7" fill-opacity="0.2"/>
<path d="M473.522 18.3189C473.522 20.152 472.036 21.6378 470.203 21.6378C468.37 21.6378 466.884 20.152 466.884 18.3189C466.884 16.4857 468.37 15 470.203 15C472.035 15 473.522 16.4857 473.522 18.3189Z" fill="#F3EDE7" fill-opacity="0.2"/>
<path d="M498.099 33.7561C498.099 35.5893 496.614 37.075 494.78 37.075C492.947 37.075 491.461 35.5893 491.461 33.7561C491.461 31.923 492.947 30.4373 494.78 30.4373C496.614 30.4373 498.099 31.923 498.099 33.7561Z" fill="#F3EDE7" fill-opacity="0.2"/>
<path d="M501.029 35.8515C509.246 35.4189 518.592 33.3114 519.421 23.5737C520.572 33.7277 509.282 37.367 501.029 35.8515Z" fill="#F3EDE7" fill-opacity="0.2"/>
<path d="M541.71 35.8516C533.455 37.3684 522.165 33.725 523.317 23.5737C524.146 33.3141 533.496 35.4203 541.71 35.8516Z" fill="#F3EDE7" fill-opacity="0.2"/>
<path d="M524.807 18.3189C524.807 20.152 523.321 21.6378 521.488 21.6378C519.655 21.6378 518.169 20.152 518.169 18.3189C518.169 16.4857 519.655 15 521.488 15C523.32 15 524.807 16.4857 524.807 18.3189Z" fill="#F3EDE7" fill-opacity="0.2"/>
<path d="M549.384 33.7561C549.384 35.5893 547.899 37.075 546.065 37.075C544.232 37.075 542.747 35.5893 542.747 33.7561C542.747 31.923 544.232 30.4373 546.065 30.4373C547.899 30.4373 549.384 31.923 549.384 33.7561Z" fill="#F3EDE7" fill-opacity="0.2"/>
<path d="M550.893 35.8515C559.11 35.4189 568.457 33.3114 569.285 23.5737C570.436 33.7277 559.146 37.367 550.893 35.8515Z" fill="#F3EDE7" fill-opacity="0.2"/>
<path d="M591.574 35.8516C583.318 37.3684 572.03 33.725 573.182 23.5737C574.01 33.3141 583.36 35.4203 591.574 35.8516Z" fill="#F3EDE7" fill-opacity="0.2"/>
<path d="M574.671 18.3189C574.671 20.152 573.186 21.6378 571.352 21.6378C569.519 21.6378 568.034 20.152 568.034 18.3189C568.034 16.4857 569.519 15 571.352 15C573.186 15 574.671 16.4857 574.671 18.3189Z" fill="#F3EDE7" fill-opacity="0.2"/>
<path d="M599.249 33.7561C599.249 35.5893 597.763 37.075 595.93 37.075C594.097 37.075 592.611 35.5893 592.611 33.7561C592.611 31.923 594.097 30.4373 595.93 30.4373C597.763 30.4373 599.249 31.923 599.249 33.7561Z" fill="#F3EDE7" fill-opacity="0.2"/>
<path d="M600.615 35.8515C608.832 35.4189 618.179 33.3114 619.008 23.5737C620.158 33.7277 608.869 37.367 600.615 35.8515Z" fill="#F3EDE7" fill-opacity="0.2"/>
<path d="M641.296 35.8516C633.042 37.3684 621.752 33.725 622.904 23.5737C623.733 33.3141 633.082 35.4203 641.296 35.8516Z" fill="#F3EDE7" fill-opacity="0.2"/>
<path d="M624.394 18.3189C624.394 20.152 622.908 21.6378 621.075 21.6378C619.242 21.6378 617.756 20.152 617.756 18.3189C617.756 16.4857 619.242 15 621.075 15C622.907 15 624.394 16.4857 624.394 18.3189Z" fill="#F3EDE7" fill-opacity="0.2"/>
<path d="M648.971 33.7561C648.971 35.5893 647.485 37.075 645.652 37.075C643.819 37.075 642.333 35.5893 642.333 33.7561C642.333 31.923 643.819 30.4373 645.652 30.4373C647.485 30.4373 648.971 31.923 648.971 33.7561Z" fill="#F3EDE7" fill-opacity="0.2"/>
<path d="M650.48 35.8515C658.696 35.4189 668.043 33.3114 668.872 23.5737C670.023 33.7277 658.733 37.367 650.48 35.8515Z" fill="#F3EDE7" fill-opacity="0.2"/>
<path d="M691.161 35.8516C682.906 37.3684 671.616 33.725 672.768 23.5737C673.597 33.3141 682.946 35.4203 691.161 35.8516Z" fill="#F3EDE7" fill-opacity="0.2"/>
<path d="M674.258 18.3189C674.258 20.152 672.772 21.6378 670.939 21.6378C669.106 21.6378 667.62 20.152 667.62 18.3189C667.62 16.4857 669.106 15 670.939 15C672.772 15 674.258 16.4857 674.258 18.3189Z" fill="#F3EDE7" fill-opacity="0.2"/>
<path d="M698.835 33.7561C698.835 35.5893 697.35 37.075 695.516 37.075C693.683 37.075 692.198 35.5893 692.198 33.7561C692.198 31.923 693.683 30.4373 695.516 30.4373C697.35 30.4373 698.835 31.923 698.835 33.7561Z" fill="#F3EDE7" fill-opacity="0.2"/>
<path d="M701.765 35.8515C709.982 35.4189 719.328 33.3114 720.157 23.5737C721.308 33.7277 710.018 37.367 701.765 35.8515Z" fill="#F3EDE7" fill-opacity="0.2"/>
<path d="M742.446 35.8516C734.191 37.3684 722.901 33.725 724.053 23.5737C724.882 33.3141 734.232 35.4203 742.446 35.8516Z" fill="#F3EDE7" fill-opacity="0.2"/>
<path d="M725.543 18.3189C725.543 20.152 724.057 21.6378 722.224 21.6378C720.391 21.6378 718.905 20.152 718.905 18.3189C718.905 16.4857 720.391 15 722.224 15C724.057 15 725.543 16.4857 725.543 18.3189Z" fill="#F3EDE7" fill-opacity="0.2"/>
<path d="M750.12 33.7561C750.12 35.5893 748.635 37.075 746.801 37.075C744.968 37.075 743.483 35.5893 743.483 33.7561C743.483 31.923 744.968 30.4373 746.801 30.4373C748.635 30.4373 750.12 31.923 750.12 33.7561Z" fill="#F3EDE7" fill-opacity="0.2"/>
<path d="M751.629 35.8515C759.846 35.4189 769.194 33.3114 770.021 23.5737C771.172 33.7277 759.882 37.367 751.629 35.8515Z" fill="#F3EDE7" fill-opacity="0.2"/>
<path d="M792.31 35.8516C784.055 37.3684 772.766 33.725 773.918 23.5737C774.746 33.3141 784.096 35.4203 792.31 35.8516Z" fill="#F3EDE7" fill-opacity="0.2"/>
<path d="M775.407 18.3189C775.407 20.152 773.922 21.6378 772.088 21.6378C770.255 21.6378 768.77 20.152 768.77 18.3189C768.77 16.4857 770.255 15 772.088 15C773.922 15 775.407 16.4857 775.407 18.3189Z" fill="#F3EDE7" fill-opacity="0.2"/>
<path d="M799.985 33.7561C799.985 35.5893 798.499 37.075 796.666 37.075C794.833 37.075 793.347 35.5893 793.347 33.7561C793.347 31.923 794.833 30.4373 796.666 30.4373C798.499 30.4373 799.985 31.923 799.985 33.7561Z" fill="#F3EDE7" fill-opacity="0.2"/>
<path d="M0 35.8515C8.21675 35.4189 17.5637 33.3114 18.3924 23.5737C19.5428 33.7277 8.25326 37.367 0 35.8515Z" fill="#F3EDE7" fill-opacity="0.2"/>
<path d="M40.6809 35.8516C32.4263 37.3684 21.1367 33.725 22.2885 23.5737C23.1173 33.3141 32.4669 35.4203 40.6809 35.8516Z" fill="#F3EDE7" fill-opacity="0.2"/>
<path d="M23.7783 18.3189C23.7783 20.152 22.2926 21.6378 20.4594 21.6378C18.6263 21.6378 17.1406 20.152 17.1406 18.3189C17.1406 16.4857 18.6263 15 20.4594 15C22.2926 15 23.7783 16.4857 23.7783 18.3189Z" fill="#F3EDE7" fill-opacity="0.2"/>
<path d="M48.3556 33.7561C48.3556 35.5893 46.8699 37.075 45.0367 37.075C43.2036 37.075 41.7178 35.5893 41.7178 33.7561C41.7178 31.923 43.2036 30.4373 45.0367 30.4373C46.8699 30.4373 48.3556 31.923 48.3556 33.7561Z" fill="#F3EDE7" fill-opacity="0.2"/>
<path d="M49.8643 35.8515C58.081 35.4189 67.4279 33.3114 68.2566 23.5737C69.4071 33.7277 58.1175 37.367 49.8643 35.8515Z" fill="#F3EDE7" fill-opacity="0.2"/>
<path d="M90.5452 35.8516C82.2893 37.3684 71.001 33.725 72.1528 23.5737C72.9815 33.3141 82.3312 35.4203 90.5452 35.8516Z" fill="#F3EDE7" fill-opacity="0.2"/>
<path d="M73.6426 18.3189C73.6426 20.152 72.1569 21.6378 70.3237 21.6378C68.4905 21.6378 67.0048 20.152 67.0048 18.3189C67.0048 16.4857 68.4905 15 70.3237 15C72.1569 15 73.6426 16.4857 73.6426 18.3189Z" fill="#F3EDE7" fill-opacity="0.2"/>
<path d="M98.2198 33.7561C98.2198 35.5893 96.7341 37.075 94.901 37.075C93.0678 37.075 91.5821 35.5893 91.5821 33.7561C91.5821 31.923 93.0678 30.4373 94.901 30.4373C96.7341 30.4373 98.2198 31.923 98.2198 33.7561Z" fill="#F3EDE7" fill-opacity="0.2"/>
<path d="M101.149 35.8515C109.366 35.4189 118.713 33.3114 119.542 23.5737C120.692 33.7277 109.403 37.367 101.149 35.8515Z" fill="#F3EDE7" fill-opacity="0.2"/>
<path d="M141.83 35.8516C133.576 37.3684 122.286 33.725 123.438 23.5737C124.267 33.3141 133.616 35.4203 141.83 35.8516Z" fill="#F3EDE7" fill-opacity="0.2"/>
<path d="M124.928 18.3189C124.928 20.152 123.442 21.6378 121.609 21.6378C119.776 21.6378 118.29 20.152 118.29 18.3189C118.29 16.4857 119.776 15 121.609 15C123.442 15 124.928 16.4857 124.928 18.3189Z" fill="#F3EDE7" fill-opacity="0.2"/>
<path d="M149.505 33.7561C149.505 35.5893 148.019 37.075 146.186 37.075C144.353 37.075 142.867 35.5893 142.867 33.7561C142.867 31.923 144.353 30.4373 146.186 30.4373C148.019 30.4373 149.505 31.923 149.505 33.7561Z" fill="#F3EDE7" fill-opacity="0.2"/>
<path d="M151.015 35.8515C159.232 35.4189 168.579 33.3114 169.407 23.5737C170.558 33.7277 159.268 37.367 151.015 35.8515Z" fill="#F3EDE7" fill-opacity="0.2"/>
<path d="M191.695 35.8516C183.44 37.3684 172.15 33.725 173.302 23.5737C174.131 33.3141 183.48 35.4203 191.695 35.8516Z" fill="#F3EDE7" fill-opacity="0.2"/>
<path d="M174.792 18.3189C174.792 20.152 173.306 21.6378 171.473 21.6378C169.64 21.6378 168.154 20.152 168.154 18.3189C168.154 16.4857 169.64 15 171.473 15C173.306 15 174.792 16.4857 174.792 18.3189Z" fill="#F3EDE7" fill-opacity="0.2"/>
<path d="M199.369 33.7561C199.369 35.5893 197.883 37.075 196.05 37.075C194.217 37.075 192.731 35.5893 192.731 33.7561C192.731 31.923 194.217 30.4373 196.05 30.4373C197.882 30.4373 199.369 31.923 199.369 33.7561Z" fill="#F3EDE7" fill-opacity="0.2"/>
<path d="M200.736 35.8515C208.953 35.4189 218.301 33.3114 219.128 23.5737C220.279 33.7277 208.989 37.367 200.736 35.8515Z" fill="#F3EDE7" fill-opacity="0.2"/>
<path d="M241.417 35.8516C233.162 37.3684 221.873 33.725 223.025 23.5737C223.853 33.3141 233.203 35.4203 241.417 35.8516Z" fill="#F3EDE7" fill-opacity="0.2"/>
<path d="M224.514 18.3189C224.514 20.152 223.029 21.6378 221.195 21.6378C219.362 21.6378 217.877 20.152 217.877 18.3189C217.877 16.4857 219.362 15 221.195 15C223.029 15 224.514 16.4857 224.514 18.3189Z" fill="#F3EDE7" fill-opacity="0.2"/>
<path d="M249.092 33.7561C249.092 35.5893 247.606 37.075 245.773 37.075C243.94 37.075 242.454 35.5893 242.454 33.7561C242.454 31.923 243.94 30.4373 245.773 30.4373C247.604 30.4373 249.092 31.923 249.092 33.7561Z" fill="#F3EDE7" fill-opacity="0.2"/>
<path d="M250.6 35.8515C258.817 35.4189 268.164 33.3114 268.993 23.5737C270.143 33.7277 258.853 37.367 250.6 35.8515Z" fill="#F3EDE7" fill-opacity="0.2"/>
<path d="M291.281 35.8516C283.027 37.3684 271.737 33.725 272.889 23.5737C273.717 33.3141 283.067 35.4203 291.281 35.8516Z" fill="#F3EDE7" fill-opacity="0.2"/>
<path d="M274.379 18.3189C274.379 20.152 272.893 21.6378 271.06 21.6378C269.227 21.6378 267.741 20.152 267.741 18.3189C267.741 16.4857 269.227 15 271.06 15C272.891 15 274.379 16.4857 274.379 18.3189Z" fill="#F3EDE7" fill-opacity="0.2"/>
<path d="M298.956 33.7561C298.956 35.5893 297.47 37.075 295.637 37.075C293.804 37.075 292.318 35.5893 292.318 33.7561C292.318 31.923 293.804 30.4373 295.637 30.4373C297.47 30.4373 298.956 31.923 298.956 33.7561Z" fill="#F3EDE7" fill-opacity="0.2"/>
<path d="M301.885 35.8515C310.102 35.4189 319.449 33.3114 320.278 23.5737C321.428 33.7277 310.139 37.367 301.885 35.8515Z" fill="#F3EDE7" fill-opacity="0.2"/>
<path d="M342.566 35.8516C334.31 37.3684 323.022 33.725 324.174 23.5737C325.003 33.3141 334.352 35.4203 342.566 35.8516Z" fill="#F3EDE7" fill-opacity="0.2"/>
<path d="M325.664 18.3189C325.664 20.152 324.178 21.6378 322.345 21.6378C320.512 21.6378 319.026 20.152 319.026 18.3189C319.026 16.4857 320.512 15 322.345 15C324.177 15 325.664 16.4857 325.664 18.3189Z" fill="#F3EDE7" fill-opacity="0.2"/>
<path d="M350.241 33.7561C350.241 35.5893 348.755 37.075 346.922 37.075C345.089 37.075 343.603 35.5893 343.603 33.7561C343.603 31.923 345.089 30.4373 346.922 30.4373C348.755 30.4373 350.241 31.923 350.241 33.7561Z" fill="#F3EDE7" fill-opacity="0.2"/>
<path d="M351.751 35.8515C359.968 35.4189 369.315 33.3114 370.143 23.5737C371.294 33.7277 360.004 37.367 351.751 35.8515Z" fill="#F3EDE7" fill-opacity="0.2"/>
<path d="M392.431 35.8516C384.176 37.3684 372.886 33.725 374.038 23.5737C374.867 33.3141 384.216 35.4203 392.431 35.8516Z" fill="#F3EDE7" fill-opacity="0.2"/>
<path d="M375.528 18.3189C375.528 20.152 374.042 21.6378 372.209 21.6378C370.376 21.6378 368.89 20.152 368.89 18.3189C368.89 16.4857 370.376 15 372.209 15C374.042 15 375.528 16.4857 375.528 18.3189Z" fill="#F3EDE7" fill-opacity="0.2"/>
<path d="M400.105 33.7561C400.105 35.5893 398.619 37.075 396.786 37.075C394.953 37.075 393.467 35.5893 393.467 33.7561C393.467 31.923 394.953 30.4373 396.786 30.4373C398.618 30.4373 400.105 31.923 400.105 33.7561Z" fill="#F3EDE7" fill-opacity="0.2"/>
<path d="M1337.88 32.8515C1346.1 32.4189 1355.44 30.3114 1356.27 20.5737C1357.42 30.7277 1346.13 34.367 1337.88 32.8515Z" fill="#F3EDE7" fill-opacity="0.2"/>
<path d="M1378.56 32.8516C1370.31 34.3684 1359.02 30.725 1360.17 20.5737C1361 30.3141 1370.35 32.4203 1378.56 32.8516Z" fill="#F3EDE7" fill-opacity="0.2"/>
<path d="M1361.66 15.3189C1361.66 17.152 1360.17 18.6378 1358.34 18.6378C1356.5 18.6378 1355.02 17.152 1355.02 15.3189C1355.02 13.4857 1356.5 12 1358.34 12C1360.17 12 1361.66 13.4857 1361.66 15.3189Z" fill="#F3EDE7" fill-opacity="0.2"/>
<path d="M1386.23 30.7561C1386.23 32.5893 1384.75 34.075 1382.92 34.075C1381.08 34.075 1379.6 32.5893 1379.6 30.7561C1379.6 28.923 1381.08 27.4373 1382.92 27.4373C1384.75 27.4373 1386.23 28.923 1386.23 30.7561Z" fill="#F3EDE7" fill-opacity="0.2"/>
<path d="M1387.74 32.8515C1395.96 32.4189 1405.31 30.3114 1406.14 20.5737C1407.29 30.7277 1396 34.367 1387.74 32.8515Z" fill="#F3EDE7" fill-opacity="0.2"/>
<path d="M1428.42 32.8516C1420.17 34.3684 1408.88 30.725 1410.03 20.5737C1410.86 30.3141 1420.21 32.4203 1428.42 32.8516Z" fill="#F3EDE7" fill-opacity="0.2"/>
<path d="M1411.52 15.3189C1411.52 17.152 1410.04 18.6378 1408.2 18.6378C1406.37 18.6378 1404.88 17.152 1404.88 15.3189C1404.88 13.4857 1406.37 12 1408.2 12C1410.03 12 1411.52 13.4857 1411.52 15.3189Z" fill="#F3EDE7" fill-opacity="0.2"/>
<path d="M1436.1 30.7561C1436.1 32.5893 1434.61 34.075 1432.78 34.075C1430.95 34.075 1429.46 32.5893 1429.46 30.7561C1429.46 28.923 1430.95 27.4373 1432.78 27.4373C1434.61 27.4373 1436.1 28.923 1436.1 30.7561Z" fill="#F3EDE7" fill-opacity="0.2"/>
<path d="M1439.03 32.8515C1447.25 32.4189 1456.59 30.3114 1457.42 20.5737C1458.57 30.7277 1447.28 34.367 1439.03 32.8515Z" fill="#F3EDE7" fill-opacity="0.2"/>
<path d="M1479.71 32.8516C1471.46 34.3684 1460.17 30.725 1461.32 20.5737C1462.15 30.3141 1471.5 32.4203 1479.71 32.8516Z" fill="#F3EDE7" fill-opacity="0.2"/>
<path d="M1462.81 15.3189C1462.81 17.152 1461.32 18.6378 1459.49 18.6378C1457.66 18.6378 1456.17 17.152 1456.17 15.3189C1456.17 13.4857 1457.66 12 1459.49 12C1461.32 12 1462.81 13.4857 1462.81 15.3189Z" fill="#F3EDE7" fill-opacity="0.2"/>
<path d="M1487.38 30.7561C1487.38 32.5893 1485.9 34.075 1484.07 34.075C1482.23 34.075 1480.75 32.5893 1480.75 30.7561C1480.75 28.923 1482.23 27.4373 1484.07 27.4373C1485.9 27.4373 1487.38 28.923 1487.38 30.7561Z" fill="#F3EDE7" fill-opacity="0.2"/>
<path d="M1488.89 32.8515C1497.11 32.4189 1506.46 30.3114 1507.29 20.5737C1508.44 30.7277 1497.15 34.367 1488.89 32.8515Z" fill="#F3EDE7" fill-opacity="0.2"/>
<path d="M1529.57 32.8516C1521.32 34.3684 1510.03 30.725 1511.18 20.5737C1512.01 30.3141 1521.36 32.4203 1529.57 32.8516Z" fill="#F3EDE7" fill-opacity="0.2"/>
<path d="M1512.67 15.3189C1512.67 17.152 1511.19 18.6378 1509.35 18.6378C1507.52 18.6378 1506.03 17.152 1506.03 15.3189C1506.03 13.4857 1507.52 12 1509.35 12C1511.19 12 1512.67 13.4857 1512.67 15.3189Z" fill="#F3EDE7" fill-opacity="0.2"/>
<path d="M1537.25 30.7561C1537.25 32.5893 1535.76 34.075 1533.93 34.075C1532.1 34.075 1530.61 32.5893 1530.61 30.7561C1530.61 28.923 1532.1 27.4373 1533.93 27.4373C1535.76 27.4373 1537.25 28.923 1537.25 30.7561Z" fill="#F3EDE7" fill-opacity="0.2"/>
<path d="M1538.62 32.8515C1546.83 32.4189 1556.18 30.3114 1557.01 20.5737C1558.16 30.7277 1546.87 34.367 1538.62 32.8515Z" fill="#F3EDE7" fill-opacity="0.2"/>
<path d="M1579.3 32.8516C1571.04 34.3684 1559.75 30.725 1560.9 20.5737C1561.73 30.3141 1571.08 32.4203 1579.3 32.8516Z" fill="#F3EDE7" fill-opacity="0.2"/>
<path d="M1562.39 15.3189C1562.39 17.152 1560.91 18.6378 1559.07 18.6378C1557.24 18.6378 1555.76 17.152 1555.76 15.3189C1555.76 13.4857 1557.24 12 1559.07 12C1560.91 12 1562.39 13.4857 1562.39 15.3189Z" fill="#F3EDE7" fill-opacity="0.2"/>
<path d="M1586.97 30.7561C1586.97 32.5893 1585.49 34.075 1583.65 34.075C1581.82 34.075 1580.33 32.5893 1580.33 30.7561C1580.33 28.923 1581.82 27.4373 1583.65 27.4373C1585.49 27.4373 1586.97 28.923 1586.97 30.7561Z" fill="#F3EDE7" fill-opacity="0.2"/>
<path d="M1588.48 32.8515C1596.7 32.4189 1606.04 30.3114 1606.87 20.5737C1608.02 30.7277 1596.73 34.367 1588.48 32.8515Z" fill="#F3EDE7" fill-opacity="0.2"/>
<path d="M1629.16 32.8516C1620.91 34.3684 1609.62 30.725 1610.77 20.5737C1611.6 30.3141 1620.95 32.4203 1629.16 32.8516Z" fill="#F3EDE7" fill-opacity="0.2"/>
<path d="M1612.26 15.3189C1612.26 17.152 1610.77 18.6378 1608.94 18.6378C1607.11 18.6378 1605.62 17.152 1605.62 15.3189C1605.62 13.4857 1607.11 12 1608.94 12C1610.77 12 1612.26 13.4857 1612.26 15.3189Z" fill="#F3EDE7" fill-opacity="0.2"/>
<path d="M1636.84 30.7561C1636.84 32.5893 1635.35 34.075 1633.52 34.075C1631.68 34.075 1630.2 32.5893 1630.2 30.7561C1630.2 28.923 1631.68 27.4373 1633.52 27.4373C1635.35 27.4373 1636.84 28.923 1636.84 30.7561Z" fill="#F3EDE7" fill-opacity="0.2"/>
<path d="M1639.76 32.8515C1647.98 32.4189 1657.33 30.3114 1658.16 20.5737C1659.31 30.7277 1648.02 34.367 1639.76 32.8515Z" fill="#F3EDE7" fill-opacity="0.2"/>
<path d="M1680.45 32.8516C1672.19 34.3684 1660.9 30.725 1662.05 20.5737C1662.88 30.3141 1672.23 32.4203 1680.45 32.8516Z" fill="#F3EDE7" fill-opacity="0.2"/>
<path d="M1663.54 15.3189C1663.54 17.152 1662.06 18.6378 1660.22 18.6378C1658.39 18.6378 1656.91 17.152 1656.91 15.3189C1656.91 13.4857 1658.39 12 1660.22 12C1662.06 12 1663.54 13.4857 1663.54 15.3189Z" fill="#F3EDE7" fill-opacity="0.2"/>
<path d="M1688.12 30.7561C1688.12 32.5893 1686.63 34.075 1684.8 34.075C1682.97 34.075 1681.48 32.5893 1681.48 30.7561C1681.48 28.923 1682.97 27.4373 1684.8 27.4373C1686.63 27.4373 1688.12 28.923 1688.12 30.7561Z" fill="#F3EDE7" fill-opacity="0.2"/>
<path d="M1689.63 32.8515C1697.85 32.4189 1707.19 30.3114 1708.02 20.5737C1709.17 30.7277 1697.88 34.367 1689.63 32.8515Z" fill="#F3EDE7" fill-opacity="0.2"/>
<path d="M1730.31 32.8516C1722.06 34.3684 1710.77 30.725 1711.92 20.5737C1712.75 30.3141 1722.1 32.4203 1730.31 32.8516Z" fill="#F3EDE7" fill-opacity="0.2"/>
<path d="M1713.41 15.3189C1713.41 17.152 1711.92 18.6378 1710.09 18.6378C1708.26 18.6378 1706.77 17.152 1706.77 15.3189C1706.77 13.4857 1708.26 12 1710.09 12C1711.92 12 1713.41 13.4857 1713.41 15.3189Z" fill="#F3EDE7" fill-opacity="0.2"/>
<path d="M1737.98 30.7561C1737.98 32.5893 1736.5 34.075 1734.67 34.075C1732.83 34.075 1731.35 32.5893 1731.35 30.7561C1731.35 28.923 1732.83 27.4373 1734.67 27.4373C1736.5 27.4373 1737.98 28.923 1737.98 30.7561Z" fill="#F3EDE7" fill-opacity="0.2"/>
<path d="M938 32.8515C946.217 32.4189 955.564 30.3114 956.392 20.5737C957.543 30.7277 946.253 34.367 938 32.8515Z" fill="#F3EDE7" fill-opacity="0.2"/>
<path d="M978.681 32.8516C970.426 34.3684 959.137 30.725 960.289 20.5737C961.117 30.3141 970.467 32.4203 978.681 32.8516Z" fill="#F3EDE7" fill-opacity="0.2"/>
<path d="M961.778 15.3189C961.778 17.152 960.293 18.6378 958.459 18.6378C956.626 18.6378 955.141 17.152 955.141 15.3189C955.141 13.4857 956.626 12 958.459 12C960.293 12 961.778 13.4857 961.778 15.3189Z" fill="#F3EDE7" fill-opacity="0.2"/>
<path d="M986.356 30.7561C986.356 32.5893 984.87 34.075 983.037 34.075C981.204 34.075 979.718 32.5893 979.718 30.7561C979.718 28.923 981.204 27.4373 983.037 27.4373C984.87 27.4373 986.356 28.923 986.356 30.7561Z" fill="#F3EDE7" fill-opacity="0.2"/>
<path d="M987.864 32.8515C996.081 32.4189 1005.43 30.3114 1006.26 20.5737C1007.41 30.7277 996.118 34.367 987.864 32.8515Z" fill="#F3EDE7" fill-opacity="0.2"/>
<path d="M1028.55 32.8516C1020.29 34.3684 1009 30.725 1010.15 20.5737C1010.98 30.3141 1020.33 32.4203 1028.55 32.8516Z" fill="#F3EDE7" fill-opacity="0.2"/>
<path d="M1011.64 15.3189C1011.64 17.152 1010.16 18.6378 1008.32 18.6378C1006.49 18.6378 1005 17.152 1005 15.3189C1005 13.4857 1006.49 12 1008.32 12C1010.16 12 1011.64 13.4857 1011.64 15.3189Z" fill="#F3EDE7" fill-opacity="0.2"/>
<path d="M1036.22 30.7561C1036.22 32.5893 1034.73 34.075 1032.9 34.075C1031.07 34.075 1029.58 32.5893 1029.58 30.7561C1029.58 28.923 1031.07 27.4373 1032.9 27.4373C1034.73 27.4373 1036.22 28.923 1036.22 30.7561Z" fill="#F3EDE7" fill-opacity="0.2"/>
<path d="M1039.15 32.8515C1047.37 32.4189 1056.71 30.3114 1057.54 20.5737C1058.69 30.7277 1047.4 34.367 1039.15 32.8515Z" fill="#F3EDE7" fill-opacity="0.2"/>
<path d="M1079.83 32.8516C1071.58 34.3684 1060.29 30.725 1061.44 20.5737C1062.27 30.3141 1071.62 32.4203 1079.83 32.8516Z" fill="#F3EDE7" fill-opacity="0.2"/>
<path d="M1062.93 15.3189C1062.93 17.152 1061.44 18.6378 1059.61 18.6378C1057.78 18.6378 1056.29 17.152 1056.29 15.3189C1056.29 13.4857 1057.78 12 1059.61 12C1061.44 12 1062.93 13.4857 1062.93 15.3189Z" fill="#F3EDE7" fill-opacity="0.2"/>
<path d="M1087.5 30.7561C1087.5 32.5893 1086.02 34.075 1084.19 34.075C1082.35 34.075 1080.87 32.5893 1080.87 30.7561C1080.87 28.923 1082.35 27.4373 1084.19 27.4373C1086.02 27.4373 1087.5 28.923 1087.5 30.7561Z" fill="#F3EDE7" fill-opacity="0.2"/>
<path d="M1089.01 32.8515C1097.23 32.4189 1106.58 30.3114 1107.41 20.5737C1108.56 30.7277 1097.27 34.367 1089.01 32.8515Z" fill="#F3EDE7" fill-opacity="0.2"/>
<path d="M1129.69 32.8516C1121.44 34.3684 1110.15 30.725 1111.3 20.5737C1112.13 30.3141 1121.48 32.4203 1129.69 32.8516Z" fill="#F3EDE7" fill-opacity="0.2"/>
<path d="M1112.79 15.3189C1112.79 17.152 1111.31 18.6378 1109.47 18.6378C1107.64 18.6378 1106.15 17.152 1106.15 15.3189C1106.15 13.4857 1107.64 12 1109.47 12C1111.31 12 1112.79 13.4857 1112.79 15.3189Z" fill="#F3EDE7" fill-opacity="0.2"/>
<path d="M1137.37 30.7561C1137.37 32.5893 1135.88 34.075 1134.05 34.075C1132.22 34.075 1130.73 32.5893 1130.73 30.7561C1130.73 28.923 1132.22 27.4373 1134.05 27.4373C1135.88 27.4373 1137.37 28.923 1137.37 30.7561Z" fill="#F3EDE7" fill-opacity="0.2"/>
<path d="M1138.74 32.8515C1146.95 32.4189 1156.3 30.3114 1157.13 20.5737C1158.28 30.7277 1146.99 34.367 1138.74 32.8515Z" fill="#F3EDE7" fill-opacity="0.2"/>
<path d="M1179.42 32.8516C1171.16 34.3684 1159.87 30.725 1161.02 20.5737C1161.85 30.3141 1171.2 32.4203 1179.42 32.8516Z" fill="#F3EDE7" fill-opacity="0.2"/>
<path d="M1162.51 15.3189C1162.51 17.152 1161.03 18.6378 1159.2 18.6378C1157.36 18.6378 1155.88 17.152 1155.88 15.3189C1155.88 13.4857 1157.36 12 1159.2 12C1161.03 12 1162.51 13.4857 1162.51 15.3189Z" fill="#F3EDE7" fill-opacity="0.2"/>
<path d="M1187.09 30.7561C1187.09 32.5893 1185.61 34.075 1183.77 34.075C1181.94 34.075 1180.45 32.5893 1180.45 30.7561C1180.45 28.923 1181.94 27.4373 1183.77 27.4373C1185.6 27.4373 1187.09 28.923 1187.09 30.7561Z" fill="#F3EDE7" fill-opacity="0.2"/>
<path d="M1188.6 32.8515C1196.82 32.4189 1206.16 30.3114 1206.99 20.5737C1208.14 30.7277 1196.85 34.367 1188.6 32.8515Z" fill="#F3EDE7" fill-opacity="0.2"/>
<path d="M1229.28 32.8516C1221.03 34.3684 1209.74 30.725 1210.89 20.5737C1211.72 30.3141 1221.07 32.4203 1229.28 32.8516Z" fill="#F3EDE7" fill-opacity="0.2"/>
<path d="M1212.38 15.3189C1212.38 17.152 1210.89 18.6378 1209.06 18.6378C1207.23 18.6378 1205.74 17.152 1205.74 15.3189C1205.74 13.4857 1207.23 12 1209.06 12C1210.89 12 1212.38 13.4857 1212.38 15.3189Z" fill="#F3EDE7" fill-opacity="0.2"/>
<path d="M1236.96 30.7561C1236.96 32.5893 1235.47 34.075 1233.64 34.075C1231.8 34.075 1230.32 32.5893 1230.32 30.7561C1230.32 28.923 1231.8 27.4373 1233.64 27.4373C1235.47 27.4373 1236.96 28.923 1236.96 30.7561Z" fill="#F3EDE7" fill-opacity="0.2"/>
<path d="M1239.89 32.8515C1248.1 32.4189 1257.45 30.3114 1258.28 20.5737C1259.43 30.7277 1248.14 34.367 1239.89 32.8515Z" fill="#F3EDE7" fill-opacity="0.2"/>
<path d="M1280.57 32.8516C1272.31 34.3684 1261.02 30.725 1262.17 20.5737C1263 30.3141 1272.35 32.4203 1280.57 32.8516Z" fill="#F3EDE7" fill-opacity="0.2"/>
<path d="M1263.66 15.3189C1263.66 17.152 1262.18 18.6378 1260.34 18.6378C1258.51 18.6378 1257.03 17.152 1257.03 15.3189C1257.03 13.4857 1258.51 12 1260.34 12C1262.18 12 1263.66 13.4857 1263.66 15.3189Z" fill="#F3EDE7" fill-opacity="0.2"/>
<path d="M1288.24 30.7561C1288.24 32.5893 1286.76 34.075 1284.92 34.075C1283.09 34.075 1281.6 32.5893 1281.6 30.7561C1281.6 28.923 1283.09 27.4373 1284.92 27.4373C1286.76 27.4373 1288.24 28.923 1288.24 30.7561Z" fill="#F3EDE7" fill-opacity="0.2"/>
<path d="M1289.75 32.8515C1297.97 32.4189 1307.31 30.3114 1308.14 20.5737C1309.29 30.7277 1298 34.367 1289.75 32.8515Z" fill="#F3EDE7" fill-opacity="0.2"/>
<path d="M1330.43 32.8516C1322.18 34.3684 1310.89 30.725 1312.04 20.5737C1312.87 30.3141 1322.22 32.4203 1330.43 32.8516Z" fill="#F3EDE7" fill-opacity="0.2"/>
<path d="M1313.53 15.3189C1313.53 17.152 1312.04 18.6378 1310.21 18.6378C1308.38 18.6378 1306.89 17.152 1306.89 15.3189C1306.89 13.4857 1308.38 12 1310.21 12C1312.04 12 1313.53 13.4857 1313.53 15.3189Z" fill="#F3EDE7" fill-opacity="0.2"/>
<path d="M1338.11 30.7561C1338.11 32.5893 1336.62 34.075 1334.79 34.075C1332.95 34.075 1331.47 32.5893 1331.47 30.7561C1331.47 28.923 1332.95 27.4373 1334.79 27.4373C1336.62 27.4373 1338.11 28.923 1338.11 30.7561Z" fill="#F3EDE7" fill-opacity="0.2"/>
<defs>
<clipPath id="clip0_114_118">
<rect width="80" height="46.0237" fill="white" transform="translate(829)"/>
</clipPath>
</defs>
</svg>
