<svg xmlns="http://www.w3.org/2000/svg" width="146" height="91" viewBox="0 0 146 91" fill="none">
  <g clip-path="url(#clip0_82_1128)">
    <path fill-rule="evenodd" clip-rule="evenodd" d="M186.73 -3.25587C186.688 -3.2607 186.702 -3.39275 186.707 -3.40402C186.717 -3.42979 186.427 -3.61821 186.739 -3.45878C186.746 -3.45556 186.969 -3.22688 186.73 -3.25748V-3.25587ZM173.64 9.58372C173.735 9.5016 173.676 9.5016 173.851 9.41947C174.102 9.30352 173.909 9.38726 174.14 9.33412C173.84 9.74315 174.23 9.50804 173.64 9.58372ZM173.017 10.2069C173.156 9.83494 172.75 10.0121 173.391 9.95733C173.368 9.97666 173.307 10.0089 173.326 10.0169L173.017 10.2069ZM172.27 10.7062C172.394 10.3986 172.019 10.4566 172.769 10.4566V10.5806C172.45 10.5806 172.468 10.6112 172.27 10.7046V10.7062ZM148.087 21.6761V21.5521L148.232 21.6568L148.087 21.6777V21.6761ZM147.963 42.7431C147.979 41.9879 148.824 40.2728 149.211 39.503C149.41 39.1037 149.485 38.7977 149.733 38.4048C150.394 37.3548 150.958 36.0729 152.027 34.4658C152.27 34.1002 152.401 33.9359 152.651 33.5929L155.319 30.0276C155.478 29.8118 155.467 29.8311 155.662 29.6233L160.836 23.8276C160.959 23.6826 161.07 23.5908 161.208 23.4524L165.199 19.5907C165.761 19.085 166.192 18.5342 166.754 18.0286L168.408 16.5647C168.891 16.2137 169.598 15.3425 170.154 15.1943C170.014 15.7209 168.004 18.0737 167.506 18.655L166.115 20.3797C165.956 20.5923 165.92 20.5939 165.759 20.7727C164.184 22.5103 161.157 26.6023 159.527 28.5025L156.908 31.369C156.762 31.5155 156.668 31.5896 156.533 31.741L150.209 40.2519C150.051 40.4677 150.059 40.45 149.865 40.6545L147.964 42.7431H147.963ZM131.508 60.6941C131.508 58.9211 132.962 54.9031 133.793 53.2557L136.202 48.5598C136.552 47.9141 137.007 47.5067 137.44 46.9318C137.706 46.5791 137.824 46.505 138.064 46.1845C138.239 45.951 138.21 45.98 138.394 45.7658C138.577 45.55 138.563 45.5307 138.714 45.3391L146.309 36.1051C146.491 35.891 146.415 35.9344 146.568 35.7412L158.153 22.5199C158.387 22.2864 158.638 22.0723 158.83 21.8259C159.794 20.5923 161.777 18.6437 163.012 17.531C164.514 16.1799 167.007 14.3295 168.653 13.3247C169.139 13.0283 169.142 12.8142 169.326 12.6273L170.853 11.5355C171.7 10.8946 171.516 10.9687 172.019 10.9574C171.83 11.2376 171.647 11.4324 171.345 11.6547C170.986 11.9204 170.922 12.0347 170.597 12.2779L169.049 13.5968C166.815 15.3489 162.192 19.9771 160.33 21.8323L157.963 24.3268C157.773 24.5539 157.839 24.5345 157.649 24.7616C157.203 25.2946 157.007 25.3268 156.333 26.1884C156.119 26.4605 155.891 26.6168 155.654 26.8809C155.446 27.1111 155.499 27.1031 155.335 27.3108L154.087 28.8053C153.947 28.9824 153.894 29.005 153.741 29.2079L148.03 37.7075C145.747 41.4661 141.417 46.7466 138.656 50.8981L132.923 59.2528C132.31 60.0773 132.276 60.2899 131.5 60.6973L131.508 60.6941ZM121.908 60.9437C121.926 60.116 123.071 58.628 123.488 57.9113C124.319 56.4829 126.997 52.3861 128.107 50.9368L130.062 48.278C130.274 47.9994 130.339 47.9608 130.563 47.6564L134.717 42.5853C135.026 42.2745 135.025 42.2069 135.281 41.9009L136.399 40.6496C136.603 40.4355 136.751 40.3034 136.964 40.0924L146.122 30.6765C146.409 30.4028 146.526 30.3947 146.813 30.1209C147.215 29.7377 147.52 29.3641 147.931 28.9937C148.203 28.7489 148.283 28.7618 148.559 28.4993L150.457 26.7826C150.75 26.5701 150.779 26.4944 151.048 26.2512L152.981 24.694C153.776 24.0112 156.461 21.8565 157.189 21.7969L136.651 45.265C136.268 45.6885 135.922 46.0863 135.572 46.5549L131.786 50.8724C131.513 51.159 131.505 51.2766 131.231 51.5632L128.424 54.4909C127.192 55.9596 125.733 57.3058 124.372 58.6666C123.965 59.074 123.609 59.4734 123.189 59.8519C122.916 60.0966 122.836 60.0821 122.561 60.3462C122.288 60.6071 122.218 60.7343 121.908 60.9405V60.9437ZM85.2592 61.1933V61.0693L85.4041 61.1724L85.2592 61.1933ZM85.2592 61.1933V61.3173L85.1143 61.2126L85.2592 61.1917V61.1933ZM115.427 22.0497C116.267 22.0497 117.201 22.0561 118.002 21.8822C118.668 21.7373 118.775 21.4136 118.918 20.8033L118.729 20.6181C118.167 20.135 117.575 20.0013 116.845 19.7597C114.248 18.8966 112.67 18.0382 110.359 16.8965C108.507 15.9818 106.479 14.2442 105.536 12.3697C105.088 11.4792 104.956 11.1184 104.956 9.83334C105.555 9.97344 105.912 10.2697 106.328 10.5806C106.576 10.7657 106.701 10.8962 106.951 11.0798C107.223 11.2811 107.297 11.4002 107.552 11.6015C108.777 12.5694 109.742 13.7949 111.016 14.745C111.291 14.9511 111.339 15.0606 111.615 15.2684C116.774 19.1687 122.124 20.9611 128.633 21.6858C130.965 21.945 134.553 22.1866 136.899 21.8275L140.893 21.3331C144.45 20.7372 147.837 19.6116 151.159 18.2605C152.702 17.6324 154.216 16.911 155.552 15.9222C156.147 15.4826 156.176 15.2829 156.57 14.6951C155.97 14.2925 155.834 14.1894 154.826 14.1943C152.8 14.2055 149.99 14.4084 148.103 14.1862L143.982 13.819C140.846 13.5791 135.666 12.4937 132.712 11.5001C131.558 11.112 130.453 10.8125 129.355 10.3696L124.573 8.2938C122.599 7.30664 120.723 6.21157 118.897 4.99574C116.634 3.48681 114.665 1.69928 112.657 -0.107573C112.248 -0.474738 111.963 -0.882163 111.518 -1.21229C111.019 -1.58268 110.777 -1.8645 110.352 -2.29125C109.183 -3.462 106.457 -5.41057 106.457 -7.49601C108.795 -7.30116 112.996 -3.43945 114.861 -2.06258C115.757 -1.40232 116.779 -0.754943 117.303 0.233835L116.808 0.373933C117.076 0.76526 117.183 0.797464 117.572 1.08572C120.697 3.41272 118.319 0.591333 122.433 3.7042C130.859 10.0781 141.217 13.5727 151.832 13.5727C154.193 13.5727 156.705 13.1797 158.456 12.5919C163.234 10.9848 167.886 7.96528 171.803 4.87174C172.112 4.62696 172.426 4.0601 172.65 3.72515C170.985 2.92639 168.217 2.77502 166.297 2.59948C164.261 2.41268 161.798 1.79429 160.076 1.21616L158.049 0.501161C157.712 0.3836 157.67 0.328843 157.358 0.195184L156.073 -0.389388C155.823 -0.502112 155.647 -0.543982 155.364 -0.677642C153.949 -1.35078 151.061 -2.39915 150.034 -3.45073C149.847 -3.64236 149.939 -3.47972 149.839 -3.7551C150.419 -3.74221 154.744 -1.82907 155.78 -1.34434C157.124 -0.716292 158.47 -0.275046 159.857 0.187135C160.622 0.441575 161.244 0.689577 162.028 0.882822L164.324 1.45451C165.152 1.65741 165.836 1.75082 166.738 1.90702C167.632 2.06323 171.041 2.42074 171.824 2.28224C172.585 2.14536 172.977 2.25004 174.386 1.96983C178.193 1.21295 180.135 0.359445 183.172 -1.95951C184.328 -2.842 184.134 -2.42653 185.865 -1.51021C185.295 -0.432868 184.183 -0.0270526 183.34 0.826448C182.8 1.37237 182.08 1.85227 181.626 2.47871L177.587 6.66732C177.199 6.95719 177.064 7.10212 176.665 7.36462C175.425 8.1843 174.958 8.66259 173.608 9.29386C173.35 9.41464 172.853 9.76731 172.631 9.93801L168.621 12.5356C167.526 13.0718 166.58 13.811 165.569 14.4696C163.187 16.0236 163.542 15.1234 161.057 16.5631C160.082 17.1284 156.694 19.275 155.739 19.5987C155.272 19.7581 154.786 19.8064 154.201 19.8064C154.243 19.3121 154.409 19.0544 154.451 18.56C153.955 18.5181 154.151 18.436 153.828 18.436C152.823 18.436 151.356 18.9465 150.509 19.2299C149.383 19.6051 148.57 20.0061 147.37 20.3298C145.183 20.9192 142.697 21.3299 140.416 21.7292C134.315 22.7969 128.303 24.4878 122.664 27.0387L115.261 30.2321C111.682 31.6605 102.75 34.5286 99.3533 32.8989C99.8702 31.9214 101.213 31.4093 102.22 30.9036L107.376 28.7054C114.48 26.351 117.659 25.8663 125.208 24.3477C125.952 24.198 126.593 24.1078 127.261 23.9081C128.118 23.6504 128.289 23.6472 128.772 22.9258C127.622 22.156 125.933 22.4265 124.16 22.4265C120.696 22.4265 115.993 22.5634 112.686 22.4314C112.135 22.4088 112.106 22.2993 111.447 22.2993C110.61 22.2977 109.682 22.3976 108.875 22.2526C107.17 21.945 103.508 22.214 101.645 21.879L99.2277 21.6793C98.8363 21.6503 98.3726 21.7003 97.9764 21.6841C96.9119 21.6423 95.585 21.4217 94.3643 21.4313C93.7507 21.4361 93.6493 21.3637 93.2338 21.3154C92.8103 21.2654 92.2982 21.3395 91.8714 21.3073C91.1709 21.2542 90.2675 21.0577 89.5042 21.0577C89.8278 20.5746 89.8794 20.6406 90.5735 20.507C91.3835 20.3524 93.9923 20.1704 93.9923 18.9384C93.9923 18.4521 92.0824 17.4408 91.6508 17.167C88.4043 15.109 85.1754 13.0106 82.681 10.0556C82.4942 9.83494 82.5537 9.85105 82.3653 9.62398C81.6052 8.71089 80.6776 7.58523 80.3314 6.42092C80.2138 6.02477 80.3298 6.08758 80.1559 5.72364C80.7243 5.72364 80.9707 5.81542 81.3025 6.07308L95.3853 17.7935C98.3242 20.1317 99.5288 20.5134 103.714 20.8081C107.038 21.0416 112.483 22.0545 115.433 22.0545L115.427 22.0497ZM78.2782 60.3205L79.2009 59.6216C80.3652 58.7665 86.3253 55.338 87.8374 54.5456L88.9598 53.9224C89.2529 53.7694 89.2739 53.7227 89.5009 53.5907C89.7022 53.4731 89.8391 53.4264 90.0823 53.2992C90.5155 53.0721 90.7281 52.9079 91.2031 52.6744L94.5108 50.8707C94.9102 50.6195 95.2049 50.4875 95.651 50.2652C96.0987 50.0414 96.2388 49.9045 96.6865 49.6807L100.096 47.8545C102.898 46.468 106.283 44.4985 109.07 43.1167C110.637 42.3405 112.114 41.5321 113.682 40.7479L134.126 30.4012C134.521 30.2047 134.861 30.0356 135.291 29.8198L138.738 28.1579C139.511 27.7714 140.334 27.4219 141.107 27.0355L150.707 22.7969C150.343 23.2945 136.814 31.675 135.548 32.4463L123.482 40.0747C122.702 40.5498 122.071 40.9266 121.312 41.3969C119.85 42.3019 118.465 43.1586 116.966 44.0314L111.563 47.1057C111.167 47.3054 110.863 47.5163 110.441 47.7289L101.382 52.3829C100.877 52.5971 100.651 52.6873 100.178 52.924C97.8685 54.0835 91.646 56.6424 89.2336 57.4379L84.0385 59.0982C82.7196 59.4557 79.5761 60.3205 78.2798 60.3205H78.2782ZM78.2782 60.3205V60.4445L78.1332 60.3414L78.2782 60.3205ZM99.2212 43.616C101.576 43.616 102.626 43.1184 104.355 42.6417C104.746 42.5338 105.777 42.3792 106.202 42.3695C106.11 42.7158 106.146 42.6675 105.856 42.8961C104.693 43.8108 103.671 43.5516 101.812 43.8382L99.97 43.9896C100.487 44.6949 101.761 44.4888 102.589 44.4888C102.481 44.8946 102.357 44.8978 102.117 45.0138C101.869 45.133 102.415 45.112 101.716 45.112C100.919 45.112 100.617 44.9123 99.9684 44.8656L96.1067 44.7384C95.7557 44.7384 95.8764 44.7916 95.7331 44.988C96.4256 45.046 97.015 45.4309 97.8524 45.4856C98.4176 45.5227 98.6801 45.5806 99.0988 45.6096C99.6689 45.6499 99.9105 45.6982 100.345 45.7352C99.065 47.6468 96.0729 46.2345 92.865 46.2345C93.1034 46.5903 93.0905 46.6209 93.5623 46.7836L94.2789 47.0638C94.5962 47.2635 94.2967 47.067 94.4851 47.2313C91.7861 47.2909 92.6396 47.9302 91.2949 47.6806L87.8648 47.2458C82.805 46.5726 79.0173 45.3262 74.3408 43.442L70.4259 41.4983C70.9123 40.8348 71.8141 41.3502 73.6709 41.3695C74.2152 41.3759 74.1765 41.4452 74.5501 41.4887L78.2798 41.7479C78.7581 41.7817 78.6019 41.8574 79.1478 41.8768L92.741 43.1184C93.1646 43.1474 93.2547 43.1216 93.6622 43.194L99.2212 43.6176V43.616ZM67.9314 60.4445V60.3205L68.0764 60.4235L67.9314 60.4445ZM67.9314 81.7611C68.2423 80.4277 72.0798 74.983 73.1362 73.7527C73.5034 73.3259 73.7691 72.9314 74.133 72.5063L79.3684 66.6461C79.7726 66.2419 80.0882 65.9294 80.4892 65.5236C80.9112 65.0969 81.2364 64.9069 81.6729 64.464L83.4894 62.9148C83.6826 62.7602 83.9516 62.5605 84.1351 62.4381C84.2479 62.6652 84.2318 62.5943 84.2591 62.9374C84.6682 62.8278 85.4798 62.1531 85.7874 61.8471C86.0982 61.5379 86.1658 61.5395 86.4718 61.2835C86.9952 60.8455 87.0918 60.5669 87.8245 60.0193C88.5347 59.4895 89.0871 58.6988 90.6169 58.6988C90.5187 58.884 90.2755 59.4815 90.137 59.591C89.8681 59.8019 90.0227 59.6184 89.6813 59.7585L84.4782 63.9036C84.1609 64.2273 84.0353 64.2482 83.7277 64.5236C83.4314 64.7909 83.2993 65.0051 82.9628 65.2547C82.3685 65.6959 81.9949 66.1356 81.4877 66.6461L79.99 68.0165C79.4876 68.5189 79.0383 68.9376 78.5535 69.4465L77.1847 70.9458C76.9512 71.1793 76.7 71.3935 76.5084 71.6399L75.183 73.181C74.9511 73.4773 74.687 73.6496 74.4438 73.9379C74.2667 74.1488 74.3343 74.1118 74.1846 74.3018L69.2648 80.228C68.9379 80.6226 68.2793 81.5228 67.9282 81.7579L67.9314 81.7611ZM67.9314 60.4445V60.5685L67.7865 60.4638L67.9314 60.4429V60.4445ZM67.9314 81.7611V81.8851L67.7865 81.7805L67.9314 81.7595V81.7611ZM65.5626 60.0709L65.5996 60.0338C65.5964 60.0371 65.5755 60.0838 65.5626 60.0709ZM62.8201 62.1901C62.8861 61.3914 63.3821 61.5186 64.7413 61.2448L67.1826 60.8197C66.8058 61.3334 63.4014 62.1161 62.8201 62.1901ZM53.0966 75.9026C53.3269 75.4678 53.2399 75.3293 53.8438 75.2793C53.7649 75.4291 53.7375 75.5595 53.6184 75.6771C53.4106 75.88 53.2818 75.8188 53.095 75.9026H53.0966ZM52.0998 76.7754C52.2238 76.3084 52.3671 76.2633 52.847 76.1522C52.8228 76.1892 52.6103 76.5145 52.599 76.5274C52.3445 76.7979 52.3784 76.6514 52.0998 76.7754ZM49.7309 77.3986V77.2746C50.4169 77.2746 50.2752 76.7995 50.3541 77.5242C50.0546 77.3809 50.1915 77.4002 49.7309 77.4002V77.3986ZM40.0074 66.0551C40.1394 65.9713 40.0106 65.981 40.2667 65.9391C40.3746 65.9214 40.5211 65.9294 40.6306 65.9294V66.0534H40.0074V66.0551ZM38.761 87.8709C38.761 87.114 39.0073 86.8822 39.2602 86.3749C40.1394 84.6147 40.5807 84.0785 41.7031 82.584L43.0913 80.9801C43.3071 80.7611 43.4391 80.6419 43.6565 80.4229L53.5733 71.6415C53.9855 71.313 54.3479 71.0682 54.7907 70.7397C55.2143 70.4256 55.5186 70.2002 55.9309 69.8846C56.166 69.7042 56.2594 69.6446 56.5154 69.4723C58.5365 68.1051 61.3611 66.0905 63.4852 64.9745C65.5658 63.881 68.2986 62.2481 70.4082 61.4252C71.7948 60.8857 75.2587 59.227 76.5341 59.198C76.3924 59.7311 76.394 59.4058 75.2362 60.2673C73.2055 61.7811 73.1523 61.3237 70.5081 62.6459C65.7735 65.0131 64.2179 66.725 60.6799 69.5222L56.1837 73.3791C55.8922 73.6528 55.7779 73.6657 55.4945 73.9363C55.2593 74.1601 55.1176 74.3453 54.8761 74.5659C54.5814 74.8349 54.4252 74.8558 54.0934 75.0313C54.2673 74.3824 54.5331 74.4065 55.1273 73.6979C55.5122 73.239 55.6072 73.3259 55.3399 72.7881C54.9888 72.8815 54.6361 73.2647 54.1256 73.6931C53.7456 74.012 53.3671 74.4484 53.0016 74.8139C52.4154 75.4001 51.417 76.5596 50.6021 76.777C50.8324 76.434 51.0562 76.1924 51.1013 75.6546C50.3831 75.822 49.2961 76.9928 49.2317 77.7738C48.6552 77.8221 48.5312 78.0685 48.4845 78.6466C49.1286 78.7964 49.317 78.7336 49.4813 78.0234C49.7357 78.0234 49.9515 78.0556 50.1786 77.9719L51.0578 77.3551C51.2833 77.2569 51.4975 77.2037 51.7262 77.1506C51.454 77.5564 48.5247 80.0573 47.8113 80.5904L39.7095 87.3218C38.8817 87.9498 39.3439 87.61 38.7626 87.8693L38.761 87.8709ZM62.1969 56.9564C61.7121 56.9161 60.4512 56.2478 60.4512 56.8324C60.4512 57.2511 63.5238 58.7342 64.1921 59.074C64.6382 59.3011 65.1825 59.57 65.437 59.9485C64.2533 59.9485 62.4062 59.0257 61.3047 58.5958C60.5011 58.2801 58.0211 57.1384 57.3335 57.082C57.5719 58.103 58.0501 58.045 58.9552 58.4524L61.87 59.7762C62.3563 60.0129 62.2194 59.8953 62.4449 60.3221C61.4239 60.2995 57.385 59.2367 56.3818 58.905L53.2609 57.5377C52.8502 57.33 52.6763 57.2382 52.2962 57.0063C51.4733 56.5023 50.652 56.1625 49.4539 55.3605C48.8371 54.9466 48.2654 54.6052 47.6583 54.164L44.2427 51.4714C43.9158 51.2331 43.7628 51.0527 43.4649 50.7532C43.1348 50.4214 42.9641 50.3715 42.65 50.072L37.988 45.0106L35.2165 41.0506C35.012 40.7124 34.7414 40.3678 34.6448 40.0023C35.0941 40.1069 36.8156 41.1424 37.3132 41.4468L57.1242 53.5488C57.4575 53.7405 57.6733 53.8983 57.9551 54.0883L59.7008 55.2107C60.3256 55.631 61.8474 56.4362 62.1937 56.9564H62.1969ZM7.2232 68.6735C8.11857 67.4513 14.792 65.8167 16.3235 65.4318C18.6054 64.8585 21.2835 64.7394 23.6797 64.5606C24.5461 64.4962 24.034 64.435 25.5494 64.435C26.3578 64.435 26.9359 64.4366 27.5704 64.3368L35.7705 64.3094C34.7559 65.1903 34.1069 65.0019 32.6029 65.2547L16.4362 67.5366C15.7389 67.6171 15.1543 67.717 14.5665 67.7862C12.0801 68.0745 9.68225 68.3563 7.22481 68.6719L7.2232 68.6735ZM40.009 66.0551L36.4323 67.2145C33.6383 68.3531 31.0118 69.7219 28.3772 71.1262C28.1373 71.2534 27.7733 71.4418 27.4947 71.503C26.799 71.6528 27.0889 71.4353 26.5478 71.2904L23.1837 73.0377C22.5653 73.3984 21.765 73.9942 21.0628 74.1569L21.2029 74.6513C20.8599 74.7431 20.8921 74.7656 20.6135 74.954C19.1706 75.9299 17.5973 76.5854 16.032 77.3535C15.0191 77.8511 11.5165 79.5436 10.3425 79.6419C10.7242 79.0718 11.3248 78.7723 11.9126 78.3455C12.1188 78.1957 12.1429 78.1539 12.3346 78.0202C14.5134 76.4968 16.6713 74.9122 18.9838 73.5755L20.8631 72.4628C21.2207 72.2438 21.4864 72.16 21.8535 71.9571C22.2304 71.7494 22.422 71.606 22.8085 71.416L33.4209 67.1936C35.6755 66.361 35.8075 65.5655 37.1039 65.018C37.7641 64.7378 41.0783 63.8311 41.2587 63.1886C41.5356 62.2079 39.2763 62.4397 38.7658 62.4414C35.5643 62.4446 31.1793 60.8889 28.1228 59.8712C25.2531 58.9146 22.4816 57.8582 19.7761 56.5006C19.3285 56.2752 19.1352 56.2027 18.6569 55.9998C17.8356 55.652 17.1979 55.2059 16.4539 54.8371C13.8387 53.5424 10.5776 51.5986 8.19265 49.7596C7.07826 48.9013 5.22793 47.84 4.48715 46.7337C4.94772 46.5211 7.14268 47.5437 7.60325 47.7321C8.67093 48.1685 9.77888 48.5437 10.845 48.9785C11.3474 49.1831 11.9819 49.423 12.4811 49.5857L29.1534 55.2268C29.6752 55.4217 30.1873 55.6938 30.7896 55.8339L30.5834 56.0014C30.4353 56.185 30.4852 56.0691 30.4159 56.3316C30.7412 56.4185 30.9103 56.5312 31.0843 56.863C31.0907 56.8759 31.102 56.9113 31.1068 56.9226L31.1455 57.0289C31.1487 57.0353 31.1567 57.0627 31.1648 57.0788C31.7204 56.8131 32.0891 56.9177 32.569 57.2946C33.0956 57.7084 34.2825 58.0482 34.9524 58.2769C36.0265 58.6441 37.6933 59.6071 38.769 59.6957C38.9671 59.3993 38.9204 59.5652 39.0186 59.1964C38.339 59.0386 37.7979 58.6779 37.1667 58.4299C36.529 58.1803 35.9074 57.9307 35.2052 57.6489C34.4902 57.3622 33.9362 57.1835 33.2084 56.9032C32.9185 56.7921 32.6415 56.5441 32.3532 56.5361C31.9088 56.5216 31.482 56.6295 31.1648 56.7036C31.1551 56.272 30.9876 56.1013 31.2083 55.9998C31.7413 55.755 39.6209 58.3928 40.3488 58.7391C41.555 59.3108 42.6114 60.0419 43.7531 60.6957C45.618 61.7634 46.9095 62.5621 49.0884 63.0887C51.9226 63.7748 53.5089 63.3931 56.1016 63.4317C56.6781 63.4398 56.6894 63.5606 57.0936 63.5606V63.6846C56.3834 63.6846 50.3477 64.778 49.1109 64.9278L40.8867 65.8038C41.3344 65.8038 41.7579 65.617 42.1009 65.398C42.3376 65.2466 42.2813 65.3368 42.3827 65.0566C41.2651 65.0566 40.3391 65.2305 39.3729 65.5381C39.0025 65.6557 38.827 65.7684 38.3938 65.8054L40.0138 66.0551H40.009ZM148.088 21.6761C147.921 22.1399 147.906 21.9644 147.135 22.3428L121.702 34.6816C120.939 35.0632 120.269 35.3982 119.541 35.7621C117.71 36.6752 109.835 41.0538 108.573 41.2487L105.577 41.4951C104.874 41.4935 104.788 41.6255 104.086 41.6255C103.816 41.6255 103.471 41.6014 103.21 41.6223C102.721 41.6594 102.952 41.7109 102.463 41.7479C101.613 41.8123 100.091 41.7866 99.2164 41.7528C95.8153 41.6159 91.4092 41.012 87.992 40.6368C87.7038 40.6046 87.4574 40.6448 87.1562 40.5997L79.7742 39.8783C79.5005 39.8589 79.1752 39.8992 78.9014 39.8799C78.4086 39.8445 78.647 39.7897 78.1542 39.7543C77.2572 39.6882 75.9302 39.7317 75.0864 39.5803C74.5131 39.4773 74.1459 39.5191 73.5356 39.5111C72.2135 39.4918 70.2794 39.255 68.8027 39.2567C68.2294 39.2567 67.7769 39.2277 67.2648 39.1906C66.751 39.1536 66.371 39.4048 65.9346 39.5063C65.9346 40.5546 66.0425 40.6867 66.6802 41.1295C69.0813 42.8011 71.8946 43.9284 74.6226 45.0299C76.985 45.9832 79.4618 46.6081 81.9176 47.2087L89.7135 48.8884C91.1419 49.1348 92.6154 49.1058 94.3579 49.1058C93.8667 49.7773 89.1273 52.2573 88.4494 52.6712L84.2575 55.0851C82.5151 56.119 80.449 56.3557 78.5278 56.8356L73.7804 57.9468C72.323 58.235 70.3535 59.0547 68.7157 58.2914C67.5417 57.7439 66.2631 56.7358 65.1133 56.0352L37.7126 39.181C37.0282 38.7639 36.5129 38.4225 35.8929 38.0086C35.5885 37.8057 35.3228 37.627 34.9943 37.4112C33.6496 36.5206 33.5965 36.2646 31.6543 36.2646C31.6543 37.0279 31.4337 36.9329 31.6656 37.6221L34.5965 43.0459C34.859 43.4066 35.0281 43.6675 35.2696 43.9928L39.9752 49.3844L45.4183 54.0384L48.4571 56.1109C50.5828 57.4588 52.8196 58.5845 55.232 59.4332L57.7216 60.3092C58.4254 60.5379 59.8312 60.6909 60.2 61.1965L56.6588 61.6458C54.7811 61.9808 50.8082 61.7006 49.0867 61.0902L45.7114 59.3543C45.4859 59.2109 45.3136 59.0757 45.1107 58.9581C43.824 58.2028 42.5035 57.2769 41.1089 56.7277C38.6933 55.776 35.859 55.1318 33.2905 54.325C32.7848 54.1656 32.1407 54.0207 31.635 53.8612C31.1197 53.7002 30.6446 53.573 30.11 53.3926C29.527 53.1961 29.0729 53.0915 28.4899 52.8934L22.2545 50.9013C20.0757 50.2926 18.1738 49.5357 16.0884 48.8401C15.602 48.6774 15.1286 48.5276 14.6149 48.3183L10.0381 46.6612C8.2619 45.9687 2.33568 43.5435 0.741401 43.6208C0.15039 43.6498 -0.128206 44.1377 0.056988 44.7916C0.367792 45.8834 2.18269 47.2248 3.14087 47.9479L11.6679 53.7566C11.9577 53.9256 12.0093 53.9788 12.2895 54.1318L14.3282 55.2091C16.6327 56.3799 18.9404 57.5345 21.3575 58.5265C23.385 59.3591 25.2901 60.1272 27.3691 60.7424L32.1262 62.0935C32.7349 62.2401 33.2985 62.2111 33.6496 62.6894C32.9024 62.6894 32.1536 62.6894 31.4063 62.6894C30.5126 62.6877 30.0295 62.8166 29.2903 62.8166C28.5415 62.8182 27.791 62.815 27.0422 62.8117C26.2322 62.8085 25.8344 62.9406 24.9245 62.9374C18.1094 62.9213 9.4262 65.0244 3.60788 68.9215C3.60788 69.5802 3.56763 69.9007 3.97505 70.1744C4.85754 70.7654 10.1799 69.8717 11.6791 69.6398C15.7453 69.0101 19.9227 68.6735 24.0002 67.9988L27.0422 67.5495C26.944 67.8233 27.0502 67.6703 26.8473 67.8539C26.5253 68.1469 26.0325 68.2564 25.6701 68.4207C23.8762 69.2323 21.9952 70.0214 20.3349 71.0633L8.62584 78.9269C8.38106 79.1314 8.24096 79.228 8.00262 79.4261C7.83514 79.5646 7.86091 79.571 7.66766 79.7143C7.18133 80.0799 6.56455 80.6306 6.24247 81.1572C5.71427 82.0236 6.0605 82.1444 6.47115 82.7563C8.86096 82.7563 16.3798 78.9752 19.0611 77.769L30.862 71.8685C31.875 71.3629 32.7945 70.9023 33.772 70.4144C34.3163 70.1422 34.6851 69.9715 35.3083 69.7058C35.8687 69.4675 36.2359 69.2517 36.8494 69.0037C41.2619 67.2258 47.3395 67.2387 52.0031 66.456C53.5427 66.1984 58.1339 65.0534 59.4512 65.0534C59.2853 65.6766 56.7022 67.1195 56.1064 67.5672L53.8712 69.1969C52.979 69.9651 51.9371 70.5899 51.0675 71.379C49.8162 72.5127 47.9643 73.8654 46.8274 74.9927L45.3345 76.3663C44.9352 76.7689 44.6534 76.9171 44.2733 77.2988C43.5808 77.9961 42.9753 78.5999 42.2796 79.294L41.4084 80.2941C39.6434 82.2555 38.558 83.5374 37.3036 86.0383C36.8543 86.9337 36.3856 87.8886 36.1843 88.908C35.8558 90.5699 36.6191 91.5941 38.2634 90.6118C38.5081 90.4653 38.6515 90.3896 38.8833 90.2334C39.0895 90.0949 39.2553 89.9854 39.4824 89.8356L46.0206 84.5326C47.2284 83.4359 48.4957 82.4375 49.6343 81.2893L50.6971 80.3569C51.9307 79.1829 55.1659 76.1039 56.3576 75.173L61.4223 70.5142C63.0584 69.234 64.5947 67.754 66.2567 66.4979C66.5063 66.3095 66.5707 66.2225 66.8042 66.0486L69.756 64.0147C70.9864 63.3045 72.2489 62.5364 73.5871 61.9856C75.4874 61.2046 74.1169 62.5251 78.6341 61.7972C79.7034 61.6249 80.9691 61.4316 82.0143 61.1885C81.85 61.8053 81.0577 62.3335 80.6116 62.7779L72.4502 71.445L70.4453 74.0522C69.2326 75.88 67.9298 77.6257 66.809 79.5163L64.6431 83.4585C64.1712 84.4006 62.6285 87.1189 63.8491 87.9531C65.1922 88.8694 67.764 84.7275 68.5788 83.7806L77.0478 73.1778C79.1752 70.4659 83.1818 66.4415 85.6586 64.2128C85.9339 63.9648 86.1385 63.7297 86.4042 63.4623L87.5878 62.4027C87.8197 62.1934 87.81 62.2481 88.0178 62.0838L90.3641 59.8164C90.6749 59.6264 90.9213 59.4412 91.1113 59.0676C91.7587 57.7954 90.9213 58.628 93.8973 57.2414L105.405 51.9207C105.788 51.7291 106.02 51.6147 106.404 51.4231L109.437 49.8449C112.12 48.518 114.692 46.9865 117.24 45.4309L121.978 42.5644C122.636 42.1231 123.277 41.7882 123.899 41.3679L128.562 38.4273C128.913 38.1938 129.102 38.0473 129.467 37.8363C129.839 37.6221 130.063 37.4659 130.381 37.2533C133.147 35.3966 136.057 33.7234 138.833 31.8682C139.465 31.4463 140.012 31.1274 140.653 30.6959L149.03 25.3607C149.417 25.1014 149.612 24.8953 150.077 24.7874L134.4 40.524C133.096 41.8123 129.707 46.104 128.545 47.6339C128.176 48.1186 127.894 48.5148 127.533 48.9914C125.87 51.1896 124.424 53.6229 122.876 55.9274C122.536 56.433 122.303 56.8533 121.953 57.3735L118.364 63.1322C117.77 64.1081 116.694 65.1871 117.726 66.2386C117.998 66.5172 118.535 66.1903 118.689 66.076L120.565 64.5864C122.066 63.0871 123.749 61.7875 125.239 60.2851C126.165 59.3494 127.836 57.9097 128.585 56.9C129.079 56.2333 129.704 55.7985 130.223 55.1721C131.284 53.887 130.835 55.1222 130.58 56.1528C130.269 57.4105 130.033 58.4959 129.707 59.7681C129.587 60.2416 129.324 61.1386 129.403 61.6603C129.844 64.5848 131.88 62.8842 133.031 61.7199C134.134 60.6039 135.004 59.1127 135.838 57.7954L137.134 55.7261C137.315 55.4491 137.392 55.346 137.569 55.0384C138.93 52.6695 140.529 50.452 142.048 48.1734L144.766 44.1603C145.079 43.7319 145.393 42.9831 145.839 42.8639C145.7 43.1538 145.613 43.6385 145.515 44.0363C145.31 44.8624 144.855 45.6193 145.133 46.5614C145.246 46.943 145.558 47.1089 145.839 47.3521C147.711 46.4535 147.61 45.9478 148.926 44.5806C149.198 44.2972 149.208 44.1844 149.483 43.8913L153.712 38.6463C154.071 38.1648 154.396 37.8138 154.763 37.329L162.013 28.0001C162.227 27.7521 162.371 27.5604 162.562 27.3028L163.59 25.9613C163.807 25.6763 163.923 25.562 164.142 25.2673L174.602 11.9156C174.834 11.6418 174.816 11.579 175.099 11.2923C175.339 11.0508 175.495 10.9365 175.706 10.6514C176.18 10.0121 176.394 10.0105 176.909 9.48549C177.381 9.00399 177.723 8.91058 178.128 8.33728C179.027 7.0683 178.405 7.11822 180.088 5.43537C180.774 4.74935 181.776 3.61564 182.488 3.0971C183.396 2.43684 184.121 1.58334 185.031 0.903757L188.942 -2.29125C190.269 -3.64397 187.736 -5.77773 185.673 -5.31072C184.989 -5.15451 184.483 -4.9194 183.985 -4.62953C183.787 -4.51358 183.512 -4.35899 183.285 -4.20761C182.528 -3.70356 182.019 -3.11093 181.265 -2.61172C179.206 -1.24772 176.876 -0.431258 174.458 0.180688C172.948 0.563959 169.118 0.420633 167.701 0.180688C166.959 0.0550778 166.347 -0.0141742 165.666 -0.152663C165.092 -0.268615 164.339 -0.416762 163.741 -0.597121C161.279 -1.3379 159.004 -2.07868 156.643 -3.09644C155.498 -3.58922 154.496 -4.05785 153.356 -4.5474C150.865 -5.61508 148.869 -6.75201 145.961 -6.75201L145.613 -6.35103C145.586 -5.5716 145.74 -5.2608 146.042 -4.71487C146.172 -4.47815 146.33 -4.2382 146.492 -4.04335C146.6 -3.91452 146.633 -3.90646 146.729 -3.78247C147.455 -2.86294 148.378 -2.06901 149.409 -1.47639C151.615 -0.205802 156.258 1.86032 158.441 2.58016C160.063 3.11481 161.876 3.5174 163.63 3.87329C164.218 3.99246 164.896 4.02146 165.606 4.14224C166.651 4.31938 168.825 4.38057 169.521 4.71553C169.255 5.71075 164.561 8.20523 163.289 8.82846C160.598 10.149 158.892 11.1893 155.684 11.6965C149.58 12.6596 142.254 11.4035 137.5 9.81079C130.44 7.44674 124.986 3.72193 119.43 -0.666366C119.248 -0.809691 119.272 -0.759772 119.069 -0.928863C118.903 -1.06574 118.924 -1.07542 118.736 -1.21874C116.402 -2.99338 109.834 -8.80364 106.941 -9.00172C106.204 -9.05325 105.286 -8.73278 104.975 -8.3479C104.508 -7.77139 104.775 -6.95815 104.994 -6.2995C105.257 -5.5088 105.481 -5.20766 105.896 -4.58443C106.933 -3.02558 108.344 -1.92409 109.655 -0.614844C109.892 -0.37651 110.037 -0.226744 110.277 0.00998807C110.587 0.317567 110.729 0.341729 111.029 0.628374C111.465 1.04386 111.876 1.56722 112.354 1.92151L114.393 3.74769C115.249 4.62374 116.282 5.37902 117.29 6.08597L121.279 8.58046C127.31 12.075 136.59 14.7933 143.343 15.3119C145.554 15.4826 145.885 15.5582 148.331 15.5582C149.204 15.5582 150.077 15.5631 150.95 15.5582C151.865 15.5534 152.422 15.6839 153.443 15.6839C153.314 16.0381 153 16.1058 152.655 16.2668C148.827 18.0592 141.267 20.4329 137.236 20.4184C136.548 20.4168 136.505 20.5408 135.872 20.5504C132.136 20.6068 128.48 20.4071 125.404 19.7887C122.465 19.1977 119.668 18.2315 117.043 16.9303C115.594 16.2121 114.027 15.2813 112.835 14.1572C112.526 13.8657 112.372 13.811 112.085 13.5356L107.993 9.89936C107.788 9.74638 107.768 9.69323 107.592 9.55313C107.04 9.11188 104.352 7.611 103.619 8.74311C102.874 9.89453 103.647 12.104 104.201 13.1942C104.468 13.7208 104.922 14.3617 105.291 14.8465C105.775 15.4842 106.117 15.7837 106.664 16.3393C107.843 17.5326 109.487 18.2573 110.975 19.0093L113.452 20.1462C113.811 20.3137 113.7 20.1704 113.8 20.5456L100.584 18.9272C98.6318 18.428 97.482 17.2733 95.994 16.1621L89.2191 10.4711C88.9534 10.2633 88.8648 10.0958 88.5685 9.8752L82.4088 4.94098C79.3362 2.7412 76.3441 4.04079 81.0657 10.397C83.3718 13.5018 85.4895 14.5276 88.4027 16.7725C89.2546 17.4295 90.6685 18.0785 91.2353 18.9256C90.3045 18.9465 88.9759 19.4618 88.0451 19.7243C87.2625 19.9449 86.5459 20.1414 85.8953 20.5665C84.9226 21.2026 85.5813 22.0127 86.5684 22.2236L91.7313 22.7953C92.121 22.8114 92.5929 22.7551 92.9729 22.8001C94.3659 22.9628 95.8153 22.9741 97.35 23.0353L99.466 23.1625C100.286 23.1593 100.769 23.2849 101.711 23.2849C102.286 23.2849 102.326 23.3573 102.714 23.404L108.191 23.6617C109.011 23.6569 109.492 23.7889 110.433 23.7873C112.676 23.7857 115.006 24.0852 117.29 23.9129C118.206 23.8437 118.393 23.6762 119.409 23.9129V24.1625C118.394 24.1625 115.359 24.9275 114.423 25.161C114.013 25.264 113.631 25.314 113.199 25.4315C110.508 26.1642 107.867 26.9388 105.271 27.9743C103.434 28.707 98.6302 30.6572 97.7107 32.3819C97.5255 32.7282 97.5722 33.2258 97.796 33.5575C99.4724 36.0681 109.214 33.5897 111.417 32.8731C112.908 32.3884 114.296 31.8183 115.755 31.2289C120.765 29.2063 125.672 27.0403 130.799 25.3301C131.592 25.066 132.268 24.8421 133.096 24.6344C137.125 23.6231 141.571 23.1367 145.661 22.2413C146.425 22.0739 147.367 21.7276 148.08 21.668L148.088 21.6761Z" fill="#462C1F" fill-opacity="0.1"/>
    <path fill-rule="evenodd" clip-rule="evenodd" d="M104.579 48.3523V48.4763L104.434 48.3733L104.579 48.3523ZM103.832 48.9756V48.8516L103.977 48.9546L103.832 48.9756ZM103.832 48.9756C103.076 50.1028 99.7977 51.1367 99.094 52.4653C99.4934 52.3719 99.6737 52.2318 100.075 52.0739C101.313 51.5892 104.793 49.6793 105.473 48.6213C105.737 48.2106 105.389 48.4554 105.761 48.1623C106.067 47.9208 105.837 48.3491 106.201 47.8531C106.015 47.8096 105.911 47.7678 105.833 47.7839C105.816 47.7871 105.782 47.8016 105.764 47.808C105.634 47.858 105.31 48.2911 104.579 48.3523L106.325 46.6067C105.439 46.6808 100.025 50.3846 98.9426 51.0674C98.0505 51.6311 98.1922 51.7567 97.7976 51.9161C97.7252 51.9451 96.9506 51.9982 96.7251 52.8389C98.007 52.5409 97.941 52.1303 98.5175 51.8887C100.411 51.0916 102.717 49.2348 103.83 48.9739L103.832 48.9756Z" fill="#462C1F" fill-opacity="0.1"/>
    <path fill-rule="evenodd" clip-rule="evenodd" d="M51.7246 52.0933C51.0256 51.0481 47.1962 48.9256 45.7162 48.0045C45.1767 47.6679 44.6807 47.4183 44.1461 47.0817C43.8466 46.8933 43.6517 46.8273 43.3296 46.6502L39.009 44.4874C39.1297 44.9383 39.2167 44.9013 39.579 45.1638L44.8917 48.7018C46.0093 49.3943 50.4572 51.987 51.7229 52.0917L51.7246 52.0933Z" fill="#462C1F" fill-opacity="0.1"/>
    <path fill-rule="evenodd" clip-rule="evenodd" d="M118.167 26.6617C117.287 27.1271 117.565 27.4765 115.554 27.2704C114.605 27.1738 113.871 27.3622 113.056 27.9081C113.117 28.4702 113.723 28.2753 112.6 28.8244C112.159 29.0402 111.694 29.1771 111.434 29.5298C112.631 29.5298 114.657 28.7149 115.758 28.2431L118.042 27.1609L118.166 26.6617H118.167Z" fill="#462C1F" fill-opacity="0.1"/>
    <path fill-rule="evenodd" clip-rule="evenodd" d="M118.415 41.4968V41.3728H118.789V41.4968H118.415ZM117.293 41.996C117.757 41.8881 117.853 41.7593 118.415 41.7464L118.353 42.3696C118.675 42.1957 118.649 42.2231 118.863 41.9445C119.386 41.2665 120.556 40.6079 121.358 40.0748C122.097 39.5837 122.148 39.6932 122.28 39.1279C122.934 39.1134 123.263 38.9041 123.403 38.3807C123.034 38.5579 122.863 38.4483 122.525 38.6255C122.179 38.8058 122.285 38.925 121.768 39.1167C119.204 40.0668 118.663 40.9267 118.364 41.0539L118.093 41.1055C117.526 41.3019 117.493 41.4662 117.419 41.748L116.924 41.6079C117.04 41.7883 116.889 41.6272 117.092 41.8237C117.106 41.8382 117.142 41.8688 117.156 41.8833C117.171 41.8978 117.209 41.93 117.222 41.9413C117.235 41.9525 117.267 41.9799 117.291 41.996H117.293Z" fill="#462C1F" fill-opacity="0.1"/>
    <path fill-rule="evenodd" clip-rule="evenodd" d="M49.3557 52.3408C49.0658 51.9076 48.4329 51.5179 47.9852 51.2184C47.7163 51.0396 47.5021 50.9317 47.2106 50.7465C45.5165 49.6724 44.7806 49.2054 42.9995 48.3519C43.3634 49.7143 47.6873 52.2023 49.3573 52.3408H49.3557Z" fill="#462C1F" fill-opacity="0.1"/>
    <path fill-rule="evenodd" clip-rule="evenodd" d="M91.6154 16.6889C91.8424 16.6889 91.6283 16.6969 91.865 16.5649C91.6106 15.6115 90.1837 14.5616 89.7747 14.167C88.8197 13.2475 88.1273 12.9206 87.0032 12.3263C87.1884 13.0172 88.4961 14.13 89.0919 14.7242L90.2739 15.7854C90.6169 16.0801 91.2772 16.6889 91.6154 16.6889Z" fill="#462C1F" fill-opacity="0.1"/>
    <path fill-rule="evenodd" clip-rule="evenodd" d="M121.907 5.0957C121.366 4.28729 116.652 1.43692 115.674 1.3564C116.005 1.84917 116.452 2.21634 116.942 2.5819C117.396 2.9233 117.944 3.32428 118.419 3.59805C119.298 4.1021 120.982 5.0184 121.907 5.0957Z" fill="#462C1F" fill-opacity="0.1"/>
    <path fill-rule="evenodd" clip-rule="evenodd" d="M20.3092 53.7129C19.8631 53.1042 15.3878 51.7837 14.4329 51.4761C13.8451 51.2877 14.143 51.4535 13.4538 51.468C14.1189 52.3763 18.5152 53.6726 20.3092 53.7113V53.7129Z" fill="#462C1F" fill-opacity="0.1"/>
    <path fill-rule="evenodd" clip-rule="evenodd" d="M33.0248 58.8243C33.1729 59.3799 32.8863 59.003 34.4435 59.5248L37.6836 60.5232C38.9832 60.9613 38.521 60.7133 39.3826 60.6939C38.9397 60.09 37.033 59.6488 36.0942 59.3702C35.45 59.1786 34.8993 58.9934 34.2712 58.8243C32.8025 58.4297 33.4161 58.7019 32.9749 58.6069C32.4402 58.4909 33.2325 58.2945 32.0279 58.5763L33.0248 58.8259V58.8243Z" fill="#462C1F" fill-opacity="0.1"/>
    <path fill-rule="evenodd" clip-rule="evenodd" d="M112.682 17.4375C112.356 16.9496 111.457 16.1894 110.961 15.7933C110.169 15.162 108.367 13.9108 107.447 13.6966C107.584 13.9011 107.729 14.1749 107.911 14.3552C108.159 14.6016 108.257 14.5775 108.541 14.8464C109.465 15.7273 111.421 17.3312 112.682 17.4359V17.4375Z" fill="#462C1F" fill-opacity="0.1"/>
    <path fill-rule="evenodd" clip-rule="evenodd" d="M139.358 40.4997C138.51 41.0681 135.608 44.0908 135.37 44.9878C136.382 44.4515 136.917 43.8686 137.708 43.0875C138.191 42.6093 139.294 41.2759 139.358 40.4997Z" fill="#462C1F" fill-opacity="0.1"/>
    <path fill-rule="evenodd" clip-rule="evenodd" d="M139.858 48.228C140.249 47.9414 139.94 48.1749 140.21 47.8335C140.698 47.2215 141.656 46.331 142.178 45.4388C142.483 44.9187 142.388 44.5547 142.599 44.1151C142.165 44.2311 142.352 44.2069 142.119 44.508L140.948 45.9558C140.75 46.1861 140.755 46.2279 140.569 46.4502L139.803 47.4277C139.503 47.8174 139.526 47.5807 139.482 48.104C139.706 48.1636 139.705 48.1234 139.856 48.228H139.858Z" fill="#462C1F" fill-opacity="0.1"/>
    <path fill-rule="evenodd" clip-rule="evenodd" d="M113.679 44.3631C113.259 44.4613 113.037 44.6561 112.686 44.8655C112.359 45.0604 112.004 45.2439 111.66 45.4597C111.249 45.7158 109.908 46.434 109.69 46.7319C111.114 46.6997 112.99 45.6659 113.679 44.3631Z" fill="#462C1F" fill-opacity="0.1"/>
    <path fill-rule="evenodd" clip-rule="evenodd" d="M130.757 10.083C130.54 9.48233 130.981 9.9735 129.972 9.62244C127.988 8.93481 127.72 8.32125 127.517 9.08457C128.664 9.11033 127.232 9.03304 128.973 9.74805C129.672 10.0347 130.271 9.8495 130.757 10.083Z" fill="#462C1F" fill-opacity="0.1"/>
    <path fill-rule="evenodd" clip-rule="evenodd" d="M137.489 40.9974C136.278 41.3211 135.906 42.6545 135.743 42.9927C136.39 42.8204 137.117 41.5514 137.489 40.9974Z" fill="#462C1F" fill-opacity="0.1"/>
    <path fill-rule="evenodd" clip-rule="evenodd" d="M138.362 50.098C137.329 50.3379 136.69 51.2156 136.616 52.0933C137.004 51.8324 137.172 51.4668 137.519 51.127C137.85 50.8033 138.117 50.4652 138.362 50.0996V50.098Z" fill="#462C1F" fill-opacity="0.1"/>
    <path fill-rule="evenodd" clip-rule="evenodd" d="M122.904 21.4263C122.676 21.4794 121.528 21.6952 121.308 21.6598C120.482 21.5261 120.502 20.7886 120.035 21.4263C120.515 21.5551 120.242 21.5777 120.707 21.7516C121.465 22.035 122.404 22.1687 122.902 21.4263H122.904Z" fill="#462C1F" fill-opacity="0.1"/>
    <path fill-rule="evenodd" clip-rule="evenodd" d="M134.996 43.9897C134.666 43.9028 134.893 43.9994 134.622 43.8657C134.429 44.0074 133.617 44.7595 134.033 44.935C134.27 45.0349 134.882 44.4197 134.996 43.9897Z" fill="#462C1F" fill-opacity="0.1"/>
    <path fill-rule="evenodd" clip-rule="evenodd" d="M135.12 45.7353C135.12 45.2587 135.159 45.6902 134.996 45.3617C134.809 45.4857 134.189 45.935 134.3 46.2007C134.513 46.7048 135.12 45.7466 135.12 45.7369V45.7353Z" fill="#462C1F" fill-opacity="0.1"/>
    <path fill-rule="evenodd" clip-rule="evenodd" d="M110.937 44.8623L110.813 44.3631C110.813 44.6401 110.827 44.5112 110.74 44.6658C110.729 44.6852 110.703 44.7238 110.69 44.7415L110.937 44.8623Z" fill="#462C1F" fill-opacity="0.1"/>
    <path fill-rule="evenodd" clip-rule="evenodd" d="M119.538 26.412C118.886 26.4684 119.312 26.2928 119.164 26.6616C119.192 26.6471 119.206 26.6294 119.248 26.6214L119.538 26.412Z" fill="#462C1F" fill-opacity="0.1"/>
    <path fill-rule="evenodd" clip-rule="evenodd" d="M109.317 45.6098C109.359 45.6049 109.344 45.4729 109.341 45.4616C109.33 45.431 109.629 45.2458 109.307 45.4069C109.301 45.4101 109.077 45.6388 109.317 45.6098Z" fill="#462C1F" fill-opacity="0.1"/>
    <path fill-rule="evenodd" clip-rule="evenodd" d="M96.7251 52.8404H96.6011L96.7042 52.9854L96.7251 52.8404Z" fill="#462C1F" fill-opacity="0.1"/>
    <path fill-rule="evenodd" clip-rule="evenodd" d="M111.436 29.5299H111.31L111.415 29.6748L111.436 29.5299Z" fill="#462C1F" fill-opacity="0.1"/>
    <path fill-rule="evenodd" clip-rule="evenodd" d="M118.167 26.6616H118.291L118.188 26.5167L118.167 26.6616Z" fill="#462C1F" fill-opacity="0.1"/>
  </g>
  <defs>
    <clipPath id="clip0_82_1128">
      <rect width="100" height="189.313" fill="white" transform="matrix(0 -1 1 0 0 91)"/>
    </clipPath>
  </defs>
</svg>