<svg xmlns="http://www.w3.org/2000/svg" width="142" height="85" viewBox="0 0 142 85" fill="none">
  <g clip-path="url(#clip0_82_1094)">
    <path fill-rule="evenodd" clip-rule="evenodd" d="M-45.4163 94.2559C-45.3744 94.2607 -45.3889 94.3927 -45.3937 94.404C-45.4034 94.4298 -45.1135 94.6182 -45.4259 94.4588C-45.4324 94.4556 -45.6562 94.2269 -45.4163 94.2575V94.2559ZM-32.3271 81.4163C-32.4221 81.4984 -32.3625 81.4984 -32.538 81.5805C-32.7893 81.6965 -32.596 81.6127 -32.8263 81.6659C-32.5267 81.2568 -32.9165 81.492 -32.3271 81.4163ZM-31.7038 80.7931C-31.8423 81.1651 -31.4365 80.9879 -32.0774 81.0427C-32.0549 81.0233 -31.9937 80.9911 -32.013 80.9831L-31.7038 80.7931ZM-30.9566 80.2938C-31.0806 80.6014 -30.7054 80.5434 -31.4558 80.5434V80.4194C-31.137 80.4194 -31.1547 80.3888 -30.9566 80.2954V80.2938ZM-6.77348 69.3239V69.4479L-6.91841 69.3432L-6.77348 69.3223V69.3239ZM-6.64948 48.2569C-6.66558 49.0121 -7.51103 50.7272 -7.89753 51.497C-8.09721 51.8963 -8.17129 52.2023 -8.41929 52.5952C-9.08116 53.6452 -9.64479 54.9271 -10.7141 56.5342C-10.9573 56.8998 -11.0877 57.0641 -11.3373 57.4071L-14.0057 60.9724C-14.1651 61.1882 -14.1539 61.1689 -14.3487 61.3767L-19.5229 67.1724C-19.6453 67.3174 -19.7564 67.4092 -19.8949 67.5477L-23.8854 71.4093C-24.4474 71.915 -24.879 72.4658 -25.4411 72.9714L-27.0949 74.4353C-27.578 74.7863 -28.285 75.6575 -28.8406 75.8057C-28.7005 75.2791 -26.6907 72.9263 -26.1931 72.345L-24.8017 70.6203C-24.6423 70.4077 -24.6069 70.4061 -24.4459 70.2273C-22.8709 68.4897 -19.8434 64.3977 -18.2136 62.4975L-15.5952 59.631C-15.4486 59.4845 -15.3552 59.4104 -15.2199 59.259L-8.89597 50.7481C-8.73815 50.5323 -8.7462 50.55 -8.55134 50.3455L-6.65109 48.2569H-6.64948ZM9.80543 30.3059C9.80543 32.0789 8.35125 36.0969 7.52029 37.7443L5.11115 42.4402C4.7617 43.0859 4.30596 43.4933 3.87277 44.0682C3.60705 44.4209 3.4895 44.495 3.24955 44.8155C3.07402 45.049 3.10301 45.02 2.91942 45.2342C2.73584 45.45 2.75033 45.4693 2.59896 45.6609L-4.99562 54.8949C-5.17759 55.109 -5.1019 55.0656 -5.25489 55.2588L-16.84 68.4801C-17.0735 68.7136 -17.3247 68.9277 -17.5164 69.1741C-18.481 70.4077 -20.4634 72.3563 -21.6985 73.469C-23.201 74.8201 -25.6939 76.6705 -27.3397 77.6754C-27.826 77.9717 -27.8293 78.1858 -28.0128 78.3727L-29.5395 79.4645C-30.3865 80.1054 -30.203 80.0313 -30.7054 80.0426C-30.517 79.7624 -30.3334 79.5676 -30.0323 79.3453C-29.6732 79.0796 -29.6087 78.9653 -29.2834 78.7221L-27.7359 77.4032C-25.5023 75.6511 -20.8788 71.0229 -19.0172 69.1677L-16.65 66.6732C-16.4599 66.4461 -16.526 66.4655 -16.3359 66.2384C-15.8899 65.7054 -15.6934 65.6732 -15.0203 64.8116C-14.8061 64.5394 -14.5774 64.3832 -14.3407 64.1191C-14.1329 63.8889 -14.1861 63.8969 -14.0218 63.6892L-12.7738 62.1947C-12.6337 62.0176 -12.5805 61.995 -12.4275 61.7921L-6.71711 53.2925C-4.43359 49.5339 -0.10327 44.2534 2.65693 40.1019L8.3899 31.7472C9.00346 30.9227 9.03727 30.7101 9.81348 30.3027L9.80543 30.3059ZM19.4049 30.0563C19.3872 30.884 18.2422 32.372 17.8251 33.0887C16.9942 34.5171 14.3161 38.6139 13.2066 40.0632L11.2515 42.722C11.039 43.0006 10.9746 43.0392 10.7507 43.3436L6.59593 48.4147C6.28674 48.7255 6.28835 48.7931 6.0323 49.0991L4.91469 50.3504C4.71017 50.5645 4.56201 50.6966 4.34944 50.9076L-4.80881 60.3235C-5.09546 60.5972 -5.21301 60.6053 -5.49966 60.879C-5.90226 61.2623 -6.20662 61.6359 -6.61727 62.0063C-6.88942 62.2511 -6.96995 62.2382 -7.24532 62.5007L-9.14396 64.2174C-9.43705 64.4299 -9.46604 64.5056 -9.73498 64.7488L-11.6674 66.306C-12.463 66.9888 -15.1475 69.1435 -15.8754 69.2031L4.66186 45.735C5.04513 45.3115 5.39136 44.9137 5.74082 44.4451L9.52683 40.1276C9.8006 39.841 9.80864 39.7234 10.0824 39.4368L12.8893 36.5091C14.1213 35.0404 15.5803 33.6942 16.941 32.3334C17.3485 31.926 17.7044 31.5266 18.1247 31.1481C18.3968 30.9034 18.4773 30.9179 18.7527 30.6538C19.0249 30.3929 19.0957 30.2657 19.4049 30.0595V30.0563ZM56.054 29.8067V29.9307L55.9091 29.8276L56.054 29.8067ZM56.054 29.8067V29.6827L56.199 29.7874L56.054 29.8083V29.8067ZM25.8867 68.9503C25.0461 68.9503 24.1121 68.9439 23.3117 69.1178C22.645 69.2627 22.5387 69.5864 22.3954 70.1967L22.5838 70.3819C23.1458 70.865 23.7385 70.9987 24.468 71.2403C27.0655 72.1034 28.6437 72.9618 30.9546 74.1035C32.8065 75.0182 34.834 76.7558 35.7777 78.6303C36.2254 79.5209 36.3574 79.8816 36.3574 81.1667C35.7584 81.0266 35.4009 80.7303 34.9854 80.4194C34.7374 80.2343 34.6118 80.1038 34.3622 79.9202C34.09 79.7189 34.0159 79.5998 33.7615 79.3985C32.536 78.4306 31.5714 77.2051 30.2976 76.255C30.0222 76.0489 29.9739 75.9394 29.6985 75.7316C24.5388 71.8313 19.1891 70.0389 12.68 69.3142C10.3481 69.055 6.76019 68.8134 4.41386 69.1725L0.420103 69.6669C-3.13724 70.2628 -6.52387 71.3884 -9.8461 72.7395C-11.3888 73.3676 -12.9026 74.089 -14.2392 75.0778C-14.8335 75.5174 -14.8624 75.7171 -15.257 76.3049C-14.6563 76.7075 -14.521 76.8106 -13.5129 76.8057C-11.4871 76.7945 -8.67695 76.5916 -6.78958 76.8138L-2.66861 77.181C0.466805 77.4209 5.64742 78.5063 8.60086 79.4999C9.75551 79.888 10.8602 80.1876 11.9585 80.6304L16.7397 82.7062C18.7141 83.6934 20.5902 84.7884 22.4163 86.0043C24.6789 87.5132 26.6484 89.3007 28.6566 91.1076C29.0656 91.4747 29.3507 91.8822 29.7951 92.2123C30.2943 92.5827 30.5359 92.8645 30.961 93.2912C32.1302 94.462 34.8566 96.4106 34.8566 98.496C32.5183 98.3012 28.3168 94.4395 26.452 93.0626C25.5566 92.4023 24.534 91.7549 24.0106 90.7662L24.505 90.6261C24.2377 90.2347 24.1298 90.2025 23.7417 89.9143C20.6159 87.5873 22.9945 90.4087 18.8799 87.2958C10.4544 80.9219 0.0964165 77.4274 -10.5192 77.4274C-12.8801 77.4274 -15.3923 77.8203 -17.1427 78.4081C-21.9208 80.0152 -26.5732 83.0347 -30.4896 86.1283C-30.7988 86.373 -31.1128 86.9399 -31.3367 87.2749C-29.6715 88.0736 -26.9033 88.225 -24.9837 88.4005C-22.9482 88.5873 -20.4843 89.2057 -18.7628 89.7838L-16.7353 90.4988C-16.3987 90.6164 -16.3569 90.6712 -16.0445 90.8048L-14.7594 91.3894C-14.5098 91.5021 -14.3342 91.544 -14.0508 91.6776C-12.6353 92.3508 -9.74785 93.3991 -8.72043 94.4507C-8.53362 94.6424 -8.62542 94.4797 -8.52558 94.7551C-9.10532 94.7422 -13.4308 92.8291 -14.4663 92.3443C-15.811 91.7163 -17.1572 91.275 -18.5438 90.8129C-19.3087 90.5584 -19.9303 90.3104 -20.7146 90.1172L-23.011 89.5455C-23.8387 89.3426 -24.5231 89.2492 -25.425 89.093C-26.3187 88.9368 -29.7279 88.5793 -30.5105 88.7178C-31.2723 88.8546 -31.6636 88.75 -33.0727 89.0302C-36.8796 89.7871 -38.8217 90.6406 -41.8589 92.9595C-43.0152 93.842 -42.8203 93.4265 -44.5515 92.5102C-43.9814 91.4329 -42.8702 91.0271 -42.0264 90.1735C-41.4869 89.6276 -40.7671 89.1477 -40.313 88.5213L-36.2741 84.3327C-35.886 84.0428 -35.7507 83.8979 -35.3514 83.6354C-34.1114 82.8157 -33.6444 82.3374 -32.2949 81.7061C-32.0372 81.5854 -31.5396 81.2327 -31.3173 81.062L-27.3075 78.4644C-26.2124 77.9282 -25.2671 77.189 -24.2558 76.5304C-21.8741 74.9764 -22.2283 75.8766 -19.7435 74.4369C-18.7692 73.8716 -15.381 71.725 -14.426 71.4013C-13.959 71.2419 -13.4727 71.1936 -12.8881 71.1936C-12.93 71.6879 -13.0959 71.9456 -13.1377 72.44C-12.6417 72.4819 -12.8382 72.564 -12.5145 72.564C-11.5096 72.564 -10.0426 72.0535 -9.19549 71.7701C-8.06984 71.3949 -7.25659 70.9939 -6.05686 70.6702C-3.86996 70.0808 -1.38352 69.6701 0.89678 69.2708C6.99853 68.2031 13.0101 66.5122 18.6497 63.9613L26.0526 60.7679C29.6309 59.3395 38.5637 56.4714 41.96 58.1011C41.443 59.0786 40.1 59.5907 39.0935 60.0964L33.937 62.2946C26.8336 64.649 23.6547 65.1337 16.1052 66.6523C15.3613 66.802 14.7203 66.8922 14.052 67.0919C13.1953 67.3496 13.0246 67.3528 12.5415 68.0742C13.6913 68.844 15.3806 68.5735 17.1536 68.5735C20.6175 68.5735 25.3199 68.4366 28.6276 68.5686C29.1783 68.5912 29.2073 68.7007 29.866 68.7007C30.7034 68.7023 31.631 68.6024 32.4378 68.7474C34.1432 69.055 37.8052 68.786 39.6684 69.121L42.0856 69.3207C42.4769 69.3497 42.9407 69.2997 43.3368 69.3158C44.4013 69.3577 45.7283 69.5783 46.9489 69.5687C47.5625 69.5638 47.6639 69.6363 48.0794 69.6846C48.503 69.7345 49.0151 69.6605 49.4418 69.6927C50.1423 69.7458 51.0458 69.9423 51.8091 69.9423C51.4854 70.4254 51.4339 70.3594 50.7398 70.493C49.9298 70.6476 47.3209 70.8296 47.3209 72.0616C47.3209 72.5479 49.2308 73.5592 49.6624 73.833C52.909 75.891 56.1378 77.9894 58.6323 80.9444C58.8191 81.1651 58.7595 81.149 58.9479 81.376C59.708 82.2891 60.6356 83.4148 60.9818 84.5791C61.0994 84.9752 60.9834 84.9124 61.1574 85.2764C60.5889 85.2764 60.3425 85.1846 60.0108 84.9269L45.928 73.2065C42.989 70.8683 41.7844 70.4866 37.599 70.1919C34.2752 69.9584 28.8305 68.9455 25.8803 68.9455L25.8867 68.9503ZM63.0351 30.6795L62.1123 31.3784C60.948 32.2335 54.988 35.662 53.4758 36.4544L52.3534 37.0776C52.0603 37.2306 52.0394 37.2773 51.8123 37.4093C51.611 37.5269 51.4741 37.5736 51.2309 37.7008C50.7978 37.9279 50.5852 38.0921 50.1101 38.3256L46.8024 40.1293C46.403 40.3805 46.1083 40.5125 45.6622 40.7348C45.2145 40.9586 45.0744 41.0955 44.6268 41.3193L41.2176 43.1455C38.4155 44.532 35.0305 46.5015 32.2429 47.8832C30.676 48.6595 29.1993 49.4679 27.6308 50.2521L7.18694 60.5988C6.7924 60.7953 6.45261 60.9644 6.02264 61.1802L2.5748 62.8421C1.80181 63.2286 0.978913 63.5781 0.205929 63.9645L-9.39358 68.2031C-9.02963 67.7055 4.49921 59.325 5.76497 58.5537L17.8316 50.9253C18.611 50.4502 19.2423 50.0734 20.0008 49.6031C21.463 48.6981 22.8479 47.8414 24.3472 46.9686L29.75 43.8943C30.1462 43.6946 30.4506 43.4837 30.8725 43.2711L39.9309 38.6171C40.4365 38.4029 40.662 38.3127 41.1354 38.076C43.4447 36.9165 49.6673 34.3576 52.0796 33.5621L57.2747 31.9018C58.5936 31.5443 61.7371 30.6795 63.0335 30.6795H63.0351ZM63.0351 30.6795V30.5555L63.18 30.6586L63.0351 30.6795ZM42.092 47.384C39.7376 47.384 38.6877 47.8816 36.9581 48.3583C36.5668 48.4662 35.5361 48.6208 35.111 48.6305C35.2028 48.2842 35.1674 48.3325 35.4572 48.1039C36.6199 47.1892 37.6425 47.4484 39.5009 47.1618L41.3432 47.0104C40.8262 46.3051 39.5524 46.5112 38.7247 46.5112C38.8326 46.1054 38.9566 46.1022 39.1965 45.9862C39.4445 45.867 38.8986 45.888 39.5975 45.888C40.3947 45.888 40.6958 46.0877 41.3448 46.1344L45.2065 46.2616C45.5576 46.2616 45.4368 46.2085 45.5801 46.012C44.8876 45.954 44.2982 45.5691 43.4608 45.5144C42.8956 45.4773 42.6331 45.4194 42.2144 45.3904C41.6443 45.3501 41.4028 45.3018 40.968 45.2648C42.2482 43.3532 45.2403 44.7655 48.4482 44.7655C48.2099 44.4097 48.2227 44.3791 47.7509 44.2164L47.0343 43.9362C46.717 43.7365 47.0166 43.933 46.8282 43.7687C49.5272 43.7091 48.6737 43.0698 50.0183 43.3194L53.4484 43.7542C58.5083 44.4274 62.2959 45.6738 66.9724 47.558L70.8873 49.5017C70.401 50.1652 69.4991 49.6498 67.6424 49.6305C67.0981 49.6241 67.1367 49.5548 66.7631 49.5114L63.0335 49.2521C62.5552 49.2183 62.7114 49.1426 62.1655 49.1232L48.5722 47.8816C48.1487 47.8527 48.0585 47.8784 47.6511 47.8059L42.092 47.3824V47.384ZM73.3818 30.5555V30.6795L73.2368 30.5765L73.3818 30.5555ZM73.3818 9.23887C73.071 10.5723 69.2334 16.017 68.177 17.2473C67.8099 17.6741 67.5441 18.0686 67.1802 18.4937L61.9448 24.3539C61.5406 24.7581 61.225 25.0706 60.824 25.4764C60.4021 25.9031 60.0768 26.0931 59.6404 26.536L57.8239 28.0852C57.6306 28.2398 57.3617 28.4395 57.1781 28.5619C57.0654 28.3348 57.0815 28.4057 57.0541 28.0626C56.6451 28.1722 55.8334 28.8469 55.5258 29.1529C55.215 29.4621 55.1474 29.4605 54.8414 29.7165C54.318 30.1545 54.2214 30.4331 53.4887 30.9807C52.7785 31.5105 52.2262 32.3012 50.6963 32.3012C50.7945 32.116 51.0377 31.5185 51.1762 31.409C51.4451 31.1981 51.2905 31.3816 51.6319 31.2415L56.8351 27.0964C57.1523 26.7727 57.2779 26.7518 57.5855 26.4764C57.8818 26.2091 58.0139 25.9949 58.3505 25.7453C58.9447 25.3041 59.3183 24.8644 59.8256 24.3539L61.3232 22.9835C61.8257 22.4811 62.275 22.0624 62.7597 21.5535L64.1285 20.0542C64.362 19.8207 64.6132 19.6065 64.8049 19.3601L66.1302 17.819C66.3621 17.5227 66.6262 17.3504 66.8694 17.0621C67.0465 16.8512 66.9789 16.8882 67.1287 16.6982L72.0484 10.772C72.3753 10.3774 73.0339 9.47721 73.385 9.24209L73.3818 9.23887ZM73.3818 30.5555V30.4315L73.5267 30.5362L73.3818 30.5571V30.5555ZM73.3818 9.23887V9.11487L73.5267 9.21954L73.3818 9.24048V9.23887ZM75.7507 30.9291L75.7136 30.9662C75.7168 30.9629 75.7378 30.9162 75.7507 30.9291ZM78.4931 28.8099C78.4271 29.6086 77.9311 29.4814 76.572 29.7552L74.1306 30.1803C74.5074 29.6666 77.9118 28.8839 78.4931 28.8099ZM88.2166 15.0974C87.9864 15.5322 88.0733 15.6707 87.4694 15.7207C87.5483 15.5709 87.5757 15.4405 87.6949 15.3229C87.9026 15.12 88.0314 15.1812 88.2182 15.0974H88.2166ZM89.2135 14.2246C89.0895 14.6916 88.9461 14.7367 88.4662 14.8478C88.4904 14.8108 88.703 14.4855 88.7142 14.4726C88.9687 14.2021 88.9349 14.3486 89.2135 14.2246ZM91.5823 13.6014V13.7254C90.8963 13.7254 91.038 14.2005 90.9591 13.4758C91.2587 13.6191 91.1218 13.5998 91.5823 13.5998V13.6014ZM101.306 24.9449C101.174 25.0287 101.303 25.019 101.047 25.0609C100.939 25.0786 100.792 25.0706 100.683 25.0706V24.9466H101.306V24.9449ZM102.552 3.12907C102.552 3.88595 102.306 4.11785 102.053 4.62512C101.174 6.38527 100.733 6.92153 99.6101 8.41596L98.222 10.0199C98.0062 10.2389 97.8741 10.3581 97.6567 10.5771L87.74 19.3585C87.3277 19.687 86.9654 19.9318 86.5225 20.2603C86.099 20.5744 85.7946 20.7998 85.3824 21.1155C85.1472 21.2958 85.0538 21.3554 84.7978 21.5277C82.7768 22.8949 79.9521 24.9095 77.828 26.0255C75.7474 27.119 73.0146 28.7519 70.905 29.5748C69.5185 30.1143 66.0545 31.773 64.7791 31.802C64.9208 31.2689 64.9192 31.5942 66.0771 30.7327C68.1078 29.2189 68.1609 29.6763 70.8052 28.3541C75.5397 25.9869 77.0953 24.275 80.6333 21.4778L85.1295 17.6209C85.421 17.3472 85.5353 17.3343 85.8188 17.0637C86.0539 16.8399 86.1956 16.6547 86.4372 16.4341C86.7319 16.1651 86.8881 16.1442 87.2198 15.9687C87.0459 16.6176 86.7802 16.5935 86.1859 17.3021C85.8011 17.761 85.706 17.6741 85.9734 18.2119C86.3244 18.1185 86.6771 17.7353 87.1876 17.3069C87.5677 16.988 87.9461 16.5516 88.3116 16.1861C88.8978 15.5999 89.8963 14.4404 90.7111 14.223C90.4808 14.566 90.257 14.8076 90.2119 15.3454C90.9301 15.178 92.0171 14.0072 92.0816 13.2262C92.6581 13.1779 92.7821 12.9315 92.8288 12.3534C92.1846 12.2036 91.9962 12.2664 91.8319 12.9766C91.5775 12.9766 91.3617 12.9444 91.1347 13.0281L90.2554 13.6449C90.0299 13.7431 89.8157 13.7963 89.5871 13.8494C89.8592 13.4436 92.7885 10.9427 93.5019 10.4096L101.604 3.67821C102.431 3.05016 101.969 3.38995 102.551 3.13068L102.552 3.12907ZM79.1164 34.0436C79.6011 34.0839 80.862 34.7522 80.862 34.1676C80.862 33.7489 77.7894 32.2657 77.1211 31.926C76.675 31.6989 76.1307 31.43 75.8763 31.0515C77.0599 31.0515 78.907 31.9743 80.0085 32.4042C80.8121 32.7199 83.2921 33.8616 83.9797 33.918C83.7414 32.897 83.2631 32.955 82.3581 32.5476L79.4433 31.2238C78.9569 30.9871 79.0938 31.1047 78.8684 30.6779C79.8893 30.7005 83.9282 31.7633 84.9315 32.095L88.0524 33.4623C88.463 33.67 88.6369 33.7618 89.017 33.9937C89.8399 34.4977 90.6612 34.8375 91.8593 35.6395C92.4761 36.0534 93.0478 36.3948 93.6549 36.836L97.0705 39.5286C97.3974 39.7669 97.5504 39.9473 97.8483 40.2468C98.1785 40.5786 98.3492 40.6285 98.6632 40.928L103.325 45.9894L106.097 49.9494C106.301 50.2876 106.572 50.6322 106.668 50.9977C106.219 50.8931 104.498 49.8576 104 49.5532L84.1891 37.4512C83.8557 37.2595 83.6399 37.1017 83.3581 36.9117L81.6125 35.7893C80.9876 35.369 79.4658 34.5638 79.1196 34.0436H79.1164ZM134.09 22.3265C133.195 23.5487 126.521 25.1833 124.99 25.5682C122.708 26.1415 120.03 26.2606 117.634 26.4394C116.767 26.5038 117.279 26.565 115.764 26.565C114.955 26.565 114.377 26.5634 113.743 26.6632L105.543 26.6906C106.557 25.8097 107.206 25.9981 108.71 25.7453L124.877 23.4634C125.574 23.3829 126.159 23.283 126.747 23.2138C129.233 22.9255 131.631 22.6437 134.088 22.3281L134.09 22.3265ZM101.304 24.9449L104.881 23.7855C107.675 22.6469 110.301 21.2781 112.936 19.8738C113.176 19.7466 113.54 19.5582 113.819 19.497C114.514 19.3472 114.224 19.5647 114.765 19.7096L118.13 17.9623C118.748 17.6016 119.548 17.0058 120.25 16.8431L120.11 16.3487C120.453 16.2569 120.421 16.2344 120.7 16.046C122.143 15.0701 123.716 14.4146 125.281 13.6465C126.294 13.1489 129.797 11.4564 130.971 11.3581C130.589 11.9282 129.988 12.2277 129.401 12.6545C129.194 12.8043 129.17 12.8461 128.979 12.9798C126.8 14.5032 124.642 16.0878 122.329 17.4245L120.45 18.5372C120.093 18.7562 119.827 18.84 119.46 19.0429C119.083 19.2506 118.891 19.394 118.505 19.584L107.892 23.8064C105.638 24.639 105.506 25.4345 104.209 25.982C103.549 26.2622 100.235 27.1689 100.055 27.8114C99.7776 28.7922 102.037 28.5603 102.547 28.5586C105.749 28.5554 110.134 30.1111 113.19 31.1288C116.06 32.0854 118.832 33.1418 121.537 34.4994C121.985 34.7248 122.178 34.7973 122.656 35.0002C123.478 35.348 124.115 35.7941 124.859 36.1629C127.475 37.4576 130.736 39.4014 133.121 41.2404C134.235 42.0988 136.085 43.16 136.826 44.2663C136.366 44.4789 134.171 43.4563 133.71 43.2679C132.642 42.8315 131.534 42.4563 130.468 42.0215C129.966 41.8169 129.331 41.577 128.832 41.4143L112.16 35.7732C111.638 35.5783 111.126 35.3062 110.524 35.166L110.73 34.9986C110.878 34.815 110.828 34.9309 110.897 34.6684C110.572 34.5815 110.403 34.4688 110.229 34.137C110.223 34.1241 110.211 34.0887 110.206 34.0774L110.168 33.9711C110.165 33.9647 110.157 33.9373 110.148 33.9212C109.593 34.1869 109.224 34.0823 108.744 33.7054C108.218 33.2916 107.031 32.9518 106.361 32.7231C105.287 32.3559 103.62 31.3929 102.544 31.3043C102.346 31.6007 102.393 31.4348 102.295 31.8036C102.974 31.9614 103.515 32.3221 104.147 32.5701C104.784 32.8197 105.406 33.0693 106.108 33.3511C106.823 33.6378 107.377 33.8165 108.105 34.0968C108.395 34.2079 108.672 34.4559 108.96 34.4639C109.404 34.4784 109.831 34.3705 110.148 34.2964C110.158 34.728 110.326 34.8987 110.105 35.0002C109.572 35.245 101.692 32.6072 100.964 32.2609C99.7583 31.6892 98.7018 30.9581 97.5601 30.3043C95.6953 29.2366 94.4037 28.4379 92.2249 27.9113C89.3906 27.2252 87.8044 27.6069 85.2117 27.5683C84.6351 27.5602 84.6239 27.4394 84.2197 27.4394V27.3154C84.9298 27.3154 90.9656 26.222 92.2023 26.0722L100.427 25.1962C99.9789 25.1962 99.5554 25.383 99.2123 25.602C98.9756 25.7534 99.032 25.6632 98.9305 25.9434C100.048 25.9434 100.974 25.7695 101.94 25.4619C102.311 25.3443 102.486 25.2316 102.919 25.1946L101.299 24.9449H101.304ZM-6.77509 69.3239C-6.60761 68.8601 -6.59311 69.0356 -5.82174 68.6572L19.6111 56.3184C20.3744 55.9368 21.0443 55.6018 21.7722 55.2379C23.6032 54.3248 31.478 49.9462 32.7405 49.7513L35.7358 49.5049C36.4396 49.5065 36.5249 49.3745 37.227 49.3745C37.4976 49.3745 37.8422 49.3986 38.1031 49.3777C38.5926 49.3406 38.3608 49.2891 38.8503 49.2521C39.7006 49.1877 41.2224 49.2134 42.0969 49.2472C45.498 49.3841 49.904 49.988 53.3212 50.3632C53.6095 50.3954 53.8559 50.3552 54.157 50.4003L61.539 51.1217C61.8128 51.1411 62.1381 51.1008 62.4118 51.1201C62.9046 51.1556 62.6663 51.2103 63.1591 51.2457C64.056 51.3118 65.383 51.2683 66.2268 51.4197C66.8001 51.5227 67.1673 51.4808 67.7776 51.4889C69.0998 51.5082 71.0338 51.745 72.5106 51.7433C73.0839 51.7433 73.5364 51.7723 74.0485 51.8094C74.5622 51.8464 74.9422 51.5952 75.3787 51.4937C75.3787 50.4454 75.2708 50.3133 74.633 49.8705C72.232 48.1989 69.4186 47.0716 66.6906 45.9701C64.3282 45.0168 61.8514 44.3919 59.3956 43.7913L51.5997 42.1116C50.1713 41.8652 48.6978 41.8942 46.9554 41.8942C47.4465 41.2227 52.1859 38.7427 52.8639 38.3288L57.0557 35.9149C58.7981 34.881 60.8643 34.6443 62.7854 34.1644L67.5329 33.0532C68.9903 32.765 70.9598 31.9453 72.5975 32.7086C73.7715 33.2561 75.0501 34.2642 76.2 34.9648L103.601 51.819C104.285 52.2361 104.8 52.5775 105.42 52.9914C105.725 53.1943 105.99 53.373 106.319 53.5888C107.664 54.4794 107.717 54.7354 109.659 54.7354C109.659 53.9721 109.88 54.0671 109.648 53.3779L106.717 47.9541C106.454 47.5934 106.285 47.3325 106.044 47.0072L101.338 41.6156L95.8949 36.9616L92.8562 34.8891C90.7304 33.5412 88.4936 32.4155 86.0813 31.5668L83.5916 30.6908C82.8879 30.4621 81.482 30.3091 81.1132 29.8035L84.6545 29.3542C86.5322 29.0192 90.505 29.2994 92.2265 29.9098L95.6019 31.6458C95.8273 31.7891 95.9996 31.9243 96.2025 32.0419C97.4892 32.7972 98.8097 33.7231 100.204 34.2723C102.62 35.224 105.454 35.8682 108.023 36.675C108.528 36.8344 109.173 36.9793 109.678 37.1388C110.194 37.2998 110.669 37.427 111.203 37.6074C111.786 37.8039 112.24 37.9085 112.823 38.1066L119.059 40.0987C121.238 40.7074 123.139 41.4643 125.225 42.1599C125.711 42.3226 126.185 42.4724 126.698 42.6817L131.275 44.3388C133.051 45.0313 138.978 47.4565 140.572 47.3792C141.163 47.3502 141.441 46.8623 141.256 46.2085C140.945 45.1166 139.131 43.7752 138.172 43.0521L129.645 37.2434C129.356 37.0744 129.304 37.0212 129.024 36.8682L126.985 35.7909C124.681 34.6201 122.373 33.4655 119.956 32.4735C117.928 31.6409 116.023 30.8728 113.944 30.2576L109.187 28.9065C108.578 28.7599 108.015 28.7889 107.664 28.3106C108.411 28.3106 109.16 28.3106 109.907 28.3106C110.801 28.3123 111.284 28.1834 112.023 28.1834C112.772 28.1818 113.522 28.185 114.271 28.1883C115.081 28.1915 115.479 28.0594 116.389 28.0626C123.204 28.0788 131.887 25.9756 137.705 22.0785C137.705 21.4198 137.746 21.0993 137.338 20.8256C136.456 20.2346 131.133 21.1283 129.634 21.3602C125.568 21.9899 121.391 22.3265 117.313 23.0012L114.271 23.4505C114.369 23.1767 114.263 23.3297 114.466 23.1461C114.788 22.8531 115.281 22.7436 115.643 22.5793C117.437 21.7677 119.318 20.9786 120.978 19.9367L132.687 12.0731C132.932 11.8686 133.072 11.772 133.311 11.5739C133.478 11.4354 133.452 11.429 133.646 11.2857C134.132 10.9201 134.749 10.3694 135.071 9.84276C135.599 8.97638 135.253 8.8556 134.842 8.24365C132.452 8.24365 124.933 12.0248 122.252 13.231L110.451 19.1315C109.438 19.6371 108.519 20.0977 107.541 20.5856C106.997 20.8578 106.628 21.0285 106.005 21.2942C105.445 21.5325 105.077 21.7483 104.464 21.9963C100.051 23.7742 93.9738 23.7613 89.3101 24.544C87.7706 24.8016 83.1794 25.9466 81.8621 25.9466C82.0279 25.3234 84.611 23.8805 85.2068 23.4328L87.442 21.8031C88.3342 21.0349 89.3761 20.4101 90.2457 19.621C91.497 18.4873 93.3489 17.1346 94.4859 16.0073L95.9787 14.6337C96.3781 14.2311 96.6599 14.0829 97.0399 13.7012C97.7324 13.0039 98.3379 12.4001 99.0336 11.706L99.9048 10.7059C101.67 8.74448 102.755 7.46262 104.01 4.96169C104.459 4.06632 104.928 3.11136 105.129 2.09198C105.457 0.430069 104.694 -0.594135 103.05 0.388199C102.805 0.534744 102.662 0.610432 102.43 0.766639C102.224 0.905132 102.058 1.01464 101.831 1.1644L95.2927 6.4674C94.0849 7.56407 92.8175 8.56251 91.679 9.71071L90.6161 10.6431C89.3826 11.8171 86.1473 14.8961 84.9556 15.8269L79.8909 20.4858C78.2548 21.766 76.7185 23.246 75.0566 24.5021C74.807 24.6905 74.7426 24.7775 74.509 24.9514L71.5572 26.9853C70.3269 27.6955 69.0643 28.4636 67.7261 29.0144C65.8259 29.7954 67.1963 28.4749 62.6792 29.2028C61.6099 29.3751 60.3441 29.5684 59.299 29.8115C59.4632 29.1947 60.2555 28.6665 60.7016 28.2221L68.863 19.555L70.868 16.9478C72.0806 15.12 73.3834 13.3743 74.5042 11.4837L76.6702 7.54152C77.142 6.59945 78.6848 3.88112 77.4641 3.04694C76.121 2.13063 73.5493 6.27254 72.7344 7.21945L64.2654 17.8222C62.1381 20.5341 58.1314 24.5585 55.6547 26.7872C55.3793 27.0352 55.1748 27.2703 54.9091 27.5377L53.7254 28.5973C53.4935 28.8066 53.5032 28.7519 53.2955 28.9162L50.9491 31.1836C50.6383 31.3736 50.3919 31.5588 50.2019 31.9324C49.5545 33.2046 50.3919 32.372 47.4159 33.7586L35.9081 39.0793C35.5249 39.2709 35.293 39.3853 34.9097 39.5769L31.8757 41.1551C29.1928 42.482 26.6211 44.0135 24.0734 45.5691L19.3357 48.4356C18.677 48.8769 18.0361 49.2118 17.4145 49.6321L12.7508 52.5727C12.3998 52.8062 12.2113 52.9527 11.8458 53.1637C11.4738 53.3779 11.2499 53.5341 10.9327 53.7467C8.16605 55.6034 5.25609 57.2766 2.47979 59.1318C1.84852 59.5537 1.30099 59.8726 0.660058 60.3041L-7.71716 65.6393C-8.10365 65.8986 -8.29851 66.1047 -8.76391 66.2126L6.91317 50.476C8.21758 49.1877 11.6058 44.896 12.7685 43.3661C13.1373 42.8814 13.4191 42.4852 13.7799 42.0086C15.4434 39.8104 16.8895 37.3771 18.4371 35.0726C18.7769 34.567 19.0104 34.1467 19.3598 33.6265L22.9494 27.8678C23.5436 26.8919 24.6194 25.8129 23.5871 24.7614C23.3149 24.4828 22.7787 24.8097 22.6241 24.924L20.748 26.4136C19.2471 27.9129 17.5643 29.2125 16.0746 30.7149C15.1487 31.6506 13.4771 33.0903 12.7283 34.1C12.2339 34.7667 11.6091 35.2015 11.0905 35.8279C10.0293 37.113 10.4786 35.8778 10.733 34.8472C11.0438 33.5895 11.2805 32.5041 11.6058 31.2319C11.7266 30.7584 11.9891 29.8614 11.9102 29.3397C11.469 26.4152 9.43342 28.1158 8.282 29.2801C7.17889 30.3961 6.30928 31.8873 5.4751 33.2046L4.17874 35.2739C3.99838 35.5509 3.92108 35.654 3.74394 35.9616C2.38316 38.3305 0.784052 40.548 -0.73454 42.8266L-3.45287 46.8397C-3.76528 47.2681 -4.0793 48.0169 -4.52538 48.1361C-4.38689 47.8462 -4.29993 47.3615 -4.20169 46.9637C-3.99717 46.1376 -3.54143 45.3807 -3.82003 44.4386C-3.93276 44.057 -4.24517 43.8911 -4.52538 43.6479C-6.39826 44.5465 -6.29681 45.0522 -7.61249 46.4194C-7.88465 46.7028 -7.8943 46.8156 -8.16968 47.1087L-12.3986 52.3537C-12.7577 52.8352 -13.083 53.1862 -13.4501 53.671L-20.7001 62.9999C-20.9143 63.2479 -21.0576 63.4396 -21.2492 63.6972L-22.2767 65.0387C-22.4941 65.3237 -22.61 65.438 -22.829 65.7327L-33.2885 79.0844C-33.5204 79.3582 -33.5027 79.421 -33.7861 79.7077C-34.026 79.9492 -34.1822 80.0636 -34.3932 80.3486C-34.8666 80.9879 -35.0808 80.9895 -35.5962 81.5145C-36.068 81.996 -36.4094 82.0894 -36.8152 82.6627C-37.7138 83.9317 -37.0922 83.8818 -38.775 85.5646C-39.4611 86.2507 -40.4627 87.3844 -41.1745 87.9029C-42.0828 88.5632 -42.8074 89.4167 -43.7173 90.0962L-47.6289 93.2912C-48.9559 94.644 -46.4228 96.7777 -44.3598 96.3107C-43.6754 96.1545 -43.1698 95.9194 -42.6722 95.6295C-42.4741 95.5136 -42.1987 95.359 -41.9717 95.2076C-41.2148 94.7036 -40.7059 94.1109 -39.9522 93.6117C-37.8925 92.2477 -35.5623 91.4313 -33.1451 90.8193C-31.6346 90.436 -27.8051 90.5794 -26.388 90.8193C-25.6456 90.9449 -25.0336 91.0142 -24.3524 91.1527C-23.7791 91.2686 -23.0255 91.4168 -22.428 91.5971C-19.9657 92.3379 -17.6903 93.0787 -15.3295 94.0964C-14.1845 94.5892 -13.1828 95.0578 -12.0427 95.5474C-9.55139 96.6151 -7.55612 97.752 -4.64777 97.752L-4.29993 97.351C-4.27256 96.5716 -4.42715 96.2608 -4.72829 95.7149C-4.85873 95.4781 -5.01655 95.2382 -5.1792 95.0433C-5.28709 94.9145 -5.3193 94.9065 -5.41593 94.7825C-6.14221 93.8629 -7.06496 93.069 -8.09561 92.4764C-10.3018 91.2058 -14.9446 89.1397 -17.1282 88.4198C-18.7499 87.8852 -20.5632 87.4826 -22.3169 87.1267C-22.9047 87.0075 -23.5827 86.9785 -24.2929 86.8578C-25.338 86.6806 -27.512 86.6194 -28.2077 86.2845C-27.942 85.2893 -23.2477 82.7948 -21.9755 82.1715C-19.2845 80.851 -17.5792 79.8107 -14.3713 79.3035C-8.2663 78.3404 -0.940671 79.5965 3.81318 81.1892C10.8731 83.5533 16.3275 87.2781 21.8833 91.6664C22.0653 91.8097 22.0411 91.7598 22.244 91.9289C22.4099 92.0657 22.389 92.0754 22.5774 92.2187C24.9108 93.9934 31.4796 99.8036 34.3718 100.002C35.1094 100.053 36.0273 99.7328 36.3381 99.3479C36.8051 98.7714 36.5378 97.9581 36.3188 97.2995C36.0563 96.5088 35.8324 96.2077 35.417 95.5844C34.3799 94.0256 32.9692 92.9241 31.6583 91.6148C31.4216 91.3765 31.2767 91.2267 31.0367 90.99C30.7259 90.6824 30.5842 90.6583 30.2847 90.3716C29.8483 89.9561 29.4376 89.4328 28.9593 89.0785L26.9206 87.2523C26.0639 86.3763 25.0316 85.621 24.0235 84.914L20.0346 82.4195C14.0037 78.925 4.72306 76.2067 -2.02929 75.6881C-4.24034 75.5174 -4.57209 75.4418 -7.01826 75.4418C-7.89109 75.4418 -8.76391 75.4369 -9.63674 75.4418C-10.5514 75.4466 -11.1086 75.3161 -12.1296 75.3161C-12.0008 74.9619 -11.6868 74.8942 -11.3421 74.7332C-7.51426 72.9408 0.0464972 70.5671 4.07729 70.5816C4.76492 70.5832 4.80841 70.4592 5.44129 70.4496C9.17738 70.3932 12.833 70.5929 15.9088 71.2113C18.8477 71.8023 21.645 72.7685 24.2699 74.0697C25.7192 74.7879 27.2861 75.7187 28.4778 76.8428C28.787 77.1343 28.9416 77.189 29.2283 77.4644L33.3203 81.1006C33.5248 81.2536 33.5457 81.3068 33.7212 81.4469C34.2736 81.8881 36.9613 83.389 37.6941 82.2569C38.4397 81.1055 37.6667 78.896 37.1127 77.8058C36.8454 77.2792 36.3913 76.6383 36.0225 76.1535C35.5378 75.5158 35.1964 75.2163 34.6488 74.6607C33.47 73.4674 31.8258 72.7427 30.3378 71.9907L27.8611 70.8538C27.5019 70.6863 27.6131 70.8296 27.5132 70.4544L40.7296 72.0728C42.6814 72.572 43.8312 73.7267 45.3192 74.8379L52.0941 80.529C52.3598 80.7367 52.4484 80.9042 52.7447 81.1248L58.9044 86.059C61.977 88.2588 64.9691 86.9592 60.2475 80.603C57.9414 77.4982 55.8238 76.4724 52.9106 74.2275C52.0587 73.5705 50.6448 72.9215 50.0779 72.0744C51.0087 72.0535 52.3373 71.5382 53.2681 71.2757C54.0507 71.0551 54.7673 70.8586 55.4179 70.4335C56.3906 69.7974 55.732 68.9873 54.7448 68.7764L49.5819 68.2047C49.1922 68.1886 48.7204 68.2449 48.3403 68.1999C46.9473 68.0372 45.498 68.0259 43.9633 67.9647L41.8472 67.8375C41.0275 67.8407 40.5444 67.7151 39.6024 67.7151C39.0275 67.7151 38.9872 67.6427 38.5991 67.596L33.1222 67.3383C32.3025 67.3431 31.821 67.2111 30.8805 67.2127C28.6373 67.2143 26.307 66.9148 24.0235 67.0871C23.1072 67.1563 22.9204 67.3238 21.9042 67.0871V66.8375C22.9188 66.8375 25.9544 66.0725 26.89 65.839C27.3006 65.736 27.6823 65.686 28.1139 65.5685C30.8048 64.8358 33.4459 64.0612 36.0418 63.0257C37.8792 62.293 42.683 60.3428 43.6026 58.6181C43.7877 58.2718 43.741 57.7742 43.5172 57.4425C41.8408 54.9319 32.0996 57.4103 29.8966 58.1269C28.4054 58.6116 27.0172 59.1817 25.5582 59.7711C20.5483 61.7937 15.6415 63.9597 10.514 65.6699C9.72169 65.934 9.04533 66.1579 8.21759 66.3656C4.18841 67.3769 -0.257867 67.8633 -4.34824 68.7587C-5.11156 68.9261 -6.05364 69.2724 -6.76704 69.332L-6.77509 69.3239Z" fill="#462C1F" fill-opacity="0.25"/>
    <path fill-rule="evenodd" clip-rule="evenodd" d="M36.7343 42.6477V42.5237L36.8792 42.6267L36.7343 42.6477ZM37.4815 42.0244V42.1484L37.3365 42.0454L37.4815 42.0244ZM37.4815 42.0244C38.2367 40.8972 41.5155 39.8633 42.2192 38.5347C41.8199 38.6281 41.6395 38.7682 41.2385 38.9261C40.0001 39.4108 36.5201 41.3207 35.8405 42.3787C35.5764 42.7894 35.9242 42.5446 35.5522 42.8377C35.2463 43.0792 35.4766 42.6509 35.1126 43.1469C35.2978 43.1904 35.4025 43.2322 35.4798 43.2161C35.4975 43.2129 35.5313 43.1984 35.549 43.192C35.6795 43.142 36.0031 42.7089 36.7343 42.6477L34.9886 44.3933C35.8743 44.3192 41.2884 40.6154 42.3706 39.9326C43.2628 39.3689 43.121 39.2433 43.5156 39.0839C43.5881 39.0549 44.3627 39.0018 44.5881 38.1611C43.3062 38.4591 43.3723 38.8697 42.7957 39.1113C40.9019 39.9084 38.5959 41.7652 37.4831 42.0261L37.4815 42.0244Z" fill="#462C1F" fill-opacity="0.25"/>
    <path fill-rule="evenodd" clip-rule="evenodd" d="M89.5887 38.9067C90.2876 39.9519 94.1171 42.0744 95.597 42.9955C96.1365 43.3321 96.6325 43.5817 97.1671 43.9183C97.4667 44.1067 97.6615 44.1727 97.9836 44.3498L102.304 46.5126C102.183 46.0617 102.097 46.0987 101.734 45.8362L96.4215 42.2982C95.3039 41.6057 90.8561 39.013 89.5903 38.9083L89.5887 38.9067Z" fill="#462C1F" fill-opacity="0.25"/>
    <path fill-rule="evenodd" clip-rule="evenodd" d="M23.1458 64.3383C24.0267 63.8729 23.7481 63.5235 25.7595 63.7296C26.708 63.8262 27.4423 63.6378 28.2572 63.0919C28.196 62.5298 27.5905 62.7247 28.7129 62.1756C29.1542 61.9598 29.6196 61.8229 29.8788 61.4702C28.6823 61.4702 26.6565 62.2851 25.555 62.7569L23.2714 63.8391L23.1474 64.3383H23.1458Z" fill="#462C1F" fill-opacity="0.25"/>
    <path fill-rule="evenodd" clip-rule="evenodd" d="M22.8979 49.5032V49.6272H22.5242V49.5032H22.8979ZM24.0203 49.004C23.5565 49.1119 23.4599 49.2407 22.8979 49.2536L22.9607 48.6304C22.6386 48.8043 22.6644 48.7769 22.4502 49.0555C21.9268 49.7335 20.7576 50.3921 19.9557 50.9252C19.2165 51.4163 19.165 51.3068 19.0329 51.8721C18.3791 51.8866 18.0506 52.0959 17.9105 52.6193C18.2793 52.4421 18.45 52.5517 18.7881 52.3745C19.1344 52.1942 19.0281 52.075 19.545 51.8833C22.1088 50.9332 22.6499 50.0733 22.9494 49.9461L23.2199 49.8945C23.7868 49.6981 23.8206 49.5338 23.8947 49.252L24.3891 49.3921C24.2731 49.2117 24.4245 49.3728 24.2216 49.1763C24.2071 49.1618 24.1717 49.1312 24.1572 49.1167C24.1427 49.1022 24.104 49.07 24.0912 49.0587C24.0783 49.0475 24.0461 49.0201 24.0219 49.004H24.0203Z" fill="#462C1F" fill-opacity="0.25"/>
    <path fill-rule="evenodd" clip-rule="evenodd" d="M91.9575 38.6592C92.2474 39.0924 92.8803 39.4821 93.328 39.7816C93.5969 39.9604 93.8111 40.0683 94.1026 40.2535C95.7967 41.3276 96.5327 41.7946 98.3137 42.6481C97.9498 41.2857 93.6259 38.7977 91.9559 38.6592H91.9575Z" fill="#462C1F" fill-opacity="0.25"/>
    <path fill-rule="evenodd" clip-rule="evenodd" d="M49.6979 74.3111C49.4708 74.3111 49.685 74.3031 49.4482 74.4351C49.7027 75.3885 51.1295 76.4384 51.5385 76.833C52.4935 77.7525 53.1859 78.0794 54.31 78.6737C54.1248 77.9828 52.8172 76.87 52.2213 76.2758L51.0393 75.2146C50.6963 74.9199 50.036 74.3111 49.6979 74.3111Z" fill="#462C1F" fill-opacity="0.25"/>
    <path fill-rule="evenodd" clip-rule="evenodd" d="M121.004 37.2871C121.45 37.8958 125.925 39.2163 126.88 39.5239C127.468 39.7123 127.17 39.5465 127.859 39.532C127.194 38.6237 122.798 37.3274 121.004 37.2887V37.2871Z" fill="#462C1F" fill-opacity="0.25"/>
    <path fill-rule="evenodd" clip-rule="evenodd" d="M108.288 32.1757C108.14 31.6201 108.427 31.997 106.87 31.4752L103.63 30.4768C102.33 30.0387 102.792 30.2867 101.931 30.3061C102.374 30.91 104.28 31.3512 105.219 31.6298C105.863 31.8214 106.414 32.0066 107.042 32.1757C108.511 32.5703 107.897 32.2981 108.338 32.3931C108.873 32.5091 108.081 32.7055 109.285 32.4237L108.288 32.1741V32.1757Z" fill="#462C1F" fill-opacity="0.25"/>
    <path fill-rule="evenodd" clip-rule="evenodd" d="M28.6308 73.5625C28.9577 74.0504 29.8563 74.8106 30.3523 75.2067C31.1446 75.838 32.9467 77.0892 33.8662 77.3034C33.7293 77.0989 33.5844 76.8251 33.4024 76.6448C33.1544 76.3984 33.0562 76.4225 32.7727 76.1536C31.8484 75.2727 29.8918 73.6688 28.6308 73.5641V73.5625Z" fill="#462C1F" fill-opacity="0.25"/>
    <path fill-rule="evenodd" clip-rule="evenodd" d="M1.9548 50.5003C2.80347 49.9319 5.70539 46.9092 5.94373 46.0122C4.93079 46.5485 4.39614 47.1314 3.60544 47.9125C3.12233 48.3907 2.01922 49.7241 1.9548 50.5003Z" fill="#462C1F" fill-opacity="0.25"/>
    <path fill-rule="evenodd" clip-rule="evenodd" d="M1.45557 42.772C1.06424 43.0586 1.37344 42.8251 1.10289 43.1665C0.614947 43.7785 -0.343237 44.669 -0.865001 45.5612C-1.16936 46.0813 -1.07435 46.4453 -1.28531 46.8849C-0.852116 46.7689 -1.03892 46.7931 -0.805418 46.492L0.365334 45.0442C0.563412 44.8139 0.558577 44.7721 0.743771 44.5498L1.51032 43.5723C1.80985 43.1826 1.7873 43.4193 1.83078 42.896C1.60694 42.8364 1.60855 42.8766 1.45717 42.772H1.45557Z" fill="#462C1F" fill-opacity="0.25"/>
    <path fill-rule="evenodd" clip-rule="evenodd" d="M27.634 46.6369C28.0543 46.5387 28.2765 46.3439 28.6276 46.1345C28.9545 45.9396 29.3088 45.7561 29.6534 45.5403C30.064 45.2842 31.4055 44.566 31.6229 44.2681C30.1993 44.3003 28.3232 45.3341 27.634 46.6369Z" fill="#462C1F" fill-opacity="0.25"/>
    <path fill-rule="evenodd" clip-rule="evenodd" d="M10.5559 80.917C10.7733 81.5177 10.332 81.0265 11.3417 81.3776C13.3257 82.0652 13.5931 82.6788 13.796 81.9154C12.6494 81.8897 14.081 81.967 12.3402 81.2519C11.6413 80.9653 11.0422 81.1505 10.5559 80.917Z" fill="#462C1F" fill-opacity="0.25"/>
    <path fill-rule="evenodd" clip-rule="evenodd" d="M3.82444 50.0026C5.03545 49.6789 5.40745 48.3455 5.5701 48.0073C4.92272 48.1796 4.19644 49.4486 3.82444 50.0026Z" fill="#462C1F" fill-opacity="0.25"/>
    <path fill-rule="evenodd" clip-rule="evenodd" d="M2.95161 40.902C3.98387 40.6621 4.62319 39.7844 4.69727 38.9067C4.30916 39.1676 4.14169 39.5332 3.79384 39.873C3.46371 40.1967 3.19639 40.5348 2.95161 40.9004V40.902Z" fill="#462C1F" fill-opacity="0.25"/>
    <path fill-rule="evenodd" clip-rule="evenodd" d="M18.4097 69.5737C18.6368 69.5206 19.785 69.3048 20.0056 69.3402C20.8317 69.4739 20.8108 70.2114 21.2778 69.5737C20.7979 69.4449 21.0717 69.4223 20.6063 69.2484C19.8478 68.965 18.9089 68.8313 18.4113 69.5737H18.4097Z" fill="#462C1F" fill-opacity="0.25"/>
    <path fill-rule="evenodd" clip-rule="evenodd" d="M6.31731 47.0103C6.64744 47.0972 6.42038 47.0006 6.69092 47.1343C6.88417 46.9926 7.6958 46.2405 7.28033 46.065C7.0436 45.9651 6.43165 46.5803 6.31731 47.0103Z" fill="#462C1F" fill-opacity="0.25"/>
    <path fill-rule="evenodd" clip-rule="evenodd" d="M6.19334 45.2647C6.19334 45.7413 6.15468 45.3098 6.31733 45.6383C6.50413 45.5143 7.12413 45.065 7.01302 44.7993C6.80044 44.2952 6.19334 45.2534 6.19334 45.2631V45.2647Z" fill="#462C1F" fill-opacity="0.25"/>
    <path fill-rule="evenodd" clip-rule="evenodd" d="M30.3765 46.1377L30.5005 46.6369C30.5005 46.3599 30.486 46.4888 30.5729 46.3342C30.5842 46.3148 30.61 46.2762 30.6229 46.2585L30.3765 46.1377Z" fill="#462C1F" fill-opacity="0.25"/>
    <path fill-rule="evenodd" clip-rule="evenodd" d="M21.7754 64.588C22.4276 64.5316 22.0009 64.7072 22.149 64.3384C22.1216 64.3529 22.1071 64.3706 22.0653 64.3786L21.7754 64.588Z" fill="#462C1F" fill-opacity="0.25"/>
    <path fill-rule="evenodd" clip-rule="evenodd" d="M31.9965 45.3902C31.9547 45.3951 31.9692 45.5271 31.9724 45.5384C31.9836 45.569 31.6841 45.7542 32.0062 45.5931C32.0126 45.5899 32.2365 45.3612 31.9965 45.3902Z" fill="#462C1F" fill-opacity="0.25"/>
    <path fill-rule="evenodd" clip-rule="evenodd" d="M44.5881 38.1596H44.7121L44.609 38.0146L44.5881 38.1596Z" fill="#462C1F" fill-opacity="0.25"/>
    <path fill-rule="evenodd" clip-rule="evenodd" d="M29.8773 61.4701H30.0029L29.8982 61.3252L29.8773 61.4701Z" fill="#462C1F" fill-opacity="0.25"/>
    <path fill-rule="evenodd" clip-rule="evenodd" d="M23.1458 64.3384H23.0219L23.1249 64.4833L23.1458 64.3384Z" fill="#462C1F" fill-opacity="0.25"/>
  </g>
  <defs>
    <clipPath id="clip0_82_1094">
      <rect width="100" height="189.313" fill="white" transform="matrix(0 1 -1 0 141.313 0)"/>
    </clipPath>
  </defs>
</svg>