<?xml version="1.0" encoding="UTF-8"?>
<!DOCTYPE svg PUBLIC "-//W3C//DTD SVG 1.1//EN" "http://www.w3.org/Graphics/SVG/1.1/DTD/svg11.dtd">
<!-- Creator: CorelDRAW 2021.5 -->
<svg xmlns="http://www.w3.org/2000/svg" xml:space="preserve" width="50px" height="28.766px;" version="1.1" style="shape-rendering:geometricPrecision; text-rendering:geometricPrecision; image-rendering:optimizeQuality; fill-rule:evenodd; clip-rule:evenodd"
viewBox="0 0 1960.94 1128.12"
 xmlns:xlink="http://www.w3.org/1999/xlink"
 xmlns:xodm="http://www.corel.com/coreldraw/odm/2003">
 <defs>
  <style type="text/css">
   <![CDATA[
    .fil0 {fill:#A3382DBF}
   ]]>
  </style>
 </defs>
 <g id="Camada_x0020_1">
  <metadata id="CorelCorpID_0Corel-Layer"/>
  <g id="_3135587654752">
   <path class="fil0" d="M1922.86 1057.17l-1.31 0 1.09 -1.53 0.22 1.53zm-763 -304.68l6.76 2.04c-6.03,1.95 -4.07,3.05 -6.76,-2.04zm-42.02 -18.39c1.76,-1.33 -2.76,-1.31 3.94,-1.31l0 1.31 -3.94 0zm110.31 -9.19l0.39 0.39c-0.03,-0.03 -0.52,-0.26 -0.39,-0.39zm-24.95 -5.25l0.39 0.39c-0.03,-0.03 -0.52,-0.26 -0.39,-0.39zm-2.63 -1.31c0.13,-0.13 0.39,0.21 0.39,0.39l-0.39 -0.39zm30.2 -1.31l1.31 0 -1.09 1.53 -0.22 -1.53zm-42.02 2.63l6.82 7.63c-4.98,-0.86 -9.6,-2.35 -13.64,-3.45 -6.18,-1.68 -7.89,-2.62 -12.89,-1.56 0.24,10.95 5.27,5.31 10.51,13.13 -12.25,-0.27 -19.58,-5.36 -27.58,0 1.81,6.78 6.31,5.55 10.51,11.82 -4.01,-0.93 -7.92,-2.86 -12.65,-4.42 -5.29,-1.76 -8.33,-3.54 -13.62,-4.77 -2.9,2.02 -1.63,0.21 -2.63,3.94l-2.63 0c-0.26,-11.65 -2.87,-3.68 -7.88,-10.51 5.5,-0.12 12.47,-2.79 18.12,-4.2l37.52 -9.76c5.57,-1.66 13.13,-4.29 19.21,-4.43l1.47 5.2c-5.18,-2.36 -7.81,-3.92 -10.67,1.36zm68.29 -9.19l2.82 0.72 -2.82 -0.72zm-26.27 6.57c-9.28,-0.21 -17.93,-5.25 -27.58,-5.25l0 -1.31c14.1,0 7.61,-8.28 24.7,4.2 0.22,0.16 0.55,0.39 0.76,0.55 2.87,2.2 0.46,0.37 2.12,1.82zm35.46 -7.88l0.39 0.39c-0.03,-0.03 -0.52,-0.26 -0.39,-0.39zm36.77 -5.25l1.31 0 -1.09 1.53 -0.22 -1.53zm-15.76 1.31l-1.31 0 1.09 -1.53 0.22 1.53zm-30.2 5.25c-5.8,-0.13 -7.7,-1.65 -12.64,-3.12 -4.44,-1.32 -8.4,-2.53 -12.31,-3.45 0.97,-0.67 0.59,-0.73 2.46,-1.49 0.62,-0.25 2.68,-0.84 3.01,-0.93 2.81,-0.77 3.83,-0.94 6.36,-1.52 3.96,2.65 10.62,6.76 13.13,10.51zm-139.21 23.64c-2.41,3.6 -4.78,6.42 -2.15,11.24 7.42,13.61 25.5,1.24 37.54,11.16 0.18,0.15 0.55,0.5 0.69,0.62 0.14,0.12 0.46,0.42 0.69,0.62 -11.55,0 -51.04,10.41 -95.87,10.51 -12.8,0.03 -21.58,-2.63 -32.83,-2.63 -1.61,6.92 -1.76,6.19 3.31,8.49 4.18,1.9 6.97,2.75 11.9,3.87 9.09,2.07 16.22,3.44 26.81,3.4 42.01,-0.17 116.98,-15.48 160.22,-22.33 135.63,-21.46 280.56,-46.54 415.76,-70.15 35.37,-6.18 68.94,-12.37 104.15,-17.98l77.08 -13.54c8.87,-1.55 18.66,-4.03 26.81,-4.7 0.12,5.42 0.26,5.57 3.65,8.17 24.68,18.95 13.84,7.81 39.37,32.86 3.14,3.08 4.41,3.2 5.58,7.56l-96.4 9.98c-4.27,0.74 -11.99,1.37 -15.34,1.73l-32.62 2.84c-3.72,0.41 -11.85,1.2 -16.39,1.99l-129.59 13.55c-13.27,1.46 -35.43,2.41 -47.96,4.57 -18.17,3.14 -32.9,2.66 -48.82,5.02l-193.45 20.61c-15.83,1.74 -31.57,2.04 -47.7,4.83l-104.54 11.02c-3.56,0.25 -4.96,-0.1 -8.65,0.54l-144.69 16.84c-3.57,0.52 -12.06,2.04 -16.07,2.32l-48.56 3.97c-7.99,-0.05 -11.2,0.86 -17.08,1.3 -12.38,0.94 -58.13,0.04 -69.61,-2.63 1.07,-0.68 0.57,-0.62 2.62,-1.32l12.86 -2.9c34.23,-8.35 79.44,-18.28 112.39,-28.13 16.52,-4.94 119.81,-33.16 126.9,-33.32zm144.46 -39.4c3.51,0 3.88,1.9 5.25,3.94 -3.09,-0.72 -3.88,-1.22 -7.88,-1.31 0.66,-1.17 0.85,-2.63 2.63,-2.63zm40.71 9.19c-6.37,-1.48 -8.5,-3.02 -13.98,-5.72 -5.58,-2.75 -10.33,-2.95 -13.6,-7.41l10.47 -1.54c4.14,2.97 14.59,10.91 17.11,14.67zm11.82 -23.64c6.44,4.31 14.12,9.39 18.39,15.76 -11.87,-2.77 -22.9,-7.89 -34.14,-10.51l1.7 -0.93c4.98,-1.86 8.37,-1.59 14.06,-4.32zm89.3 1.31l1.31 0 -1.09 1.53 -0.22 -1.53zm-17.07 1.31l-1.31 0 1.09 -1.53 0.22 1.53zm-43.34 -1.31l1.31 0 -1.09 1.53 -0.22 -1.53zm91.93 -1.31l1.31 0 -1.09 1.53 -0.22 -1.53zm-76.17 1.31l-2.63 -1.31 2.63 1.31zm10.51 -2.63l1.31 0 -1.09 1.53 -0.22 -1.53zm-13.13 1.31l-1.31 0 1.09 -1.53 0.22 1.53zm-13.13 1.31c-6.43,-0.54 -10.19,-3.94 -15.76,-3.94l0 -1.31c4.86,0 3.41,0.2 6.57,-1.31l9.19 6.57zm119.51 -9.19l0.39 0.39c-0.03,-0.03 -0.52,-0.26 -0.39,-0.39zm-24.95 1.31l-1.31 0 1.09 -1.53 0.22 1.53zm-30.2 0l-1.31 0 1.09 -1.53 0.22 1.53zm52.53 -2.63l1.31 0 -1.09 1.53 -0.22 -1.53zm-90.61 7.88c-6.57,-1.53 -16.08,-6.57 -22.33,-6.57l0 -1.31c3.64,0 11.86,-2.7 14.45,-3.94 0.22,9.9 3.29,4.96 7.88,11.82zm116.88 -11.82l1.31 0 -1.09 1.53 -0.22 -1.53zm39.4 -1.31l0.39 0.39c-0.03,-0.03 -0.52,-0.26 -0.39,-0.39zm-122.13 15.76c-4.72,-0.39 -14.29,-5.29 -18.81,-7.45 -3.45,-1.65 -5.7,-2.3 -9.21,-3.92l-8.75 -4.39c5.66,-1.32 13.73,-3.02 18.39,-5.25 2.45,10.53 13.14,13.18 18.39,21.01zm118.19 -17.07l2.82 0.72 -2.82 -0.72zm-61.72 -1.31l-1.31 0 1.09 -1.53 0.22 1.53zm153.65 -5.25l0.39 0.39c-0.03,-0.03 -0.52,-0.26 -0.39,-0.39zm-2.63 -1.31l1.31 0 -1.09 1.53 -0.22 -1.53zm-126.07 -1.31l-1.31 0 1.09 -1.53 0.22 1.53zm34.15 -3.94l-1.31 0 1.09 -1.53 0.22 1.53zm-3.94 -2.63l0.39 0.39c-0.03,-0.03 -0.52,-0.26 -0.39,-0.39zm118.19 26.27c-4.11,2.61 -104.82,18.43 -116.98,20.91 -9.39,1.91 -20.23,3.53 -29.12,5.02l-297.64 50.4c-7.03,1.22 -6.69,1.86 -12.51,-2.23 -3.79,-2.66 -7.52,-4.82 -9.94,-8.44 10.46,0 16.37,1.31 27.58,1.31l0 -5.25c4,0.93 7.93,2.86 12.64,4.43 6.41,2.14 6.76,3.31 12.31,2.13 -0.24,-10.72 -4.49,-4.65 -15.76,-14.45 15.64,1.3 20.76,10.27 30.2,3.94 -1.28,-4.8 -1.39,-2.75 -3.94,-6.57 9.98,2.33 29.25,11.64 24.25,0.92 -1.23,-2.65 -17.73,-13.29 -21.63,-16.68 9.01,0 17.5,3.89 23.83,6.37 9.68,3.81 15.34,8.07 23.45,8.07 1.03,-4.85 1.15,-4.45 -3.68,-8.13 -3.43,-2.61 -5.68,-2.95 -8.14,-6.31 7.94,1.85 25.51,10.12 25.55,10.12 7.23,1.84 7.52,-3.37 3.09,-7.21 -3.37,-2.92 -7.67,-4.64 -10.25,-8.17 8.15,0.68 34.15,15.32 37.96,14.32 9.74,-2.55 -9.33,-14.27 -14.64,-19.25 -2.87,-2.69 -5.48,-3.78 -7.56,-6.89 16.77,0.37 34.77,14.45 48.59,14.45 2.22,-10.49 -9.23,-7.98 -17.07,-19.7l22.85 8.66c3.31,1.35 38.47,19.13 30.12,5.56 -0.42,-0.69 -7.71,-5.95 -9.09,-6.88l-18.93 -13.9c4.73,0.39 16.92,7.51 21.27,10.24l20.75 12.08 2.82 -3.78c-2.06,-7.09 -13.05,-10.95 -17.26,-17.23 7.38,1.72 15.54,5.71 22.75,8.77l22.5 10.55c4.1,1.05 11.83,-0.6 -0.81,-9.91 -1.7,-1.26 -3.66,-2.64 -5.27,-3.92l-18.16 -14.68c11.65,0.97 43.5,24.33 48.13,21.86 8.84,-4.71 -12.63,-14.64 -17.92,-21.86 4.42,0.37 32.71,13.17 40.25,15.12 4.02,1.04 7.43,-0.05 5.31,-5.31l-23.23 -20.32c16.44,1.37 46.02,27.2 46.02,14.51 0,-3.61 -0.67,-2.47 -2.58,-4.07 -0.36,-0.3 -1.54,-0.93 -2.38,-1.6 -0.16,-0.13 -1.82,-1.72 -2.02,-1.92 -4.78,-4.68 -10.59,-9.56 -14.1,-14.79 4.05,0.94 3.86,1.48 7.46,3.04l39.39 18.39c11.61,4.93 10.37,6.06 16.18,4.83 -0.15,-6.6 -3.83,-8.83 -12.89,-16l-16 -14.21c6.89,0.57 51.42,22.64 66.98,26.27l2.36 -2.89c-1.26,-6.28 -5.52,-9.56 -8.93,-14.19 -4.15,-5.63 -3.99,-3.4 -10.51,-13.13l47.29 21c5.01,2.51 10.13,6.42 17.06,6.58zm-64.35 -27.58l-1.31 0 1.09 -1.53 0.22 1.53zm-109 23.64c-4.93,-0.41 -14.34,-4.97 -19.3,-6.97l-19.71 -8.02c-5.97,-2 -11.99,1.16 0.4,10.26 4.35,3.19 10.91,9.81 13.66,13.92 -14.35,-3.34 -33.9,-17.81 -42.02,-19.7l0 -2.63c5.55,-0.12 42.16,-11.26 50.69,-13.67 5.29,-1.49 12.52,-4.3 17.6,-4.72 0.46,5.54 1.73,5.41 5.25,7.89l19.71 19.69c-5.73,-0.48 -16.99,-6.85 -23.46,-9.37l-17.25 -7.71c-2.87,-1.31 -2.89,-1.76 -6.58,-2.62l-2.82 3.78c6.06,8.81 19.01,12.66 23.83,19.86zm148.4 -28.89l-1.31 0 1.09 -1.53 0.22 1.53zm26.27 -1.31l-2.63 -1.31 2.63 1.31zm-2.63 -1.31l-1.31 0 1.09 -1.53 0.22 1.53zm-110.31 24.95l-54.45 -26.98c-0.15,-0.11 -0.47,-0.4 -0.71,-0.6 15.24,-0.34 13.76,-8.67 22.65,-0.32 5.92,5.56 29.75,23.77 32.51,27.9zm89.3 -31.52l1.31 0 -1.09 1.53 -0.22 -1.53zm73.54 -5.25l1.31 0 -1.09 1.53 -0.22 -1.53zm28.89 -5.25l1.31 0 -1.09 1.53 -0.22 -1.53zm0 0l-1.31 -1.31 1.31 1.31zm-22.33 0l-1.31 0 1.09 -1.53 0.22 1.53zm-40.71 0l-1.31 0 1.09 -1.53 0.22 1.53zm-39.4 10.51c-5.73,-0.48 -29.4,-10.59 -38.92,-12.51 -7.72,-1.55 -7.86,4.43 -2.32,7.77 8.68,5.25 35.79,20.93 41.24,28.37 -4.17,-0.97 -4.5,-1.81 -8.41,-3.41 -4.21,-1.72 -5.27,-2.09 -9.11,-4.02 -3.4,-1.72 -5.71,-2.88 -8.74,-4.4 -3.16,-1.58 -5.99,-2.48 -9.21,-3.92l-26.68 -12.72c-2.74,-1.3 -15.64,-7.44 -17.84,-6.87 -11.87,3.11 12.85,14.1 23.19,23.84 5.58,5.25 7.44,4.71 13.46,12.81 2.68,3.61 4.06,3.42 5.25,7.88 -6.32,-3.35 -14.27,-4.39 -21.44,-7.45 -12.29,-5.24 -26.19,-14.09 -38.78,-19 -4.53,-1.77 -15.9,-6.68 -18.57,-10.32 4.1,-0.09 79.01,-21.27 86.68,-24.95 0.09,0.16 0.2,0.27 0.22,0.51 0.02,0.25 0.17,0.47 0.2,0.55 1.79,5.98 1.24,3.27 8.45,9.78 2.4,2.17 2.32,1.66 4.5,3.38 1.86,1.47 2.11,2.03 4.24,3.64l12.6 11.04zm93.24 -31.52l-1.31 -1.31 1.31 1.31zm-1.31 -1.31l-1.31 -1.31 1.31 1.31zm-1.31 -1.31l-1.31 0 1.09 -1.53 0.22 1.53zm-17.07 28.89c-6.66,-0.56 -29.14,-12.52 -35.48,-15.74l-25.78 -13.65c-5.04,-2.57 -4.36,-2.05 -9.66,-0.82 0.6,7.25 6.72,9.64 16.73,18.73l18.97 16.49c3.9,3.05 8.96,8.14 11.58,12.06 -4.61,-1.07 -4.91,-2.25 -8.74,-4.39 -3.5,-1.96 -6.49,-3 -9.62,-4.83 -2.79,-1.63 -5.89,-3.59 -8.95,-5.5l-26.49 -15.54c-4.27,-2.53 -13.89,-9.25 -18.43,-10.46l23.83 -9.01c4.27,-1.34 6.21,-1.97 11.1,-3.34 14.06,-3.93 9.49,-5.69 18.39,1.05 2.64,2 3.2,3.11 5.54,4.97l36.29 29.37c0.14,0.12 0.48,0.39 0.71,0.6zm65.66 -40.71l-1.31 -1.31 1.31 1.31zm-1.31 -1.31l-1.31 0 1.09 -1.53 0.22 1.53zm-49.9 -1.31l1.31 0 -1.09 1.53 -0.22 -1.53zm13.13 36.77c-4.55,-1.06 -34.45,-18.17 -41.16,-21.88 -3.52,-1.95 -4.43,-2.78 -8.31,-4.82 -3.64,-1.92 -4.82,-3.11 -8.29,-4.84 -3.96,-1.98 -5.34,-1.74 -7.9,-5.23 3.67,-0.31 19.45,-5.19 22.33,-6.57 5.91,8.83 35.37,31.44 43.34,43.34zm52.53 -38.08l1.31 0 -1.09 1.53 -0.22 -1.53zm-31.52 0l1.31 0 -1.09 1.53 -0.22 -1.53zm31.52 0l-1.31 -1.31 1.31 1.31zm38.08 -1.31l-1.31 -1.31 1.31 1.31zm-39.4 0l-1.31 -1.31 1.31 1.31zm38.08 -1.31l-1.31 0 1.09 -1.53 0.22 1.53zm-99.81 -2.63l-1.31 0 1.09 -1.53 0.22 1.53zm-2.63 6.57c-5.62,-1.31 -15.37,-6 -18.39,-10.51 4.07,-0.35 2.48,0.02 5.25,-1.31 4.85,3.24 9.85,6.92 13.13,11.82zm103.75 -2.63c4.95,1.32 21.1,13.44 26.28,17.06 6.67,4.66 36.84,31.82 40.69,32.85l0 2.63c-8.54,0 -106.77,18.54 -117.41,20.48 -20.65,3.78 -38.7,6.47 -59.35,10.25 -10.02,1.83 -18.81,3.34 -28.86,5.29l-30.77 4.69 2.82 -3.78c-0.39,-0.39 -0.7,-1.08 -0.79,-0.87l-20.07 -20.64c-2.88,-2.38 -4.98,-4.66 -6.91,-7.54 7.88,1.84 13.3,6.47 20.13,10.07 13.77,7.25 27.62,20.43 29.73,12.05 1.15,-4.57 -0.65,-2.91 -6.84,-8.67l-8.64 -7.12c-4.12,-3.24 -5.07,-3.11 -8.11,-7.65l36.51 18.65c2.63,1.66 10.62,7.46 12.96,3.18 2.45,-4.49 -4.25,-8.38 -6.37,-11.08l-8.63 -9.76c-5.41,-5.4 -14.92,-13.72 -18.71,-19.37 10.79,2.51 67.84,36.52 72.56,31.79 4,-4 -6.19,-10.06 -8.45,-11.85 -3.8,-3 -7.41,-6.55 -11.35,-9.66 -3.06,-2.41 -10.14,-7.68 -12.05,-10.28 4.86,1.13 49.32,26.22 55.16,27.58l2.82 -3.78c-1.83,-6.09 -14.32,-14.94 -22.19,-22.81l-16.43 -16.41c-3.77,-3.13 -3.24,-1.14 -6.22,-5.6 8.49,2.27 52.08,38.84 59.1,40.71l4.22 -3.66c-6.82,-9.96 -24.68,-23.96 -32.12,-31.47 -7.6,-7.67 -11.97,-9.81 -17.08,-14.44l-16.74 -14.78c16.49,3.84 57.91,31.15 70.61,43.64 2.44,2.4 3.73,5.5 8.19,5.07 15.35,-1.48 -19.52,-23.55 -30.21,-39.51 4.07,1.09 13.24,7.95 17.07,10.51l34.15 23.64c5.04,3.73 13.98,12.25 17.88,10.09 6.95,-3.86 -6.38,-13.68 -8.36,-15.66 -11.8,-11.8 -36.53,-32.36 -43.66,-43.01 10.56,2.82 45.53,35.66 54.17,44.33 1.95,1.96 10.42,12.32 13.66,6.42 2.83,-5.15 -6.64,-12.56 -9.07,-14.96 -2.94,-2.91 -2.92,-2.96 -5.45,-6.37 -4.37,-5.88 -10.97,-9.93 -17.86,-20.23zm-35.46 -9.19l-1.31 -1.31 1.31 1.31zm-1.31 -1.31l-1.31 0 1.09 -1.53 0.22 1.53zm-32.83 11.82c-3.35,-0.9 -10.82,-5.4 -14.89,-7.44 -6.87,-3.44 -13.1,-5.3 -15.31,-8.32 5.6,-0.47 6.22,-2.16 11.82,-2.63l18.39 18.39zm28.89 -2.63l-32.83 -21.01c3.61,-0.84 6.9,-1.79 10.51,-2.63l22.33 23.64zm-1746.64 -65.66c0,-48.51 4.45,-90.14 31.78,-131.06 5.65,-8.47 8.72,-12.53 15.82,-19.64 16.09,-16.09 32.86,-27.23 56.24,-31.75 11.17,-2.16 6.65,-1.07 13.04,-5.35 6.25,9.33 109.37,83.73 125.72,96.22l39.53 28.76c1.67,1.26 2.81,1.89 4.71,3.17l25.36 17.97c32.25,24.82 94.73,65.57 131.7,91.55l266.15 179.05 48.59 28.9c1.36,0.75 1.52,0.66 2.63,1.31l3.05 2.2c-26.39,0 -44.36,22.37 -60.08,39.73 -35.07,38.75 -59.43,113.07 -59.43,163.82 0,50.14 18.88,74.91 21.01,84.05l-226.14 -152.08c-7.97,-5.31 -14.74,-9.83 -22.85,-15.23l-45.44 -30.73c-8.05,-5.37 -14.44,-10.07 -22.59,-15.5l-177.72 -125.64c-25.76,-19.68 -79.08,-56.76 -97.85,-72.87l-30.21 -27.57c-28.22,-28.22 -43.01,-66.93 -43.01,-109.33zm1906.86 542.38c22.08,11.68 34.66,31.85 4.88,44.27 -13.6,5.67 -37.52,3.06 -53.48,2.99 -6.95,-0.03 -8.02,0.95 -13.11,1.33l-152.34 2.62c-10.42,-0.04 -16.37,1.32 -27.58,1.32 -74.92,-0.03 -148.41,2.63 -223.25,2.63 -75.29,0 -150.59,0 -225.88,0 -36.73,0 -76.68,1.52 -112.99,0.05l-111.63 -1.31c-6.43,-0.1 -5.91,-1.18 -11.72,-1.41l-43.39 0.05c-20.12,0 -35.64,-1.31 -55.16,-1.31 -27.55,0 -89.89,3.27 -110.08,-2.86 -3.01,-0.92 -5.8,-2.31 -8.9,-4.23 -26.67,-16.49 -21.09,12.29 -62.24,-17.86 -4.05,-2.97 -3.92,-3.09 -7.09,-7.35 -2.39,-3.21 -3.88,-3.94 -6.07,-7.07 -2.03,-2.9 -3.52,-5.34 -5.76,-8.69 -2.47,-3.69 -2.98,-5.49 -5.25,-9.2 -18.59,-30.28 -18.78,-73.62 -13.61,-107.91 5.17,-34.31 20.36,-72.14 38.55,-101.97 4.21,-6.9 6.78,-11.03 11.57,-17.32 35.18,-46.19 56.94,-33.25 74.33,-37.3 1.67,-3.49 1.2,-1.41 1.31,-6.57 10.42,-2.43 19.85,-8.43 30.02,-12 90.79,-31.91 145.04,-42.6 236.57,-65.48l544.84 -143.31c44.51,-13.67 89.72,-24.15 134.6,-37.43 22.73,-6.73 44.1,-12.28 66.32,-19.04 10.99,-3.34 21.96,-6.24 33.78,-9.55 5.63,-1.58 10.57,-3.21 16.12,-4.89 5.17,-1.57 11.98,-3.86 17.24,-5.09 -0.45,19.99 -41.34,30.04 -56.74,33.87l-57.36 17.49c-3.72,1.21 -7.64,2.69 -11.78,3.98 -3.49,1.09 -7.11,1.87 -11.18,3.27 -4.62,1.59 -9.76,1.37 -12.94,2.82 -18.97,8.68 -19.2,4.37 -23.35,5.54 -4.9,3.59 -0.23,2.93 -6.76,5.06l-203.53 60.43c-6.78,2.06 -12.34,3.8 -19.28,5.68l-98.22 27.86c-7.04,1.99 -12.16,3.72 -19.45,5.51l-78.1 21.71c-37.57,11.54 -82.06,22.19 -119.92,32.42 -66.7,18.02 -134.08,33.57 -200.67,50.16 -13.91,3.46 -27.28,6.12 -41.51,9.71l-99.02 25.74c-9.09,2.41 -29.7,11.65 -37.88,9.03 -7.7,-2.47 -13.41,0.97 -19.15,4.86 -7.35,4.97 -19.02,18.2 -24.63,25.27 -1.73,2.18 -3.08,4.77 -4.79,7.03 -46.49,61.28 -43.91,160.61 0.54,220.96 7.95,10.8 17.67,21.35 30.76,12.58 2.21,9.48 11.76,12.74 21.98,14.79 5.05,1.01 10.83,0.55 16.94,1.55l206.66 -0.59c8.09,-0.04 10.3,1.27 17.01,1.37 6.51,0.1 13.21,-0.05 19.75,-0.05 251.71,0 503.42,0 755.13,0 23.71,0 51.84,1.88 72.81,-2.05 15.72,-2.95 42.58,-14.12 44.08,-32.09zm-1786.04 -739.37c-6.66,-0.55 -2.63,-1.57 -6.85,-2.35 -10.35,-1.89 -44.2,11.41 -51.73,16 -78.64,47.98 -92.67,162.04 -65.62,243.19 6.89,20.66 17.37,38.95 30.72,55.96 6.83,8.7 18.84,19.35 27.58,26.26l384.24 273.71c5,3.34 8.39,5.59 13.39,8.93 9.17,6.12 16.83,11.22 26,17.34l90.61 60.41c4.95,3.33 8.82,5.43 13.66,8.67l66.19 41.5c11.09,6.86 31.77,17.11 40.78,24.88 22.94,19.81 37.18,22.04 62.71,16.09 6.04,4.05 10.73,8.21 18.18,10.71 22.57,7.57 46.04,1.66 63.29,2.37 6.09,0.25 9.02,1.4 17.02,1.36 79.04,-0.31 159.64,3.94 239.02,3.94l128.71 -0.01c8.45,-0.05 10.8,1.34 18.34,1.36l130.08 0c7.54,-0.01 9.89,-1.4 18.34,-1.36 49.45,0.27 98.95,-0.1 148.41,0.01 12.36,0.03 21.86,-1.31 35.46,-1.31 61.49,0 122.26,-2.63 183.86,-2.63l35.46 -1.32c12.31,0.05 25.98,0.54 38.13,0.05l35.41 -1.36c17.27,0 55.81,0.62 68.28,-6.57 9.17,-5.29 14.45,-15.24 14.45,-27.57 0,-17.11 -31.79,-45.96 -40.71,-45.96 -8,0 -6.16,7.94 -5.25,11.82 -12.5,2.91 -11.09,22.23 -49.94,23.61 -6.02,0.21 -9.08,1.38 -17.04,1.35 -311.68,-1.24 -623.38,1.67 -935.05,-0.01 -8.45,-0.05 -10.8,1.34 -18.34,1.35 -11.72,0.02 -25.05,-1.22 -36.02,0.75 -8.34,1.5 -25.81,-0.84 -36.25,-0.78 -46.17,0.25 -45.46,-14.27 -48.22,-16.13 -2.36,-1.59 -6.06,-0.95 -9.55,-0.95 -4.62,-6.89 -6.01,-6.75 -9.03,-15.92 -18.82,-57.22 -8.47,-132.69 11.25,-186.73 4.11,-11.27 13.93,-33.31 16.17,-42.93 7.2,0 7.24,1.52 11.82,3.94 2.88,-4.3 2.61,-2.33 1.31,-7.88 3.48,-0.29 8.32,-1.37 12.37,-2.08 12.58,-2.2 25.84,-6.03 38.85,-7.11 1.8,6.73 6.23,5.32 14.11,6.9l27.87 3.65c40.62,1.47 73.15,0.73 114.42,-3.87l71.81 -8.3c26.43,-3.91 53.55,-4.73 79.39,-8.6 12.03,-1.8 24.41,-1.52 37.01,-3.7l73.03 -7.08c4.69,-0.2 4.16,-0.63 6.84,-1.04 3.17,-0.47 5.75,-0.06 8.8,-0.4l65.66 -6.57c4.26,-0.47 1.48,-0.83 6.69,-1.19 6.17,-0.44 9.46,-1.13 14.42,-1.34 28.07,-1.18 73.52,-8.44 102.46,-10.48l73.24 -6.87c29.15,-4.34 58.9,-5.76 88.16,-9.02 26.98,-3.01 59.86,-8.22 86.79,-9.08 17.92,-0.57 58.03,-6.33 80.1,-7.89l51.22 -5.25c22.62,-1.6 13.05,-2.78 33.08,12.9 3.37,2.64 13.64,12.97 16.31,16.53 9.43,12.61 18.05,24.84 25.48,38.87 -15.82,0 -48.97,1.85 -62.75,-0.29 -9.05,-1.41 -45.39,-1.08 -62.01,-2.34 -9.38,-0.71 -21.83,0.05 -31.56,0.04l-30.17 -1.35c-30.01,0.07 -62.16,-4.06 -91.93,-3.94 -5.07,0.02 -10.82,0.25 -15.81,0.05l-30.19 -1.33c-7.2,-0.01 -7.72,-1.3 -14.36,-1.4 -11.98,-0.19 -21.34,0.05 -31.67,-1.16 -9.4,-1.1 -21.74,0.64 -31.42,-0.1l-61.72 -2.63c-10.94,0.04 -21.89,0 -32.83,0 -2.28,10.78 9.48,7.9 22.21,9.31 9.03,1 21.17,3.08 30.35,3.79l47.24 3.97c5.2,0.36 2.68,0.93 7.88,1.31l40.7 2.63c12.59,-0.12 33.59,2.68 49.93,2.6 7.71,-0.04 9.02,1.28 15.69,1.38 5.67,0.09 11.5,-0.19 17.18,-0.1 6.71,0.1 8.92,1.42 17.01,1.37 23.77,-0.13 43.85,1.33 68.3,1.31 12.26,-0.01 19.97,1.31 32.83,1.31l86.69 -0.02c7.99,-0.04 9.54,1.35 17.02,1.37l51.32 0.03c5.46,-0.16 7.47,-1.44 10.57,-5.19l1.18 -1.44c-4.04,-17.32 -19.09,-42.61 -31.2,-55.48 -3.32,-3.53 -4.16,-5.53 -7.87,-9.2l-18 -16.15c-0.14,-0.12 -0.48,-0.39 -0.71,-0.6 5.76,-0.13 31.34,-2.24 35.12,-5.59l2.96 -3.61c-1.5,-6.44 -1.17,-5.09 -4.69,-9.75 -24.15,-31.95 -49.97,-46.88 -51.78,-49.34 4.65,-1.08 27.58,-2.26 27.58,-10.51 0,-6.4 -17.18,-20.56 -21.98,-25.3 -16.1,-15.91 -49.73,-40.16 -69.15,-51.68 -6.89,-4.09 -11.94,-3.8 -13.93,4.75 -2.61,-1.75 -15.31,-15.18 -11.82,1.31 -5.17,-3.46 -17.95,-12.93 -23.64,-14.45l0 -2.63c6.99,-0.58 13.89,-3.67 20.76,-5.51 3.08,-0.82 6.24,-1.97 9.93,-3.2l49.91 -15.75c12.87,-4.29 26.21,-8.58 38.04,-14.49 24.36,-12.14 30.3,-40.41 13.99,-49.04 -6.36,3.36 -6.42,5.05 -13.91,7.1l-51.27 14.4c-56.66,16.77 -113.66,30.86 -170.38,47.62l-68.87 19.12c-10.74,2.9 -22.14,6.17 -33.86,9.48 -57.59,16.27 -114.37,32.48 -172.3,47.02 -11.31,2.84 -23.41,5.87 -35.24,9.41 -5.96,1.78 -10.77,2.5 -16.73,4.28 -6.33,1.89 -11.15,3.08 -17.64,4.69l-277.88 71.44c-86.35,21.83 -153.62,31.94 -233.24,74.07 -2.53,-9.46 -47.69,-36.3 -58.85,-43.58 -3.79,-2.47 -6.21,-4.39 -10.32,-6.75 -4.3,-2.47 -6.3,-4.15 -10.51,-6.57 -41.33,-23.76 -86.41,-53.39 -126.24,-79.94l-305.72 -210.39c-2.17,-1.58 -2.44,-2.02 -4.45,-3.43l-115.81 -82.5c-5.25,-3.96 -17.68,-9.24 -19.48,-15.98 12.61,-0.28 44.74,-11.64 57.61,-15.93 8.97,-2.99 18.2,-6.07 27.58,-9.19 41.33,-13.77 81.81,-30.88 123.1,-45l137.92 -48.56c5.3,-1.77 8.22,-3.21 13.45,-4.94l193.39 -67.95c9.59,-3.19 17.55,-6.33 27.24,-9.53l28.26 -9.83c5.3,-1.81 7.85,-3.1 13.44,-4.95 5.02,-1.66 9.51,-3.04 13.81,-4.57l109.63 -38.77c5.42,-1.8 8.6,-3.23 13.44,-4.95 4.64,-1.65 9.97,-3.14 14.63,-5.07 4.44,-1.83 8.51,-2.98 13.65,-4.74l41.51 -14.96c15.18,-6.25 32.22,-10.08 47.31,-17.04 12.57,-5.8 3.17,-6.3 32.01,11.26 9.04,5.51 16.16,9.99 25.21,15.5l12.09 7.61c42.24,26.11 85.81,49.6 128.17,75.38l104.98 57.87c31.59,15.66 61.76,34.2 93.24,49.9l67.42 35.01c3.43,1.81 3.3,2.17 6.54,3.97l60.86 31.07c36.56,18.27 72.51,36.24 109.44,54.71 9.49,4.75 18,9.02 27.12,13.59l27.59 13.12c9,4.5 18.56,8.62 27.58,13.13 4.38,2.19 8.74,4.38 13.12,6.58 4.68,2.34 9.73,4.18 14.46,6.56 24.67,12.4 49.72,25.41 75.27,36.35 3.22,1.38 3.86,1.9 7.27,3.24 8.09,3.17 24.93,10.31 34.34,10.31 5.4,-10.2 -0.04,-12.19 -13.56,-19.28l-62.15 -29.78c-3.08,-1.53 -4.33,-1.73 -7.44,-3.06l-405.4 -203.95c-12.81,-7.49 -27.28,-13.68 -40.16,-21.56l-26.26 -14.45c-5.02,-3.07 -9,-4.67 -13.64,-7.37l-53 -29.73c-3.27,-1.62 -3.82,-2.14 -6.65,-3.86 -17.33,-10.55 -35.84,-18.89 -53.05,-29.68l-112.67 -63.3c-4.87,-2.98 -8.76,-4.7 -13.4,-7.61l-33.07 -18.15c-25.39,-14.82 -19.41,-12.53 -51.73,-1.79 -5.24,1.74 -8.8,2.95 -13.78,4.6l-28.24 9.84c-5.59,1.85 -8.14,3.14 -13.44,4.95l-167.13 58.75c-8.7,3.25 -19.21,6.92 -27.92,10.17l-207.5 73.54c-5.41,1.78 -9.49,3.62 -14.44,5.26 -18.99,6.27 -36.23,12.76 -55.51,19.35l-111.52 39.5c-31.52,12.82 -79.96,26.67 -112.72,38.31 -33.97,12.06 -68.08,24.5 -100.51,40.01 -3.21,1.53 -4.51,1.6 -5.67,4.83z"/>
   <path class="fil0" d="M467.76 850.99c1.33,1.76 1.31,-2.76 1.31,3.94l-1.31 0 0 -3.94zm-36.77 -17.07c-0.17,-0.26 -0.49,-0.94 -0.53,-0.78l0.53 0.78zm5.25 -19.7l0.39 0.39c-0.03,-0.02 -0.52,-0.26 -0.39,-0.39zm5.25 -15.76l1.31 0 0 3.94 -1.31 0 0 -3.94zm-68.29 -26.27c-1.33,-1.76 -1.31,2.76 -1.31,-3.94l1.31 0 0 3.94zm-35.46 -2.63c0,-3.31 2.09,-0.27 0.8,0 -0.02,0 -0.8,3.7 -0.8,0zm-30.2 -27.58l0.39 0.39c-0.03,-0.03 -0.52,-0.26 -0.39,-0.39zm10.51 -2.63l0.39 0.39c-0.03,-0.03 -0.52,-0.26 -0.39,-0.39zm-21.01 -9.19c1.33,1.76 1.31,-2.76 1.31,3.94l-1.31 0 0 -3.94zm-11.82 -2.63l-0.96 -1.66c-0.38,-1.76 -0.35,-1.72 -0.35,-3.59l1.31 5.25zm-15.76 0c-1.33,-1.76 -1.31,2.76 -1.31,-3.94l1.31 0 0 3.94zm-2.63 -9.19l1.31 0 0 3.94 -1.31 0 0 -3.94zm15.76 0l0.39 0.39c-0.03,-0.02 -0.52,-0.26 -0.39,-0.39zm-17.07 -3.94c0,-3.31 2.09,-0.27 0.8,0 -0.02,0 -0.8,3.7 -0.8,0zm-15.76 -7.88c0,-3.31 2.09,-0.27 0.8,0 -0.02,0 -0.8,3.7 -0.8,0zm23.64 -1.31l0.39 0.39c-0.03,-0.03 -0.52,-0.26 -0.39,-0.39zm-40.71 -10.51c-1.33,-1.76 -1.31,2.76 -1.31,-3.94l1.31 0 0 3.94zm-2.63 -6.57c0,-3.31 2.09,-0.27 0.8,0 -0.02,0 -0.8,3.7 -0.8,0zm-1.31 -5.25l0.39 0.39c-0.03,-0.02 -0.52,-0.26 -0.39,-0.39zm21.01 -9.19c0,-3.31 2.09,-0.27 0.8,0 -0.02,0 -0.8,3.7 -0.8,0zm-44.65 -23.64c-1.33,-1.76 -1.31,2.76 -1.31,-3.94l1.31 0 0 3.94zm-13.13 -15.76c0,-3.31 2.09,-0.27 0.8,0 -0.02,0 -0.8,3.7 -0.8,0zm11.82 -14.45c0,-3.31 2.09,-0.27 0.8,0 -0.02,0 -0.8,3.7 -0.8,0zm-99.81 -43.34l0.39 0.39c-0.03,-0.03 -0.52,-0.26 -0.39,-0.39zm-19.7 -27.58l-1.51 -2.56 1.51 2.56zm-11.82 -15.76c0,-3.31 2.09,-0.27 0.8,0 -0.02,0 -0.8,3.7 -0.8,0zm-19.7 -7.88c1.33,1.76 1.31,-2.76 1.31,3.94l-1.31 0 0 -3.94zm9.19 -1.31c0,-3.31 2.09,-0.27 0.8,0 -0.02,0 -0.8,3.7 -0.8,0zm-9.19 1.31c-5.89,-8.47 -1.8,-16.06 -10.51,-18.39 -4.93,10.27 16.91,66.42 26.18,76.25 7.09,7.51 3.34,12.45 11.9,16.99 4.05,-6.05 2.15,-3.79 -2.12,-16.26 -5.83,-17.03 -14.95,-38.36 -14.95,-57.28l1.31 0c0,7.44 20.92,58.69 25.42,67.82 6.53,13.26 3.82,16.18 11.35,20.16 3.84,-5.74 2.71,-4.51 -1.31,-14.45 -5.1,-12.59 -15.52,-40.4 -15.76,-51.22l5.26 11.81c9.47,20.9 20.72,56.36 28.87,74.88 3.08,7 1.15,8.43 9.21,6.55 -0.13,-5.9 -9.3,-31.25 -11.57,-39.64 -2,-7.41 -8.13,-35.94 -8.13,-43.09l1.31 0c0,5.65 33.88,103.08 35.46,106.37 9.17,-0.2 6.97,-1.16 2.88,-17.33 -3.64,-14.42 -12.08,-57.65 -12.08,-71.97l1.31 0c0,4.56 21.37,67.45 24.14,75.67l12.1 37.8c1.89,3.86 2.18,3.3 7.1,3.41 0,-9.87 -2.51,-15.61 -3.8,-23.78 -3.02,-19.16 -5.25,-27.56 -6.72,-48.44 -0.61,-8.59 -2.61,-16.25 -2.61,-26.28l35.63 93.07c1.71,4.63 3.81,9.88 5.87,15.15 2.18,5.59 3.37,12.5 7.09,15.23 8.66,-2.31 2.84,-12.27 -2.1,-32.04 -1.65,-6.6 -2.94,-11.76 -4.47,-17.86 -1.31,-5.24 -3.81,-12.57 -3.94,-18.39l2.26 4.3c1.12,2.58 1.13,2.92 2.22,5.65 1.62,4.06 2.29,6.35 3.92,10.53 5.53,14.17 10.99,28.22 14.71,43.08 3.76,15.03 2.47,18.57 9.72,19.17 2.98,-6.22 -0.5,-11.47 -1.89,-17.81 -0.84,-3.81 -0.62,-6.56 -1.48,-10.34 -0.96,-4.23 -1.78,-5.28 -1.88,-9.94l16.24 50.74c0.86,3.08 2.13,12.93 7.63,7.43 3.47,-3.47 -5.48,-31.77 -5.48,-43.72l19.7 56.47c14.34,-1.19 -1.31,-17.81 -1.31,-38.08 3.05,4.81 15.25,57.81 18.39,64.35 11.46,-0.26 5.49,-4.37 2.58,-28.85 -1.32,-11.12 -5.21,-23.96 -5.21,-35.5 0.66,0.94 0.69,0.68 1.47,2.47 0,0 0.99,2.83 1.02,2.92l5.89 19.07c1.78,5.26 9.59,34.66 12.37,36.43 9.46,6.04 4.32,-16.51 4.24,-24.15 -0.07,-6.62 -1.35,-8.03 -1.35,-15.72l1.31 0c0,5.92 1.44,9.19 2.33,13.43 1,4.81 1.84,9.29 2.61,13.15 1.91,9.56 3.49,18.3 5.57,27.26 9.87,-0.22 6.65,-3.84 5.55,-10.79 -0.98,-6.23 -0.9,-10.37 -1.94,-16.46 -1.56,-9.16 -4.93,-20.76 -4.93,-31.84l1.31 0c0,4.76 24.86,76.3 24.86,76.3 1.66,2.58 5.4,4.52 7.51,0.72l-4.75 -56.05 12.91 34.36c3.28,8.79 9.46,33.58 15.93,37.91 5.64,-3.78 3.53,-5.69 2.58,-13.09 -1.8,-14.12 -6.52,-39.98 -6.52,-51.26 0.18,0.26 0.45,0.35 0.52,0.8l28.38 76.68c4.85,-0.11 5.85,0.66 6.63,-3.88 0.59,-3.47 -0.01,-8.11 -0.59,-11.35l-2.1 -20.23c2.83,3.25 16.27,41.07 17.86,45.18 1.28,3.32 2.4,9.6 5.09,10.88 6.68,3.19 5.93,-3.98 5.21,-7.96 -0.84,-4.63 -1.36,-10.02 -1.85,-14 -0.66,-5.38 -1.36,-8.2 -1.36,-14.4l4.76 12.31c1.74,5.23 2.95,8.81 4.6,13.78 2.96,8.88 5.48,19.18 10.34,26.43l5.21 -2.7 -11.78 -80.04 32.25 96.45c2.19,5.5 -1.38,1.55 4.52,4.67 6.59,-4.41 2.11,-15.6 -0.77,-32.07 -2.02,-11.54 -4.49,-25.21 -4.49,-37.54l1.31 0c0,4.57 10.41,33.22 12.64,39.89l9.43 29.97c1.65,4.67 2.4,4.87 8.14,4.99 3.33,-14.31 0,-29.13 0,-43.34l17.86 54.37c3.41,13.64 0.51,13.06 7.1,16.54 6.38,-4.28 3.94,-10.14 3.94,-27.58 0,-10.94 0,-21.89 0,-32.83l27.45 96.03c1.61,2.68 5.43,4.29 7.5,0.73 1.27,-2.17 0.51,-39.83 0.51,-45.54l1.31 0c0,5.28 7.59,24.63 9.19,31.52l6.57 0c3.02,-12.97 1.31,-32.09 1.31,-47.28l12.96 47.44c2.55,8.31 1.55,9.82 5.42,15.59 10.52,-2.45 3.94,-4.64 3.94,-26.27l1.31 0c0,6.98 0.77,6.82 5.25,9.19 6.89,-4.61 1.69,-11.35 -3.41,-29.42 -1.76,-6.22 -2.87,-10.57 -4.64,-16.37 -1.57,-5.16 -2.8,-11.16 -5.09,-15.93 -5.17,0.11 -6.57,-0.1 -6.57,5.25l-7.63 -25.2c-1.7,-5.26 -1.33,-4.11 -5.5,-6.32 -0.22,0.21 -0.62,0.2 -0.71,0.61 -1.29,5.79 -3.23,-9.5 -3.23,24.35 0,10.07 0,20.14 0,30.2l-1.31 0c0,-3.86 -3.88,-11.38 -5.08,-14.62 -3.43,-9.21 -11.07,-41.66 -17.24,-45.79 -6.7,4.48 -3.76,10.3 -0.78,28.35 1.65,9.97 3.4,21.45 3.4,32.06l-1.31 0c0,-6.01 -18.47,-61.24 -22.31,-70.93 -2.04,-5.16 -0.9,-6.35 -6.58,-7.86 -5.85,3.92 -3.94,5.14 -3.94,19.7 0,8.32 0,16.63 0,24.95l-1.31 0c0,-7.4 -14.05,-44.22 -18.39,-53.84 -2.55,-5.64 -4.22,-12.43 -9.19,-15.76 -7.74,1.85 -3.99,4.95 -1.47,23.79 1.33,9.95 2.78,19.25 2.78,30.05l-27.35 -85.6c-1.85,-3.77 0.76,-1.1 -4.17,-3.71 -7.88,5.28 -2.86,13.88 -2.68,30.25l2.68 34.09c-3.3,-4.74 -7.76,-22.65 -9.69,-28.4 -1.24,-3.71 -14.74,-48.19 -16.89,-50.25 -11.14,-10.65 -4.95,28.28 -4.95,39.25l-1.31 0c0,-5.92 -10.33,-34.37 -12.6,-42.55 -1.74,-6.26 -1.42,-9.41 -5.78,-12.6 -8.36,2.23 -3.59,13.22 -1.16,31.37 0.71,5.28 1.81,11.31 2.52,17.18 0.67,5.5 2.46,12.89 2.58,18.43 -8.96,-10.31 -20.02,-59.31 -24.95,-69.6 -9.77,0.22 -7.29,2.36 -2.3,27.25 0.93,4.63 1.64,10 2.64,15.75 0.55,3.19 2.29,13.64 2.29,17.41l-1.31 0c0,-4.02 -11.06,-32.48 -12.65,-37.26 -2.09,-6.26 -16.63,-54.03 -21.73,-54.56 -7.55,-0.78 -0.61,33.02 0.78,41.37 1.2,7.26 2.86,16.33 3.4,22.86l-21.81 -56.98c-2.25,-6.59 -4.75,-15.2 -8.39,-17.87 -6.75,1.8 -5.38,4.68 -2.09,24.42 1.51,9.07 3.41,21.57 3.41,30.74l-1.31 0c0,-4.11 -14.14,-44.37 -17.24,-53.67 -0.95,-2.86 -1.75,-5.32 -2.91,-8.91 -1.69,-5.24 -0.98,-5.65 -6.11,-7.02 -0.23,0.21 -0.64,0.17 -0.72,0.59l-1.19 1.44c-0.11,0.24 -0.32,0.61 -0.41,0.9 -0.5,1.61 -0.3,3.24 -0.3,4.95l-1.31 0c0,-2.9 -6.79,-27.94 -7.88,-30.2 -6.89,0.15 -7.68,0.68 -6.32,8.86l5.01 46.3c-0.17,-0.27 -0.42,-1.01 -0.48,-0.83l-21.85 -70.08c-5.81,0.13 -7.01,0.07 -6.68,6.46 0.43,8.26 5.37,26.39 5.37,36.88l-1.31 0c0,-6.17 -2.77,-10.95 -4.43,-16.58l-12.58 -42.58c-1.59,-5.78 -0.73,-4.08 -5.31,-6.51 -7.27,5.33 0,15.23 0,34.14l-1.31 0c0,-3.09 -12.45,-42.66 -13.2,-43.42 -0.36,-0.37 -1.23,-2.74 -4.6,-0.88 -2.07,1.15 -1.99,2.08 -2.02,4.79l6.69 36.88c-2.86,-3.28 -4.28,-9.36 -6.57,-14.44 -2.3,-5.09 -4.26,-10.65 -6.57,-15.76 -2.27,-5.02 -4.62,-10.18 -6.74,-15.58 -2.21,-5.61 -4.07,-10.9 -7,-14.02 -0.13,-0.14 -0.48,-0.4 -0.7,-0.61 -4.53,2.4 -3.83,0.43 -4.42,5.84l-0.84 3.35c-1.58,-6.8 -5.52,-13 -8.06,-19.52 -0.85,-2.17 -7.88,-21.01 -12.47,-12.87 -2.03,3.61 9.41,39.49 10.02,46.83 -0.85,-0.98 -0.81,-0.48 -1.72,-2.22l-21.01 -52.54c-1.16,-2.91 -4.29,-13.39 -9.01,-8.67 -3.97,3.97 1.53,46.88 1.53,55.55l-27.06 -75.38c-1.92,-5.96 -1.15,-7.2 -8.4,-7.36 -2.86,12.27 2.63,36.33 2.63,51.22l-19.85 -58.95c-2.41,-7.43 -3.6,-12.37 -7.73,-18.54l-5.21 2.7c-0.04,4.6 0.82,9.01 1.6,14.05l3.93 27.58c0.57,3.77 2.2,10.09 2.31,14.76 -2.67,-3.07 -5.71,-11.74 -7.48,-16.16l-17.85 -42.56c-2.1,-5.13 -0.68,-5.47 -7.51,-5.63 -1.73,7.44 1.31,12.27 1.31,21.01 -4.6,-5.29 -13.62,-33.39 -17.43,-40.35 -2.28,-4.16 -0.92,-2.2 -4.89,-4.3 -3.6,5.37 -2.34,5.15 -0.15,18.53 1.15,7.04 2.77,13.33 2.77,20.86z"/>
   <path class="fil0" d="M1866.38 990.19c0,4.02 7.68,6.27 2.39,20.78 -3.63,9.96 -17.68,9.79 -27.39,10.69l-69.5 6.67c-24.08,0.35 -48.29,2.57 -73.59,2.57l-70.92 0c-74.81,0 -145.58,-4.05 -219.37,-5.2l-52.43 -2.73c-9.17,-0.14 -18.51,0.25 -27.68,0.1l-53.74 -2.73c-8.52,-0.13 -20.85,0.89 -28.84,-0.05 -8.52,-1 -16,-1.24 -26.37,-1.21l-40.75 -1.28c-6.94,-0.01 -7.24,-1.16 -13.05,-1.4 -8.42,-0.34 -19.52,0.89 -27.53,-0.05 -16.27,-1.91 -49.07,-2.59 -67.09,-2.51 -6.96,0.03 -8.02,-0.95 -13.11,-1.33 -9.04,-0.69 -19.71,0.43 -28.94,0.05l-81.38 -2.67c-9.82,0.05 -16.47,-1.32 -27.57,-1.32l-40.71 -1.32c-21.96,-1.67 -49.78,2.37 -70.82,-0.1 -5.73,-0.67 -51.32,-5.14 -51.32,2.73l0 2.63c9.19,4.41 37.28,2.88 51.22,3.94 4.95,0.38 5.21,1.34 11.78,1.35l27.6 1.29c4.4,-0.02 10.23,-0.34 14.47,-0.02l26.3 1.28c6.57,0.01 6.83,0.98 11.78,1.35 4.23,0.32 10.05,0.01 14.45,-0l40.75 1.28c6.94,0.01 7.24,1.16 13.05,1.4 8.82,0.36 19,-0.71 27.63,-0.05 4.95,0.38 5.21,1.34 11.78,1.35l27.66 -0.08c5.81,0.24 6.11,1.39 13.05,1.4 9.61,0.01 19.39,-0.24 28.98,-0.09l107.59 4.04c8.82,0.36 18.68,-0.05 27.63,-0.05l26.25 1.33c9.2,-0.04 18.4,0 27.6,-0.02 10.87,-0.02 16.45,1.32 27.58,1.31 37.27,-0.04 72.21,2.64 109,2.63l161.54 5.25c9.64,-0.05 15.51,1.32 26.26,1.32l114.25 0c25.28,0 49.53,-2.22 73.59,-2.57 6.45,-0.09 5.92,-1.2 11.72,-1.41 20.73,-0.75 62.47,-3.41 80.69,-9.92 8.47,-3.03 9.23,-7.03 15.22,-11.04 4.41,2.33 2.45,0.11 5.25,3.94 -9.78,13.34 -81.38,23.82 -105.36,27.28 -10.38,1.5 -19.34,2.19 -29.89,2.94l-15.77 1.3c-5.55,0.4 -8.14,1.3 -15.79,1.28 -7.21,-0.02 -7.7,1.3 -14.36,1.4 -5.6,0.09 -11.63,-0.32 -17.17,-0.1 -5.94,0.24 -8,1.41 -15.71,1.37l-49.91 -0.01c-11.59,-0.03 -19.08,1.31 -31.52,1.31l-797.15 0c-6.6,-0 -17.07,-2.16 -17.07,3.94 0,6.8 16.15,3.94 21.01,3.94 10.38,-0.01 15.47,1.37 24.94,1.32 17.5,-0.09 35.03,-0.01 52.54,-0.01 17.8,0 32.44,1.31 51.22,1.31l760.33 -2.67c8.46,-0.34 16.18,0.7 24.21,-0.74l45.42 -3.17c32.18,-2.27 117.07,-16.36 143.16,-28.88 2.9,-12.1 -3.32,-23.37 -15.76,-26.27 5.3,-11.05 -7.63,-21.44 -17.07,-23.64 -2.24,1.5 -5.25,2.86 -5.25,6.57z"/>
   <path class="fil0" d="M1607.67 497.72c0,-3.31 2.09,-0.27 0.8,0 -0.02,0 -0.8,3.7 -0.8,0zm69.6 -19.7c0,-3.31 2.09,-0.27 0.8,0 -0.02,0 -0.8,3.7 -0.8,0zm-55.16 -1.31l1.31 -7.88c0,0.61 0.1,3.6 0.05,3.99l-1.36 3.89zm15.76 -5.25l0 -3.94 1.31 0c0,6.94 -0.01,1.96 -1.31,3.94zm34.14 -6.57c0,-3.31 2.09,-0.27 0.8,0 -0.02,0 -0.8,3.7 -0.8,0zm-22.33 -2.63l0 3.94 -1.31 0c0,-6.94 0.01,-1.96 1.31,-3.94zm38.08 0c0,-3.31 2.09,-0.27 0.8,0 -0.02,0 -0.8,3.7 -0.8,0zm-13.13 -3.94l0 3.94 -1.31 0c0,-6.94 0.01,-1.96 1.31,-3.94zm45.96 -17.07l1.31 0 0 3.94 -1.31 0 0 -3.94zm-7.88 0c0,-3.31 2.09,-0.27 0.8,0 -0.02,0 -0.8,3.7 -0.8,0zm-6.57 -9.19c0.13,-0.13 0.39,0.21 0.39,0.39l-0.39 -0.39zm3.94 -10.51l0 1.31 -1.53 -1.09 1.53 -0.22zm-139.21 -15.76c0,-3.31 2.09,-0.27 0.8,0 -0.02,0 -0.8,3.7 -0.8,0zm-53.84 -53.84l1.31 0 0 3.94 -1.31 0 0 -3.94zm105.06 124.76l0 17.07c7.83,1.66 6.72,-0.83 12.36,-15.22l2.39 -5.49c0.12,-0.22 0.4,-0.64 0.49,-0.82 0.1,-0.17 0.33,-0.54 0.51,-0.8 0,11.12 -7,30.56 -6.71,36.86 0.33,7.28 5.32,7.11 8.83,-1.91 2.36,-6.07 4.12,-9.72 6.53,-15.8 4.9,-12.38 24.19,-54.82 24.19,-62.49l1.31 0c0,11.32 -18.65,84.38 -18.13,86.68 0.68,3.03 3.9,3.28 6.23,1.38 2.34,-1.9 8.76,-18.23 10.17,-21.51l6.38 -13.32c0.11,-0.15 0.4,-0.47 0.61,-0.71 0,12.02 -3.94,23.17 -3.94,35.46 8.8,2.05 6.72,1.24 12.01,-15.57l7.69 -23.83 0 15.76c3.48,0.92 1.08,-0.1 3.94,1.31 4.65,-3.41 3.22,-4.45 4.71,-11.05l8.13 -32.58c1.89,-6.97 1.35,-4.47 2.92,-6.27 0,20.41 -8.84,49.14 -0.05,48.66 4.79,-0.26 1.27,0.72 3.17,-2.11 3.39,-5.03 0.64,-11.05 6.07,-15.03 0,20.59 6.24,8.54 10.92,0.42 0.2,-0.34 0.81,-1.35 1,-1.62 0.13,-0.19 0.49,-0.56 0.6,-0.71 0.11,-0.15 0.4,-0.48 0.6,-0.71 0,5.18 0.41,5.33 1.31,9.19 10.11,-0.22 2.9,-0.02 9.78,-9.92 4.57,-6.58 4.93,-9.71 8.61,-12.4 0,7.21 -0.33,11.32 3.94,14.45 4.49,-1.2 3.03,-0.15 4.78,-4.41 0.68,-1.65 0.24,-1.35 0.98,-2.96 1.69,-3.7 1.06,-1.92 2.12,-3.14 1,4.31 0.81,19.98 7.14,12.55l8.62 -33.56 -5.25 -1.31c0,-7.51 3.25,-11.62 0,-18.39 -6.94,1.85 -5.76,5.81 -9.05,15.9 -2.39,7.33 -2.24,14.01 -8.02,18.24 0,-14.59 1.18,-13.62 1.31,-19.7 -4.79,-3.21 -1.2,-2.99 -5.25,-1.31 0.58,-6.95 1.6,-2.33 0,-9.19 -7.18,0.6 -6.45,1.74 -7.88,7.88 -1.82,-2.86 -0.99,-4.47 -2.63,-7.88l-5.25 0 -11.82 39.4c0,-7.46 1.81,-18.07 3.13,-25.76 1.74,-10.11 6.48,-17.78 3.43,-24.15 -6.61,0.55 -6.11,3.83 -7.61,9.46 -1.36,5.1 -4.21,9.42 -4.21,14.18l-1.31 0c0,-7.38 0.62,-12.35 1.43,-19.58 1.04,-9.35 6.08,-26.55 -3.43,-22.03 -3.96,1.88 -5.74,17.35 -9.82,23.23 0.13,-5.94 1.31,-5.22 1.31,-11.82 -8.8,-1.86 -6.53,1.3 -12.98,21.16l-9.34 28.74 9.35 -43.18c1.98,-6.33 4.04,-8.28 -1.47,-11.97 -5.59,3.74 -5.35,12.22 -11.29,26.79l-11.04 27.05c0,-6.84 5.96,-30.37 7.88,-38.08 2.08,-8.37 8.52,-28.39 6.57,-36.77 -8.25,0.69 -5.39,1.87 -12.26,16.63 -1.68,3.61 -2.75,6.37 -4.26,10.19 -2.79,7.05 -19.13,47.68 -22.88,51.98 0,-16.72 11.05,-57.3 14.87,-78.55 0.82,-4.58 0.89,-6.26 -5.68,-6.81 -2.09,4.36 -4.5,16.7 -6.04,22.85 -2.13,8.53 -3.84,14.78 -6.03,22.86l-15.5 43.59c0,-14.62 13.81,-77.6 12.65,-79.66 -5.28,-9.37 -11.34,13.06 -11.34,16.63l4.32 -36.47c1.15,-6.29 2.66,-5.69 -3.01,-9.49 -5.43,3.64 -5.94,10.6 -7.97,20.92 -1.5,7.6 -5.16,16.72 -5.16,25.05l-1.31 0c0,-20.95 6.55,-26 -5.25,-26.26 -1.71,3.57 -9.19,34.15 -9.19,39.4l-1.31 0c0,-13.42 3.93,-42.03 3.94,-55.16 0.01,-9.1 2.08,-13.73 -6.57,-14.45 -3.42,7.12 -3.25,51.2 -6.56,72.23 -1.16,7.36 -3.94,14.95 -3.94,22.32l-1.31 -66.98c0.01,-10.76 1.83,-16.49 -5.25,-18.39 -4.41,3.23 -4.84,11.09 -6.42,21.16 -1.26,7.99 -4.08,17.02 -4.08,24.81l-1.31 0c0,-11.64 4.01,-46.8 0,-55.16 -7.56,0.63 -7.2,7.43 -7.87,23.65 -0.38,9.23 -3.95,18.11 -3.95,27.57 -4.15,-3.04 -2.67,-6.04 -2.63,-13.13l0.08 -31.6c-0.56,-7.22 -2.79,-6.37 -7.96,-5.17l-1.31 44.65c0,-10.41 -2.09,-18.3 -2.62,-27.58l-2.83 -27.39c-0.93,-3.59 -5.74,-6.97 -7.51,-1.41 -0.05,0.16 -1.46,14.01 -1.48,14.36l-3.94 27.58c0,-5.68 -1.37,-4.01 -1.32,-17.07 0.05,-12.52 2.84,-34.89 -5.99,-29.85 -2.59,1.48 -3.2,12.39 -3.2,16.71l-1.31 -9.19c-5.44,-1.27 -7.71,-2.52 -7.88,5.25 -11.29,0 -10.51,4.73 -10.51,15.76 3.73,1.79 2.64,0.15 7.31,3.2l3.2 2.05c0,6.72 1.41,21.17 6.57,24.95 3.96,-1.06 3.68,-0.51 5.08,-4.12 0.73,-1.89 1.49,-6.53 1.49,-9.02l1.31 0c0,6.09 1.76,16.18 6.57,19.7 5.03,-1.34 6.57,-6.51 6.57,-11.82l1.31 0c0,5.22 5.16,37.79 6.57,40.71 5.82,-0.13 6.09,0.42 6.57,-5.25 3.49,1.67 1.41,1.2 6.57,1.31 1.02,-4.4 3.94,-10.22 3.94,-14.45l1.31 0c0,10.83 0.6,21.49 2.63,30.2l6.57 0 4.69 -22.89c1.23,-6.69 -0.92,-4.3 3.19,-7.31l1.3 49.92c-0.08,7.99 -1.29,10.05 5.27,11.8 3.93,-2.88 6.57,-14.34 6.57,-19.7l1.6 44.37c1.39,5.34 2.3,-0.03 2.4,6.8 0.12,7.77 -4.52,5.87 1.25,14.5 4.12,-2.18 3.53,-0.66 5.08,-5.42 0.86,-2.63 1.48,-5.95 1.48,-9.02l1.31 0c0,17.35 -8.95,23.35 3.94,23.64l7.99 -35.35c1.01,-5.06 0.96,-9.47 2.52,-11.93z"/>
   <path class="fil0" d="M1867.7 868.06l0 5.25c3.67,2.46 4,2.08 7.88,3.94 0,9.54 -3.07,13.74 -11.5,22.65 -5.1,5.39 -9.51,12.7 -9.51,22 0,5.03 -1.51,-0.43 4.43,6.07 2.36,2.58 3.34,3.67 5.76,6.06 9.1,8.98 8.19,11.7 8.19,22.01 -4.67,3.13 -4.35,4.78 -10.99,7.39 -15.5,6.1 -118.22,10.99 -125.59,10.99l-173.31 -2.66c-57.28,-0.08 -112.83,-2.61 -169.45,-2.59 -11.2,0 -17.16,-1.36 -27.58,-1.32 -18.23,0.07 -39.18,0.67 -55.26,-1.21 -16.76,-1.96 -41.25,2.12 -57.39,-0.39 -15.79,-2.46 -37.47,-0.69 -55.5,-0.97 -6.57,-0.1 -6.46,-1.32 -13.03,-1.42l-43.39 0.05c-10.61,0.02 -15.65,-1.34 -26.26,-1.31 -65.49,0.15 -131.6,-2.63 -198.3,-2.63 -19.97,0 -35.19,-1.31 -55.16,-1.31 -19.26,0 -38.52,0 -57.78,0l-1.47 5.2c9.04,4.3 28.99,2.15 40.92,2.63 5.81,0.23 6.11,1.39 13.05,1.4 20.97,0.03 37.25,1.28 57.82,1.28 4.42,0 10.2,-0.33 14.45,-0l42.03 1.31c9.82,-0.05 16.47,1.32 27.57,1.32 9.8,-0 20.59,-0.44 30.25,-0.05 5.81,0.23 6.11,1.39 13.05,1.4l70.95 1.28c10.07,0 20.15,0.05 30.21,-0.01 9.82,-0.05 16.47,1.32 27.57,1.32 9.63,-0 19.26,0 28.89,0l27.56 1.33c57.74,-0.26 114.99,2.49 173.4,2.57l27.54 1.35c9.63,0 19.26,0.02 28.89,-0 11.11,-0.02 17.29,1.32 28.89,1.31 84.14,-0.03 171.68,5.29 254.82,3.99 6.88,-0.11 6.76,-1.39 22.27,-1.37 3.46,0 8.43,0.29 11.72,-0.1 4.1,-0.48 4.5,-1.27 10.58,-1.24 19.66,0.08 89.74,-9 102.46,-15.73 0,-35.88 -13.58,-36.85 -22.33,-49.9 9.81,-18.55 23.64,-14.86 23.64,-40.71 0,-5.01 -2.63,-6.54 -2.63,-7.88 0,-0.97 7.73,-14.45 -5.25,-14.45 -3.22,0 -13.13,9.91 -13.13,13.13z"/>
   <path class="fil0" d="M1904.47 812.9c0,24.09 10.05,23.54 -38.12,23.6 -7.38,0.01 -8.31,1.38 -15.69,1.38 -26.31,0.01 -67.56,3.91 -94.59,3.9 -28.56,-0 -75.81,2.23 -97.23,1.36l-192.47 -4.52c-9.71,-1.74 -21.6,-0.81 -32.05,-0.78 -11.84,0.03 -20,-1.31 -32.83,-1.31 -22.38,0 -41.25,-1.24 -64.39,-1.28l-62.97 -2.7c-34.36,-0.05 -111.38,-1.39 -144.49,-3.91 -13.01,-0.99 -37,1.69 -49.38,-0.52 -8.77,-1.57 -35.8,-0.82 -47.82,-0.77 -7.71,0.03 -9.02,-1.28 -15.69,-1.38l-48.69 0.1c-5.94,-0.24 -8,-1.41 -15.71,-1.37l-49.97 0.04c-3.74,-0.18 -11.75,-2.33 -11.75,2.59 0,7.62 12.31,5.27 19.7,5.25l50 2.53c7.64,0.9 18.19,-0.27 26.21,0.05 8.5,0.34 6.55,1.36 23.59,1.36 4.24,-0 9.02,-0.22 13.18,-0.05 5.81,0.23 5.29,1.31 11.72,1.41 8.28,0.13 18.3,-0.67 26.32,-0.06 4.95,0.38 5.21,1.34 11.78,1.35l25.04 -0.08c5.81,0.23 5.29,1.31 11.72,1.41 8.73,0.14 17.63,-0.24 26.37,-0.1 6.6,0.1 9.51,1.37 24.9,1.37l49.91 1.31c10.02,-0.04 14.62,1.34 24.95,1.32 32.2,-0.07 68.89,2.7 101.12,2.63 10.33,-0.02 14.93,1.36 24.95,1.32 8.48,-0.03 17.96,-0.39 26.32,-0.05 8.5,0.34 6.55,1.36 23.59,1.36l51.22 1.31c10.38,-0.01 15.47,1.37 24.95,1.32 31.48,-0.17 70.04,2.62 101.13,2.62l132.64 1.31c11.11,0.02 17.29,-1.32 28.89,-1.31 10.07,0 20.14,-0.04 30.21,0 10.63,0.04 17.29,-1.32 28.89,-1.32l41.24 -2.1c5.35,-0.96 9.86,-0.26 15.28,-0.48l27.53 -2.68c11.18,-0.82 18.18,0.35 26.27,-3.94l-1.3 -23.65c-0.47,-10.29 -0.93,-8.12 -7.89,-11.81 -2.93,1.55 -3.95,2.19 -6.57,3.94z"/>
  </g>
 </g>
</svg>
