<?xml version="1.0" encoding="UTF-8"?>
<!DOCTYPE svg PUBLIC "-//W3C//DTD SVG 1.1//EN" "http://www.w3.org/Graphics/SVG/1.1/DTD/svg11.dtd">
<!-- Creator: CorelDRAW 2021.5 -->
<svg xmlns="http://www.w3.org/2000/svg" xml:space="preserve" width="799.985px" height="22.075px" version="1.1" style="shape-rendering:geometricPrecision; text-rendering:geometricPrecision; image-rendering:optimizeQuality; fill-rule:evenodd; clip-rule:evenodd"
viewBox="0 0 5917.55 163.29"
 xmlns:xlink="http://www.w3.org/1999/xlink"
 xmlns:xodm="http://www.corel.com/coreldraw/odm/2003">
 <defs>
  <style type="text/css">
   <![CDATA[
    .fil0 {fill:#F3EDE733;fill-rule:nonzero}
   ]]>
  </style>
 </defs>
 <g id="Camada_x0020_1">
  <metadata id="CorelCorpID_0Corel-Layer"/>
  <path class="fil0" d="M2957.94 154.24c60.78,-3.2 129.93,-18.79 136.05,-90.82 8.51,75.11 -75,102.03 -136.05,90.82z"/>
  <path class="fil0" d="M3258.86 154.24c-61.06,11.22 -144.57,-15.73 -136.05,-90.82 6.13,72.05 75.29,87.63 136.05,90.82z"/>
  <path class="fil0" d="M3133.82 24.55c0,13.56 -10.99,24.55 -24.55,24.55 -13.56,0 -24.55,-10.99 -24.55,-24.55 0,-13.56 10.99,-24.55 24.55,-24.55 13.56,0 24.55,10.99 24.55,24.55z"/>
  <path class="fil0" d="M3315.63 138.74c0,13.56 -10.99,24.55 -24.55,24.55 -13.56,0 -24.55,-10.99 -24.55,-24.55 0,-13.56 10.99,-24.55 24.55,-24.55 13.56,0 24.55,10.99 24.55,24.55z"/>
  <path class="fil0" d="M3326.79 154.24c60.78,-3.2 129.92,-18.79 136.05,-90.82 8.51,75.11 -75,102.03 -136.05,90.82z"/>
  <path class="fil0" d="M3627.71 154.24c-61.06,11.22 -144.57,-15.73 -136.05,-90.82 6.13,72.05 75.29,87.63 136.05,90.82z"/>
  <path class="fil0" d="M3502.68 24.55c0,13.56 -10.99,24.55 -24.55,24.55 -13.56,0 -24.55,-10.99 -24.55,-24.55 0,-13.56 10.99,-24.55 24.55,-24.55 13.55,0 24.55,10.99 24.55,24.55z"/>
  <path class="fil0" d="M3684.48 138.74c0,13.56 -10.99,24.55 -24.55,24.55 -13.56,0 -24.55,-10.99 -24.55,-24.55 0,-13.56 10.99,-24.55 24.55,-24.55 13.56,0 24.55,10.99 24.55,24.55z"/>
  <path class="fil0" d="M3706.15 154.24c60.78,-3.2 129.92,-18.79 136.05,-90.82 8.51,75.11 -75,102.03 -136.05,90.82z"/>
  <path class="fil0" d="M4007.07 154.24c-61.06,11.22 -144.57,-15.73 -136.05,-90.82 6.13,72.05 75.29,87.63 136.05,90.82z"/>
  <path class="fil0" d="M3882.04 24.55c0,13.56 -10.99,24.55 -24.55,24.55 -13.56,0 -24.55,-10.99 -24.55,-24.55 0,-13.56 10.99,-24.55 24.55,-24.55 13.55,0 24.55,10.99 24.55,24.55z"/>
  <path class="fil0" d="M4063.84 138.74c0,13.56 -10.99,24.55 -24.55,24.55 -13.56,0 -24.55,-10.99 -24.55,-24.55 0,-13.56 10.99,-24.55 24.55,-24.55 13.56,0 24.55,10.99 24.55,24.55z"/>
  <path class="fil0" d="M4075 154.24c60.78,-3.2 129.92,-18.79 136.05,-90.82 8.51,75.11 -75,102.03 -136.05,90.82z"/>
  <path class="fil0" d="M4375.92 154.24c-61.07,11.22 -144.57,-15.73 -136.05,-90.82 6.13,72.05 75.29,87.63 136.05,90.82z"/>
  <path class="fil0" d="M4250.89 24.55c0,13.56 -10.99,24.55 -24.55,24.55 -13.56,0 -24.55,-10.99 -24.55,-24.55 0,-13.56 10.99,-24.55 24.55,-24.55 13.56,0 24.55,10.99 24.55,24.55z"/>
  <path class="fil0" d="M4432.69 138.74c0,13.56 -10.99,24.55 -24.55,24.55 -13.56,0 -24.55,-10.99 -24.55,-24.55 0,-13.56 10.99,-24.55 24.55,-24.55 13.56,0 24.55,10.99 24.55,24.55z"/>
  <path class="fil0" d="M4442.8 154.24c60.78,-3.2 129.92,-18.79 136.05,-90.82 8.51,75.11 -75,102.03 -136.05,90.82z"/>
  <path class="fil0" d="M4743.72 154.24c-61.06,11.22 -144.57,-15.73 -136.05,-90.82 6.13,72.05 75.29,87.63 136.05,90.82z"/>
  <path class="fil0" d="M4618.69 24.55c0,13.56 -10.99,24.55 -24.55,24.55 -13.56,0 -24.55,-10.99 -24.55,-24.55 0,-13.56 10.99,-24.55 24.55,-24.55 13.55,0 24.55,10.99 24.55,24.55z"/>
  <path class="fil0" d="M4800.49 138.74c0,13.56 -10.99,24.55 -24.55,24.55 -13.56,0 -24.55,-10.99 -24.55,-24.55 0,-13.56 10.99,-24.55 24.55,-24.55 13.56,0 24.55,10.99 24.55,24.55z"/>
  <path class="fil0" d="M4811.65 154.24c60.78,-3.2 129.92,-18.79 136.05,-90.82 8.51,75.11 -75,102.03 -136.05,90.82z"/>
  <path class="fil0" d="M5112.57 154.24c-61.06,11.22 -144.57,-15.73 -136.05,-90.82 6.13,72.05 75.29,87.63 136.05,90.82z"/>
  <path class="fil0" d="M4987.54 24.55c0,13.56 -10.99,24.55 -24.55,24.55 -13.56,0 -24.55,-10.99 -24.55,-24.55 0,-13.56 10.99,-24.55 24.55,-24.55 13.56,0 24.55,10.99 24.55,24.55z"/>
  <path class="fil0" d="M5169.34 138.74c0,13.56 -10.99,24.55 -24.55,24.55 -13.56,0 -24.55,-10.99 -24.55,-24.55 0,-13.56 10.99,-24.55 24.55,-24.55 13.56,0 24.55,10.99 24.55,24.55z"/>
  <path class="fil0" d="M5191.01 154.24c60.78,-3.2 129.92,-18.79 136.05,-90.82 8.51,75.11 -75,102.03 -136.05,90.82z"/>
  <path class="fil0" d="M5491.93 154.24c-61.06,11.22 -144.57,-15.73 -136.05,-90.82 6.13,72.05 75.29,87.63 136.05,90.82z"/>
  <path class="fil0" d="M5366.9 24.55c0,13.56 -10.99,24.55 -24.55,24.55 -13.56,0 -24.55,-10.99 -24.55,-24.55 0,-13.56 10.99,-24.55 24.55,-24.55 13.56,0 24.55,10.99 24.55,24.55z"/>
  <path class="fil0" d="M5548.7 138.74c0,13.56 -10.99,24.55 -24.55,24.55 -13.56,0 -24.55,-10.99 -24.55,-24.55 0,-13.56 10.99,-24.55 24.55,-24.55 13.56,0 24.55,10.99 24.55,24.55z"/>
  <path class="fil0" d="M5559.86 154.24c60.78,-3.2 129.93,-18.79 136.05,-90.82 8.51,75.11 -75,102.03 -136.05,90.82z"/>
  <path class="fil0" d="M5860.78 154.24c-61.06,11.22 -144.57,-15.73 -136.05,-90.82 6.13,72.05 75.29,87.63 136.05,90.82z"/>
  <path class="fil0" d="M5735.75 24.55c0,13.56 -10.99,24.55 -24.55,24.55 -13.56,0 -24.55,-10.99 -24.55,-24.55 0,-13.56 10.99,-24.55 24.55,-24.55 13.56,0 24.55,10.99 24.55,24.55z"/>
  <path class="fil0" d="M5917.55 138.74c0,13.56 -10.99,24.55 -24.55,24.55 -13.56,0 -24.55,-10.99 -24.55,-24.55 0,-13.56 10.99,-24.55 24.55,-24.55 13.56,0 24.55,10.99 24.55,24.55z"/>
  <path class="fil0" d="M-0 154.24c60.78,-3.2 129.92,-18.79 136.05,-90.82 8.51,75.11 -75,102.03 -136.05,90.82z"/>
  <path class="fil0" d="M300.92 154.24c-61.06,11.22 -144.57,-15.73 -136.05,-90.82 6.13,72.05 75.29,87.63 136.05,90.82z"/>
  <path class="fil0" d="M175.89 24.55c0,13.56 -10.99,24.55 -24.55,24.55 -13.56,0 -24.55,-10.99 -24.55,-24.55 0,-13.56 10.99,-24.55 24.55,-24.55 13.56,0 24.55,10.99 24.55,24.55z"/>
  <path class="fil0" d="M357.69 138.74c0,13.56 -10.99,24.55 -24.55,24.55 -13.56,0 -24.55,-10.99 -24.55,-24.55 0,-13.56 10.99,-24.55 24.55,-24.55 13.56,0 24.55,10.99 24.55,24.55z"/>
  <path class="fil0" d="M368.85 154.24c60.78,-3.2 129.92,-18.79 136.05,-90.82 8.51,75.11 -75,102.03 -136.05,90.82z"/>
  <path class="fil0" d="M669.77 154.24c-61.07,11.22 -144.57,-15.73 -136.05,-90.82 6.13,72.05 75.29,87.63 136.05,90.82z"/>
  <path class="fil0" d="M544.74 24.55c0,13.56 -10.99,24.55 -24.55,24.55 -13.56,0 -24.55,-10.99 -24.55,-24.55 0,-13.56 10.99,-24.55 24.55,-24.55 13.56,0 24.55,10.99 24.55,24.55z"/>
  <path class="fil0" d="M726.54 138.74c0,13.56 -10.99,24.55 -24.55,24.55 -13.56,0 -24.55,-10.99 -24.55,-24.55 0,-13.56 10.99,-24.55 24.55,-24.55 13.56,0 24.55,10.99 24.55,24.55z"/>
  <path class="fil0" d="M748.21 154.24c60.78,-3.2 129.92,-18.79 136.05,-90.82 8.51,75.11 -75,102.03 -136.05,90.82z"/>
  <path class="fil0" d="M1049.13 154.24c-61.06,11.22 -144.57,-15.73 -136.05,-90.82 6.13,72.05 75.29,87.63 136.05,90.82z"/>
  <path class="fil0" d="M924.1 24.55c0,13.56 -10.99,24.55 -24.55,24.55 -13.56,0 -24.55,-10.99 -24.55,-24.55 0,-13.56 10.99,-24.55 24.55,-24.55 13.56,0 24.55,10.99 24.55,24.55z"/>
  <path class="fil0" d="M1105.9 138.74c0,13.56 -10.99,24.55 -24.55,24.55 -13.56,0 -24.55,-10.99 -24.55,-24.55 0,-13.56 10.99,-24.55 24.55,-24.55 13.56,0 24.55,10.99 24.55,24.55z"/>
  <path class="fil0" d="M1117.07 154.24c60.78,-3.2 129.92,-18.79 136.05,-90.82 8.51,75.11 -75,102.03 -136.05,90.82z"/>
  <path class="fil0" d="M1417.98 154.24c-61.06,11.22 -144.57,-15.73 -136.05,-90.82 6.13,72.05 75.29,87.63 136.05,90.82z"/>
  <path class="fil0" d="M1292.95 24.55c0,13.56 -10.99,24.55 -24.55,24.55 -13.56,0 -24.55,-10.99 -24.55,-24.55 0,-13.56 10.99,-24.55 24.55,-24.55 13.56,0 24.55,10.99 24.55,24.55z"/>
  <path class="fil0" d="M1474.75 138.74c0,13.56 -10.99,24.55 -24.55,24.55 -13.56,0 -24.55,-10.99 -24.55,-24.55 0,-13.56 10.99,-24.55 24.55,-24.55 13.55,0 24.55,10.99 24.55,24.55z"/>
  <path class="fil0" d="M1484.86 154.24c60.78,-3.2 129.93,-18.79 136.05,-90.82 8.51,75.11 -75,102.03 -136.05,90.82z"/>
  <path class="fil0" d="M1785.78 154.24c-61.06,11.22 -144.57,-15.73 -136.05,-90.82 6.13,72.05 75.29,87.63 136.05,90.82z"/>
  <path class="fil0" d="M1660.75 24.55c0,13.56 -10.99,24.55 -24.55,24.55 -13.56,0 -24.55,-10.99 -24.55,-24.55 0,-13.56 10.99,-24.55 24.55,-24.55 13.56,0 24.55,10.99 24.55,24.55z"/>
  <path class="fil0" d="M1842.55 138.74c0,13.56 -10.99,24.55 -24.55,24.55 -13.56,0 -24.55,-10.99 -24.55,-24.55 0,-13.56 10.99,-24.55 24.55,-24.55 13.55,0 24.55,10.99 24.55,24.55z"/>
  <path class="fil0" d="M1853.71 154.24c60.78,-3.2 129.92,-18.79 136.05,-90.82 8.51,75.11 -75,102.03 -136.05,90.82z"/>
  <path class="fil0" d="M2154.63 154.24c-61.06,11.22 -144.57,-15.73 -136.05,-90.82 6.13,72.05 75.29,87.63 136.05,90.82z"/>
  <path class="fil0" d="M2029.6 24.55c0,13.56 -10.99,24.55 -24.55,24.55 -13.56,0 -24.55,-10.99 -24.55,-24.55 0,-13.56 10.99,-24.55 24.55,-24.55 13.55,0 24.55,10.99 24.55,24.55z"/>
  <path class="fil0" d="M2211.4 138.74c0,13.56 -10.99,24.55 -24.55,24.55 -13.56,0 -24.55,-10.99 -24.55,-24.55 0,-13.56 10.99,-24.55 24.55,-24.55 13.56,0 24.55,10.99 24.55,24.55z"/>
  <path class="fil0" d="M2233.07 154.24c60.78,-3.2 129.92,-18.79 136.05,-90.82 8.51,75.11 -75,102.03 -136.05,90.82z"/>
  <path class="fil0" d="M2533.99 154.24c-61.07,11.22 -144.57,-15.73 -136.05,-90.82 6.13,72.05 75.29,87.63 136.05,90.82z"/>
  <path class="fil0" d="M2408.96 24.55c0,13.56 -10.99,24.55 -24.55,24.55 -13.56,0 -24.55,-10.99 -24.55,-24.55 0,-13.56 10.99,-24.55 24.55,-24.55 13.55,0 24.55,10.99 24.55,24.55z"/>
  <path class="fil0" d="M2590.76 138.74c0,13.56 -10.99,24.55 -24.55,24.55 -13.56,0 -24.55,-10.99 -24.55,-24.55 0,-13.56 10.99,-24.55 24.55,-24.55 13.56,0 24.55,10.99 24.55,24.55z"/>
  <path class="fil0" d="M2601.93 154.24c60.78,-3.2 129.92,-18.79 136.05,-90.82 8.51,75.11 -75,102.03 -136.05,90.82z"/>
  <path class="fil0" d="M2902.84 154.24c-61.06,11.22 -144.57,-15.73 -136.05,-90.82 6.13,72.05 75.29,87.63 136.05,90.82z"/>
  <path class="fil0" d="M2777.81 24.55c0,13.56 -10.99,24.55 -24.55,24.55 -13.56,0 -24.55,-10.99 -24.55,-24.55 0,-13.56 10.99,-24.55 24.55,-24.55 13.56,0 24.55,10.99 24.55,24.55z"/>
  <path class="fil0" d="M2959.61 138.74c0,13.56 -10.99,24.55 -24.55,24.55 -13.56,0 -24.55,-10.99 -24.55,-24.55 0,-13.56 10.99,-24.55 24.55,-24.55 13.55,0 24.55,10.99 24.55,24.55z"/>
 </g>
</svg>
