<svg width="351" height="62" viewBox="0 0 351 62" fill="none" xmlns="http://www.w3.org/2000/svg">
<g clip-path="url(#clip0_93_217)">
<g filter="url(#filter0_d_93_217)">
<path fill-rule="evenodd" clip-rule="evenodd" d="M279.011 0.204825V4.5836C281.702 4.80741 281.794 9.23574 278.19 9.23574C276.193 9.23574 275.175 6.69356 276.446 5.30231C276.742 4.97803 277.241 4.62841 277.78 4.5836V0.204825H270.117V4.5836C272.808 4.80741 272.9 9.23574 269.296 9.23574C266.562 9.23574 266.103 4.81488 268.886 4.5836V0.204825H261.223V4.5836C263.914 4.80741 264.006 9.23574 260.402 9.23574C257.668 9.23574 257.209 4.81488 259.992 4.5836V0.204825H252.329V4.5836C254.973 4.80356 255.106 9.23574 251.508 9.23574C248.75 9.23574 248.328 4.81397 251.098 4.5836V0.204825H243.435V4.5836C246.079 4.80356 246.212 9.23574 242.614 9.23574C239.856 9.23574 239.434 4.81397 242.204 4.5836V0.204825C233.392 0.204825 234.537 -0.419972 234.541 2.1204C234.543 2.94139 234.541 3.76238 234.541 4.58338C237.203 4.80492 237.295 9.23552 233.72 9.23552C230.789 9.23552 230.606 4.80831 233.31 4.58338V0.204598L225.647 0.341506V4.58338C228.309 4.80492 228.401 9.23552 224.826 9.23552C221.895 9.23552 221.712 4.80831 224.416 4.58338V0.341506H216.753V4.58338C219.415 4.80492 219.507 9.23552 215.932 9.23552C213.001 9.23552 212.818 4.80831 215.522 4.58338V0.341506H207.859V4.58338C210.521 4.80492 210.613 9.23552 207.038 9.23552C204.119 9.23552 203.906 4.80967 206.628 4.58338V0.341506H197.734V4.58338C199.478 4.98957 200.248 7.09048 199.006 8.45549C197.548 10.0579 194.45 9.03299 194.45 7.04636C194.45 4.66982 196.502 4.91625 196.502 4.17288V0.478414H188.84V4.58338C190.584 4.98957 191.354 7.09048 190.112 8.45549C188.713 9.99292 185.556 9.14093 185.556 6.90945C185.556 4.77844 187.609 4.87168 187.609 4.17288V0.478414H179.536V4.58338C182.179 4.80333 182.313 9.23552 178.715 9.23552C175.98 9.23552 175.522 4.81465 178.304 4.58338V0.478414C169.568 0.478414 170.634 -0.124885 170.641 2.25708C170.644 3.03236 170.642 3.8081 170.642 4.58338C173.285 4.80333 173.419 9.23552 169.821 9.23552C167.062 9.23552 166.641 4.81374 169.41 4.58338V0.478414C168.542 0.478414 168.268 0.615321 167.358 0.615321H161.748V4.58338C164.409 4.80492 164.501 9.23552 160.927 9.23552C158.168 9.23552 157.747 4.81374 160.516 4.58338V0.615321H152.854V4.58338C155.515 4.80492 155.607 9.23552 152.033 9.23552C149.101 9.23552 148.918 4.80831 151.622 4.58338V0.615321C142.886 0.615321 143.952 0.0120226 143.959 2.39399C143.962 3.12378 143.96 3.85381 143.96 4.58338C146.621 4.80492 146.713 9.23552 143.139 9.23552C140.207 9.23552 140.024 4.80831 142.728 4.58338V0.752002H135.066V4.58338C137.727 4.80492 137.819 9.23552 134.245 9.23552C131.313 9.23552 131.13 4.80831 133.834 4.58338V0.752002H126.172V4.58338C128.833 4.80492 128.925 9.23552 125.351 9.23552C122.431 9.23552 122.218 4.80967 124.94 4.58338V0.752002C116.283 0.752002 117.264 0.172238 117.277 2.39354C117.281 3.12311 117.278 3.85358 117.278 4.58338C119.939 4.80492 120.031 9.23552 116.457 9.23552C113.537 9.23552 113.324 4.80967 116.046 4.58338V0.752002C107.389 0.752002 108.37 0.172238 108.383 2.39354C108.387 3.12311 108.384 3.85358 108.384 4.58338C111.045 4.80492 111.137 9.23552 107.563 9.23552C104.643 9.23552 104.43 4.80967 107.152 4.58338V0.752002H98.258V4.58338C98.7737 4.70354 99.1967 4.91082 99.568 5.32585C100.351 6.20024 100.286 7.62544 99.5305 8.45549C98.1387 9.98478 94.974 9.20248 94.974 6.90945C94.974 4.77844 97.0265 4.87168 97.0265 4.17288C97.0265 2.3838 97.3422 0.752002 96.616 0.752002H89.364V4.58338C89.88 4.70354 90.3027 4.91082 90.674 5.32585C91.4565 6.20024 91.3916 7.62544 90.6364 8.45549C89.245 9.98478 86.0803 9.20248 86.0803 6.90945C86.0803 4.77844 88.1327 4.87168 88.1327 4.17288C88.1327 2.3838 88.4484 0.752002 87.7222 0.752002H80.0597V4.58338C82.7216 4.80492 82.813 9.23552 79.2387 9.23552C76.3075 9.23552 76.1242 4.80831 78.8282 4.58338V0.752002H71.1657V4.58338C73.8274 4.80492 73.919 9.23552 70.3447 9.23552C67.4135 9.23552 67.2302 4.80831 69.9342 4.58338V0.752002H62.2717V4.58338C64.9336 4.80492 65.025 9.23552 61.4507 9.23552C58.5197 9.23552 58.3364 4.80831 61.0402 4.58338V0.615321H53.3777V4.58338C56.0396 4.80492 56.131 9.23552 52.5567 9.23552C49.6375 9.23552 49.4241 4.80967 52.1462 4.58338V0.615321H44.4837V4.58338C47.1455 4.80492 47.237 9.23552 43.6627 9.23552C40.7435 9.23552 40.5301 4.80967 43.2522 4.58338V0.615321H35.5896V4.58338C38.2515 4.80492 38.343 9.23552 34.7687 9.23552C31.8492 9.23552 31.6361 4.80967 34.3582 4.58338V0.615321C32.8243 0.258004 28.8988 0.478414 27.1061 0.478414C26.473 0.478414 26.6931 1.57073 26.6954 2.25708C26.6979 3.03236 26.6956 3.8081 26.6956 4.58338C29.3625 4.80514 29.4422 9.23552 25.8746 9.23552C22.9552 9.23552 22.7421 4.80967 25.4641 4.58338V0.478414H17.8016V4.58338C20.4685 4.80514 20.5481 9.23552 16.9806 9.23552C14.0612 9.23552 13.848 4.80967 16.5701 4.58338V0.478414H8.9076V4.58338C11.5745 4.80514 11.6541 9.23552 8.0866 9.23552C5.16742 9.23552 4.95402 4.80967 7.67611 4.58338V0.478414H2.20275C1.73092 0.478414 1.67299 0.579567 1.24485 0.615321L1.24666 51.108C1.25231 52.0957 0.841818 56.0285 1.04141 56.3867C1.24123 56.7456 2.27697 56.582 2.75151 56.5777C3.57137 56.5705 3.91602 56.7026 4.52859 56.7162V59.4528C5.21404 58.6643 6.26449 58.0844 7.40207 58.0844C7.86235 58.0844 7.96916 58.7374 8.81912 58.854C9.69329 58.9737 9.99562 58.2213 10.4124 58.2213C10.7863 58.2213 11.1816 58.7687 11.3703 58.7687C11.9653 58.7687 12.0809 58.6182 12.4584 58.6526C12.7768 58.6818 12.9795 58.8802 13.2859 59.0423C13.8587 58.8893 13.5344 58.8309 13.8743 58.7467L14.6079 58.7264C15.1105 58.7035 14.7166 58.6324 15.3407 58.7705C15.8931 58.8927 16.1098 58.8255 16.6609 58.6725C17.8159 58.3521 17.3723 58.9703 18.1646 58.5999C18.6303 58.3822 18.3983 58.3541 18.896 58.2213C19.4368 58.5073 19.593 58.8506 20.3191 58.7039C22.1646 58.331 21.6389 57.6779 23.9588 58.9054C25.8371 57.6476 25.0636 58.9054 26.5587 58.9054C27.1806 58.9054 27.3313 58.6671 27.3797 58.0844C28.3869 58.319 29.4021 58.6318 30.3901 58.6318C30.9819 58.6318 30.9416 58.3582 31.348 58.3582C31.7284 58.3582 31.7707 58.9056 33.1269 58.9056C33.7933 58.9056 33.9076 58.4951 34.0848 58.4951C34.9003 58.4951 35.3575 59.1792 35.8637 59.1792C36.0103 59.1792 37.3337 58.0124 37.3688 59.5897C37.9664 59.6395 38.2407 59.8633 38.8738 59.8633C39.4715 59.8633 39.7025 59.5978 40.1868 59.9094C40.6009 60.1758 40.6894 60.5598 41.3169 60.4939C42.0066 60.4213 41.7351 60.283 42.481 60.6277C42.9668 60.8522 43.4151 60.8214 44.0734 60.8214C43.9439 60.2812 43.7767 59.8635 44.4839 59.8635C45.2146 59.8635 44.6022 60.8214 45.989 60.8214C46.9767 60.8214 47.3494 59.5899 48.8624 59.5899C49.5764 59.5899 49.4913 59.7942 50.2209 59.5894C51.7499 59.1602 50.6782 58.4747 54.0629 58.4962C56.2018 58.5098 58.0205 58.0848 60.2194 58.0848C60.694 58.0848 61.2129 59.3163 62.6824 59.3163C63.7227 59.3163 64.4722 58.5245 65.295 58.2344C66.8994 57.6687 67.151 58.2217 68.566 58.2217C69.2055 58.2217 69.8441 57.928 70.3811 57.8474C75.1111 57.138 74.0745 58.7691 74.8604 58.7691C75.8398 58.7691 76.924 58.3586 78.2811 58.3586C79.8223 58.3586 80.3632 60.0006 81.7019 60.0006C83.1341 60.0006 83.2314 59.0226 84.8332 59.6109C86.5711 60.2493 85.6532 59.1595 87.8408 58.6139C88.1373 58.5399 88.008 58.5745 88.2307 58.4564C88.9596 58.0696 89.8236 58.1765 90.4269 57.5055C91.7313 56.0554 91.6475 57.264 93.1956 57.264C93.679 57.264 94.266 55.6275 96.0363 58.1179C96.4875 58.7526 96.5828 59.7234 97.1637 60.2742C98.6619 59.9253 98.0263 59.1844 100.353 59.4199C101.033 59.4887 100.831 59.35 101.285 59.3401C101.741 59.3299 102.203 59.5978 103.182 59.5924C104.699 59.5838 105.942 59.479 107.568 59.4589C108.372 59.4489 108.693 59.3095 109.614 59.3147C110.39 59.3192 111.166 59.3136 111.942 59.3174C112.846 59.3222 113.297 59.1742 113.995 59.1699C114.82 59.1649 115.507 59.5903 115.91 59.5903C116.588 59.5903 116.91 58.906 117.415 58.906C117.892 58.906 118.055 59.7304 119.598 59.7334C120.8 59.7356 121.661 59.5394 121.93 60.548C122.493 60.398 122.598 59.8639 123.299 59.8639C124.237 59.8639 125.349 61.0954 126.446 61.0954C128.671 61.0954 128.077 57.9031 131.736 59.7736C135.044 61.4647 134.582 58.9063 137.803 58.9063C139.856 58.9063 143.234 58.637 145.141 59.2303C146.979 59.8019 147.563 61.1606 149.195 59.4887C151.1 57.5363 150.412 58.7694 152.307 58.7694C153.262 58.7694 152.884 58.2638 153.662 57.9357C154.977 57.381 155.025 58.2846 157.175 56.7961C159.138 55.4367 159.751 56.5028 160.519 56.0416C160.977 55.7667 160.88 55.0751 161.611 55.0751C162.686 55.0751 163.361 55.8961 164.074 55.8961C164.998 55.8961 165.975 55.5689 166.659 55.6288C167.819 55.7307 167.825 56.5804 169.137 56.5804C170.065 56.5804 171.323 55.3489 172.695 55.3489C174.666 55.3489 176.724 59.1801 180.768 59.1801C187.884 59.1801 187.391 58.2321 195.405 58.9101C198.036 59.1328 197.994 59.4539 201.293 59.4539C204.321 59.4539 206.9 57.9325 209.751 59.8897C210.393 60.3303 211.142 60.889 211.555 61.5064C211.929 61.2559 212.036 60.9352 212.594 61.0106C213.729 61.164 213.769 61.9479 214.192 60.8594C214.283 60.6268 214.29 60.5367 214.429 60.2749C214.873 60.312 215.868 60.6594 216.207 60.8223C216.908 57.8146 219.271 58.6306 220.724 57.9502C223.318 56.7357 225.033 57.8121 227.838 57.8121C229.911 57.8121 232.151 55.4906 233.854 54.3768C234.654 53.8536 234.224 54.2543 234.817 54.2543C238.585 54.2543 237.267 51.5178 241.385 51.5178C244.052 51.5178 246.122 53.8407 248.3 55.0016C249.285 55.5268 249.177 56.281 250.192 56.6675C250.951 56.9567 251.293 56.887 252.123 57.0626C253.285 57.3086 253.007 58.2226 253.426 58.2226C254.161 58.2226 253.963 57.8726 254.794 58.073C255.124 58.1525 255.936 58.4962 256.162 58.4962C257.589 58.4962 258.289 57.5383 259.857 57.5383C260.864 57.5383 261.444 58.1685 262.182 58.4971C265.1 59.7967 267.221 58.6186 268.759 59.1722C269.502 59.4401 270.28 59.9078 271.295 59.811C275.085 59.4494 274.298 58.3903 280.096 58.9182C280.814 58.9836 281.345 59.1801 282.16 59.1801C283.393 59.1801 283.617 57.0955 285.75 58.4641C286.159 58.7261 286.344 59.0549 286.813 59.1801C286.916 58.7918 287.288 58.496 287.771 58.496C288.535 58.496 288.983 59.0459 289.45 59.4177C290.414 60.1857 290.547 59.5908 291.602 59.5908C291.989 59.5908 292.52 60.1923 293.052 60.3301C294.09 60.5983 295.846 60.6274 296.711 60.0472C297.665 59.4073 297.567 58.5005 298.991 59.4539C299.275 58.3885 300.22 59.2959 301.272 59.7725C301.473 59.8637 301.622 59.9332 301.822 60.0441C302.547 60.4453 302.918 60.8743 303.793 60.7089C305.924 60.3054 308.424 57.9155 313.378 59.5716C315.624 60.3224 313.895 60.0015 316.095 60.0015C316.837 60.0015 317.269 60.5489 318.011 60.5489C318.733 60.5489 319.081 59.9415 319.928 59.8628C320.774 59.784 321.537 60.0017 322.526 60.0017C326.02 60.0017 325.949 56.7839 335.128 58.6204C335.593 58.7135 335.918 58.7813 336.334 58.9198C337.465 59.2971 337.234 59.4654 338.729 59.2299C339.334 59.1348 339.629 59.2452 340.173 59.3283C341.78 59.5738 343.364 58.8185 345.682 59.4229C346.204 59.5589 346.743 59.8648 347.293 59.8648C348.723 59.8648 347.941 58.9687 349.893 60.2753C350.121 59.7999 350.259 58.4021 350.308 57.6802C350.35 57.0706 350.49 56.9717 350.425 56.3326C350.065 52.7346 350.85 49.2861 350.85 45.6344C350.85 34.1789 350.635 22.8713 350.576 11.4256C350.564 9.1355 350.815 5.96218 350.845 3.48472C350.853 2.79973 350.987 2.53474 350.987 1.84817L344.414 1.71669C343.668 1.70787 343.598 1.57435 342.914 1.57435C342.914 5.85628 342.593 3.64086 344.188 5.2265C345.836 6.86351 344.529 9.2371 342.094 9.2371C339.359 9.2371 338.901 4.81623 341.683 4.58496V1.4379C339.13 1.4379 336.127 0.753586 334.021 0.753586V4.58496C336.664 4.80492 336.798 9.2371 333.2 9.2371C330.465 9.2371 330.007 4.81623 332.789 4.58496V0.616905C330.755 0.616905 328.901 0.196904 326.902 0.209124C324.621 0.223155 325.127 -0.906729 325.127 4.58496C327.77 4.80492 327.904 9.2371 324.306 9.2371C321.547 9.2371 321.125 4.81533 323.895 4.58496V0.0695013H316.233V4.58496C318.894 4.8065 318.986 9.2371 315.412 9.2371C312.653 9.2371 312.231 4.81533 315.001 4.58496V0.0695013H307.339V4.58496C310 4.8065 310.092 9.2371 306.518 9.2371C303.586 9.2371 303.403 4.8099 306.107 4.58496V0.0695013H297.213V4.58496C298.957 4.99116 299.728 7.09207 298.485 8.45707C297.565 9.4686 295.69 9.48399 294.709 8.59398C293.385 7.39213 293.958 5.47362 295.348 4.77211C296.356 4.26295 295.982 4.15365 295.982 0.479998C295.982 0.164771 295.886 0.0695013 295.571 0.0695013H288.319V4.58496C290.063 4.99116 290.834 7.09207 289.591 8.45707C288.671 9.4686 286.796 9.48399 285.815 8.59398C285.523 8.32854 285.035 7.50324 285.035 7.04794C285.035 4.67141 287.088 4.91784 287.088 4.17447V0.479998C287.088 -0.246178 285.489 0.0695013 283.53 0.0695013C281.847 0.0695013 280.684 0.206183 279.015 0.206183L279.011 0.204825Z" fill="#F3F4F1"/>
</g>
<path d="M5.80762 11.7651C118.84 11.7651 231.875 11.7651 344.908 11.7651" stroke="#373435" stroke-opacity="0.25" stroke-width="0.75579" stroke-miterlimit="22.9256"/>
<path d="M5.80762 18.6736C118.84 18.6736 231.875 18.6736 344.908 18.6736" stroke="#373435" stroke-opacity="0.25" stroke-width="0.75579" stroke-miterlimit="22.9256"/>
<path d="M5.80762 25.6094C118.84 25.6094 231.875 25.6094 344.908 25.6094" stroke="#373435" stroke-opacity="0.25" stroke-width="0.75579" stroke-miterlimit="22.9256"/>
<path d="M5.80762 32.491C118.84 32.491 231.875 32.491 344.908 32.491" stroke="#373435" stroke-opacity="0.25" stroke-width="0.75579" stroke-miterlimit="22.9256"/>
<path d="M5.80762 39.427C118.84 39.427 231.875 39.427 344.908 39.427" stroke="#373435" stroke-opacity="0.25" stroke-width="0.75579" stroke-miterlimit="22.9256"/>
<path d="M5.80762 46.3625C118.84 46.3625 231.875 46.3625 344.908 46.3625" stroke="#373435" stroke-opacity="0.25" stroke-width="0.75579" stroke-miterlimit="22.9256"/>
<path d="M5.80762 53.2988C118.84 53.2988 231.875 53.2988 344.908 53.2988" stroke="#373435" stroke-opacity="0.25" stroke-width="0.75579" stroke-miterlimit="22.9256"/>
</g>
<defs>
<filter id="filter0_d_93_217" x="0.986633" y="-0.998779" width="359.001" height="69.5051" filterUnits="userSpaceOnUse" color-interpolation-filters="sRGB">
<feFlood flood-opacity="0" result="BackgroundImageFix"/>
<feColorMatrix in="SourceAlpha" type="matrix" values="0 0 0 0 0 0 0 0 0 0 0 0 0 0 0 0 0 0 127 0" result="hardAlpha"/>
<feOffset dx="5" dy="3"/>
<feGaussianBlur stdDeviation="2"/>
<feComposite in2="hardAlpha" operator="out"/>
<feColorMatrix type="matrix" values="0 0 0 0 0 0 0 0 0 0 0 0 0 0 0 0 0 0 0.25 0"/>
<feBlend mode="normal" in2="BackgroundImageFix" result="effect1_dropShadow_93_217"/>
<feBlend mode="normal" in="SourceGraphic" in2="effect1_dropShadow_93_217" result="shape"/>
</filter>
<clipPath id="clip0_93_217">
<rect width="350" height="61.5057" fill="white" transform="translate(0.984833 -0.000488281)"/>
</clipPath>
</defs>
</svg>
