<?xml version="1.0" encoding="UTF-8"?>
<!DOCTYPE svg PUBLIC "-//W3C//DTD SVG 1.1//EN" "http://www.w3.org/Graphics/SVG/1.1/DTD/svg11.dtd">
<!-- Creator: CorelDRAW 2021.5 -->
<svg xmlns="http://www.w3.org/2000/svg" xml:space="preserve" width="73.8188mm" height="111.643mm" version="1.1" style="shape-rendering:geometricPrecision; text-rendering:geometricPrecision; image-rendering:optimizeQuality; fill-rule:evenodd; clip-rule:evenodd"
viewBox="0 0 5020.12 7592.4"
 xmlns:xlink="http://www.w3.org/1999/xlink"
 xmlns:xodm="http://www.corel.com/coreldraw/odm/2003">
 <defs>
  <style type="text/css">
   <![CDATA[
    .fil0 {fill:#372218}
   ]]>
  </style>
 </defs>
 <g id="Camada_x0020_1">
  <metadata id="CorelCorpID_0Corel-Layer"/>
  <path class="fil0" d="M2162.43 7343l-1958.29 -4125.08 0.17 0c-131.38,-279.8 -204.3,-588.19 -204.3,-912.27 0,-1273.38 1123.79,-2305.66 2510.06,-2305.66 1386.27,0 2510.06,1032.28 2510.06,2305.66 0,324.06 -72.92,632.43 -204.29,912.22l0.18 0 -1963.07 4140.99 -0.03 0.01c-44.55,135.13 -181.18,233.52 -342.85,233.52 -167.87,0 -308.75,-106.08 -347.56,-249.25l-0.07 -0.15zm347.63 -6201.54c739.9,0 1339.7,599.81 1339.7,1339.7 0,739.9 -599.81,1339.7 -1339.7,1339.7 -739.9,0 -1339.7,-599.81 -1339.7,-1339.7 0,-739.9 599.81,-1339.7 1339.7,-1339.7z"/>
 </g>
</svg>
