<svg width="57" height="26" viewBox="0 0 57 26" fill="none" xmlns="http://www.w3.org/2000/svg">
<rect width="57" height="26" rx="3" fill="#F3EDE7" fill-opacity="0.75"/>
<path d="M20.6337 18H19.3137V12.7C19.3137 11.52 18.6937 10.8 17.6737 10.8C16.3737 10.8 15.3537 11.84 15.3537 13.06V18H14.0537V12.7C14.0537 11.52 13.4937 10.8 12.3737 10.8C11.0937 10.8 10.0737 11.86 10.0737 13.08V18H8.77367V9.84H10.0737V10.94C10.5537 10.16 11.5137 9.6 12.5537 9.6C13.8937 9.6 14.6737 10.18 15.0737 11.08C15.6737 10.18 16.8337 9.6 17.8737 9.6C19.8137 9.6 20.6337 10.9 20.6337 12.54V18ZM30.3929 13.96H23.7129C23.7529 15.7 24.8129 17.04 26.6129 17.04C27.8329 17.04 28.6529 16.6 29.3929 15.92L30.2329 16.74C29.4729 17.52 28.3129 18.24 26.5729 18.24C23.9729 18.24 22.3929 16.34 22.3929 13.82C22.3929 11.58 23.9529 9.6 26.4729 9.6C29.0129 9.6 30.3529 11.62 30.3929 13.96ZM28.9329 12.92C28.7329 11.82 27.8729 10.78 26.4129 10.78C24.8929 10.78 23.9929 11.72 23.7729 12.92H28.9329ZM39.1298 18H37.8298V12.8C37.8298 11.64 37.1698 10.8 35.9098 10.8C34.3898 10.8 33.5698 12.14 33.5698 13.28V18H32.2698V9.84H33.5698V11.02C34.0698 10.14 35.0298 9.6 36.1098 9.6C37.9498 9.6 39.1298 10.78 39.1298 12.58V18ZM48.2285 18H46.9285V16.82C46.4485 17.66 45.5085 18.24 44.3685 18.24C42.4485 18.24 41.3685 17.08 41.3685 15.26V9.84H42.6685V15.04C42.6685 16.16 43.3485 17.06 44.5885 17.06C46.0485 17.06 46.9285 15.7 46.9285 14.56V9.84H48.2285V18Z" fill="#462C1F"/>
<rect x="0.5" y="0.5" width="56" height="25" rx="2.5" stroke="#462C1F" stroke-opacity="0.9"/>
</svg>
