<?xml version="1.0" encoding="UTF-8"?>
<!DOCTYPE svg PUBLIC "-//W3C//DTD SVG 1.1//EN" "http://www.w3.org/Graphics/SVG/1.1/DTD/svg11.dtd">
<!-- Creator: CorelDRAW 2021.5 -->
<svg xmlns="http://www.w3.org/2000/svg" xml:space="preserve" width="135.797mm" height="135.705mm" version="1.1" style="shape-rendering:geometricPrecision; text-rendering:geometricPrecision; image-rendering:optimizeQuality; fill-rule:evenodd; clip-rule:evenodd"
viewBox="0 0 715.9 715.42"
 xmlns:xlink="http://www.w3.org/1999/xlink"
 xmlns:xodm="http://www.corel.com/coreldraw/odm/2003">
 <defs>
  <style type="text/css">
   <![CDATA[
    .fil1 {fill:rgba(70, 44, 31, 0.9)}
    .fil2 {fill:rgba(70, 44, 31, 0.9)}
    .fil0 {fill:#F3EDE7}
    .fil3 {fill:#F3EDE7}
   ]]>
  </style>
 </defs>
 <g id="Camada_x0020_1">
  <metadata id="CorelCorpID_0Corel-Layer"/>
  <path class="fil0" d="M339.27 0.57c-190.72,10.72 -350.61,172.51 -338.63,377.31 11.15,190.55 173.12,347.71 377.09,337.03 190.13,-9.96 348.52,-173.79 337.65,-376.58 -10.18,-189.86 -173.79,-349.12 -376.11,-337.75zm-92.77 127.38c-62.82,7.01 -110.1,52.93 -119.27,113.18 -4.55,29.9 -1.54,82.11 -1.54,114.52 0,34.74 -2.81,83.57 0.86,116.66 6.83,61.52 54.55,109.35 113.91,117.69 30.6,4.3 81.4,1.36 114.33,1.36 34.58,0 83.25,2.76 115.96,-0.78 61.38,-6.64 109.55,-54.35 118.02,-113.74 3.72,-26.06 1.39,-133.11 1.39,-172.81 0,-17.88 1.15,-40.15 -0.77,-57.4 -6.84,-61.5 -53.84,-109.06 -113.61,-118.01 -29.63,-4.44 -81.82,-1.43 -114.02,-1.43 -34.04,0 -83.26,-2.81 -115.27,0.76zm-2.9 44.65c-27.01,4.52 -46.84,19.33 -58.36,35.83 -17.07,24.46 -16.58,44.04 -16.58,78.86 0,31.18 -2.03,169.88 1.42,189.11 4.93,27.46 19.59,44.69 36.36,56.9 23.76,17.3 44.89,16.28 78.6,16.28 30.95,0 169.53,1.96 188.48,-1.28 26.78,-4.58 46.39,-20.59 57.31,-36.14 17.27,-24.61 16.42,-44.67 16.42,-78.38 0,-31.27 1.91,-168.83 -1.22,-188.23 -4.47,-27.71 -20.36,-46.02 -36,-57.68 -22.28,-16.6 -46.31,-16.63 -78.5,-16.63 -31.45,0 -168.13,-1.95 -187.92,1.37zm101.52 68.09c-62.39,6.99 -115.35,62.28 -106.94,133.83 7.24,61.64 62.96,113.82 133.85,105.64 61.66,-7.11 113.86,-62.95 105.76,-133.32 -7.1,-61.67 -62.53,-114.01 -132.67,-106.15z"/>
  <path class="fil1" d="M246.49 127.95c-62.82,7.01 -110.1,52.93 -119.27,113.18 -4.55,29.9 -1.54,82.11 -1.54,114.52 0,34.74 -2.81,83.57 0.86,116.66 6.83,61.52 54.55,109.35 113.91,117.69 30.6,4.3 81.4,1.36 114.33,1.36 34.58,0 83.25,2.76 115.96,-0.78 61.38,-6.64 109.55,-54.35 118.02,-113.74 3.72,-26.06 1.39,-133.11 1.39,-172.81 0,-17.88 1.15,-40.15 -0.77,-57.4 -6.84,-61.5 -53.84,-109.06 -113.61,-118.01 -29.63,-4.44 -81.82,-1.43 -114.02,-1.43 -34.04,0 -83.26,-2.81 -115.27,0.76zm-2.9 44.65c-27.01,4.52 -46.84,19.33 -58.36,35.83 -17.07,24.46 -16.58,44.04 -16.58,78.86 0,31.18 -2.03,169.88 1.42,189.11 4.93,27.46 19.59,44.69 36.36,56.9 23.76,17.3 44.89,16.28 78.6,16.28 30.95,0 169.53,1.96 188.48,-1.28 26.78,-4.58 46.39,-20.59 57.31,-36.14 17.27,-24.61 16.42,-44.67 16.42,-78.38 0,-31.27 1.91,-168.83 -1.22,-188.23 -4.47,-27.71 -20.36,-46.02 -36,-57.68 -22.28,-16.6 -46.31,-16.63 -78.5,-16.63 -31.45,0 -168.13,-1.95 -187.92,1.37z"/>
  <path class="fil2" d="M345.12 240.69c-62.39,6.99 -115.35,62.28 -106.94,133.83 7.24,61.64 62.96,113.82 133.85,105.64 61.66,-7.11 113.86,-62.95 105.76,-133.32 -7.1,-61.67 -62.53,-114.01 -132.67,-106.15z"/>
  <path class="fil3" d="M342.75 284.3c-38.34,7.84 -71.01,44.73 -61,92.74 7.77,37.24 46.07,69.3 92.65,59.61 36.72,-7.64 69.67,-45.4 59.87,-92.1 -7.77,-37.02 -44.58,-69.85 -91.52,-60.25z"/>
  <path class="fil2" d="M474.58 208.54c-35.05,10.69 -20.99,64.38 15.94,53.98 35.23,-9.92 19.77,-64.87 -15.94,-53.98z"/>
 </g>
</svg>
